<?xml version="1.0" encoding="UTF-8" standalone="no"?>
<!DOCTYPE svg PUBLIC "-//W3C//DTD SVG 1.1//EN"
 "http://www.w3.org/Graphics/SVG/1.1/DTD/svg11.dtd">
<!-- Generated by graphviz version 2.47.3 (0)
 -->
<!-- Title: protodot Pages: 1 -->
<svg width="1240pt" height="553pt"
 viewBox="0.00 0.00 1240.00 553.00" xmlns="http://www.w3.org/2000/svg" xmlns:xlink="http://www.w3.org/1999/xlink">
<g id="graph0" class="graph" transform="scale(1 1) rotate(0) translate(4 549)">
<title>protodot</title>
<g id="a_graph0"><a xlink:title="proto">
<text text-anchor="middle" x="616" y="-7.8" font-family="Times,serif" font-size="14.00">proto</text>
</a>
</g>
<g id="clust1" class="cluster">
<title>cluster_dfe805b7589f</title>
<g id="a_clust1"><a xlink:title="proto">
<polygon fill="#caff70" stroke="black" points="743.5,-56.5 743.5,-195.5 849.5,-195.5 849.5,-56.5 743.5,-56.5"/>
<text text-anchor="middle" x="796.5" y="-180.3" font-family="Times,serif" font-size="14.00">proto</text>
</a>
</g>
</g>
<!-- Node_Ja_102 -->
<g id="node1" class="node">
<title>Node_Ja_102</title>
<g id="a_node1"><a xlink:title="proto.Port">
<polygon fill="#fffaf0" stroke="transparent" points="895,-87.5 895,-179.5 1056,-179.5 1056,-87.5 895,-87.5"/>
<polygon fill="#e31a1c" stroke="transparent" points="896.5,-163.5 896.5,-178.5 1055.5,-178.5 1055.5,-163.5 896.5,-163.5"/>
<text text-anchor="start" x="1028.5" y="-169.5" font-family="Ubuntu" font-weight="bold" font-size="10.00">Port</text>
<text text-anchor="start" x="902.5" y="-153.5" font-family="Ubuntu" font-size="10.00">1</text>
<text text-anchor="start" x="913.5" y="-153.5" font-family="Ubuntu" font-size="10.00">port_id</text>
<polygon fill="#a6cee3" stroke="transparent" points="984.5,-148.5 984.5,-163.5 1055.5,-163.5 1055.5,-148.5 984.5,-148.5"/>
<text text-anchor="start" x="1025.5" y="-154.5" font-family="Ubuntu" font-style="italic" font-size="10.00">string</text>
<text text-anchor="start" x="902.5" y="-138.5" font-family="Ubuntu" font-size="10.00">2</text>
<text text-anchor="start" x="913.5" y="-138.5" font-family="Ubuntu" font-size="10.00">protocol</text>
<polygon fill="#a6cee3" stroke="transparent" points="984.5,-133.5 984.5,-148.5 1055.5,-148.5 1055.5,-133.5 984.5,-133.5"/>
<text text-anchor="start" x="1025.5" y="-139.5" font-family="Ubuntu" font-style="italic" font-size="10.00">string</text>
<text text-anchor="start" x="902.5" y="-123.5" font-family="Ubuntu" font-size="10.00">3</text>
<text text-anchor="start" x="913.5" y="-123.5" font-family="Ubuntu" font-size="10.00">state</text>
<polygon fill="#a6cee3" stroke="transparent" points="984.5,-118.5 984.5,-133.5 1055.5,-133.5 1055.5,-118.5 984.5,-118.5"/>
<text text-anchor="start" x="1025.5" y="-124.5" font-family="Ubuntu" font-style="italic" font-size="10.00">string</text>
<text text-anchor="start" x="902.5" y="-108.5" font-family="Ubuntu" font-size="10.00">4</text>
<text text-anchor="start" x="913.5" y="-108.5" font-family="Ubuntu" font-size="10.00">service_name</text>
<polygon fill="#a6cee3" stroke="transparent" points="984.5,-103.5 984.5,-118.5 1055.5,-118.5 1055.5,-103.5 984.5,-103.5"/>
<text text-anchor="start" x="1025.5" y="-109.5" font-family="Ubuntu" font-style="italic" font-size="10.00">string</text>
<text text-anchor="start" x="902.5" y="-93.5" font-family="Ubuntu" font-size="10.00">5</text>
<text text-anchor="start" x="913.5" y="-93.5" font-family="Ubuntu" font-size="10.00">version</text>
<polygon fill="#fb9a99" stroke="transparent" points="984.5,-88.5 984.5,-103.5 1055.5,-103.5 1055.5,-88.5 984.5,-88.5"/>
<text text-anchor="start" x="986.5" y="-94.5" font-family="Ubuntu" font-weight="bold" font-size="10.00">PortVersion</text>
<polygon fill="none" stroke="black" points="895,-87.5 895,-179.5 1056,-179.5 1056,-87.5 895,-87.5"/>
</a>
</g>
</g>
<!-- Node_Ja_101 -->
<g id="node6" class="node">
<title>Node_Ja_101</title>
<g id="a_node6"><a xlink:title="proto.PortVersion">
<polygon fill="#fffaf0" stroke="transparent" points="1108,-27 1108,-104 1224,-104 1224,-27 1108,-27"/>
<polygon fill="#e31a1c" stroke="transparent" points="1109,-87.5 1109,-102.5 1223,-102.5 1223,-87.5 1109,-87.5"/>
<text text-anchor="start" x="1154" y="-93.5" font-family="Ubuntu" font-weight="bold" font-size="10.00">PortVersion</text>
<text text-anchor="start" x="1115" y="-77.5" font-family="Ubuntu" font-size="10.00">1</text>
<text text-anchor="start" x="1126" y="-77.5" font-family="Ubuntu" font-size="10.00">low_version</text>
<polygon fill="#a6cee3" stroke="transparent" points="1191,-72.5 1191,-87.5 1223,-87.5 1223,-72.5 1191,-72.5"/>
<text text-anchor="start" x="1193" y="-78.5" font-family="Ubuntu" font-style="italic" font-size="10.00">string</text>
<text text-anchor="start" x="1115" y="-62.5" font-family="Ubuntu" font-size="10.00">2</text>
<text text-anchor="start" x="1126" y="-62.5" font-family="Ubuntu" font-size="10.00">high_version</text>
<polygon fill="#a6cee3" stroke="transparent" points="1191,-57.5 1191,-72.5 1223,-72.5 1223,-57.5 1191,-57.5"/>
<text text-anchor="start" x="1193" y="-63.5" font-family="Ubuntu" font-style="italic" font-size="10.00">string</text>
<text text-anchor="start" x="1115" y="-47.5" font-family="Ubuntu" font-size="10.00">3</text>
<text text-anchor="start" x="1126" y="-47.5" font-family="Ubuntu" font-size="10.00">extra_infos</text>
<polygon fill="#a6cee3" stroke="transparent" points="1191,-42.5 1191,-57.5 1223,-57.5 1223,-42.5 1191,-42.5"/>
<text text-anchor="start" x="1193" y="-48.5" font-family="Ubuntu" font-style="italic" font-size="10.00">string</text>
<text text-anchor="start" x="1115" y="-32.5" font-family="Ubuntu" font-size="10.00">4</text>
<text text-anchor="start" x="1126" y="-32.5" font-family="Ubuntu" font-size="10.00">product</text>
<polygon fill="#a6cee3" stroke="transparent" points="1191,-27.5 1191,-42.5 1223,-42.5 1223,-27.5 1191,-27.5"/>
<text text-anchor="start" x="1193" y="-33.5" font-family="Ubuntu" font-style="italic" font-size="10.00">string</text>
<polygon fill="none" stroke="black" points="1108,-27 1108,-104 1224,-104 1224,-27 1108,-27"/>
</a>
</g>
</g>
<!-- Node_Ja_102&#45;&gt;Node_Ja_101 -->
<g id="edge13" class="edge">
<title>Node_Ja_102:e&#45;&gt;Node_Ja_101:header</title>
<g id="a_edge13"><a xlink:title="Ja_102 &#45;&#45;&gt; Ja_101">
<path fill="none" stroke="#000000" d="M1056.5,-95.5C1075.63,-95.5 1082.77,-95.5 1097.97,-95.5"/>
<polygon fill="#000000" stroke="#000000" points="1098,-99 1108,-95.5 1098,-92 1098,-99"/>
</a>
</g>
</g>
<!-- Node_Ja_106 -->
<g id="node2" class="node">
<title>Node_Ja_106</title>
<g id="a_node2"><a xlink:title="proto.ParamsScannerRequest">
<polygon fill="#fffaf0" stroke="transparent" points="278,-314 278,-541 465,-541 465,-314 278,-314"/>
<polygon fill="#e31a1c" stroke="transparent" points="279.5,-524.5 279.5,-539.5 464.5,-539.5 464.5,-524.5 279.5,-524.5"/>
<text text-anchor="start" x="328.5" y="-530.5" font-family="Ubuntu" font-weight="bold" font-size="10.00">ParamsScannerRequest</text>
<text text-anchor="start" x="291.5" y="-514.5" font-family="Ubuntu" font-size="10.00">1</text>
<text text-anchor="start" x="302.5" y="-514.5" font-family="Ubuntu" font-size="10.00">hosts</text>
<polygon fill="#a6cee3" stroke="transparent" points="432.5,-509.5 432.5,-524.5 464.5,-524.5 464.5,-509.5 432.5,-509.5"/>
<text text-anchor="start" x="434.5" y="-515.5" font-family="Ubuntu" font-style="italic" font-size="10.00">string</text>
<text text-anchor="start" x="291.5" y="-499.5" font-family="Ubuntu" font-size="10.00">2</text>
<text text-anchor="start" x="302.5" y="-499.5" font-family="Ubuntu" font-size="10.00">ports</text>
<polygon fill="#a6cee3" stroke="transparent" points="432.5,-494.5 432.5,-509.5 464.5,-509.5 464.5,-494.5 432.5,-494.5"/>
<text text-anchor="start" x="434.5" y="-500.5" font-family="Ubuntu" font-style="italic" font-size="10.00">string</text>
<text text-anchor="start" x="291.5" y="-484.5" font-family="Ubuntu" font-size="10.00">3</text>
<text text-anchor="start" x="302.5" y="-484.5" font-family="Ubuntu" font-size="10.00">with_aggressive_scan</text>
<polygon fill="#a6cee3" stroke="transparent" points="432.5,-479.5 432.5,-494.5 464.5,-494.5 464.5,-479.5 432.5,-479.5"/>
<text text-anchor="start" x="440.5" y="-485.5" font-family="Ubuntu" font-style="italic" font-size="10.00">bool</text>
<text text-anchor="start" x="291.5" y="-469.5" font-family="Ubuntu" font-size="10.00">4</text>
<text text-anchor="start" x="302.5" y="-469.5" font-family="Ubuntu" font-size="10.00">with_syn_scan</text>
<polygon fill="#a6cee3" stroke="transparent" points="432.5,-464.5 432.5,-479.5 464.5,-479.5 464.5,-464.5 432.5,-464.5"/>
<text text-anchor="start" x="440.5" y="-470.5" font-family="Ubuntu" font-style="italic" font-size="10.00">bool</text>
<text text-anchor="start" x="291.5" y="-454.5" font-family="Ubuntu" font-size="10.00">5</text>
<text text-anchor="start" x="302.5" y="-454.5" font-family="Ubuntu" font-size="10.00">with_null_scan</text>
<polygon fill="#a6cee3" stroke="transparent" points="432.5,-449.5 432.5,-464.5 464.5,-464.5 464.5,-449.5 432.5,-449.5"/>
<text text-anchor="start" x="440.5" y="-455.5" font-family="Ubuntu" font-style="italic" font-size="10.00">bool</text>
<text text-anchor="start" x="291.5" y="-439.5" font-family="Ubuntu" font-size="10.00">6</text>
<text text-anchor="start" x="302.5" y="-439.5" font-family="Ubuntu" font-size="10.00">service_version_detection</text>
<polygon fill="#a6cee3" stroke="transparent" points="432.5,-434.5 432.5,-449.5 464.5,-449.5 464.5,-434.5 432.5,-434.5"/>
<text text-anchor="start" x="440.5" y="-440.5" font-family="Ubuntu" font-style="italic" font-size="10.00">bool</text>
<text text-anchor="start" x="291.5" y="-424.5" font-family="Ubuntu" font-size="10.00">7</text>
<text text-anchor="start" x="302.5" y="-424.5" font-family="Ubuntu" font-size="10.00">os_detection</text>
<polygon fill="#a6cee3" stroke="transparent" points="432.5,-419.5 432.5,-434.5 464.5,-434.5 464.5,-419.5 432.5,-419.5"/>
<text text-anchor="start" x="440.5" y="-425.5" font-family="Ubuntu" font-style="italic" font-size="10.00">bool</text>
<text text-anchor="start" x="291.5" y="-409.5" font-family="Ubuntu" font-size="10.00">8</text>
<text text-anchor="start" x="302.5" y="-409.5" font-family="Ubuntu" font-size="10.00">service_default_scripts</text>
<polygon fill="#a6cee3" stroke="transparent" points="432.5,-404.5 432.5,-419.5 464.5,-419.5 464.5,-404.5 432.5,-404.5"/>
<text text-anchor="start" x="440.5" y="-410.5" font-family="Ubuntu" font-style="italic" font-size="10.00">bool</text>
<text text-anchor="start" x="291.5" y="-394.5" font-family="Ubuntu" font-size="10.00">9</text>
<text text-anchor="start" x="302.5" y="-394.5" font-family="Ubuntu" font-size="10.00">timeout</text>
<polygon fill="#a6cee3" stroke="transparent" points="432.5,-389.5 432.5,-404.5 464.5,-404.5 464.5,-389.5 432.5,-389.5"/>
<text text-anchor="start" x="437.5" y="-395.5" font-family="Ubuntu" font-style="italic" font-size="10.00">int32</text>
<text text-anchor="start" x="285.5" y="-379.5" font-family="Ubuntu" font-size="10.00">10</text>
<text text-anchor="start" x="302.5" y="-379.5" font-family="Ubuntu" font-size="10.00">ping_only</text>
<polygon fill="#a6cee3" stroke="transparent" points="432.5,-374.5 432.5,-389.5 464.5,-389.5 464.5,-374.5 432.5,-374.5"/>
<text text-anchor="start" x="440.5" y="-380.5" font-family="Ubuntu" font-style="italic" font-size="10.00">bool</text>
<text text-anchor="start" x="285.5" y="-364.5" font-family="Ubuntu" font-size="10.00">11</text>
<text text-anchor="start" x="302.5" y="-364.5" font-family="Ubuntu" font-size="10.00">retention_time</text>
<polygon fill="#a6cee3" stroke="transparent" points="432.5,-359.5 432.5,-374.5 464.5,-374.5 464.5,-359.5 432.5,-359.5"/>
<text text-anchor="start" x="437.5" y="-365.5" font-family="Ubuntu" font-style="italic" font-size="10.00">int32</text>
<text text-anchor="start" x="285.5" y="-349.5" font-family="Ubuntu" font-size="10.00">12</text>
<text text-anchor="start" x="302.5" y="-349.5" font-family="Ubuntu" font-size="10.00">fast_mode</text>
<polygon fill="#a6cee3" stroke="transparent" points="432.5,-344.5 432.5,-359.5 464.5,-359.5 464.5,-344.5 432.5,-344.5"/>
<text text-anchor="start" x="440.5" y="-350.5" font-family="Ubuntu" font-style="italic" font-size="10.00">bool</text>
<text text-anchor="start" x="285.5" y="-334.5" font-family="Ubuntu" font-size="10.00">13</text>
<text text-anchor="start" x="302.5" y="-334.5" font-family="Ubuntu" font-size="10.00">key</text>
<polygon fill="#a6cee3" stroke="transparent" points="432.5,-329.5 432.5,-344.5 464.5,-344.5 464.5,-329.5 432.5,-329.5"/>
<text text-anchor="start" x="434.5" y="-335.5" font-family="Ubuntu" font-style="italic" font-size="10.00">string</text>
<text text-anchor="start" x="285.5" y="-319.5" font-family="Ubuntu" font-size="10.00">14</text>
<text text-anchor="start" x="302.5" y="-319.5" font-family="Ubuntu" font-size="10.00">defer_duration</text>
<polygon fill="#a6cee3" stroke="transparent" points="432.5,-314.5 432.5,-329.5 464.5,-329.5 464.5,-314.5 432.5,-314.5"/>
<text text-anchor="start" x="437.5" y="-320.5" font-family="Ubuntu" font-style="italic" font-size="10.00">int64</text>
<polygon fill="none" stroke="black" points="278,-314 278,-541 465,-541 465,-314 278,-314"/>
</a>
</g>
</g>
<!-- Node_Ja_107 -->
<g id="node3" class="node">
<title>Node_Ja_107</title>
<g id="a_node3"><a xlink:title="proto.GetScannerRequest">
<polygon fill="#fffaf0" stroke="transparent" points="312.5,-152.5 312.5,-184.5 430.5,-184.5 430.5,-152.5 312.5,-152.5"/>
<polygon fill="#e31a1c" stroke="transparent" points="313.5,-168.5 313.5,-183.5 429.5,-183.5 429.5,-168.5 313.5,-168.5"/>
<text text-anchor="start" x="315.5" y="-174.5" font-family="Ubuntu" font-weight="bold" font-size="10.00">GetScannerRequest</text>
<text text-anchor="start" x="354.5" y="-158.5" font-family="Ubuntu" font-size="10.00">1</text>
<text text-anchor="start" x="365.5" y="-158.5" font-family="Ubuntu" font-size="10.00">key</text>
<polygon fill="#a6cee3" stroke="transparent" points="391.5,-153.5 391.5,-168.5 429.5,-168.5 429.5,-153.5 391.5,-153.5"/>
<text text-anchor="start" x="399.5" y="-159.5" font-family="Ubuntu" font-style="italic" font-size="10.00">string</text>
<polygon fill="none" stroke="black" points="312.5,-152.5 312.5,-184.5 430.5,-184.5 430.5,-152.5 312.5,-152.5"/>
</a>
</g>
</g>
<!-- Node_Ja_100 -->
<g id="node4" class="node">
<title>Node_Ja_100</title>
<g id="a_node4"><a xlink:title="proto.Host">
<polygon fill="#fffaf0" stroke="transparent" points="922.5,-206 922.5,-283 1028.5,-283 1028.5,-206 922.5,-206"/>
<polygon fill="#e31a1c" stroke="transparent" points="923.5,-266.5 923.5,-281.5 1027.5,-281.5 1027.5,-266.5 923.5,-266.5"/>
<text text-anchor="start" x="999.5" y="-272.5" font-family="Ubuntu" font-weight="bold" font-size="10.00">Host</text>
<text text-anchor="start" x="929.5" y="-256.5" font-family="Ubuntu" font-size="10.00">1</text>
<text text-anchor="start" x="940.5" y="-256.5" font-family="Ubuntu" font-size="10.00">address</text>
<polygon fill="#a6cee3" stroke="transparent" points="995.5,-251.5 995.5,-266.5 1027.5,-266.5 1027.5,-251.5 995.5,-251.5"/>
<text text-anchor="start" x="997.5" y="-257.5" font-family="Ubuntu" font-style="italic" font-size="10.00">string</text>
<text text-anchor="start" x="929.5" y="-241.5" font-family="Ubuntu" font-size="10.00">2</text>
<text text-anchor="start" x="940.5" y="-241.5" font-family="Ubuntu" font-size="10.00">os_version</text>
<polygon fill="#a6cee3" stroke="transparent" points="995.5,-236.5 995.5,-251.5 1027.5,-251.5 1027.5,-236.5 995.5,-236.5"/>
<text text-anchor="start" x="997.5" y="-242.5" font-family="Ubuntu" font-style="italic" font-size="10.00">string</text>
<text text-anchor="start" x="929.5" y="-226.5" font-family="Ubuntu" font-size="10.00">3</text>
<text text-anchor="start" x="940.5" y="-226.5" font-family="Ubuntu" font-size="10.00">state</text>
<polygon fill="#a6cee3" stroke="transparent" points="995.5,-221.5 995.5,-236.5 1027.5,-236.5 1027.5,-221.5 995.5,-221.5"/>
<text text-anchor="start" x="997.5" y="-227.5" font-family="Ubuntu" font-style="italic" font-size="10.00">string</text>
<text text-anchor="start" x="929.5" y="-211.5" font-family="Ubuntu" font-size="10.00">4</text>
<text text-anchor="start" x="940.5" y="-211.5" font-family="Ubuntu" font-size="10.00">fqdn</text>
<polygon fill="#a6cee3" stroke="transparent" points="995.5,-206.5 995.5,-221.5 1027.5,-221.5 1027.5,-206.5 995.5,-206.5"/>
<text text-anchor="start" x="997.5" y="-212.5" font-family="Ubuntu" font-style="italic" font-size="10.00">string</text>
<polygon fill="none" stroke="black" points="922.5,-206 922.5,-283 1028.5,-283 1028.5,-206 922.5,-206"/>
</a>
</g>
</g>
<!-- Node_Ja_109 -->
<g id="node5" class="node">
<title>Node_Ja_109</title>
<g id="a_node5"><a xlink:title="ScannerService">
<polygon fill="#ffd700" stroke="transparent" points="8,-227 8,-364 226,-364 226,-227 8,-227"/>
<polygon fill="#ff7f50" stroke="transparent" points="9,-347.5 9,-362.5 225,-362.5 225,-347.5 9,-347.5"/>
<text text-anchor="start" x="134" y="-353.5" font-family="Ubuntu" font-weight="bold" font-size="10.00">ScannerService</text>
<text text-anchor="start" x="11" y="-338.5" font-family="Ubuntu" font-weight="bold" font-size="10.00">StartAsyncScan</text>
<text text-anchor="start" x="108" y="-337.5" font-family="Ubuntu" font-size="10.00">ParamsScannerRequest</text>
<polygon fill="#ff7f50" stroke="transparent" points="102,-317.5 102,-332.5 106,-332.5 106,-317.5 102,-317.5"/>
<polygon fill="#ff7f50" stroke="transparent" points="106,-317.5 106,-332.5 225,-332.5 225,-317.5 106,-317.5"/>
<text text-anchor="start" x="144" y="-322.5" font-family="Ubuntu" font-size="10.00">ServerResponse</text>
<text text-anchor="start" x="11" y="-308.5" font-family="Ubuntu" font-weight="bold" font-size="10.00">StartScan</text>
<text text-anchor="start" x="108" y="-307.5" font-family="Ubuntu" font-size="10.00">ParamsScannerRequest</text>
<polygon fill="#ff7f50" stroke="transparent" points="102,-287.5 102,-302.5 106,-302.5 106,-287.5 102,-287.5"/>
<polygon fill="#ff7f50" stroke="transparent" points="106,-287.5 106,-302.5 225,-302.5 225,-287.5 106,-287.5"/>
<text text-anchor="start" x="144" y="-292.5" font-family="Ubuntu" font-size="10.00">ServerResponse</text>
<text text-anchor="start" x="11" y="-278.5" font-family="Ubuntu" font-weight="bold" font-size="10.00">GetScan</text>
<text text-anchor="start" x="126" y="-277.5" font-family="Ubuntu" font-size="10.00">GetScannerRequest</text>
<polygon fill="#ff7f50" stroke="transparent" points="102,-257.5 102,-272.5 106,-272.5 106,-257.5 102,-257.5"/>
<polygon fill="#ff7f50" stroke="transparent" points="106,-257.5 106,-272.5 225,-272.5 225,-257.5 106,-257.5"/>
<text text-anchor="start" x="144" y="-262.5" font-family="Ubuntu" font-size="10.00">ServerResponse</text>
<text text-anchor="start" x="11" y="-248.5" font-family="Ubuntu" font-weight="bold" font-size="10.00">DeleteScan</text>
<text text-anchor="start" x="126" y="-247.5" font-family="Ubuntu" font-size="10.00">GetScannerRequest</text>
<polygon fill="#ff7f50" stroke="transparent" points="102,-227.5 102,-242.5 106,-242.5 106,-227.5 102,-227.5"/>
<polygon fill="#ff7f50" stroke="transparent" points="106,-227.5 106,-242.5 225,-242.5 225,-227.5 106,-227.5"/>
<text text-anchor="start" x="144" y="-232.5" font-family="Ubuntu" font-size="10.00">ServerResponse</text>
<polygon fill="none" stroke="black" points="8,-227 8,-364 226,-364 226,-227 8,-227"/>
</a>
</g>
</g>
<!-- Node_Ja_109&#45;&gt;Node_Ja_106 -->
<g id="edge10" class="edge">
<title>Node_Ja_109:e&#45;&gt;Node_Ja_106:header</title>
<g id="a_edge10"><a xlink:title="Ja_109 &#45;&#45;&gt; Ja_106">
<path fill="none" stroke="#000000" d="M226,-340.5C310.66,-340.5 200.33,-516.35 268.24,-531.47"/>
<polygon fill="#000000" stroke="#000000" points="268.2,-534.98 278.5,-532.5 268.9,-528.02 268.2,-534.98"/>
</a>
</g>
</g>
<!-- Node_Ja_109&#45;&gt;Node_Ja_106 -->
<g id="edge14" class="edge">
<title>Node_Ja_109:e&#45;&gt;Node_Ja_106:header</title>
<g id="a_edge14"><a xlink:title="Ja_109 &#45;&#45;&gt; Ja_106">
<path fill="none" stroke="#000000" d="M226,-310.5C323.63,-310.5 187.92,-516.33 268.23,-531.61"/>
<polygon fill="#000000" stroke="#000000" points="268.23,-535.12 278.5,-532.5 268.84,-528.15 268.23,-535.12"/>
</a>
</g>
</g>
<!-- Node_Ja_109&#45;&gt;Node_Ja_107 -->
<g id="edge4" class="edge">
<title>Node_Ja_109:e&#45;&gt;Node_Ja_107:header</title>
<g id="a_edge4"><a xlink:title="Ja_109 &#45;&#45;&gt; Ja_107">
<path fill="none" stroke="#000000" d="M226,-279.5C266.97,-279.5 240.74,-227.18 270,-198.5 282.46,-186.29 288.76,-179.31 302.37,-177.19"/>
<polygon fill="#000000" stroke="#000000" points="302.76,-180.67 312.5,-176.5 302.28,-173.69 302.76,-180.67"/>
</a>
</g>
</g>
<!-- Node_Ja_109&#45;&gt;Node_Ja_107 -->
<g id="edge6" class="edge">
<title>Node_Ja_109:e&#45;&gt;Node_Ja_107:header</title>
<g id="a_edge6"><a xlink:title="Ja_109 &#45;&#45;&gt; Ja_107">
<path fill="none" stroke="#000000" d="M226,-249.5C255.94,-249.5 246.5,-217.05 270,-198.5 283.69,-187.69 289.21,-179.81 302.49,-177.33"/>
<polygon fill="#000000" stroke="#000000" points="302.82,-180.81 312.5,-176.5 302.25,-173.84 302.82,-180.81"/>
</a>
</g>
</g>
<!-- Node_Ja_108 -->
<g id="node7" class="node">
<title>Node_Ja_108</title>
<g id="a_node7"><a xlink:title="proto.ServerResponse">
<polygon fill="#fffaf0" stroke="transparent" points="289.5,-211 289.5,-288 453.5,-288 453.5,-211 289.5,-211"/>
<polygon fill="#e31a1c" stroke="transparent" points="290.5,-271.5 290.5,-286.5 452.5,-286.5 452.5,-271.5 290.5,-271.5"/>
<text text-anchor="start" x="357.5" y="-277.5" font-family="Ubuntu" font-weight="bold" font-size="10.00">ServerResponse</text>
<text text-anchor="start" x="296.5" y="-261.5" font-family="Ubuntu" font-size="10.00">1</text>
<text text-anchor="start" x="307.5" y="-261.5" font-family="Ubuntu" font-size="10.00">success</text>
<polygon fill="#a6cee3" stroke="transparent" points="348.5,-256.5 348.5,-271.5 452.5,-271.5 452.5,-256.5 348.5,-256.5"/>
<text text-anchor="start" x="428.5" y="-262.5" font-family="Ubuntu" font-style="italic" font-size="10.00">bool</text>
<text text-anchor="start" x="296.5" y="-246.5" font-family="Ubuntu" font-size="10.00">2</text>
<text text-anchor="start" x="307.5" y="-246.5" font-family="Ubuntu" font-size="10.00">key</text>
<polygon fill="#a6cee3" stroke="transparent" points="348.5,-241.5 348.5,-256.5 452.5,-256.5 452.5,-241.5 348.5,-241.5"/>
<text text-anchor="start" x="422.5" y="-247.5" font-family="Ubuntu" font-style="italic" font-size="10.00">string</text>
<text text-anchor="start" x="296.5" y="-231.5" font-family="Ubuntu" font-size="10.00">3</text>
<text text-anchor="start" x="307.5" y="-231.5" font-family="Ubuntu" font-size="10.00">value</text>
<polygon fill="#fb9a99" stroke="transparent" points="348.5,-226.5 348.5,-241.5 452.5,-241.5 452.5,-226.5 348.5,-226.5"/>
<text text-anchor="start" x="350.5" y="-232.5" font-family="Ubuntu" font-weight="bold" font-size="10.00">ScannerResponse</text>
<text text-anchor="start" x="296.5" y="-216.5" font-family="Ubuntu" font-size="10.00">4</text>
<text text-anchor="start" x="307.5" y="-216.5" font-family="Ubuntu" font-size="10.00">error</text>
<polygon fill="#a6cee3" stroke="transparent" points="348.5,-211.5 348.5,-226.5 452.5,-226.5 452.5,-211.5 348.5,-211.5"/>
<text text-anchor="start" x="422.5" y="-217.5" font-family="Ubuntu" font-style="italic" font-size="10.00">string</text>
<polygon fill="none" stroke="black" points="289.5,-211 289.5,-288 453.5,-288 453.5,-211 289.5,-211"/>
</a>
</g>
</g>
<!-- Node_Ja_109&#45;&gt;Node_Ja_108 -->
<g id="edge2" class="edge">
<title>Node_Ja_109:e&#45;&gt;Node_Ja_108:header</title>
<g id="a_edge2"><a xlink:title="Ja_109 &#45;&#45;&gt; Ja_108">
<path fill="none" stroke="#000000" d="M226,-294.5C251.26,-294.5 258.69,-283.12 279.36,-280.18"/>
<polygon fill="#000000" stroke="#000000" points="279.76,-283.66 289.5,-279.5 279.29,-276.68 279.76,-283.66"/>
</a>
</g>
</g>
<!-- Node_Ja_109&#45;&gt;Node_Ja_108 -->
<g id="edge3" class="edge">
<title>Node_Ja_109:e&#45;&gt;Node_Ja_108:header</title>
<g id="a_edge3"><a xlink:title="Ja_109 &#45;&#45;&gt; Ja_108">
<path fill="none" stroke="#000000" d="M226,-325.5C257.04,-325.5 255.52,-289.01 279.43,-281.03"/>
<polygon fill="#000000" stroke="#000000" points="280.14,-284.46 289.5,-279.5 279.09,-277.54 280.14,-284.46"/>
</a>
</g>
</g>
<!-- Node_Ja_109&#45;&gt;Node_Ja_108 -->
<g id="edge5" class="edge">
<title>Node_Ja_109:e&#45;&gt;Node_Ja_108:header</title>
<g id="a_edge5"><a xlink:title="Ja_109 &#45;&#45;&gt; Ja_108">
<path fill="none" stroke="#000000" d="M226,-264.5C251.26,-264.5 258.69,-275.88 279.36,-278.82"/>
<polygon fill="#000000" stroke="#000000" points="279.29,-282.32 289.5,-279.5 279.76,-275.34 279.29,-282.32"/>
</a>
</g>
</g>
<!-- Node_Ja_109&#45;&gt;Node_Ja_108 -->
<g id="edge11" class="edge">
<title>Node_Ja_109:e&#45;&gt;Node_Ja_108:header</title>
<g id="a_edge11"><a xlink:title="Ja_109 &#45;&#45;&gt; Ja_108">
<path fill="none" stroke="#000000" d="M226,-234.5C256.81,-234.5 255.67,-270.19 279.49,-278"/>
<polygon fill="#000000" stroke="#000000" points="279.09,-281.48 289.5,-279.5 280.13,-274.56 279.09,-281.48"/>
</a>
</g>
</g>
<!-- Node_Ja_104 -->
<g id="node9" class="node">
<title>Node_Ja_104</title>
<g id="a_node9"><a xlink:title="proto.ScannerResponse">
<polygon fill="#fffaf0" stroke="transparent" points="517,-135 517,-242 698,-242 698,-135 517,-135"/>
<polygon fill="#e31a1c" stroke="transparent" points="518.5,-225.5 518.5,-240.5 697.5,-240.5 697.5,-225.5 518.5,-225.5"/>
<text text-anchor="start" x="595.5" y="-231.5" font-family="Ubuntu" font-weight="bold" font-size="10.00">ScannerResponse</text>
<text text-anchor="start" x="520.5" y="-215.5" font-family="Ubuntu" font-size="10.00">[...]</text>
<text text-anchor="start" x="541.5" y="-215.5" font-family="Ubuntu" font-size="10.00">1</text>
<text text-anchor="start" x="552.5" y="-215.5" font-family="Ubuntu" font-size="10.00">host_result</text>
<polygon fill="#fb9a99" stroke="transparent" points="632.5,-210.5 632.5,-225.5 697.5,-225.5 697.5,-210.5 632.5,-210.5"/>
<text text-anchor="start" x="634.5" y="-216.5" font-family="Ubuntu" font-weight="bold" font-size="10.00">HostResult</text>
<text text-anchor="start" x="541.5" y="-200.5" font-family="Ubuntu" font-size="10.00">2</text>
<text text-anchor="start" x="552.5" y="-200.5" font-family="Ubuntu" font-size="10.00">start_time</text>
<polygon fill="#a6cee3" stroke="transparent" points="632.5,-195.5 632.5,-210.5 697.5,-210.5 697.5,-195.5 632.5,-195.5"/>
<text text-anchor="start" x="667.5" y="-201.5" font-family="Ubuntu" font-style="italic" font-size="10.00">string</text>
<text text-anchor="start" x="541.5" y="-185.5" font-family="Ubuntu" font-size="10.00">3</text>
<text text-anchor="start" x="552.5" y="-185.5" font-family="Ubuntu" font-size="10.00">end_time</text>
<polygon fill="#a6cee3" stroke="transparent" points="632.5,-180.5 632.5,-195.5 697.5,-195.5 697.5,-180.5 632.5,-180.5"/>
<text text-anchor="start" x="667.5" y="-186.5" font-family="Ubuntu" font-style="italic" font-size="10.00">string</text>
<text text-anchor="start" x="541.5" y="-170.5" font-family="Ubuntu" font-size="10.00">4</text>
<text text-anchor="start" x="552.5" y="-170.5" font-family="Ubuntu" font-size="10.00">expiration_time</text>
<polygon fill="#a6cee3" stroke="transparent" points="632.5,-165.5 632.5,-180.5 697.5,-180.5 697.5,-165.5 632.5,-165.5"/>
<text text-anchor="start" x="667.5" y="-171.5" font-family="Ubuntu" font-style="italic" font-size="10.00">string</text>
<text text-anchor="start" x="541.5" y="-155.5" font-family="Ubuntu" font-size="10.00">5</text>
<text text-anchor="start" x="552.5" y="-155.5" font-family="Ubuntu" font-size="10.00">key</text>
<polygon fill="#a6cee3" stroke="transparent" points="632.5,-150.5 632.5,-165.5 697.5,-165.5 697.5,-150.5 632.5,-150.5"/>
<text text-anchor="start" x="667.5" y="-156.5" font-family="Ubuntu" font-style="italic" font-size="10.00">string</text>
<text text-anchor="start" x="541.5" y="-140.5" font-family="Ubuntu" font-size="10.00">6</text>
<text text-anchor="start" x="552.5" y="-140.5" font-family="Ubuntu" font-size="10.00">status</text>
<polygon fill="#b2df8a" stroke="transparent" points="632.5,-135.5 632.5,-150.5 697.5,-150.5 697.5,-135.5 632.5,-135.5"/>
<text text-anchor="start" x="664.5" y="-141.5" font-family="Ubuntu" text-decoration="underline" font-size="10.00">Status</text>
<polygon fill="none" stroke="black" points="517,-135 517,-242 698,-242 698,-135 517,-135"/>
</a>
</g>
</g>
<!-- Node_Ja_108&#45;&gt;Node_Ja_104 -->
<g id="edge9" class="edge">
<title>Node_Ja_108:e&#45;&gt;Node_Ja_104:header</title>
<g id="a_edge9"><a xlink:title="Ja_108 &#45;&#45;&gt; Ja_104">
<path fill="none" stroke="#000000" d="M453.5,-233.5C478.28,-233.5 486.87,-233.5 507.47,-233.5"/>
<polygon fill="#000000" stroke="#000000" points="507.5,-237 517.5,-233.5 507.5,-230 507.5,-237"/>
</a>
</g>
</g>
<!-- Node_Ja_103 -->
<g id="node8" class="node">
<title>Node_Ja_103</title>
<g id="a_node8"><a xlink:title="proto.HostResult">
<polygon fill="#fffaf0" stroke="transparent" points="750,-208 750,-255 843,-255 843,-208 750,-208"/>
<polygon fill="#e31a1c" stroke="transparent" points="751.5,-238.5 751.5,-253.5 842.5,-253.5 842.5,-238.5 751.5,-238.5"/>
<text text-anchor="start" x="779.5" y="-244.5" font-family="Ubuntu" font-weight="bold" font-size="10.00">HostResult</text>
<text text-anchor="start" x="774.5" y="-228.5" font-family="Ubuntu" font-size="10.00">1</text>
<text text-anchor="start" x="785.5" y="-228.5" font-family="Ubuntu" font-size="10.00">host</text>
<polygon fill="#fb9a99" stroke="transparent" points="812.5,-223.5 812.5,-238.5 842.5,-238.5 842.5,-223.5 812.5,-223.5"/>
<text text-anchor="start" x="814.5" y="-229.5" font-family="Ubuntu" font-weight="bold" font-size="10.00">Host</text>
<text text-anchor="start" x="753.5" y="-213.5" font-family="Ubuntu" font-size="10.00">[...]</text>
<text text-anchor="start" x="774.5" y="-213.5" font-family="Ubuntu" font-size="10.00">2</text>
<text text-anchor="start" x="785.5" y="-213.5" font-family="Ubuntu" font-size="10.00">ports</text>
<polygon fill="#fb9a99" stroke="transparent" points="812.5,-208.5 812.5,-223.5 842.5,-223.5 842.5,-208.5 812.5,-208.5"/>
<text text-anchor="start" x="815.5" y="-214.5" font-family="Ubuntu" font-weight="bold" font-size="10.00">Port</text>
<polygon fill="none" stroke="black" points="750,-208 750,-255 843,-255 843,-208 750,-208"/>
</a>
</g>
</g>
<!-- Node_Ja_103&#45;&gt;Node_Ja_102 -->
<g id="edge8" class="edge">
<title>Node_Ja_103:e&#45;&gt;Node_Ja_102:header</title>
<g id="a_edge8"><a xlink:title="Ja_103 &#45;&#45;&gt; Ja_102">
<path fill="none" stroke="#000000" d="M843.5,-215.5C869.75,-215.5 866.81,-182.41 885.31,-173.62"/>
<polygon fill="#000000" stroke="#000000" points="886.42,-176.97 895.5,-171.5 885,-170.11 886.42,-176.97"/>
</a>
</g>
</g>
<!-- Node_Ja_103&#45;&gt;Node_Ja_100 -->
<g id="edge7" class="edge">
<title>Node_Ja_103:e&#45;&gt;Node_Ja_100:header</title>
<g id="a_edge7"><a xlink:title="Ja_103 &#45;&#45;&gt; Ja_100">
<path fill="none" stroke="#000000" d="M843.5,-230.5C879.92,-230.5 882.2,-266.64 912.22,-273.41"/>
<polygon fill="#000000" stroke="#000000" points="912.19,-276.93 922.5,-274.5 912.92,-269.97 912.19,-276.93"/>
</a>
</g>
</g>
<!-- Node_Ja_104&#45;&gt;Node_Ja_103 -->
<g id="edge1" class="edge">
<title>Node_Ja_104:e&#45;&gt;Node_Ja_103:header</title>
<g id="a_edge1"><a xlink:title="Ja_104 &#45;&#45;&gt; Ja_103">
<path fill="none" stroke="#000000" d="M698.5,-218.5C720.85,-218.5 723.81,-238.8 740.4,-244.83"/>
<polygon fill="#000000" stroke="#000000" points="740.06,-248.32 750.5,-246.5 741.2,-241.42 740.06,-248.32"/>
</a>
</g>
</g>
<!-- Node_Ja_105 -->
<g id="node10" class="node">
<title>Node_Ja_105</title>
<g id="a_node10"><a xlink:title="Status">
<polygon fill="#b2df8a" stroke="transparent" points="759.5,-68.5 759.5,-160.5 833.5,-160.5 833.5,-68.5 759.5,-68.5"/>
<polygon fill="#33a02c" stroke="transparent" points="760.5,-144.5 760.5,-159.5 832.5,-159.5 832.5,-144.5 760.5,-144.5"/>
<text text-anchor="start" x="762.5" y="-150.5" font-family="Ubuntu" font-size="10.00">enum </text>
<text text-anchor="start" x="793.5" y="-150.5" font-family="Ubuntu" font-weight="bold" font-size="10.00">Status</text>
<polygon fill="#b2df8a" stroke="transparent" points="760.5,-129.5 760.5,-144.5 820.5,-144.5 820.5,-129.5 760.5,-129.5"/>
<text text-anchor="start" x="762.5" y="-134.5" font-family="Ubuntu" font-size="10.00">UNKNOWN</text>
<polygon fill="#b2df8a" stroke="transparent" points="820.5,-129.5 820.5,-144.5 832.5,-144.5 832.5,-129.5 820.5,-129.5"/>
<text text-anchor="start" x="822.5" y="-134.5" font-family="Ubuntu" font-size="10.00">0</text>
<polygon fill="#b2df8a" stroke="transparent" points="760.5,-114.5 760.5,-129.5 820.5,-129.5 820.5,-114.5 760.5,-114.5"/>
<text text-anchor="start" x="762.5" y="-119.5" font-family="Ubuntu" font-size="10.00">QUEUED</text>
<polygon fill="#b2df8a" stroke="transparent" points="820.5,-114.5 820.5,-129.5 832.5,-129.5 832.5,-114.5 820.5,-114.5"/>
<text text-anchor="start" x="822.5" y="-119.5" font-family="Ubuntu" font-size="10.00">1</text>
<polygon fill="#b2df8a" stroke="transparent" points="760.5,-99.5 760.5,-114.5 820.5,-114.5 820.5,-99.5 760.5,-99.5"/>
<text text-anchor="start" x="762.5" y="-104.5" font-family="Ubuntu" font-size="10.00">RUNNING</text>
<polygon fill="#b2df8a" stroke="transparent" points="820.5,-99.5 820.5,-114.5 832.5,-114.5 832.5,-99.5 820.5,-99.5"/>
<text text-anchor="start" x="822.5" y="-104.5" font-family="Ubuntu" font-size="10.00">2</text>
<polygon fill="#b2df8a" stroke="transparent" points="760.5,-84.5 760.5,-99.5 820.5,-99.5 820.5,-84.5 760.5,-84.5"/>
<text text-anchor="start" x="762.5" y="-89.5" font-family="Ubuntu" font-size="10.00">OK</text>
<polygon fill="#b2df8a" stroke="transparent" points="820.5,-84.5 820.5,-99.5 832.5,-99.5 832.5,-84.5 820.5,-84.5"/>
<text text-anchor="start" x="822.5" y="-89.5" font-family="Ubuntu" font-size="10.00">3</text>
<polygon fill="#b2df8a" stroke="transparent" points="760.5,-69.5 760.5,-84.5 820.5,-84.5 820.5,-69.5 760.5,-69.5"/>
<text text-anchor="start" x="762.5" y="-74.5" font-family="Ubuntu" font-size="10.00">ERROR</text>
<polygon fill="#b2df8a" stroke="transparent" points="820.5,-69.5 820.5,-84.5 832.5,-84.5 832.5,-69.5 820.5,-69.5"/>
<text text-anchor="start" x="822.5" y="-74.5" font-family="Ubuntu" font-size="10.00">4</text>
<polygon fill="none" stroke="black" points="759.5,-68.5 759.5,-160.5 833.5,-160.5 833.5,-68.5 759.5,-68.5"/>
</a>
</g>
</g>
<!-- Node_Ja_104&#45;&gt;Node_Ja_105 -->
<g id="edge12" class="edge">
<title>Node_Ja_104:e&#45;&gt;Node_Ja_105</title>
<g id="a_edge12"><a xlink:title="Ja_104 &#45;&#45;&gt; Ja_105">
<path fill="none" stroke="#008000" d="M698.5,-142.5C712.75,-142.5 727.72,-139.68 741.53,-135.83"/>
<polygon fill="#008000" stroke="#008000" points="742.79,-139.1 751.35,-132.86 740.77,-132.4 742.79,-139.1"/>
</a>
</g>
</g>
</g>
</svg>
