<?xml version="1.0" encoding="UTF-8" standalone="no"?>
<!DOCTYPE svg PUBLIC "-//W3C//DTD SVG 1.1//EN"
 "http://www.w3.org/Graphics/SVG/1.1/DTD/svg11.dtd">
<!-- Generated by graphviz version 2.47.3 (0)
 -->
<!-- Title: protodot Pages: 1 -->
<svg width="635pt" height="156pt"
 viewBox="0.00 0.00 635.00 156.00" xmlns="http://www.w3.org/2000/svg" xmlns:xlink="http://www.w3.org/1999/xlink">
<g id="graph0" class="graph" transform="scale(1 1) rotate(0) translate(4 152)">
<title>protodot</title>
<g id="a_graph0"><a xlink:title="proto">
<text text-anchor="middle" x="313.5" y="-7.8" font-family="Times,serif" font-size="14.00">proto</text>
</a>
</g>
<g id="clust1" class="cluster">
<title>cluster_dfe805b7589f</title>
<g id="a_clust1"><a xlink:title="proto">
<polygon fill="#caff70" stroke="black" points="477,-31 477,-140 619,-140 619,-31 477,-31"/>
<text text-anchor="middle" x="548" y="-124.8" font-family="Times,serif" font-size="14.00">proto</text>
</a>
</g>
</g>
<!-- Node_Ja_101 -->
<g id="node1" class="node">
<title>Node_Ja_101</title>
<g id="a_node1"><a xlink:title="ServiceState">
<polygon fill="#b2df8a" stroke="transparent" points="493,-43 493,-105 603,-105 603,-43 493,-43"/>
<polygon fill="#33a02c" stroke="transparent" points="494,-89 494,-104 602,-104 602,-89 494,-89"/>
<text text-anchor="start" x="496" y="-95" font-family="Ubuntu" font-size="10.00">enum </text>
<text text-anchor="start" x="527" y="-95" font-family="Ubuntu" font-weight="bold" font-size="10.00">ServiceState</text>
<polygon fill="#b2df8a" stroke="transparent" points="494,-74 494,-89 572,-89 572,-74 494,-74"/>
<text text-anchor="start" x="496" y="-79" font-family="Ubuntu" font-size="10.00">UNKNOWN</text>
<polygon fill="#b2df8a" stroke="transparent" points="572,-74 572,-89 602,-89 602,-74 572,-74"/>
<text text-anchor="start" x="574" y="-79" font-family="Ubuntu" font-size="10.00">0</text>
<polygon fill="#b2df8a" stroke="transparent" points="494,-59 494,-74 572,-74 572,-59 494,-59"/>
<text text-anchor="start" x="496" y="-64" font-family="Ubuntu" font-size="10.00">START</text>
<polygon fill="#b2df8a" stroke="transparent" points="572,-59 572,-74 602,-74 602,-59 572,-59"/>
<text text-anchor="start" x="574" y="-64" font-family="Ubuntu" font-size="10.00">1</text>
<polygon fill="#b2df8a" stroke="transparent" points="494,-44 494,-59 572,-59 572,-44 494,-44"/>
<text text-anchor="start" x="496" y="-49" font-family="Ubuntu" font-size="10.00">STOP</text>
<polygon fill="#b2df8a" stroke="transparent" points="572,-44 572,-59 602,-59 602,-44 572,-44"/>
<text text-anchor="start" x="574" y="-49" font-family="Ubuntu" font-size="10.00">2</text>
<polygon fill="none" stroke="black" points="493,-43 493,-105 603,-105 603,-43 493,-43"/>
</a>
</g>
</g>
<!-- Node_Ja_100 -->
<g id="node2" class="node">
<title>Node_Ja_100</title>
<g id="a_node2"><a xlink:title="proto.ScannerServiceControl">
<polygon fill="#fffaf0" stroke="transparent" points="305,-66 305,-98 441,-98 441,-66 305,-66"/>
<polygon fill="#e31a1c" stroke="transparent" points="306,-82 306,-97 440,-97 440,-82 306,-82"/>
<text text-anchor="start" x="308" y="-88" font-family="Ubuntu" font-weight="bold" font-size="10.00">ScannerServiceControl</text>
<text text-anchor="start" x="330" y="-72" font-family="Ubuntu" font-size="10.00">1</text>
<text text-anchor="start" x="341" y="-72" font-family="Ubuntu" font-size="10.00">state</text>
<polygon fill="#b2df8a" stroke="transparent" points="371,-67 371,-82 440,-82 440,-67 371,-67"/>
<text text-anchor="start" x="376" y="-73" font-family="Ubuntu" text-decoration="underline" font-size="10.00">ServiceState</text>
<polygon fill="none" stroke="black" points="305,-66 305,-98 441,-98 441,-66 305,-66"/>
</a>
</g>
</g>
<!-- Node_Ja_100&#45;&gt;Node_Ja_101 -->
<g id="edge3" class="edge">
<title>Node_Ja_100:e&#45;&gt;Node_Ja_101</title>
<g id="a_edge3"><a xlink:title="Ja_100 &#45;&#45;&gt; Ja_101">
<path fill="none" stroke="#008000" d="M441,-74C451.85,-74 463.32,-74 474.56,-74"/>
<polygon fill="#008000" stroke="#008000" points="474.78,-77.5 484.78,-74 474.78,-70.5 474.78,-77.5"/>
</a>
</g>
</g>
<!-- Node_Ja_102 -->
<g id="node3" class="node">
<title>Node_Ja_102</title>
<g id="a_node3"><a xlink:title="CommandAndControl">
<polygon fill="#ffd700" stroke="transparent" points="8,-74.5 8,-121.5 253,-121.5 253,-74.5 8,-74.5"/>
<polygon fill="#ff7f50" stroke="transparent" points="9.5,-105 9.5,-120 252.5,-120 252.5,-105 9.5,-105"/>
<text text-anchor="start" x="130.5" y="-111" font-family="Ubuntu" font-weight="bold" font-size="10.00">CommandAndControl</text>
<text text-anchor="start" x="11.5" y="-96" font-family="Ubuntu" font-weight="bold" font-size="10.00">ServiceControl</text>
<text text-anchor="start" x="100.5" y="-95" font-family="Ubuntu" font-size="10.00">stream</text>
<text text-anchor="start" x="139.5" y="-95" font-family="Ubuntu" font-size="10.00">ScannerServiceControl</text>
<polygon fill="#ff7f50" stroke="transparent" points="98.5,-75 98.5,-90 137.5,-90 137.5,-75 98.5,-75"/>
<text text-anchor="start" x="100.5" y="-80" font-family="Ubuntu" font-size="10.00">stream</text>
<polygon fill="#ff7f50" stroke="transparent" points="137.5,-75 137.5,-90 252.5,-90 252.5,-75 137.5,-75"/>
<text text-anchor="start" x="139.5" y="-80" font-family="Ubuntu" font-size="10.00">ScannerServiceControl</text>
<polygon fill="none" stroke="black" points="8,-74.5 8,-121.5 253,-121.5 253,-74.5 8,-74.5"/>
</a>
</g>
</g>
<!-- Node_Ja_102&#45;&gt;Node_Ja_100 -->
<g id="edge1" class="edge">
<title>Node_Ja_102:e&#45;&gt;Node_Ja_100:header</title>
<g id="a_edge1"><a xlink:title="Ja_102 &#45;&#45;&gt; Ja_100">
<path fill="none" stroke="#000000" d="M253.5,-97C272.81,-97 279.68,-92.11 294.91,-90.5"/>
<polygon fill="#000000" stroke="#000000" points="295.19,-93.99 305,-90 294.84,-87 295.19,-93.99"/>
</a>
</g>
</g>
<!-- Node_Ja_102&#45;&gt;Node_Ja_100 -->
<g id="edge2" class="edge">
<title>Node_Ja_102:e&#45;&gt;Node_Ja_100:header</title>
<g id="a_edge2"><a xlink:title="Ja_102 &#45;&#45;&gt; Ja_100">
<path fill="none" stroke="#000000" d="M253.5,-82C272.86,-82 279.65,-87.59 294.89,-89.42"/>
<polygon fill="#000000" stroke="#000000" points="294.82,-92.93 305,-90 295.22,-85.94 294.82,-92.93"/>
</a>
</g>
</g>
</g>
</svg>
