<?xml version="1.0" encoding="UTF-8" standalone="no"?>
<!DOCTYPE svg PUBLIC "-//W3C//DTD SVG 1.1//EN"
 "http://www.w3.org/Graphics/SVG/1.1/DTD/svg11.dtd">
<!-- Generated by graphviz version 2.47.3 (0)
 -->
<!-- Title: protodot Pages: 1 -->
<svg width="1173pt" height="507pt"
 viewBox="0.00 0.00 1173.00 507.00" xmlns="http://www.w3.org/2000/svg" xmlns:xlink="http://www.w3.org/1999/xlink">
<g id="graph0" class="graph" transform="scale(1 1) rotate(0) translate(4 503)">
<title>protodot</title>
<g id="a_graph0"><a xlink:title="proto">
<text text-anchor="middle" x="582.5" y="-7.8" font-family="Times,serif" font-size="14.00">proto</text>
</a>
</g>
<!-- Node_Ja_106 -->
<g id="node1" class="node">
<title>Node_Ja_106</title>
<g id="a_node1"><a xlink:title="proto.GetScannerResponse">
<polygon fill="#fffaf0" stroke="transparent" points="264.5,-166.5 264.5,-198.5 390.5,-198.5 390.5,-166.5 264.5,-166.5"/>
<polygon fill="#e31a1c" stroke="transparent" points="265.5,-182.5 265.5,-197.5 389.5,-197.5 389.5,-182.5 265.5,-182.5"/>
<text text-anchor="start" x="267.5" y="-188.5" font-family="Ubuntu" font-weight="bold" font-size="10.00">GetScannerResponse</text>
<text text-anchor="start" x="312.5" y="-172.5" font-family="Ubuntu" font-size="10.00">1</text>
<text text-anchor="start" x="323.5" y="-172.5" font-family="Ubuntu" font-size="10.00">key</text>
<polygon fill="#a6cee3" stroke="transparent" points="350.5,-167.5 350.5,-182.5 389.5,-182.5 389.5,-167.5 350.5,-167.5"/>
<text text-anchor="start" x="359.5" y="-173.5" font-family="Ubuntu" font-style="italic" font-size="10.00">string</text>
<polygon fill="none" stroke="black" points="264.5,-166.5 264.5,-198.5 390.5,-198.5 390.5,-166.5 264.5,-166.5"/>
</a>
</g>
</g>
<!-- Node_Ja_107 -->
<g id="node2" class="node">
<title>Node_Ja_107</title>
<g id="a_node2"><a xlink:title="proto.ServerResponse">
<polygon fill="#fffaf0" stroke="transparent" points="245.5,-225 245.5,-302 409.5,-302 409.5,-225 245.5,-225"/>
<polygon fill="#e31a1c" stroke="transparent" points="246.5,-285.5 246.5,-300.5 408.5,-300.5 408.5,-285.5 246.5,-285.5"/>
<text text-anchor="start" x="313.5" y="-291.5" font-family="Ubuntu" font-weight="bold" font-size="10.00">ServerResponse</text>
<text text-anchor="start" x="252.5" y="-275.5" font-family="Ubuntu" font-size="10.00">1</text>
<text text-anchor="start" x="263.5" y="-275.5" font-family="Ubuntu" font-size="10.00">success</text>
<polygon fill="#a6cee3" stroke="transparent" points="304.5,-270.5 304.5,-285.5 408.5,-285.5 408.5,-270.5 304.5,-270.5"/>
<text text-anchor="start" x="384.5" y="-276.5" font-family="Ubuntu" font-style="italic" font-size="10.00">bool</text>
<text text-anchor="start" x="252.5" y="-260.5" font-family="Ubuntu" font-size="10.00">2</text>
<text text-anchor="start" x="263.5" y="-260.5" font-family="Ubuntu" font-size="10.00">key</text>
<polygon fill="#a6cee3" stroke="transparent" points="304.5,-255.5 304.5,-270.5 408.5,-270.5 408.5,-255.5 304.5,-255.5"/>
<text text-anchor="start" x="378.5" y="-261.5" font-family="Ubuntu" font-style="italic" font-size="10.00">string</text>
<text text-anchor="start" x="252.5" y="-245.5" font-family="Ubuntu" font-size="10.00">3</text>
<text text-anchor="start" x="263.5" y="-245.5" font-family="Ubuntu" font-size="10.00">value</text>
<polygon fill="#fb9a99" stroke="transparent" points="304.5,-240.5 304.5,-255.5 408.5,-255.5 408.5,-240.5 304.5,-240.5"/>
<text text-anchor="start" x="306.5" y="-246.5" font-family="Ubuntu" font-weight="bold" font-size="10.00">ScannerResponse</text>
<text text-anchor="start" x="252.5" y="-230.5" font-family="Ubuntu" font-size="10.00">4</text>
<text text-anchor="start" x="263.5" y="-230.5" font-family="Ubuntu" font-size="10.00">error</text>
<polygon fill="#a6cee3" stroke="transparent" points="304.5,-225.5 304.5,-240.5 408.5,-240.5 408.5,-225.5 304.5,-225.5"/>
<text text-anchor="start" x="378.5" y="-231.5" font-family="Ubuntu" font-style="italic" font-size="10.00">string</text>
<polygon fill="none" stroke="black" points="245.5,-225 245.5,-302 409.5,-302 409.5,-225 245.5,-225"/>
</a>
</g>
</g>
<!-- Node_Ja_104 -->
<g id="node7" class="node">
<title>Node_Ja_104</title>
<g id="a_node7"><a xlink:title="proto.ScannerResponse">
<polygon fill="#fffaf0" stroke="transparent" points="473,-223.5 473,-255.5 631,-255.5 631,-223.5 473,-223.5"/>
<polygon fill="#e31a1c" stroke="transparent" points="474,-239.5 474,-254.5 630,-254.5 630,-239.5 474,-239.5"/>
<text text-anchor="start" x="528" y="-245.5" font-family="Ubuntu" font-weight="bold" font-size="10.00">ScannerResponse</text>
<text text-anchor="start" x="476" y="-229.5" font-family="Ubuntu" font-size="10.00">[...]</text>
<text text-anchor="start" x="497" y="-229.5" font-family="Ubuntu" font-size="10.00">1</text>
<text text-anchor="start" x="508" y="-229.5" font-family="Ubuntu" font-size="10.00">host_result</text>
<polygon fill="#fb9a99" stroke="transparent" points="565,-224.5 565,-239.5 630,-239.5 630,-224.5 565,-224.5"/>
<text text-anchor="start" x="567" y="-230.5" font-family="Ubuntu" font-weight="bold" font-size="10.00">HostResult</text>
<polygon fill="none" stroke="black" points="473,-223.5 473,-255.5 631,-255.5 631,-223.5 473,-223.5"/>
</a>
</g>
</g>
<!-- Node_Ja_107&#45;&gt;Node_Ja_104 -->
<g id="edge7" class="edge">
<title>Node_Ja_107:e&#45;&gt;Node_Ja_104:header</title>
<g id="a_edge7"><a xlink:title="Ja_107 &#45;&#45;&gt; Ja_104">
<path fill="none" stroke="#000000" d="M409.5,-247.5C433.97,-247.5 442.53,-247.5 462.78,-247.5"/>
<polygon fill="#000000" stroke="#000000" points="463,-251 473,-247.5 463,-244 463,-251"/>
</a>
</g>
</g>
<!-- Node_Ja_100 -->
<g id="node3" class="node">
<title>Node_Ja_100</title>
<g id="a_node3"><a xlink:title="proto.Host">
<polygon fill="#fffaf0" stroke="transparent" points="855.5,-206 855.5,-253 961.5,-253 961.5,-206 855.5,-206"/>
<polygon fill="#e31a1c" stroke="transparent" points="856.5,-236.5 856.5,-251.5 960.5,-251.5 960.5,-236.5 856.5,-236.5"/>
<text text-anchor="start" x="932.5" y="-242.5" font-family="Ubuntu" font-weight="bold" font-size="10.00">Host</text>
<text text-anchor="start" x="862.5" y="-226.5" font-family="Ubuntu" font-size="10.00">1</text>
<text text-anchor="start" x="873.5" y="-226.5" font-family="Ubuntu" font-size="10.00">address</text>
<polygon fill="#a6cee3" stroke="transparent" points="928.5,-221.5 928.5,-236.5 960.5,-236.5 960.5,-221.5 928.5,-221.5"/>
<text text-anchor="start" x="930.5" y="-227.5" font-family="Ubuntu" font-style="italic" font-size="10.00">string</text>
<text text-anchor="start" x="862.5" y="-211.5" font-family="Ubuntu" font-size="10.00">2</text>
<text text-anchor="start" x="873.5" y="-211.5" font-family="Ubuntu" font-size="10.00">os_version</text>
<polygon fill="#a6cee3" stroke="transparent" points="928.5,-206.5 928.5,-221.5 960.5,-221.5 960.5,-206.5 928.5,-206.5"/>
<text text-anchor="start" x="930.5" y="-212.5" font-family="Ubuntu" font-style="italic" font-size="10.00">string</text>
<polygon fill="none" stroke="black" points="855.5,-206 855.5,-253 961.5,-253 961.5,-206 855.5,-206"/>
</a>
</g>
</g>
<!-- Node_Ja_101 -->
<g id="node4" class="node">
<title>Node_Ja_101</title>
<g id="a_node4"><a xlink:title="proto.PortVersion">
<polygon fill="#fffaf0" stroke="transparent" points="1041,-27 1041,-104 1157,-104 1157,-27 1041,-27"/>
<polygon fill="#e31a1c" stroke="transparent" points="1042,-87.5 1042,-102.5 1156,-102.5 1156,-87.5 1042,-87.5"/>
<text text-anchor="start" x="1087" y="-93.5" font-family="Ubuntu" font-weight="bold" font-size="10.00">PortVersion</text>
<text text-anchor="start" x="1048" y="-77.5" font-family="Ubuntu" font-size="10.00">1</text>
<text text-anchor="start" x="1059" y="-77.5" font-family="Ubuntu" font-size="10.00">low_version</text>
<polygon fill="#a6cee3" stroke="transparent" points="1124,-72.5 1124,-87.5 1156,-87.5 1156,-72.5 1124,-72.5"/>
<text text-anchor="start" x="1126" y="-78.5" font-family="Ubuntu" font-style="italic" font-size="10.00">string</text>
<text text-anchor="start" x="1048" y="-62.5" font-family="Ubuntu" font-size="10.00">2</text>
<text text-anchor="start" x="1059" y="-62.5" font-family="Ubuntu" font-size="10.00">high_version</text>
<polygon fill="#a6cee3" stroke="transparent" points="1124,-57.5 1124,-72.5 1156,-72.5 1156,-57.5 1124,-57.5"/>
<text text-anchor="start" x="1126" y="-63.5" font-family="Ubuntu" font-style="italic" font-size="10.00">string</text>
<text text-anchor="start" x="1048" y="-47.5" font-family="Ubuntu" font-size="10.00">3</text>
<text text-anchor="start" x="1059" y="-47.5" font-family="Ubuntu" font-size="10.00">extra_infos</text>
<polygon fill="#a6cee3" stroke="transparent" points="1124,-42.5 1124,-57.5 1156,-57.5 1156,-42.5 1124,-42.5"/>
<text text-anchor="start" x="1126" y="-48.5" font-family="Ubuntu" font-style="italic" font-size="10.00">string</text>
<text text-anchor="start" x="1048" y="-32.5" font-family="Ubuntu" font-size="10.00">4</text>
<text text-anchor="start" x="1059" y="-32.5" font-family="Ubuntu" font-size="10.00">product</text>
<polygon fill="#a6cee3" stroke="transparent" points="1124,-27.5 1124,-42.5 1156,-42.5 1156,-27.5 1124,-27.5"/>
<text text-anchor="start" x="1126" y="-33.5" font-family="Ubuntu" font-style="italic" font-size="10.00">string</text>
<polygon fill="none" stroke="black" points="1041,-27 1041,-104 1157,-104 1157,-27 1041,-27"/>
</a>
</g>
</g>
<!-- Node_Ja_102 -->
<g id="node5" class="node">
<title>Node_Ja_102</title>
<g id="a_node5"><a xlink:title="proto.Port">
<polygon fill="#fffaf0" stroke="transparent" points="828,-87.5 828,-179.5 989,-179.5 989,-87.5 828,-87.5"/>
<polygon fill="#e31a1c" stroke="transparent" points="829.5,-163.5 829.5,-178.5 988.5,-178.5 988.5,-163.5 829.5,-163.5"/>
<text text-anchor="start" x="961.5" y="-169.5" font-family="Ubuntu" font-weight="bold" font-size="10.00">Port</text>
<text text-anchor="start" x="835.5" y="-153.5" font-family="Ubuntu" font-size="10.00">1</text>
<text text-anchor="start" x="846.5" y="-153.5" font-family="Ubuntu" font-size="10.00">port_id</text>
<polygon fill="#a6cee3" stroke="transparent" points="917.5,-148.5 917.5,-163.5 988.5,-163.5 988.5,-148.5 917.5,-148.5"/>
<text text-anchor="start" x="958.5" y="-154.5" font-family="Ubuntu" font-style="italic" font-size="10.00">string</text>
<text text-anchor="start" x="835.5" y="-138.5" font-family="Ubuntu" font-size="10.00">2</text>
<text text-anchor="start" x="846.5" y="-138.5" font-family="Ubuntu" font-size="10.00">protocol</text>
<polygon fill="#a6cee3" stroke="transparent" points="917.5,-133.5 917.5,-148.5 988.5,-148.5 988.5,-133.5 917.5,-133.5"/>
<text text-anchor="start" x="958.5" y="-139.5" font-family="Ubuntu" font-style="italic" font-size="10.00">string</text>
<text text-anchor="start" x="835.5" y="-123.5" font-family="Ubuntu" font-size="10.00">3</text>
<text text-anchor="start" x="846.5" y="-123.5" font-family="Ubuntu" font-size="10.00">state</text>
<polygon fill="#a6cee3" stroke="transparent" points="917.5,-118.5 917.5,-133.5 988.5,-133.5 988.5,-118.5 917.5,-118.5"/>
<text text-anchor="start" x="958.5" y="-124.5" font-family="Ubuntu" font-style="italic" font-size="10.00">string</text>
<text text-anchor="start" x="835.5" y="-108.5" font-family="Ubuntu" font-size="10.00">4</text>
<text text-anchor="start" x="846.5" y="-108.5" font-family="Ubuntu" font-size="10.00">service_name</text>
<polygon fill="#a6cee3" stroke="transparent" points="917.5,-103.5 917.5,-118.5 988.5,-118.5 988.5,-103.5 917.5,-103.5"/>
<text text-anchor="start" x="958.5" y="-109.5" font-family="Ubuntu" font-style="italic" font-size="10.00">string</text>
<text text-anchor="start" x="835.5" y="-93.5" font-family="Ubuntu" font-size="10.00">5</text>
<text text-anchor="start" x="846.5" y="-93.5" font-family="Ubuntu" font-size="10.00">version</text>
<polygon fill="#fb9a99" stroke="transparent" points="917.5,-88.5 917.5,-103.5 988.5,-103.5 988.5,-88.5 917.5,-88.5"/>
<text text-anchor="start" x="919.5" y="-94.5" font-family="Ubuntu" font-weight="bold" font-size="10.00">PortVersion</text>
<polygon fill="none" stroke="black" points="828,-87.5 828,-179.5 989,-179.5 989,-87.5 828,-87.5"/>
</a>
</g>
</g>
<!-- Node_Ja_102&#45;&gt;Node_Ja_101 -->
<g id="edge4" class="edge">
<title>Node_Ja_102:e&#45;&gt;Node_Ja_101:header</title>
<g id="a_edge4"><a xlink:title="Ja_102 &#45;&#45;&gt; Ja_101">
<path fill="none" stroke="#000000" d="M989.5,-95.5C1008.63,-95.5 1015.77,-95.5 1030.97,-95.5"/>
<polygon fill="#000000" stroke="#000000" points="1031,-99 1041,-95.5 1031,-92 1031,-99"/>
</a>
</g>
</g>
<!-- Node_Ja_103 -->
<g id="node6" class="node">
<title>Node_Ja_103</title>
<g id="a_node6"><a xlink:title="proto.HostResult">
<polygon fill="#fffaf0" stroke="transparent" points="683,-193 683,-240 776,-240 776,-193 683,-193"/>
<polygon fill="#e31a1c" stroke="transparent" points="684.5,-223.5 684.5,-238.5 775.5,-238.5 775.5,-223.5 684.5,-223.5"/>
<text text-anchor="start" x="712.5" y="-229.5" font-family="Ubuntu" font-weight="bold" font-size="10.00">HostResult</text>
<text text-anchor="start" x="707.5" y="-213.5" font-family="Ubuntu" font-size="10.00">1</text>
<text text-anchor="start" x="718.5" y="-213.5" font-family="Ubuntu" font-size="10.00">host</text>
<polygon fill="#fb9a99" stroke="transparent" points="745.5,-208.5 745.5,-223.5 775.5,-223.5 775.5,-208.5 745.5,-208.5"/>
<text text-anchor="start" x="747.5" y="-214.5" font-family="Ubuntu" font-weight="bold" font-size="10.00">Host</text>
<text text-anchor="start" x="686.5" y="-198.5" font-family="Ubuntu" font-size="10.00">[...]</text>
<text text-anchor="start" x="707.5" y="-198.5" font-family="Ubuntu" font-size="10.00">2</text>
<text text-anchor="start" x="718.5" y="-198.5" font-family="Ubuntu" font-size="10.00">ports</text>
<polygon fill="#fb9a99" stroke="transparent" points="745.5,-193.5 745.5,-208.5 775.5,-208.5 775.5,-193.5 745.5,-193.5"/>
<text text-anchor="start" x="748.5" y="-199.5" font-family="Ubuntu" font-weight="bold" font-size="10.00">Port</text>
<polygon fill="none" stroke="black" points="683,-193 683,-240 776,-240 776,-193 683,-193"/>
</a>
</g>
</g>
<!-- Node_Ja_103&#45;&gt;Node_Ja_100 -->
<g id="edge9" class="edge">
<title>Node_Ja_103:e&#45;&gt;Node_Ja_100:header</title>
<g id="a_edge9"><a xlink:title="Ja_103 &#45;&#45;&gt; Ja_100">
<path fill="none" stroke="#000000" d="M776.5,-215.5C810.25,-215.5 816.96,-239.11 845.43,-243.72"/>
<polygon fill="#000000" stroke="#000000" points="845.26,-247.22 855.5,-244.5 845.8,-240.24 845.26,-247.22"/>
</a>
</g>
</g>
<!-- Node_Ja_103&#45;&gt;Node_Ja_102 -->
<g id="edge5" class="edge">
<title>Node_Ja_103:e&#45;&gt;Node_Ja_102:header</title>
<g id="a_edge5"><a xlink:title="Ja_103 &#45;&#45;&gt; Ja_102">
<path fill="none" stroke="#000000" d="M776.5,-200.5C799.03,-200.5 801.71,-179.47 818.35,-173.23"/>
<polygon fill="#000000" stroke="#000000" points="819.23,-176.63 828.5,-171.5 818.05,-169.73 819.23,-176.63"/>
</a>
</g>
</g>
<!-- Node_Ja_104&#45;&gt;Node_Ja_103 -->
<g id="edge6" class="edge">
<title>Node_Ja_104:e&#45;&gt;Node_Ja_103:header</title>
<g id="a_edge6"><a xlink:title="Ja_104 &#45;&#45;&gt; Ja_103">
<path fill="none" stroke="#000000" d="M631,-231.5C650.51,-231.5 657.78,-231.5 673.27,-231.5"/>
<polygon fill="#000000" stroke="#000000" points="673.5,-235 683.5,-231.5 673.5,-228 673.5,-235"/>
</a>
</g>
</g>
<!-- Node_Ja_105 -->
<g id="node8" class="node">
<title>Node_Ja_105</title>
<g id="a_node8"><a xlink:title="proto.SetScannerRequest">
<polygon fill="#fffaf0" stroke="transparent" points="234,-328 234,-495 421,-495 421,-328 234,-328"/>
<polygon fill="#e31a1c" stroke="transparent" points="235.5,-478.5 235.5,-493.5 420.5,-493.5 420.5,-478.5 235.5,-478.5"/>
<text text-anchor="start" x="307.5" y="-484.5" font-family="Ubuntu" font-weight="bold" font-size="10.00">SetScannerRequest</text>
<text text-anchor="start" x="247.5" y="-468.5" font-family="Ubuntu" font-size="10.00">1</text>
<text text-anchor="start" x="258.5" y="-468.5" font-family="Ubuntu" font-size="10.00">hosts</text>
<polygon fill="#a6cee3" stroke="transparent" points="388.5,-463.5 388.5,-478.5 420.5,-478.5 420.5,-463.5 388.5,-463.5"/>
<text text-anchor="start" x="390.5" y="-469.5" font-family="Ubuntu" font-style="italic" font-size="10.00">string</text>
<text text-anchor="start" x="247.5" y="-453.5" font-family="Ubuntu" font-size="10.00">2</text>
<text text-anchor="start" x="258.5" y="-453.5" font-family="Ubuntu" font-size="10.00">ports</text>
<polygon fill="#a6cee3" stroke="transparent" points="388.5,-448.5 388.5,-463.5 420.5,-463.5 420.5,-448.5 388.5,-448.5"/>
<text text-anchor="start" x="390.5" y="-454.5" font-family="Ubuntu" font-style="italic" font-size="10.00">string</text>
<text text-anchor="start" x="247.5" y="-438.5" font-family="Ubuntu" font-size="10.00">3</text>
<text text-anchor="start" x="258.5" y="-438.5" font-family="Ubuntu" font-size="10.00">with_aggressive_scan</text>
<polygon fill="#a6cee3" stroke="transparent" points="388.5,-433.5 388.5,-448.5 420.5,-448.5 420.5,-433.5 388.5,-433.5"/>
<text text-anchor="start" x="396.5" y="-439.5" font-family="Ubuntu" font-style="italic" font-size="10.00">bool</text>
<text text-anchor="start" x="247.5" y="-423.5" font-family="Ubuntu" font-size="10.00">4</text>
<text text-anchor="start" x="258.5" y="-423.5" font-family="Ubuntu" font-size="10.00">with_syn_scan</text>
<polygon fill="#a6cee3" stroke="transparent" points="388.5,-418.5 388.5,-433.5 420.5,-433.5 420.5,-418.5 388.5,-418.5"/>
<text text-anchor="start" x="396.5" y="-424.5" font-family="Ubuntu" font-style="italic" font-size="10.00">bool</text>
<text text-anchor="start" x="247.5" y="-408.5" font-family="Ubuntu" font-size="10.00">5</text>
<text text-anchor="start" x="258.5" y="-408.5" font-family="Ubuntu" font-size="10.00">with_null_scan</text>
<polygon fill="#a6cee3" stroke="transparent" points="388.5,-403.5 388.5,-418.5 420.5,-418.5 420.5,-403.5 388.5,-403.5"/>
<text text-anchor="start" x="396.5" y="-409.5" font-family="Ubuntu" font-style="italic" font-size="10.00">bool</text>
<text text-anchor="start" x="247.5" y="-393.5" font-family="Ubuntu" font-size="10.00">6</text>
<text text-anchor="start" x="258.5" y="-393.5" font-family="Ubuntu" font-size="10.00">service_version_detection</text>
<polygon fill="#a6cee3" stroke="transparent" points="388.5,-388.5 388.5,-403.5 420.5,-403.5 420.5,-388.5 388.5,-388.5"/>
<text text-anchor="start" x="396.5" y="-394.5" font-family="Ubuntu" font-style="italic" font-size="10.00">bool</text>
<text text-anchor="start" x="247.5" y="-378.5" font-family="Ubuntu" font-size="10.00">7</text>
<text text-anchor="start" x="258.5" y="-378.5" font-family="Ubuntu" font-size="10.00">os_detection</text>
<polygon fill="#a6cee3" stroke="transparent" points="388.5,-373.5 388.5,-388.5 420.5,-388.5 420.5,-373.5 388.5,-373.5"/>
<text text-anchor="start" x="396.5" y="-379.5" font-family="Ubuntu" font-style="italic" font-size="10.00">bool</text>
<text text-anchor="start" x="247.5" y="-363.5" font-family="Ubuntu" font-size="10.00">8</text>
<text text-anchor="start" x="258.5" y="-363.5" font-family="Ubuntu" font-size="10.00">service_default_scripts</text>
<polygon fill="#a6cee3" stroke="transparent" points="388.5,-358.5 388.5,-373.5 420.5,-373.5 420.5,-358.5 388.5,-358.5"/>
<text text-anchor="start" x="396.5" y="-364.5" font-family="Ubuntu" font-style="italic" font-size="10.00">bool</text>
<text text-anchor="start" x="247.5" y="-348.5" font-family="Ubuntu" font-size="10.00">9</text>
<text text-anchor="start" x="258.5" y="-348.5" font-family="Ubuntu" font-size="10.00">timeout</text>
<polygon fill="#a6cee3" stroke="transparent" points="388.5,-343.5 388.5,-358.5 420.5,-358.5 420.5,-343.5 388.5,-343.5"/>
<text text-anchor="start" x="393.5" y="-349.5" font-family="Ubuntu" font-style="italic" font-size="10.00">int32</text>
<text text-anchor="start" x="241.5" y="-333.5" font-family="Ubuntu" font-size="10.00">10</text>
<text text-anchor="start" x="258.5" y="-333.5" font-family="Ubuntu" font-size="10.00">ping_only</text>
<polygon fill="#a6cee3" stroke="transparent" points="388.5,-328.5 388.5,-343.5 420.5,-343.5 420.5,-328.5 388.5,-328.5"/>
<text text-anchor="start" x="396.5" y="-334.5" font-family="Ubuntu" font-style="italic" font-size="10.00">bool</text>
<polygon fill="none" stroke="black" points="234,-328 234,-495 421,-495 421,-328 234,-328"/>
</a>
</g>
</g>
<!-- Node_Ja_108 -->
<g id="node9" class="node">
<title>Node_Ja_108</title>
<g id="a_node9"><a xlink:title="ScannerService">
<polygon fill="#ffd700" stroke="transparent" points="8,-271 8,-348 182,-348 182,-271 8,-271"/>
<polygon fill="#ff7f50" stroke="transparent" points="9,-331.5 9,-346.5 181,-346.5 181,-331.5 9,-331.5"/>
<text text-anchor="start" x="90" y="-337.5" font-family="Ubuntu" font-weight="bold" font-size="10.00">ScannerService</text>
<text text-anchor="start" x="11" y="-322.5" font-family="Ubuntu" font-weight="bold" font-size="10.00">StartScan</text>
<text text-anchor="start" x="84" y="-321.5" font-family="Ubuntu" font-size="10.00">SetScannerRequest</text>
<polygon fill="#ff7f50" stroke="transparent" points="69,-301.5 69,-316.5 73,-316.5 73,-301.5 69,-301.5"/>
<polygon fill="#ff7f50" stroke="transparent" points="73,-301.5 73,-316.5 181,-316.5 181,-301.5 73,-301.5"/>
<text text-anchor="start" x="100" y="-306.5" font-family="Ubuntu" font-size="10.00">ServerResponse</text>
<text text-anchor="start" x="11" y="-292.5" font-family="Ubuntu" font-weight="bold" font-size="10.00">GetScan</text>
<text text-anchor="start" x="75" y="-291.5" font-family="Ubuntu" font-size="10.00">GetScannerResponse</text>
<polygon fill="#ff7f50" stroke="transparent" points="69,-271.5 69,-286.5 73,-286.5 73,-271.5 69,-271.5"/>
<polygon fill="#ff7f50" stroke="transparent" points="73,-271.5 73,-286.5 181,-286.5 181,-271.5 73,-271.5"/>
<text text-anchor="start" x="100" y="-276.5" font-family="Ubuntu" font-size="10.00">ServerResponse</text>
<polygon fill="none" stroke="black" points="8,-271 8,-348 182,-348 182,-271 8,-271"/>
</a>
</g>
</g>
<!-- Node_Ja_108&#45;&gt;Node_Ja_106 -->
<g id="edge3" class="edge">
<title>Node_Ja_108:e&#45;&gt;Node_Ja_106:header</title>
<g id="a_edge3"><a xlink:title="Ja_108 &#45;&#45;&gt; Ja_106">
<path fill="none" stroke="#000000" d="M182,-293.5C222.97,-293.5 197.34,-241.78 226,-212.5 237.09,-201.17 242.5,-193.83 254.46,-191.39"/>
<polygon fill="#000000" stroke="#000000" points="254.85,-194.87 264.5,-190.5 254.23,-187.9 254.85,-194.87"/>
</a>
</g>
</g>
<!-- Node_Ja_108&#45;&gt;Node_Ja_107 -->
<g id="edge2" class="edge">
<title>Node_Ja_108:e&#45;&gt;Node_Ja_107:header</title>
<g id="a_edge2"><a xlink:title="Ja_108 &#45;&#45;&gt; Ja_107">
<path fill="none" stroke="#000000" d="M182,-308.5C207.26,-308.5 214.69,-297.12 235.36,-294.18"/>
<polygon fill="#000000" stroke="#000000" points="235.76,-297.66 245.5,-293.5 235.29,-290.68 235.76,-297.66"/>
</a>
</g>
</g>
<!-- Node_Ja_108&#45;&gt;Node_Ja_107 -->
<g id="edge8" class="edge">
<title>Node_Ja_108:e&#45;&gt;Node_Ja_107:header</title>
<g id="a_edge8"><a xlink:title="Ja_108 &#45;&#45;&gt; Ja_107">
<path fill="none" stroke="#000000" d="M182,-278.5C207.26,-278.5 214.69,-289.88 235.36,-292.82"/>
<polygon fill="#000000" stroke="#000000" points="235.29,-296.32 245.5,-293.5 235.76,-289.34 235.29,-296.32"/>
</a>
</g>
</g>
<!-- Node_Ja_108&#45;&gt;Node_Ja_105 -->
<g id="edge1" class="edge">
<title>Node_Ja_108:e&#45;&gt;Node_Ja_105:header</title>
<g id="a_edge1"><a xlink:title="Ja_108 &#45;&#45;&gt; Ja_105">
<path fill="none" stroke="#000000" d="M182,-324.5C253.84,-324.5 168.41,-470.46 224.27,-485.29"/>
<polygon fill="#000000" stroke="#000000" points="224.16,-488.8 234.5,-486.5 224.98,-481.85 224.16,-488.8"/>
</a>
</g>
</g>
</g>
</svg>
