<?xml version="1.0" encoding="UTF-8" standalone="no"?>
<!DOCTYPE svg PUBLIC "-//W3C//DTD SVG 1.1//EN"
 "http://www.w3.org/Graphics/SVG/1.1/DTD/svg11.dtd">
<!-- Generated by graphviz version 2.47.3 (0)
 -->
<!-- Title: protodot Pages: 1 -->
<svg width="1630pt" height="954pt"
 viewBox="0.00 0.00 1630.00 954.00" xmlns="http://www.w3.org/2000/svg" xmlns:xlink="http://www.w3.org/1999/xlink">
<g id="graph0" class="graph" transform="scale(1 1) rotate(0) translate(4 950)">
<title>protodot</title>
<g id="a_graph0"><a xlink:title="proto">
<text text-anchor="middle" x="811" y="-7.8" font-family="Times,serif" font-size="14.00">proto</text>
</a>
</g>
<g id="clust1" class="cluster">
<title>cluster_b3ebafa206c0</title>
<g id="a_clust1"><a xlink:title="proto/service.proto">
<polygon fill="#caff70" stroke="black" points="349,-296 349,-938 1614,-938 1614,-296 349,-296"/>
<text text-anchor="middle" x="981.5" y="-922.8" font-family="Times,serif" font-size="14.00">service.proto</text>
</a>
</g>
</g>
<g id="clust2" class="cluster">
<title>cluster_dfe805b7589f</title>
<g id="a_clust2"><a xlink:title="proto">
<polygon fill="#caff70" stroke="black" points="1091,-31 1091,-288 1233,-288 1233,-31 1091,-31"/>
<text text-anchor="middle" x="1162" y="-272.8" font-family="Times,serif" font-size="14.00">proto</text>
</a>
</g>
</g>
<!-- Node_Ja_100 -->
<g id="node1" class="node">
<title>Node_Ja_100</title>
<g id="a_node1"><a xlink:title="proto.Host">
<polygon fill="#fffaf0" stroke="transparent" points="1296.5,-520.5 1296.5,-597.5 1402.5,-597.5 1402.5,-520.5 1296.5,-520.5"/>
<polygon fill="#e31a1c" stroke="transparent" points="1297.5,-581 1297.5,-596 1401.5,-596 1401.5,-581 1297.5,-581"/>
<text text-anchor="start" x="1373.5" y="-587" font-family="Ubuntu" font-weight="bold" font-size="10.00">Host</text>
<text text-anchor="start" x="1303.5" y="-571" font-family="Ubuntu" font-size="10.00">1</text>
<text text-anchor="start" x="1314.5" y="-571" font-family="Ubuntu" font-size="10.00">address</text>
<polygon fill="#a6cee3" stroke="transparent" points="1369.5,-566 1369.5,-581 1401.5,-581 1401.5,-566 1369.5,-566"/>
<text text-anchor="start" x="1371.5" y="-572" font-family="Ubuntu" font-style="italic" font-size="10.00">string</text>
<text text-anchor="start" x="1303.5" y="-556" font-family="Ubuntu" font-size="10.00">2</text>
<text text-anchor="start" x="1314.5" y="-556" font-family="Ubuntu" font-size="10.00">os_version</text>
<polygon fill="#a6cee3" stroke="transparent" points="1369.5,-551 1369.5,-566 1401.5,-566 1401.5,-551 1369.5,-551"/>
<text text-anchor="start" x="1371.5" y="-557" font-family="Ubuntu" font-style="italic" font-size="10.00">string</text>
<text text-anchor="start" x="1303.5" y="-541" font-family="Ubuntu" font-size="10.00">3</text>
<text text-anchor="start" x="1314.5" y="-541" font-family="Ubuntu" font-size="10.00">state</text>
<polygon fill="#a6cee3" stroke="transparent" points="1369.5,-536 1369.5,-551 1401.5,-551 1401.5,-536 1369.5,-536"/>
<text text-anchor="start" x="1371.5" y="-542" font-family="Ubuntu" font-style="italic" font-size="10.00">string</text>
<text text-anchor="start" x="1303.5" y="-526" font-family="Ubuntu" font-size="10.00">4</text>
<text text-anchor="start" x="1314.5" y="-526" font-family="Ubuntu" font-size="10.00">fqdn</text>
<polygon fill="#a6cee3" stroke="transparent" points="1369.5,-521 1369.5,-536 1401.5,-536 1401.5,-521 1369.5,-521"/>
<text text-anchor="start" x="1371.5" y="-527" font-family="Ubuntu" font-style="italic" font-size="10.00">string</text>
<polygon fill="none" stroke="black" points="1296.5,-520.5 1296.5,-597.5 1402.5,-597.5 1402.5,-520.5 1296.5,-520.5"/>
</a>
</g>
</g>
<!-- Node_Ja_108 -->
<g id="node2" class="node">
<title>Node_Ja_108</title>
<g id="a_node2"><a xlink:title="proto.ServerResponse">
<polygon fill="#fffaf0" stroke="transparent" points="646.5,-542.5 646.5,-619.5 810.5,-619.5 810.5,-542.5 646.5,-542.5"/>
<polygon fill="#e31a1c" stroke="transparent" points="647.5,-603 647.5,-618 809.5,-618 809.5,-603 647.5,-603"/>
<text text-anchor="start" x="714.5" y="-609" font-family="Ubuntu" font-weight="bold" font-size="10.00">ServerResponse</text>
<text text-anchor="start" x="653.5" y="-593" font-family="Ubuntu" font-size="10.00">1</text>
<text text-anchor="start" x="664.5" y="-593" font-family="Ubuntu" font-size="10.00">success</text>
<polygon fill="#a6cee3" stroke="transparent" points="705.5,-588 705.5,-603 809.5,-603 809.5,-588 705.5,-588"/>
<text text-anchor="start" x="785.5" y="-594" font-family="Ubuntu" font-style="italic" font-size="10.00">bool</text>
<text text-anchor="start" x="653.5" y="-578" font-family="Ubuntu" font-size="10.00">2</text>
<text text-anchor="start" x="664.5" y="-578" font-family="Ubuntu" font-size="10.00">key</text>
<polygon fill="#a6cee3" stroke="transparent" points="705.5,-573 705.5,-588 809.5,-588 809.5,-573 705.5,-573"/>
<text text-anchor="start" x="779.5" y="-579" font-family="Ubuntu" font-style="italic" font-size="10.00">string</text>
<text text-anchor="start" x="653.5" y="-563" font-family="Ubuntu" font-size="10.00">3</text>
<text text-anchor="start" x="664.5" y="-563" font-family="Ubuntu" font-size="10.00">value</text>
<polygon fill="#fb9a99" stroke="transparent" points="705.5,-558 705.5,-573 809.5,-573 809.5,-558 705.5,-558"/>
<text text-anchor="start" x="707.5" y="-564" font-family="Ubuntu" font-weight="bold" font-size="10.00">ScannerResponse</text>
<text text-anchor="start" x="653.5" y="-548" font-family="Ubuntu" font-size="10.00">4</text>
<text text-anchor="start" x="664.5" y="-548" font-family="Ubuntu" font-size="10.00">error</text>
<polygon fill="#a6cee3" stroke="transparent" points="705.5,-543 705.5,-558 809.5,-558 809.5,-543 705.5,-543"/>
<text text-anchor="start" x="779.5" y="-549" font-family="Ubuntu" font-style="italic" font-size="10.00">string</text>
<polygon fill="none" stroke="black" points="646.5,-542.5 646.5,-619.5 810.5,-619.5 810.5,-542.5 646.5,-542.5"/>
</a>
</g>
</g>
<!-- Node_Ja_104 -->
<g id="node8" class="node">
<title>Node_Ja_104</title>
<g id="a_node8"><a xlink:title="proto.ScannerResponse">
<polygon fill="#fffaf0" stroke="transparent" points="874,-449.5 874,-556.5 1055,-556.5 1055,-449.5 874,-449.5"/>
<polygon fill="#e31a1c" stroke="transparent" points="875.5,-540 875.5,-555 1054.5,-555 1054.5,-540 875.5,-540"/>
<text text-anchor="start" x="952.5" y="-546" font-family="Ubuntu" font-weight="bold" font-size="10.00">ScannerResponse</text>
<text text-anchor="start" x="877.5" y="-530" font-family="Ubuntu" font-size="10.00">[...]</text>
<text text-anchor="start" x="898.5" y="-530" font-family="Ubuntu" font-size="10.00">1</text>
<text text-anchor="start" x="909.5" y="-530" font-family="Ubuntu" font-size="10.00">host_result</text>
<polygon fill="#fb9a99" stroke="transparent" points="989.5,-525 989.5,-540 1054.5,-540 1054.5,-525 989.5,-525"/>
<text text-anchor="start" x="991.5" y="-531" font-family="Ubuntu" font-weight="bold" font-size="10.00">HostResult</text>
<text text-anchor="start" x="898.5" y="-515" font-family="Ubuntu" font-size="10.00">2</text>
<text text-anchor="start" x="909.5" y="-515" font-family="Ubuntu" font-size="10.00">start_time</text>
<polygon fill="#a6cee3" stroke="transparent" points="989.5,-510 989.5,-525 1054.5,-525 1054.5,-510 989.5,-510"/>
<text text-anchor="start" x="1024.5" y="-516" font-family="Ubuntu" font-style="italic" font-size="10.00">string</text>
<text text-anchor="start" x="898.5" y="-500" font-family="Ubuntu" font-size="10.00">3</text>
<text text-anchor="start" x="909.5" y="-500" font-family="Ubuntu" font-size="10.00">end_time</text>
<polygon fill="#a6cee3" stroke="transparent" points="989.5,-495 989.5,-510 1054.5,-510 1054.5,-495 989.5,-495"/>
<text text-anchor="start" x="1024.5" y="-501" font-family="Ubuntu" font-style="italic" font-size="10.00">string</text>
<text text-anchor="start" x="898.5" y="-485" font-family="Ubuntu" font-size="10.00">4</text>
<text text-anchor="start" x="909.5" y="-485" font-family="Ubuntu" font-size="10.00">expiration_time</text>
<polygon fill="#a6cee3" stroke="transparent" points="989.5,-480 989.5,-495 1054.5,-495 1054.5,-480 989.5,-480"/>
<text text-anchor="start" x="1024.5" y="-486" font-family="Ubuntu" font-style="italic" font-size="10.00">string</text>
<text text-anchor="start" x="898.5" y="-470" font-family="Ubuntu" font-size="10.00">5</text>
<text text-anchor="start" x="909.5" y="-470" font-family="Ubuntu" font-size="10.00">key</text>
<polygon fill="#a6cee3" stroke="transparent" points="989.5,-465 989.5,-480 1054.5,-480 1054.5,-465 989.5,-465"/>
<text text-anchor="start" x="1024.5" y="-471" font-family="Ubuntu" font-style="italic" font-size="10.00">string</text>
<text text-anchor="start" x="898.5" y="-455" font-family="Ubuntu" font-size="10.00">6</text>
<text text-anchor="start" x="909.5" y="-455" font-family="Ubuntu" font-size="10.00">status</text>
<polygon fill="#b2df8a" stroke="transparent" points="989.5,-450 989.5,-465 1054.5,-465 1054.5,-450 989.5,-450"/>
<text text-anchor="start" x="1021.5" y="-456" font-family="Ubuntu" text-decoration="underline" font-size="10.00">Status</text>
<polygon fill="none" stroke="black" points="874,-449.5 874,-556.5 1055,-556.5 1055,-449.5 874,-449.5"/>
</a>
</g>
</g>
<!-- Node_Ja_108&#45;&gt;Node_Ja_104 -->
<g id="edge11" class="edge">
<title>Node_Ja_108:e&#45;&gt;Node_Ja_104:header</title>
<g id="a_edge11"><a xlink:title="Ja_108 &#45;&#45;&gt; Ja_104">
<path fill="none" stroke="#000000" d="M810.5,-565C836.25,-565 843.41,-551.98 864.51,-548.73"/>
<polygon fill="#000000" stroke="#000000" points="864.78,-552.22 874.5,-548 864.27,-545.24 864.78,-552.22"/>
</a>
</g>
</g>
<!-- Node_Ja_106 -->
<g id="node3" class="node">
<title>Node_Ja_106</title>
<g id="a_node3"><a xlink:title="proto.ParamsScannerRequest">
<polygon fill="#fffaf0" stroke="transparent" points="635,-645.5 635,-902.5 822,-902.5 822,-645.5 635,-645.5"/>
<polygon fill="#e31a1c" stroke="transparent" points="636.5,-886 636.5,-901 821.5,-901 821.5,-886 636.5,-886"/>
<text text-anchor="start" x="685.5" y="-892" font-family="Ubuntu" font-weight="bold" font-size="10.00">ParamsScannerRequest</text>
<text text-anchor="start" x="648.5" y="-876" font-family="Ubuntu" font-size="10.00">1</text>
<text text-anchor="start" x="659.5" y="-876" font-family="Ubuntu" font-size="10.00">hosts</text>
<polygon fill="#a6cee3" stroke="transparent" points="789.5,-871 789.5,-886 821.5,-886 821.5,-871 789.5,-871"/>
<text text-anchor="start" x="791.5" y="-877" font-family="Ubuntu" font-style="italic" font-size="10.00">string</text>
<text text-anchor="start" x="648.5" y="-861" font-family="Ubuntu" font-size="10.00">2</text>
<text text-anchor="start" x="659.5" y="-861" font-family="Ubuntu" font-size="10.00">ports</text>
<polygon fill="#a6cee3" stroke="transparent" points="789.5,-856 789.5,-871 821.5,-871 821.5,-856 789.5,-856"/>
<text text-anchor="start" x="791.5" y="-862" font-family="Ubuntu" font-style="italic" font-size="10.00">string</text>
<text text-anchor="start" x="648.5" y="-846" font-family="Ubuntu" font-size="10.00">3</text>
<text text-anchor="start" x="659.5" y="-846" font-family="Ubuntu" font-size="10.00">with_aggressive_scan</text>
<polygon fill="#a6cee3" stroke="transparent" points="789.5,-841 789.5,-856 821.5,-856 821.5,-841 789.5,-841"/>
<text text-anchor="start" x="797.5" y="-847" font-family="Ubuntu" font-style="italic" font-size="10.00">bool</text>
<text text-anchor="start" x="648.5" y="-831" font-family="Ubuntu" font-size="10.00">4</text>
<text text-anchor="start" x="659.5" y="-831" font-family="Ubuntu" font-size="10.00">with_syn_scan</text>
<polygon fill="#a6cee3" stroke="transparent" points="789.5,-826 789.5,-841 821.5,-841 821.5,-826 789.5,-826"/>
<text text-anchor="start" x="797.5" y="-832" font-family="Ubuntu" font-style="italic" font-size="10.00">bool</text>
<text text-anchor="start" x="648.5" y="-816" font-family="Ubuntu" font-size="10.00">5</text>
<text text-anchor="start" x="659.5" y="-816" font-family="Ubuntu" font-size="10.00">with_null_scan</text>
<polygon fill="#a6cee3" stroke="transparent" points="789.5,-811 789.5,-826 821.5,-826 821.5,-811 789.5,-811"/>
<text text-anchor="start" x="797.5" y="-817" font-family="Ubuntu" font-style="italic" font-size="10.00">bool</text>
<text text-anchor="start" x="648.5" y="-801" font-family="Ubuntu" font-size="10.00">6</text>
<text text-anchor="start" x="659.5" y="-801" font-family="Ubuntu" font-size="10.00">service_version_detection</text>
<polygon fill="#a6cee3" stroke="transparent" points="789.5,-796 789.5,-811 821.5,-811 821.5,-796 789.5,-796"/>
<text text-anchor="start" x="797.5" y="-802" font-family="Ubuntu" font-style="italic" font-size="10.00">bool</text>
<text text-anchor="start" x="648.5" y="-786" font-family="Ubuntu" font-size="10.00">7</text>
<text text-anchor="start" x="659.5" y="-786" font-family="Ubuntu" font-size="10.00">os_detection</text>
<polygon fill="#a6cee3" stroke="transparent" points="789.5,-781 789.5,-796 821.5,-796 821.5,-781 789.5,-781"/>
<text text-anchor="start" x="797.5" y="-787" font-family="Ubuntu" font-style="italic" font-size="10.00">bool</text>
<text text-anchor="start" x="648.5" y="-771" font-family="Ubuntu" font-size="10.00">8</text>
<text text-anchor="start" x="659.5" y="-771" font-family="Ubuntu" font-size="10.00">service_default_scripts</text>
<polygon fill="#a6cee3" stroke="transparent" points="789.5,-766 789.5,-781 821.5,-781 821.5,-766 789.5,-766"/>
<text text-anchor="start" x="797.5" y="-772" font-family="Ubuntu" font-style="italic" font-size="10.00">bool</text>
<text text-anchor="start" x="648.5" y="-756" font-family="Ubuntu" font-size="10.00">9</text>
<text text-anchor="start" x="659.5" y="-756" font-family="Ubuntu" font-size="10.00">timeout</text>
<polygon fill="#a6cee3" stroke="transparent" points="789.5,-751 789.5,-766 821.5,-766 821.5,-751 789.5,-751"/>
<text text-anchor="start" x="794.5" y="-757" font-family="Ubuntu" font-style="italic" font-size="10.00">int32</text>
<text text-anchor="start" x="642.5" y="-741" font-family="Ubuntu" font-size="10.00">10</text>
<text text-anchor="start" x="659.5" y="-741" font-family="Ubuntu" font-size="10.00">ping_only</text>
<polygon fill="#a6cee3" stroke="transparent" points="789.5,-736 789.5,-751 821.5,-751 821.5,-736 789.5,-736"/>
<text text-anchor="start" x="797.5" y="-742" font-family="Ubuntu" font-style="italic" font-size="10.00">bool</text>
<text text-anchor="start" x="642.5" y="-726" font-family="Ubuntu" font-size="10.00">11</text>
<text text-anchor="start" x="659.5" y="-726" font-family="Ubuntu" font-size="10.00">retention_time</text>
<polygon fill="#a6cee3" stroke="transparent" points="789.5,-721 789.5,-736 821.5,-736 821.5,-721 789.5,-721"/>
<text text-anchor="start" x="794.5" y="-727" font-family="Ubuntu" font-style="italic" font-size="10.00">int32</text>
<text text-anchor="start" x="642.5" y="-711" font-family="Ubuntu" font-size="10.00">12</text>
<text text-anchor="start" x="659.5" y="-711" font-family="Ubuntu" font-size="10.00">fast_mode</text>
<polygon fill="#a6cee3" stroke="transparent" points="789.5,-706 789.5,-721 821.5,-721 821.5,-706 789.5,-706"/>
<text text-anchor="start" x="797.5" y="-712" font-family="Ubuntu" font-style="italic" font-size="10.00">bool</text>
<text text-anchor="start" x="642.5" y="-696" font-family="Ubuntu" font-size="10.00">13</text>
<text text-anchor="start" x="659.5" y="-696" font-family="Ubuntu" font-size="10.00">key</text>
<polygon fill="#a6cee3" stroke="transparent" points="789.5,-691 789.5,-706 821.5,-706 821.5,-691 789.5,-691"/>
<text text-anchor="start" x="791.5" y="-697" font-family="Ubuntu" font-style="italic" font-size="10.00">string</text>
<text text-anchor="start" x="642.5" y="-681" font-family="Ubuntu" font-size="10.00">14</text>
<text text-anchor="start" x="659.5" y="-681" font-family="Ubuntu" font-size="10.00">defer_duration</text>
<polygon fill="#a6cee3" stroke="transparent" points="789.5,-676 789.5,-691 821.5,-691 821.5,-676 789.5,-676"/>
<text text-anchor="start" x="794.5" y="-682" font-family="Ubuntu" font-style="italic" font-size="10.00">int64</text>
<text text-anchor="start" x="642.5" y="-666" font-family="Ubuntu" font-size="10.00">15</text>
<text text-anchor="start" x="659.5" y="-666" font-family="Ubuntu" font-size="10.00">crontab</text>
<polygon fill="#a6cee3" stroke="transparent" points="789.5,-661 789.5,-676 821.5,-676 821.5,-661 789.5,-661"/>
<text text-anchor="start" x="791.5" y="-667" font-family="Ubuntu" font-style="italic" font-size="10.00">string</text>
<text text-anchor="start" x="642.5" y="-651" font-family="Ubuntu" font-size="10.00">16</text>
<text text-anchor="start" x="659.5" y="-651" font-family="Ubuntu" font-size="10.00">scan_speed</text>
<polygon fill="#a6cee3" stroke="transparent" points="789.5,-646 789.5,-661 821.5,-661 821.5,-646 789.5,-646"/>
<text text-anchor="start" x="794.5" y="-652" font-family="Ubuntu" font-style="italic" font-size="10.00">int32</text>
<polygon fill="none" stroke="black" points="635,-645.5 635,-902.5 822,-902.5 822,-645.5 635,-645.5"/>
</a>
</g>
</g>
<!-- Node_Ja_107 -->
<g id="node4" class="node">
<title>Node_Ja_107</title>
<g id="a_node4"><a xlink:title="proto.GetScannerRequest">
<polygon fill="#fffaf0" stroke="transparent" points="669.5,-484 669.5,-516 787.5,-516 787.5,-484 669.5,-484"/>
<polygon fill="#e31a1c" stroke="transparent" points="670.5,-500 670.5,-515 786.5,-515 786.5,-500 670.5,-500"/>
<text text-anchor="start" x="672.5" y="-506" font-family="Ubuntu" font-weight="bold" font-size="10.00">GetScannerRequest</text>
<text text-anchor="start" x="711.5" y="-490" font-family="Ubuntu" font-size="10.00">1</text>
<text text-anchor="start" x="722.5" y="-490" font-family="Ubuntu" font-size="10.00">key</text>
<polygon fill="#a6cee3" stroke="transparent" points="748.5,-485 748.5,-500 786.5,-500 786.5,-485 748.5,-485"/>
<text text-anchor="start" x="756.5" y="-491" font-family="Ubuntu" font-style="italic" font-size="10.00">string</text>
<polygon fill="none" stroke="black" points="669.5,-484 669.5,-516 787.5,-516 787.5,-484 669.5,-484"/>
</a>
</g>
</g>
<!-- Node_Ja_113 -->
<g id="node5" class="node">
<title>Node_Ja_113</title>
<g id="a_node5"><a xlink:title="ScannerService">
<polygon fill="#ffd700" stroke="transparent" points="365,-455.5 365,-622.5 583,-622.5 583,-455.5 365,-455.5"/>
<polygon fill="#ff7f50" stroke="transparent" points="366,-606 366,-621 582,-621 582,-606 366,-606"/>
<text text-anchor="start" x="491" y="-612" font-family="Ubuntu" font-weight="bold" font-size="10.00">ScannerService</text>
<text text-anchor="start" x="368" y="-597" font-family="Ubuntu" font-weight="bold" font-size="10.00">StartAsyncScan</text>
<text text-anchor="start" x="465" y="-596" font-family="Ubuntu" font-size="10.00">ParamsScannerRequest</text>
<polygon fill="#ff7f50" stroke="transparent" points="459,-576 459,-591 463,-591 463,-576 459,-576"/>
<polygon fill="#ff7f50" stroke="transparent" points="463,-576 463,-591 582,-591 582,-576 463,-576"/>
<text text-anchor="start" x="501" y="-581" font-family="Ubuntu" font-size="10.00">ServerResponse</text>
<text text-anchor="start" x="368" y="-567" font-family="Ubuntu" font-weight="bold" font-size="10.00">StartScan</text>
<text text-anchor="start" x="465" y="-566" font-family="Ubuntu" font-size="10.00">ParamsScannerRequest</text>
<polygon fill="#ff7f50" stroke="transparent" points="459,-546 459,-561 463,-561 463,-546 459,-546"/>
<polygon fill="#ff7f50" stroke="transparent" points="463,-546 463,-561 582,-561 582,-546 463,-546"/>
<text text-anchor="start" x="501" y="-551" font-family="Ubuntu" font-size="10.00">ServerResponse</text>
<text text-anchor="start" x="368" y="-537" font-family="Ubuntu" font-weight="bold" font-size="10.00">GetScan</text>
<text text-anchor="start" x="483" y="-536" font-family="Ubuntu" font-size="10.00">GetScannerRequest</text>
<polygon fill="#ff7f50" stroke="transparent" points="459,-516 459,-531 463,-531 463,-516 459,-516"/>
<polygon fill="#ff7f50" stroke="transparent" points="463,-516 463,-531 582,-531 582,-516 463,-516"/>
<text text-anchor="start" x="501" y="-521" font-family="Ubuntu" font-size="10.00">ServerResponse</text>
<text text-anchor="start" x="368" y="-507" font-family="Ubuntu" font-weight="bold" font-size="10.00">DeleteScan</text>
<text text-anchor="start" x="483" y="-506" font-family="Ubuntu" font-size="10.00">GetScannerRequest</text>
<polygon fill="#ff7f50" stroke="transparent" points="459,-486 459,-501 463,-501 463,-486 459,-486"/>
<polygon fill="#ff7f50" stroke="transparent" points="463,-486 463,-501 582,-501 582,-486 463,-486"/>
<text text-anchor="start" x="501" y="-491" font-family="Ubuntu" font-size="10.00">ServerResponse</text>
<text text-anchor="start" x="368" y="-477" font-family="Ubuntu" font-weight="bold" font-size="10.00">ServiceControl</text>
<text text-anchor="start" x="481" y="-476" font-family="Ubuntu" font-size="10.00">TasksServiceControl</text>
<polygon fill="#ff7f50" stroke="transparent" points="459,-456 459,-471 463,-471 463,-456 459,-456"/>
<polygon fill="#ff7f50" stroke="transparent" points="463,-456 463,-471 582,-471 582,-456 463,-456"/>
<text text-anchor="start" x="481" y="-461" font-family="Ubuntu" font-size="10.00">TasksServiceControl</text>
<polygon fill="none" stroke="black" points="365,-455.5 365,-622.5 583,-622.5 583,-455.5 365,-455.5"/>
</a>
</g>
</g>
<!-- Node_Ja_113&#45;&gt;Node_Ja_108 -->
<g id="edge1" class="edge">
<title>Node_Ja_113:e&#45;&gt;Node_Ja_108:header</title>
<g id="a_edge1"><a xlink:title="Ja_113 &#45;&#45;&gt; Ja_108">
<path fill="none" stroke="#000000" d="M583,-523C627.46,-523 602.92,-597.79 636.61,-609.47"/>
<polygon fill="#000000" stroke="#000000" points="636.08,-612.93 646.5,-611 637.15,-606.02 636.08,-612.93"/>
</a>
</g>
</g>
<!-- Node_Ja_113&#45;&gt;Node_Ja_108 -->
<g id="edge5" class="edge">
<title>Node_Ja_113:e&#45;&gt;Node_Ja_108:header</title>
<g id="a_edge5"><a xlink:title="Ja_113 &#45;&#45;&gt; Ja_108">
<path fill="none" stroke="#000000" d="M583,-554C617.07,-554 610.57,-600.01 636.4,-609.36"/>
<polygon fill="#000000" stroke="#000000" points="636.07,-612.85 646.5,-611 637.19,-605.94 636.07,-612.85"/>
</a>
</g>
</g>
<!-- Node_Ja_113&#45;&gt;Node_Ja_108 -->
<g id="edge7" class="edge">
<title>Node_Ja_113:e&#45;&gt;Node_Ja_108:header</title>
<g id="a_edge7"><a xlink:title="Ja_113 &#45;&#45;&gt; Ja_108">
<path fill="none" stroke="#000000" d="M583,-493C638.72,-493 593.63,-596.28 636.36,-609.59"/>
<polygon fill="#000000" stroke="#000000" points="636.11,-613.09 646.5,-611 637.08,-606.16 636.11,-613.09"/>
</a>
</g>
</g>
<!-- Node_Ja_113&#45;&gt;Node_Ja_108 -->
<g id="edge21" class="edge">
<title>Node_Ja_113:e&#45;&gt;Node_Ja_108:header</title>
<g id="a_edge21"><a xlink:title="Ja_113 &#45;&#45;&gt; Ja_108">
<path fill="none" stroke="#000000" d="M583,-584C609.95,-584 614.89,-604.86 636.51,-609.91"/>
<polygon fill="#000000" stroke="#000000" points="636.18,-613.39 646.5,-611 636.94,-606.43 636.18,-613.39"/>
</a>
</g>
</g>
<!-- Node_Ja_113&#45;&gt;Node_Ja_106 -->
<g id="edge17" class="edge">
<title>Node_Ja_113:e&#45;&gt;Node_Ja_106:header</title>
<g id="a_edge17"><a xlink:title="Ja_113 &#45;&#45;&gt; Ja_106">
<path fill="none" stroke="#000000" d="M583,-599C645.81,-599 577.58,-861.53 625.55,-891.27"/>
<polygon fill="#000000" stroke="#000000" points="624.93,-894.73 635.5,-894 626.78,-887.98 624.93,-894.73"/>
</a>
</g>
</g>
<!-- Node_Ja_113&#45;&gt;Node_Ja_106 -->
<g id="edge22" class="edge">
<title>Node_Ja_113:e&#45;&gt;Node_Ja_106:header</title>
<g id="a_edge22"><a xlink:title="Ja_113 &#45;&#45;&gt; Ja_106">
<path fill="none" stroke="#000000" d="M583,-569C652.44,-569 571.44,-861.83 625.6,-891.57"/>
<polygon fill="#000000" stroke="#000000" points="624.95,-895.02 635.5,-894 626.62,-888.22 624.95,-895.02"/>
</a>
</g>
</g>
<!-- Node_Ja_113&#45;&gt;Node_Ja_107 -->
<g id="edge18" class="edge">
<title>Node_Ja_113:e&#45;&gt;Node_Ja_107:header</title>
<g id="a_edge18"><a xlink:title="Ja_113 &#45;&#45;&gt; Ja_107">
<path fill="none" stroke="#000000" d="M583,-508C617.84,-508 629,-508 659.4,-508"/>
<polygon fill="#000000" stroke="#000000" points="659.5,-511.5 669.5,-508 659.5,-504.5 659.5,-511.5"/>
</a>
</g>
</g>
<!-- Node_Ja_113&#45;&gt;Node_Ja_107 -->
<g id="edge19" class="edge">
<title>Node_Ja_113:e&#45;&gt;Node_Ja_107:header</title>
<g id="a_edge19"><a xlink:title="Ja_113 &#45;&#45;&gt; Ja_107">
<path fill="none" stroke="#000000" d="M583,-538C620.04,-538 627.6,-513.15 659.34,-508.68"/>
<polygon fill="#000000" stroke="#000000" points="659.76,-512.16 669.5,-508 659.29,-505.18 659.76,-512.16"/>
</a>
</g>
</g>
<!-- Node_Ja_111 -->
<g id="node12" class="node">
<title>Node_Ja_111</title>
<g id="a_node12"><a xlink:title="proto.TasksServiceControl">
<polygon fill="#fffaf0" stroke="transparent" points="668,-426 668,-458 789,-458 789,-426 668,-426"/>
<polygon fill="#e31a1c" stroke="transparent" points="669.5,-442 669.5,-457 788.5,-457 788.5,-442 669.5,-442"/>
<text text-anchor="start" x="671.5" y="-448" font-family="Ubuntu" font-weight="bold" font-size="10.00">TasksServiceControl</text>
<text text-anchor="start" x="681.5" y="-432" font-family="Ubuntu" font-size="10.00">1</text>
<text text-anchor="start" x="692.5" y="-432" font-family="Ubuntu" font-size="10.00">state</text>
<polygon fill="#b2df8a" stroke="transparent" points="720.5,-427 720.5,-442 788.5,-442 788.5,-427 720.5,-427"/>
<text text-anchor="start" x="724.5" y="-433" font-family="Ubuntu" text-decoration="underline" font-size="10.00">ServiceState</text>
<polygon fill="none" stroke="black" points="668,-426 668,-458 789,-458 789,-426 668,-426"/>
</a>
</g>
</g>
<!-- Node_Ja_113&#45;&gt;Node_Ja_111 -->
<g id="edge2" class="edge">
<title>Node_Ja_113:e&#45;&gt;Node_Ja_111:header</title>
<g id="a_edge2"><a xlink:title="Ja_113 &#45;&#45;&gt; Ja_111">
<path fill="none" stroke="#000000" d="M583,-463C617.83,-463 628.18,-452.32 658.43,-450.32"/>
<polygon fill="#000000" stroke="#000000" points="658.62,-453.82 668.5,-450 658.39,-446.82 658.62,-453.82"/>
</a>
</g>
</g>
<!-- Node_Ja_113&#45;&gt;Node_Ja_111 -->
<g id="edge12" class="edge">
<title>Node_Ja_113:e&#45;&gt;Node_Ja_111:header</title>
<g id="a_edge12"><a xlink:title="Ja_113 &#45;&#45;&gt; Ja_111">
<path fill="none" stroke="#000000" d="M583,-478C619.39,-478 627.24,-454.81 658.51,-450.64"/>
<polygon fill="#000000" stroke="#000000" points="658.74,-454.13 668.5,-450 658.3,-447.14 658.74,-454.13"/>
</a>
</g>
</g>
<!-- Node_Ja_101 -->
<g id="node6" class="node">
<title>Node_Ja_101</title>
<g id="a_node6"><a xlink:title="proto.PortVersion">
<polygon fill="#fffaf0" stroke="transparent" points="1482,-341.5 1482,-418.5 1598,-418.5 1598,-341.5 1482,-341.5"/>
<polygon fill="#e31a1c" stroke="transparent" points="1483,-402 1483,-417 1597,-417 1597,-402 1483,-402"/>
<text text-anchor="start" x="1528" y="-408" font-family="Ubuntu" font-weight="bold" font-size="10.00">PortVersion</text>
<text text-anchor="start" x="1489" y="-392" font-family="Ubuntu" font-size="10.00">1</text>
<text text-anchor="start" x="1500" y="-392" font-family="Ubuntu" font-size="10.00">low_version</text>
<polygon fill="#a6cee3" stroke="transparent" points="1565,-387 1565,-402 1597,-402 1597,-387 1565,-387"/>
<text text-anchor="start" x="1567" y="-393" font-family="Ubuntu" font-style="italic" font-size="10.00">string</text>
<text text-anchor="start" x="1489" y="-377" font-family="Ubuntu" font-size="10.00">2</text>
<text text-anchor="start" x="1500" y="-377" font-family="Ubuntu" font-size="10.00">high_version</text>
<polygon fill="#a6cee3" stroke="transparent" points="1565,-372 1565,-387 1597,-387 1597,-372 1565,-372"/>
<text text-anchor="start" x="1567" y="-378" font-family="Ubuntu" font-style="italic" font-size="10.00">string</text>
<text text-anchor="start" x="1489" y="-362" font-family="Ubuntu" font-size="10.00">3</text>
<text text-anchor="start" x="1500" y="-362" font-family="Ubuntu" font-size="10.00">extra_infos</text>
<polygon fill="#a6cee3" stroke="transparent" points="1565,-357 1565,-372 1597,-372 1597,-357 1565,-357"/>
<text text-anchor="start" x="1567" y="-363" font-family="Ubuntu" font-style="italic" font-size="10.00">string</text>
<text text-anchor="start" x="1489" y="-347" font-family="Ubuntu" font-size="10.00">4</text>
<text text-anchor="start" x="1500" y="-347" font-family="Ubuntu" font-size="10.00">product</text>
<polygon fill="#a6cee3" stroke="transparent" points="1565,-342 1565,-357 1597,-357 1597,-342 1565,-342"/>
<text text-anchor="start" x="1567" y="-348" font-family="Ubuntu" font-style="italic" font-size="10.00">string</text>
<polygon fill="none" stroke="black" points="1482,-341.5 1482,-418.5 1598,-418.5 1598,-341.5 1482,-341.5"/>
</a>
</g>
</g>
<!-- Node_Ja_102 -->
<g id="node7" class="node">
<title>Node_Ja_102</title>
<g id="a_node7"><a xlink:title="proto.Port">
<polygon fill="#fffaf0" stroke="transparent" points="1269,-402 1269,-494 1430,-494 1430,-402 1269,-402"/>
<polygon fill="#e31a1c" stroke="transparent" points="1270.5,-478 1270.5,-493 1429.5,-493 1429.5,-478 1270.5,-478"/>
<text text-anchor="start" x="1402.5" y="-484" font-family="Ubuntu" font-weight="bold" font-size="10.00">Port</text>
<text text-anchor="start" x="1276.5" y="-468" font-family="Ubuntu" font-size="10.00">1</text>
<text text-anchor="start" x="1287.5" y="-468" font-family="Ubuntu" font-size="10.00">port_id</text>
<polygon fill="#a6cee3" stroke="transparent" points="1358.5,-463 1358.5,-478 1429.5,-478 1429.5,-463 1358.5,-463"/>
<text text-anchor="start" x="1399.5" y="-469" font-family="Ubuntu" font-style="italic" font-size="10.00">string</text>
<text text-anchor="start" x="1276.5" y="-453" font-family="Ubuntu" font-size="10.00">2</text>
<text text-anchor="start" x="1287.5" y="-453" font-family="Ubuntu" font-size="10.00">protocol</text>
<polygon fill="#a6cee3" stroke="transparent" points="1358.5,-448 1358.5,-463 1429.5,-463 1429.5,-448 1358.5,-448"/>
<text text-anchor="start" x="1399.5" y="-454" font-family="Ubuntu" font-style="italic" font-size="10.00">string</text>
<text text-anchor="start" x="1276.5" y="-438" font-family="Ubuntu" font-size="10.00">3</text>
<text text-anchor="start" x="1287.5" y="-438" font-family="Ubuntu" font-size="10.00">state</text>
<polygon fill="#a6cee3" stroke="transparent" points="1358.5,-433 1358.5,-448 1429.5,-448 1429.5,-433 1358.5,-433"/>
<text text-anchor="start" x="1399.5" y="-439" font-family="Ubuntu" font-style="italic" font-size="10.00">string</text>
<text text-anchor="start" x="1276.5" y="-423" font-family="Ubuntu" font-size="10.00">4</text>
<text text-anchor="start" x="1287.5" y="-423" font-family="Ubuntu" font-size="10.00">service_name</text>
<polygon fill="#a6cee3" stroke="transparent" points="1358.5,-418 1358.5,-433 1429.5,-433 1429.5,-418 1358.5,-418"/>
<text text-anchor="start" x="1399.5" y="-424" font-family="Ubuntu" font-style="italic" font-size="10.00">string</text>
<text text-anchor="start" x="1276.5" y="-408" font-family="Ubuntu" font-size="10.00">5</text>
<text text-anchor="start" x="1287.5" y="-408" font-family="Ubuntu" font-size="10.00">version</text>
<polygon fill="#fb9a99" stroke="transparent" points="1358.5,-403 1358.5,-418 1429.5,-418 1429.5,-403 1358.5,-403"/>
<text text-anchor="start" x="1360.5" y="-409" font-family="Ubuntu" font-weight="bold" font-size="10.00">PortVersion</text>
<polygon fill="none" stroke="black" points="1269,-402 1269,-494 1430,-494 1430,-402 1269,-402"/>
</a>
</g>
</g>
<!-- Node_Ja_102&#45;&gt;Node_Ja_101 -->
<g id="edge9" class="edge">
<title>Node_Ja_102:e&#45;&gt;Node_Ja_101:header</title>
<g id="a_edge9"><a xlink:title="Ja_102 &#45;&#45;&gt; Ja_101">
<path fill="none" stroke="#000000" d="M1430.5,-410C1449.63,-410 1456.77,-410 1471.97,-410"/>
<polygon fill="#000000" stroke="#000000" points="1472,-413.5 1482,-410 1472,-406.5 1472,-413.5"/>
</a>
</g>
</g>
<!-- Node_Ja_103 -->
<g id="node9" class="node">
<title>Node_Ja_103</title>
<g id="a_node9"><a xlink:title="proto.HostResult">
<polygon fill="#fffaf0" stroke="transparent" points="1115.5,-494.5 1115.5,-541.5 1208.5,-541.5 1208.5,-494.5 1115.5,-494.5"/>
<polygon fill="#e31a1c" stroke="transparent" points="1117,-525 1117,-540 1208,-540 1208,-525 1117,-525"/>
<text text-anchor="start" x="1145" y="-531" font-family="Ubuntu" font-weight="bold" font-size="10.00">HostResult</text>
<text text-anchor="start" x="1140" y="-515" font-family="Ubuntu" font-size="10.00">1</text>
<text text-anchor="start" x="1151" y="-515" font-family="Ubuntu" font-size="10.00">host</text>
<polygon fill="#fb9a99" stroke="transparent" points="1178,-510 1178,-525 1208,-525 1208,-510 1178,-510"/>
<text text-anchor="start" x="1180" y="-516" font-family="Ubuntu" font-weight="bold" font-size="10.00">Host</text>
<text text-anchor="start" x="1119" y="-500" font-family="Ubuntu" font-size="10.00">[...]</text>
<text text-anchor="start" x="1140" y="-500" font-family="Ubuntu" font-size="10.00">2</text>
<text text-anchor="start" x="1151" y="-500" font-family="Ubuntu" font-size="10.00">ports</text>
<polygon fill="#fb9a99" stroke="transparent" points="1178,-495 1178,-510 1208,-510 1208,-495 1178,-495"/>
<text text-anchor="start" x="1181" y="-501" font-family="Ubuntu" font-weight="bold" font-size="10.00">Port</text>
<polygon fill="none" stroke="black" points="1115.5,-494.5 1115.5,-541.5 1208.5,-541.5 1208.5,-494.5 1115.5,-494.5"/>
</a>
</g>
</g>
<!-- Node_Ja_104&#45;&gt;Node_Ja_103 -->
<g id="edge3" class="edge">
<title>Node_Ja_104:e&#45;&gt;Node_Ja_103:header</title>
<g id="a_edge3"><a xlink:title="Ja_104 &#45;&#45;&gt; Ja_103">
<path fill="none" stroke="#000000" d="M1055.5,-533C1078.71,-533 1086.9,-533 1106,-533"/>
<polygon fill="#000000" stroke="#000000" points="1106,-536.5 1116,-533 1106,-529.5 1106,-536.5"/>
</a>
</g>
</g>
<!-- Node_Ja_105 -->
<g id="node13" class="node">
<title>Node_Ja_105</title>
<g id="a_node13"><a xlink:title="Status">
<polygon fill="#b2df8a" stroke="transparent" points="1125,-131 1125,-253 1199,-253 1199,-131 1125,-131"/>
<polygon fill="#33a02c" stroke="transparent" points="1126,-237 1126,-252 1198,-252 1198,-237 1126,-237"/>
<text text-anchor="start" x="1128" y="-243" font-family="Ubuntu" font-size="10.00">enum </text>
<text text-anchor="start" x="1159" y="-243" font-family="Ubuntu" font-weight="bold" font-size="10.00">Status</text>
<polygon fill="#b2df8a" stroke="transparent" points="1126,-222 1126,-237 1186,-237 1186,-222 1126,-222"/>
<text text-anchor="start" x="1128" y="-227" font-family="Ubuntu" font-size="10.00">UNKNOWN</text>
<polygon fill="#b2df8a" stroke="transparent" points="1186,-222 1186,-237 1198,-237 1198,-222 1186,-222"/>
<text text-anchor="start" x="1188" y="-227" font-family="Ubuntu" font-size="10.00">0</text>
<polygon fill="#b2df8a" stroke="transparent" points="1126,-207 1126,-222 1186,-222 1186,-207 1126,-207"/>
<text text-anchor="start" x="1128" y="-212" font-family="Ubuntu" font-size="10.00">QUEUED</text>
<polygon fill="#b2df8a" stroke="transparent" points="1186,-207 1186,-222 1198,-222 1198,-207 1186,-207"/>
<text text-anchor="start" x="1188" y="-212" font-family="Ubuntu" font-size="10.00">1</text>
<polygon fill="#b2df8a" stroke="transparent" points="1126,-192 1126,-207 1186,-207 1186,-192 1126,-192"/>
<text text-anchor="start" x="1128" y="-197" font-family="Ubuntu" font-size="10.00">RUNNING</text>
<polygon fill="#b2df8a" stroke="transparent" points="1186,-192 1186,-207 1198,-207 1198,-192 1186,-192"/>
<text text-anchor="start" x="1188" y="-197" font-family="Ubuntu" font-size="10.00">2</text>
<polygon fill="#b2df8a" stroke="transparent" points="1126,-177 1126,-192 1186,-192 1186,-177 1126,-177"/>
<text text-anchor="start" x="1128" y="-182" font-family="Ubuntu" font-size="10.00">OK</text>
<polygon fill="#b2df8a" stroke="transparent" points="1186,-177 1186,-192 1198,-192 1198,-177 1186,-177"/>
<text text-anchor="start" x="1188" y="-182" font-family="Ubuntu" font-size="10.00">3</text>
<polygon fill="#b2df8a" stroke="transparent" points="1126,-162 1126,-177 1186,-177 1186,-162 1126,-162"/>
<text text-anchor="start" x="1128" y="-167" font-family="Ubuntu" font-size="10.00">ERROR</text>
<polygon fill="#b2df8a" stroke="transparent" points="1186,-162 1186,-177 1198,-177 1198,-162 1186,-162"/>
<text text-anchor="start" x="1188" y="-167" font-family="Ubuntu" font-size="10.00">4</text>
<polygon fill="#b2df8a" stroke="transparent" points="1126,-147 1126,-162 1186,-162 1186,-147 1126,-147"/>
<text text-anchor="start" x="1128" y="-152" font-family="Ubuntu" font-size="10.00">CANCEL</text>
<polygon fill="#b2df8a" stroke="transparent" points="1186,-147 1186,-162 1198,-162 1198,-147 1186,-147"/>
<text text-anchor="start" x="1188" y="-152" font-family="Ubuntu" font-size="10.00">5</text>
<polygon fill="#b2df8a" stroke="transparent" points="1126,-132 1126,-147 1186,-147 1186,-132 1126,-132"/>
<text text-anchor="start" x="1128" y="-137" font-family="Ubuntu" font-size="10.00">TIMEOUT</text>
<polygon fill="#b2df8a" stroke="transparent" points="1186,-132 1186,-147 1198,-147 1198,-132 1186,-132"/>
<text text-anchor="start" x="1188" y="-137" font-family="Ubuntu" font-size="10.00">6</text>
<polygon fill="none" stroke="black" points="1125,-131 1125,-253 1199,-253 1199,-131 1125,-131"/>
</a>
</g>
</g>
<!-- Node_Ja_104&#45;&gt;Node_Ja_105 -->
<g id="edge10" class="edge">
<title>Node_Ja_104:e&#45;&gt;Node_Ja_105</title>
<g id="a_edge10"><a xlink:title="Ja_104 &#45;&#45;&gt; Ja_105">
<path fill="none" stroke="#008000" d="M1055.5,-457C1093.01,-457 1076,-326.38 1091,-292 1096.45,-279.5 1103.59,-266.96 1111.22,-255.19"/>
<polygon fill="#008000" stroke="#008000" points="1114.2,-257.03 1116.85,-246.77 1108.38,-253.14 1114.2,-257.03"/>
</a>
</g>
</g>
<!-- Node_Ja_103&#45;&gt;Node_Ja_100 -->
<g id="edge20" class="edge">
<title>Node_Ja_103:e&#45;&gt;Node_Ja_100:header</title>
<g id="a_edge20"><a xlink:title="Ja_103 &#45;&#45;&gt; Ja_100">
<path fill="none" stroke="#000000" d="M1209,-517C1255.62,-517 1247.75,-578.71 1286.29,-587.87"/>
<polygon fill="#000000" stroke="#000000" points="1286.18,-591.38 1296.5,-589 1286.95,-584.42 1286.18,-591.38"/>
</a>
</g>
</g>
<!-- Node_Ja_103&#45;&gt;Node_Ja_102 -->
<g id="edge16" class="edge">
<title>Node_Ja_103:e&#45;&gt;Node_Ja_102:header</title>
<g id="a_edge16"><a xlink:title="Ja_103 &#45;&#45;&gt; Ja_102">
<path fill="none" stroke="#000000" d="M1209,-502C1233.12,-502 1239.99,-489.97 1259.52,-486.77"/>
<polygon fill="#000000" stroke="#000000" points="1259.8,-490.26 1269.5,-486 1259.26,-483.28 1259.8,-490.26"/>
</a>
</g>
</g>
<!-- Node_Ja_109 -->
<g id="node10" class="node">
<title>Node_Ja_109</title>
<g id="a_node10"><a xlink:title="proto.PrometheusStatus">
<polygon fill="#fffaf0" stroke="transparent" points="387.5,-367 387.5,-429 560.5,-429 560.5,-367 387.5,-367"/>
<polygon fill="#e31a1c" stroke="transparent" points="389,-413 389,-428 560,-428 560,-413 389,-413"/>
<text text-anchor="start" x="454" y="-419" font-family="Ubuntu" font-weight="bold" font-size="10.00">PrometheusStatus</text>
<text text-anchor="start" x="395" y="-403" font-family="Ubuntu" font-size="10.00">1</text>
<text text-anchor="start" x="406" y="-403" font-family="Ubuntu" font-size="10.00">tasks_status</text>
<polygon fill="#fb9a99" stroke="transparent" points="489,-398 489,-413 560,-413 560,-398 489,-398"/>
<text text-anchor="start" x="491" y="-404" font-family="Ubuntu" font-weight="bold" font-size="10.00">TasksStatus</text>
<text text-anchor="start" x="395" y="-388" font-family="Ubuntu" font-size="10.00">2</text>
<text text-anchor="start" x="406" y="-388" font-family="Ubuntu" font-size="10.00">worker_count</text>
<polygon fill="#a6cee3" stroke="transparent" points="489,-383 489,-398 560,-398 560,-383 489,-383"/>
<text text-anchor="start" x="533" y="-389" font-family="Ubuntu" font-style="italic" font-size="10.00">int64</text>
<text text-anchor="start" x="395" y="-373" font-family="Ubuntu" font-size="10.00">3</text>
<text text-anchor="start" x="406" y="-373" font-family="Ubuntu" font-size="10.00">consumer_count</text>
<polygon fill="#a6cee3" stroke="transparent" points="489,-368 489,-383 560,-383 560,-368 489,-368"/>
<text text-anchor="start" x="533" y="-374" font-family="Ubuntu" font-style="italic" font-size="10.00">int64</text>
<polygon fill="none" stroke="black" points="387.5,-367 387.5,-429 560.5,-429 560.5,-367 387.5,-367"/>
</a>
</g>
</g>
<!-- Node_Ja_110 -->
<g id="node11" class="node">
<title>Node_Ja_110</title>
<g id="a_node11"><a xlink:title="proto.TasksStatus">
<polygon fill="#fffaf0" stroke="transparent" points="682.5,-308 682.5,-400 774.5,-400 774.5,-308 682.5,-308"/>
<polygon fill="#e31a1c" stroke="transparent" points="683.5,-384 683.5,-399 773.5,-399 773.5,-384 683.5,-384"/>
<text text-anchor="start" x="704.5" y="-390" font-family="Ubuntu" font-weight="bold" font-size="10.00">TasksStatus</text>
<text text-anchor="start" x="689.5" y="-374" font-family="Ubuntu" font-size="10.00">1</text>
<text text-anchor="start" x="700.5" y="-374" font-family="Ubuntu" font-size="10.00">success</text>
<polygon fill="#a6cee3" stroke="transparent" points="744.5,-369 744.5,-384 773.5,-384 773.5,-369 744.5,-369"/>
<text text-anchor="start" x="746.5" y="-375" font-family="Ubuntu" font-style="italic" font-size="10.00">int64</text>
<text text-anchor="start" x="689.5" y="-359" font-family="Ubuntu" font-size="10.00">2</text>
<text text-anchor="start" x="700.5" y="-359" font-family="Ubuntu" font-size="10.00">failed</text>
<polygon fill="#a6cee3" stroke="transparent" points="744.5,-354 744.5,-369 773.5,-369 773.5,-354 744.5,-354"/>
<text text-anchor="start" x="746.5" y="-360" font-family="Ubuntu" font-style="italic" font-size="10.00">int64</text>
<text text-anchor="start" x="689.5" y="-344" font-family="Ubuntu" font-size="10.00">3</text>
<text text-anchor="start" x="700.5" y="-344" font-family="Ubuntu" font-size="10.00">returned</text>
<polygon fill="#a6cee3" stroke="transparent" points="744.5,-339 744.5,-354 773.5,-354 773.5,-339 744.5,-339"/>
<text text-anchor="start" x="746.5" y="-345" font-family="Ubuntu" font-style="italic" font-size="10.00">int64</text>
<text text-anchor="start" x="689.5" y="-329" font-family="Ubuntu" font-size="10.00">4</text>
<text text-anchor="start" x="700.5" y="-329" font-family="Ubuntu" font-size="10.00">ready</text>
<polygon fill="#a6cee3" stroke="transparent" points="744.5,-324 744.5,-339 773.5,-339 773.5,-324 744.5,-324"/>
<text text-anchor="start" x="746.5" y="-330" font-family="Ubuntu" font-style="italic" font-size="10.00">int64</text>
<text text-anchor="start" x="689.5" y="-314" font-family="Ubuntu" font-size="10.00">5</text>
<text text-anchor="start" x="700.5" y="-314" font-family="Ubuntu" font-size="10.00">rejected</text>
<polygon fill="#a6cee3" stroke="transparent" points="744.5,-309 744.5,-324 773.5,-324 773.5,-309 744.5,-309"/>
<text text-anchor="start" x="746.5" y="-315" font-family="Ubuntu" font-style="italic" font-size="10.00">int64</text>
<polygon fill="none" stroke="black" points="682.5,-308 682.5,-400 774.5,-400 774.5,-308 682.5,-308"/>
</a>
</g>
</g>
<!-- Node_Ja_109&#45;&gt;Node_Ja_110 -->
<g id="edge4" class="edge">
<title>Node_Ja_109:e&#45;&gt;Node_Ja_110:header</title>
<g id="a_edge4"><a xlink:title="Ja_109 &#45;&#45;&gt; Ja_110">
<path fill="none" stroke="#000000" d="M561,-406C611.85,-406 626.32,-393.75 672.49,-392.17"/>
<polygon fill="#000000" stroke="#000000" points="672.56,-395.67 682.5,-392 672.44,-388.67 672.56,-395.67"/>
</a>
</g>
</g>
<!-- Node_Ja_112 -->
<g id="node14" class="node">
<title>Node_Ja_112</title>
<g id="a_node14"><a xlink:title="ServiceState">
<polygon fill="#b2df8a" stroke="transparent" points="1107,-43 1107,-105 1217,-105 1217,-43 1107,-43"/>
<polygon fill="#33a02c" stroke="transparent" points="1108,-89 1108,-104 1216,-104 1216,-89 1108,-89"/>
<text text-anchor="start" x="1110" y="-95" font-family="Ubuntu" font-size="10.00">enum </text>
<text text-anchor="start" x="1141" y="-95" font-family="Ubuntu" font-weight="bold" font-size="10.00">ServiceState</text>
<polygon fill="#b2df8a" stroke="transparent" points="1108,-74 1108,-89 1186,-89 1186,-74 1108,-74"/>
<text text-anchor="start" x="1110" y="-79" font-family="Ubuntu" font-size="10.00">UNKNOWN</text>
<polygon fill="#b2df8a" stroke="transparent" points="1186,-74 1186,-89 1216,-89 1216,-74 1186,-74"/>
<text text-anchor="start" x="1188" y="-79" font-family="Ubuntu" font-size="10.00">0</text>
<polygon fill="#b2df8a" stroke="transparent" points="1108,-59 1108,-74 1186,-74 1186,-59 1108,-59"/>
<text text-anchor="start" x="1110" y="-64" font-family="Ubuntu" font-size="10.00">START</text>
<polygon fill="#b2df8a" stroke="transparent" points="1186,-59 1186,-74 1216,-74 1216,-59 1186,-59"/>
<text text-anchor="start" x="1188" y="-64" font-family="Ubuntu" font-size="10.00">1</text>
<polygon fill="#b2df8a" stroke="transparent" points="1108,-44 1108,-59 1186,-59 1186,-44 1108,-44"/>
<text text-anchor="start" x="1110" y="-49" font-family="Ubuntu" font-size="10.00">STOP</text>
<polygon fill="#b2df8a" stroke="transparent" points="1186,-44 1186,-59 1216,-59 1216,-44 1186,-44"/>
<text text-anchor="start" x="1188" y="-49" font-family="Ubuntu" font-size="10.00">2</text>
<polygon fill="none" stroke="black" points="1107,-43 1107,-105 1217,-105 1217,-43 1107,-43"/>
</a>
</g>
</g>
<!-- Node_Ja_111&#45;&gt;Node_Ja_112 -->
<g id="edge6" class="edge">
<title>Node_Ja_111:e&#45;&gt;Node_Ja_112</title>
<g id="a_edge6"><a xlink:title="Ja_111 &#45;&#45;&gt; Ja_112">
<path fill="none" stroke="#008000" d="M789.5,-434C809.78,-434 814.01,-425.47 830,-413 968.04,-305.33 957.54,-231.29 1091,-118 1092.13,-117.04 1093.28,-116.09 1094.45,-115.14"/>
<polygon fill="#008000" stroke="#008000" points="1096.62,-117.89 1102.41,-109.02 1092.35,-112.34 1096.62,-117.89"/>
</a>
</g>
</g>
<!-- Node_Ja_119 -->
<g id="node15" class="node">
<title>Node_Ja_119</title>
<g id="a_node15"><a xlink:title="TasksBackend">
<polygon fill="#ffd700" stroke="transparent" points="8,-515.5 8,-592.5 313,-592.5 313,-515.5 8,-515.5"/>
<polygon fill="#ff7f50" stroke="transparent" points="9.5,-576 9.5,-591 312.5,-591 312.5,-576 9.5,-576"/>
<text text-anchor="start" x="231.5" y="-582" font-family="Ubuntu" font-weight="bold" font-size="10.00">TasksBackend</text>
<text text-anchor="start" x="11.5" y="-567" font-family="Ubuntu" font-weight="bold" font-size="10.00">StreamTasksServiceControl</text>
<text text-anchor="start" x="211.5" y="-566" font-family="Ubuntu" font-size="10.00">TasksServiceControl</text>
<polygon fill="#ff7f50" stroke="transparent" points="170.5,-546 170.5,-561 209.5,-561 209.5,-546 170.5,-546"/>
<text text-anchor="start" x="172.5" y="-551" font-family="Ubuntu" font-size="10.00">stream</text>
<polygon fill="#ff7f50" stroke="transparent" points="209.5,-546 209.5,-561 312.5,-561 312.5,-546 209.5,-546"/>
<text text-anchor="start" x="211.5" y="-551" font-family="Ubuntu" font-size="10.00">TasksServiceControl</text>
<text text-anchor="start" x="11.5" y="-537" font-family="Ubuntu" font-weight="bold" font-size="10.00">StreamTasksStatus</text>
<text text-anchor="start" x="172.5" y="-536" font-family="Ubuntu" font-size="10.00">stream</text>
<text text-anchor="start" x="220.5" y="-536" font-family="Ubuntu" font-size="10.00">PrometheusStatus</text>
<polygon fill="#ff7f50" stroke="transparent" points="170.5,-516 170.5,-531 209.5,-531 209.5,-516 170.5,-516"/>
<text text-anchor="start" x="172.5" y="-521" font-family="Ubuntu" font-size="10.00">stream</text>
<polygon fill="#ff7f50" stroke="transparent" points="209.5,-516 209.5,-531 312.5,-531 312.5,-516 209.5,-516"/>
<text text-anchor="start" x="220.5" y="-521" font-family="Ubuntu" font-size="10.00">PrometheusStatus</text>
<polygon fill="none" stroke="black" points="8,-515.5 8,-592.5 313,-592.5 313,-515.5 8,-515.5"/>
</a>
</g>
</g>
<!-- Node_Ja_119&#45;&gt;Node_Ja_109 -->
<g id="edge8" class="edge">
<title>Node_Ja_119:e&#45;&gt;Node_Ja_109:header</title>
<g id="a_edge8"><a xlink:title="Ja_119 &#45;&#45;&gt; Ja_109">
<path fill="none" stroke="#000000" d="M313.5,-538C358.57,-538 319.71,-477.26 349,-443 359.41,-430.83 365.43,-424 377.76,-421.8"/>
<polygon fill="#000000" stroke="#000000" points="378.3,-425.27 388,-421 377.76,-418.29 378.3,-425.27"/>
</a>
</g>
</g>
<!-- Node_Ja_119&#45;&gt;Node_Ja_109 -->
<g id="edge15" class="edge">
<title>Node_Ja_119:e&#45;&gt;Node_Ja_109:header</title>
<g id="a_edge15"><a xlink:title="Ja_119 &#45;&#45;&gt; Ja_109">
<path fill="none" stroke="#000000" d="M313.5,-523C352.4,-523 322.85,-471.79 349,-443 359.77,-431.15 365.57,-424.12 377.8,-421.83"/>
<polygon fill="#000000" stroke="#000000" points="378.32,-425.3 388,-421 377.75,-418.33 378.32,-425.3"/>
</a>
</g>
</g>
<!-- Node_Ja_119&#45;&gt;Node_Ja_111 -->
<g id="edge13" class="edge">
<title>Node_Ja_119:e&#45;&gt;Node_Ja_111:header</title>
<g id="a_edge13"><a xlink:title="Ja_119 &#45;&#45;&gt; Ja_111">
<path fill="none" stroke="#000000" d="M313.5,-569C360.66,-569 310.47,-641.8 349,-669 436.86,-731.04 508.42,-737.92 591,-669 667.48,-605.17 572.41,-460.64 658.37,-450.56"/>
<polygon fill="#000000" stroke="#000000" points="658.71,-454.04 668.5,-450 658.32,-447.05 658.71,-454.04"/>
</a>
</g>
</g>
<!-- Node_Ja_119&#45;&gt;Node_Ja_111 -->
<g id="edge14" class="edge">
<title>Node_Ja_119:e&#45;&gt;Node_Ja_111:header</title>
<g id="a_edge14"><a xlink:title="Ja_119 &#45;&#45;&gt; Ja_111">
<path fill="none" stroke="#000000" d="M313.5,-553C353.62,-553 315.51,-613.9 349,-636 393.89,-665.62 549.12,-669.73 591,-636 649.46,-588.92 581.06,-530.36 627,-471 637.38,-457.59 644.75,-452.05 658.47,-450.49"/>
<polygon fill="#000000" stroke="#000000" points="658.68,-453.99 668.5,-450 658.34,-446.99 658.68,-453.99"/>
</a>
</g>
</g>
</g>
</svg>
