<?xml version="1.0" encoding="UTF-8" standalone="no"?>
<!DOCTYPE svg PUBLIC "-//W3C//DTD SVG 1.1//EN"
 "http://www.w3.org/Graphics/SVG/1.1/DTD/svg11.dtd">
<!-- Generated by graphviz version 2.47.3 (0)
 -->
<!-- Title: protodot Pages: 1 -->
<svg width="1329pt" height="649pt"
 viewBox="0.00 0.00 1329.00 648.50" xmlns="http://www.w3.org/2000/svg" xmlns:xlink="http://www.w3.org/1999/xlink">
<g id="graph0" class="graph" transform="scale(1 1) rotate(0) translate(4 644.5)">
<title>protodot</title>
<g id="a_graph0"><a xlink:title="proto">
<text text-anchor="middle" x="660.5" y="-7.8" font-family="Times,serif" font-size="14.00">proto</text>
</a>
</g>
<g id="clust1" class="cluster">
<title>cluster_dfe805b7589f</title>
<g id="a_clust1"><a xlink:title="proto">
<polygon fill="#caff70" stroke="black" points="806,-82 806,-339 948,-339 948,-82 806,-82"/>
<text text-anchor="middle" x="877" y="-323.8" font-family="Times,serif" font-size="14.00">proto</text>
</a>
</g>
</g>
<!-- Node_Ja_105 -->
<g id="node1" class="node">
<title>Node_Ja_105</title>
<g id="a_node1"><a xlink:title="Status">
<polygon fill="#b2df8a" stroke="transparent" points="840,-182 840,-304 914,-304 914,-182 840,-182"/>
<polygon fill="#33a02c" stroke="transparent" points="841,-288 841,-303 913,-303 913,-288 841,-288"/>
<text text-anchor="start" x="843" y="-294" font-family="Ubuntu" font-size="10.00">enum </text>
<text text-anchor="start" x="874" y="-294" font-family="Ubuntu" font-weight="bold" font-size="10.00">Status</text>
<polygon fill="#b2df8a" stroke="transparent" points="841,-273 841,-288 901,-288 901,-273 841,-273"/>
<text text-anchor="start" x="843" y="-278" font-family="Ubuntu" font-size="10.00">UNKNOWN</text>
<polygon fill="#b2df8a" stroke="transparent" points="901,-273 901,-288 913,-288 913,-273 901,-273"/>
<text text-anchor="start" x="903" y="-278" font-family="Ubuntu" font-size="10.00">0</text>
<polygon fill="#b2df8a" stroke="transparent" points="841,-258 841,-273 901,-273 901,-258 841,-258"/>
<text text-anchor="start" x="843" y="-263" font-family="Ubuntu" font-size="10.00">QUEUED</text>
<polygon fill="#b2df8a" stroke="transparent" points="901,-258 901,-273 913,-273 913,-258 901,-258"/>
<text text-anchor="start" x="903" y="-263" font-family="Ubuntu" font-size="10.00">1</text>
<polygon fill="#b2df8a" stroke="transparent" points="841,-243 841,-258 901,-258 901,-243 841,-243"/>
<text text-anchor="start" x="843" y="-248" font-family="Ubuntu" font-size="10.00">RUNNING</text>
<polygon fill="#b2df8a" stroke="transparent" points="901,-243 901,-258 913,-258 913,-243 901,-243"/>
<text text-anchor="start" x="903" y="-248" font-family="Ubuntu" font-size="10.00">2</text>
<polygon fill="#b2df8a" stroke="transparent" points="841,-228 841,-243 901,-243 901,-228 841,-228"/>
<text text-anchor="start" x="843" y="-233" font-family="Ubuntu" font-size="10.00">OK</text>
<polygon fill="#b2df8a" stroke="transparent" points="901,-228 901,-243 913,-243 913,-228 901,-228"/>
<text text-anchor="start" x="903" y="-233" font-family="Ubuntu" font-size="10.00">3</text>
<polygon fill="#b2df8a" stroke="transparent" points="841,-213 841,-228 901,-228 901,-213 841,-213"/>
<text text-anchor="start" x="843" y="-218" font-family="Ubuntu" font-size="10.00">ERROR</text>
<polygon fill="#b2df8a" stroke="transparent" points="901,-213 901,-228 913,-228 913,-213 901,-213"/>
<text text-anchor="start" x="903" y="-218" font-family="Ubuntu" font-size="10.00">4</text>
<polygon fill="#b2df8a" stroke="transparent" points="841,-198 841,-213 901,-213 901,-198 841,-198"/>
<text text-anchor="start" x="843" y="-203" font-family="Ubuntu" font-size="10.00">CANCEL</text>
<polygon fill="#b2df8a" stroke="transparent" points="901,-198 901,-213 913,-213 913,-198 901,-198"/>
<text text-anchor="start" x="903" y="-203" font-family="Ubuntu" font-size="10.00">5</text>
<polygon fill="#b2df8a" stroke="transparent" points="841,-183 841,-198 901,-198 901,-183 841,-183"/>
<text text-anchor="start" x="843" y="-188" font-family="Ubuntu" font-size="10.00">TIMEOUT</text>
<polygon fill="#b2df8a" stroke="transparent" points="901,-183 901,-198 913,-198 913,-183 901,-183"/>
<text text-anchor="start" x="903" y="-188" font-family="Ubuntu" font-size="10.00">6</text>
<polygon fill="none" stroke="black" points="840,-182 840,-304 914,-304 914,-182 840,-182"/>
</a>
</g>
</g>
<!-- Node_Ja_110 -->
<g id="node2" class="node">
<title>Node_Ja_110</title>
<g id="a_node2"><a xlink:title="ServiceState">
<polygon fill="#b2df8a" stroke="transparent" points="822,-94 822,-156 932,-156 932,-94 822,-94"/>
<polygon fill="#33a02c" stroke="transparent" points="823,-140 823,-155 931,-155 931,-140 823,-140"/>
<text text-anchor="start" x="825" y="-146" font-family="Ubuntu" font-size="10.00">enum </text>
<text text-anchor="start" x="856" y="-146" font-family="Ubuntu" font-weight="bold" font-size="10.00">ServiceState</text>
<polygon fill="#b2df8a" stroke="transparent" points="823,-125 823,-140 901,-140 901,-125 823,-125"/>
<text text-anchor="start" x="825" y="-130" font-family="Ubuntu" font-size="10.00">UNKNOWN</text>
<polygon fill="#b2df8a" stroke="transparent" points="901,-125 901,-140 931,-140 931,-125 901,-125"/>
<text text-anchor="start" x="903" y="-130" font-family="Ubuntu" font-size="10.00">0</text>
<polygon fill="#b2df8a" stroke="transparent" points="823,-110 823,-125 901,-125 901,-110 823,-110"/>
<text text-anchor="start" x="825" y="-115" font-family="Ubuntu" font-size="10.00">START</text>
<polygon fill="#b2df8a" stroke="transparent" points="901,-110 901,-125 931,-125 931,-110 901,-110"/>
<text text-anchor="start" x="903" y="-115" font-family="Ubuntu" font-size="10.00">1</text>
<polygon fill="#b2df8a" stroke="transparent" points="823,-95 823,-110 901,-110 901,-95 823,-95"/>
<text text-anchor="start" x="825" y="-100" font-family="Ubuntu" font-size="10.00">STOP</text>
<polygon fill="#b2df8a" stroke="transparent" points="901,-95 901,-110 931,-110 931,-95 901,-95"/>
<text text-anchor="start" x="903" y="-100" font-family="Ubuntu" font-size="10.00">2</text>
<polygon fill="none" stroke="black" points="822,-94 822,-156 932,-156 932,-94 822,-94"/>
</a>
</g>
</g>
<!-- Node_Ja_101 -->
<g id="node3" class="node">
<title>Node_Ja_101</title>
<g id="a_node3"><a xlink:title="proto.PortVersion">
<polygon fill="#fffaf0" stroke="transparent" points="1197,-170.5 1197,-247.5 1313,-247.5 1313,-170.5 1197,-170.5"/>
<polygon fill="#e31a1c" stroke="transparent" points="1198,-231 1198,-246 1312,-246 1312,-231 1198,-231"/>
<text text-anchor="start" x="1243" y="-237" font-family="Ubuntu" font-weight="bold" font-size="10.00">PortVersion</text>
<text text-anchor="start" x="1204" y="-221" font-family="Ubuntu" font-size="10.00">1</text>
<text text-anchor="start" x="1215" y="-221" font-family="Ubuntu" font-size="10.00">low_version</text>
<polygon fill="#a6cee3" stroke="transparent" points="1280,-216 1280,-231 1312,-231 1312,-216 1280,-216"/>
<text text-anchor="start" x="1282" y="-222" font-family="Ubuntu" font-style="italic" font-size="10.00">string</text>
<text text-anchor="start" x="1204" y="-206" font-family="Ubuntu" font-size="10.00">2</text>
<text text-anchor="start" x="1215" y="-206" font-family="Ubuntu" font-size="10.00">high_version</text>
<polygon fill="#a6cee3" stroke="transparent" points="1280,-201 1280,-216 1312,-216 1312,-201 1280,-201"/>
<text text-anchor="start" x="1282" y="-207" font-family="Ubuntu" font-style="italic" font-size="10.00">string</text>
<text text-anchor="start" x="1204" y="-191" font-family="Ubuntu" font-size="10.00">3</text>
<text text-anchor="start" x="1215" y="-191" font-family="Ubuntu" font-size="10.00">extra_infos</text>
<polygon fill="#a6cee3" stroke="transparent" points="1280,-186 1280,-201 1312,-201 1312,-186 1280,-186"/>
<text text-anchor="start" x="1282" y="-192" font-family="Ubuntu" font-style="italic" font-size="10.00">string</text>
<text text-anchor="start" x="1204" y="-176" font-family="Ubuntu" font-size="10.00">4</text>
<text text-anchor="start" x="1215" y="-176" font-family="Ubuntu" font-size="10.00">product</text>
<polygon fill="#a6cee3" stroke="transparent" points="1280,-171 1280,-186 1312,-186 1312,-171 1280,-171"/>
<text text-anchor="start" x="1282" y="-177" font-family="Ubuntu" font-style="italic" font-size="10.00">string</text>
<polygon fill="none" stroke="black" points="1197,-170.5 1197,-247.5 1313,-247.5 1313,-170.5 1197,-170.5"/>
</a>
</g>
</g>
<!-- Node_Ja_112 -->
<g id="node4" class="node">
<title>Node_Ja_112</title>
<g id="a_node4"><a xlink:title="proto.ServerResponse">
<polygon fill="#fffaf0" stroke="transparent" points="361.5,-276.5 361.5,-353.5 525.5,-353.5 525.5,-276.5 361.5,-276.5"/>
<polygon fill="#e31a1c" stroke="transparent" points="362.5,-337 362.5,-352 524.5,-352 524.5,-337 362.5,-337"/>
<text text-anchor="start" x="429.5" y="-343" font-family="Ubuntu" font-weight="bold" font-size="10.00">ServerResponse</text>
<text text-anchor="start" x="368.5" y="-327" font-family="Ubuntu" font-size="10.00">1</text>
<text text-anchor="start" x="379.5" y="-327" font-family="Ubuntu" font-size="10.00">success</text>
<polygon fill="#a6cee3" stroke="transparent" points="420.5,-322 420.5,-337 524.5,-337 524.5,-322 420.5,-322"/>
<text text-anchor="start" x="500.5" y="-328" font-family="Ubuntu" font-style="italic" font-size="10.00">bool</text>
<text text-anchor="start" x="368.5" y="-312" font-family="Ubuntu" font-size="10.00">2</text>
<text text-anchor="start" x="379.5" y="-312" font-family="Ubuntu" font-size="10.00">key</text>
<polygon fill="#a6cee3" stroke="transparent" points="420.5,-307 420.5,-322 524.5,-322 524.5,-307 420.5,-307"/>
<text text-anchor="start" x="494.5" y="-313" font-family="Ubuntu" font-style="italic" font-size="10.00">string</text>
<text text-anchor="start" x="368.5" y="-297" font-family="Ubuntu" font-size="10.00">3</text>
<text text-anchor="start" x="379.5" y="-297" font-family="Ubuntu" font-size="10.00">value</text>
<polygon fill="#fb9a99" stroke="transparent" points="420.5,-292 420.5,-307 524.5,-307 524.5,-292 420.5,-292"/>
<text text-anchor="start" x="422.5" y="-298" font-family="Ubuntu" font-weight="bold" font-size="10.00">ScannerResponse</text>
<text text-anchor="start" x="368.5" y="-282" font-family="Ubuntu" font-size="10.00">4</text>
<text text-anchor="start" x="379.5" y="-282" font-family="Ubuntu" font-size="10.00">error</text>
<polygon fill="#a6cee3" stroke="transparent" points="420.5,-277 420.5,-292 524.5,-292 524.5,-277 420.5,-277"/>
<text text-anchor="start" x="494.5" y="-283" font-family="Ubuntu" font-style="italic" font-size="10.00">string</text>
<polygon fill="none" stroke="black" points="361.5,-276.5 361.5,-353.5 525.5,-353.5 525.5,-276.5 361.5,-276.5"/>
</a>
</g>
</g>
<!-- Node_Ja_104 -->
<g id="node9" class="node">
<title>Node_Ja_104</title>
<g id="a_node9"><a xlink:title="proto.ScannerResponse">
<polygon fill="#fffaf0" stroke="transparent" points="589,-235.5 589,-342.5 770,-342.5 770,-235.5 589,-235.5"/>
<polygon fill="#e31a1c" stroke="transparent" points="590.5,-326 590.5,-341 769.5,-341 769.5,-326 590.5,-326"/>
<text text-anchor="start" x="667.5" y="-332" font-family="Ubuntu" font-weight="bold" font-size="10.00">ScannerResponse</text>
<text text-anchor="start" x="592.5" y="-316" font-family="Ubuntu" font-size="10.00">[...]</text>
<text text-anchor="start" x="613.5" y="-316" font-family="Ubuntu" font-size="10.00">1</text>
<text text-anchor="start" x="624.5" y="-316" font-family="Ubuntu" font-size="10.00">host_result</text>
<polygon fill="#fb9a99" stroke="transparent" points="704.5,-311 704.5,-326 769.5,-326 769.5,-311 704.5,-311"/>
<text text-anchor="start" x="706.5" y="-317" font-family="Ubuntu" font-weight="bold" font-size="10.00">HostResult</text>
<text text-anchor="start" x="613.5" y="-301" font-family="Ubuntu" font-size="10.00">2</text>
<text text-anchor="start" x="624.5" y="-301" font-family="Ubuntu" font-size="10.00">start_time</text>
<polygon fill="#a6cee3" stroke="transparent" points="704.5,-296 704.5,-311 769.5,-311 769.5,-296 704.5,-296"/>
<text text-anchor="start" x="739.5" y="-302" font-family="Ubuntu" font-style="italic" font-size="10.00">string</text>
<text text-anchor="start" x="613.5" y="-286" font-family="Ubuntu" font-size="10.00">3</text>
<text text-anchor="start" x="624.5" y="-286" font-family="Ubuntu" font-size="10.00">end_time</text>
<polygon fill="#a6cee3" stroke="transparent" points="704.5,-281 704.5,-296 769.5,-296 769.5,-281 704.5,-281"/>
<text text-anchor="start" x="739.5" y="-287" font-family="Ubuntu" font-style="italic" font-size="10.00">string</text>
<text text-anchor="start" x="613.5" y="-271" font-family="Ubuntu" font-size="10.00">4</text>
<text text-anchor="start" x="624.5" y="-271" font-family="Ubuntu" font-size="10.00">expiration_time</text>
<polygon fill="#a6cee3" stroke="transparent" points="704.5,-266 704.5,-281 769.5,-281 769.5,-266 704.5,-266"/>
<text text-anchor="start" x="739.5" y="-272" font-family="Ubuntu" font-style="italic" font-size="10.00">string</text>
<text text-anchor="start" x="613.5" y="-256" font-family="Ubuntu" font-size="10.00">5</text>
<text text-anchor="start" x="624.5" y="-256" font-family="Ubuntu" font-size="10.00">key</text>
<polygon fill="#a6cee3" stroke="transparent" points="704.5,-251 704.5,-266 769.5,-266 769.5,-251 704.5,-251"/>
<text text-anchor="start" x="739.5" y="-257" font-family="Ubuntu" font-style="italic" font-size="10.00">string</text>
<text text-anchor="start" x="613.5" y="-241" font-family="Ubuntu" font-size="10.00">6</text>
<text text-anchor="start" x="624.5" y="-241" font-family="Ubuntu" font-size="10.00">status</text>
<polygon fill="#b2df8a" stroke="transparent" points="704.5,-236 704.5,-251 769.5,-251 769.5,-236 704.5,-236"/>
<text text-anchor="start" x="736.5" y="-242" font-family="Ubuntu" text-decoration="underline" font-size="10.00">Status</text>
<polygon fill="none" stroke="black" points="589,-235.5 589,-342.5 770,-342.5 770,-235.5 589,-235.5"/>
</a>
</g>
</g>
<!-- Node_Ja_112&#45;&gt;Node_Ja_104 -->
<g id="edge5" class="edge">
<title>Node_Ja_112:e&#45;&gt;Node_Ja_104:header</title>
<g id="a_edge5"><a xlink:title="Ja_112 &#45;&#45;&gt; Ja_104">
<path fill="none" stroke="#000000" d="M525.5,-299C554.12,-299 556.82,-326.28 579.37,-332.67"/>
<polygon fill="#000000" stroke="#000000" points="579.13,-336.17 589.5,-334 580.04,-329.23 579.13,-336.17"/>
</a>
</g>
</g>
<!-- Node_Ja_100 -->
<g id="node5" class="node">
<title>Node_Ja_100</title>
<g id="a_node5"><a xlink:title="proto.Host">
<polygon fill="#fffaf0" stroke="transparent" points="1011.5,-349.5 1011.5,-426.5 1117.5,-426.5 1117.5,-349.5 1011.5,-349.5"/>
<polygon fill="#e31a1c" stroke="transparent" points="1012.5,-410 1012.5,-425 1116.5,-425 1116.5,-410 1012.5,-410"/>
<text text-anchor="start" x="1088.5" y="-416" font-family="Ubuntu" font-weight="bold" font-size="10.00">Host</text>
<text text-anchor="start" x="1018.5" y="-400" font-family="Ubuntu" font-size="10.00">1</text>
<text text-anchor="start" x="1029.5" y="-400" font-family="Ubuntu" font-size="10.00">address</text>
<polygon fill="#a6cee3" stroke="transparent" points="1084.5,-395 1084.5,-410 1116.5,-410 1116.5,-395 1084.5,-395"/>
<text text-anchor="start" x="1086.5" y="-401" font-family="Ubuntu" font-style="italic" font-size="10.00">string</text>
<text text-anchor="start" x="1018.5" y="-385" font-family="Ubuntu" font-size="10.00">2</text>
<text text-anchor="start" x="1029.5" y="-385" font-family="Ubuntu" font-size="10.00">os_version</text>
<polygon fill="#a6cee3" stroke="transparent" points="1084.5,-380 1084.5,-395 1116.5,-395 1116.5,-380 1084.5,-380"/>
<text text-anchor="start" x="1086.5" y="-386" font-family="Ubuntu" font-style="italic" font-size="10.00">string</text>
<text text-anchor="start" x="1018.5" y="-370" font-family="Ubuntu" font-size="10.00">3</text>
<text text-anchor="start" x="1029.5" y="-370" font-family="Ubuntu" font-size="10.00">state</text>
<polygon fill="#a6cee3" stroke="transparent" points="1084.5,-365 1084.5,-380 1116.5,-380 1116.5,-365 1084.5,-365"/>
<text text-anchor="start" x="1086.5" y="-371" font-family="Ubuntu" font-style="italic" font-size="10.00">string</text>
<text text-anchor="start" x="1018.5" y="-355" font-family="Ubuntu" font-size="10.00">4</text>
<text text-anchor="start" x="1029.5" y="-355" font-family="Ubuntu" font-size="10.00">fqdn</text>
<polygon fill="#a6cee3" stroke="transparent" points="1084.5,-350 1084.5,-365 1116.5,-365 1116.5,-350 1084.5,-350"/>
<text text-anchor="start" x="1086.5" y="-356" font-family="Ubuntu" font-style="italic" font-size="10.00">string</text>
<polygon fill="none" stroke="black" points="1011.5,-349.5 1011.5,-426.5 1117.5,-426.5 1117.5,-349.5 1011.5,-349.5"/>
</a>
</g>
</g>
<!-- Node_Ja_107 -->
<g id="node6" class="node">
<title>Node_Ja_107</title>
<g id="a_node6"><a xlink:title="proto.TasksStatus">
<polygon fill="#fffaf0" stroke="transparent" points="633.5,-27 633.5,-119 725.5,-119 725.5,-27 633.5,-27"/>
<polygon fill="#e31a1c" stroke="transparent" points="634.5,-103 634.5,-118 724.5,-118 724.5,-103 634.5,-103"/>
<text text-anchor="start" x="655.5" y="-109" font-family="Ubuntu" font-weight="bold" font-size="10.00">TasksStatus</text>
<text text-anchor="start" x="640.5" y="-93" font-family="Ubuntu" font-size="10.00">1</text>
<text text-anchor="start" x="651.5" y="-93" font-family="Ubuntu" font-size="10.00">success</text>
<polygon fill="#a6cee3" stroke="transparent" points="695.5,-88 695.5,-103 724.5,-103 724.5,-88 695.5,-88"/>
<text text-anchor="start" x="697.5" y="-94" font-family="Ubuntu" font-style="italic" font-size="10.00">int64</text>
<text text-anchor="start" x="640.5" y="-78" font-family="Ubuntu" font-size="10.00">2</text>
<text text-anchor="start" x="651.5" y="-78" font-family="Ubuntu" font-size="10.00">failed</text>
<polygon fill="#a6cee3" stroke="transparent" points="695.5,-73 695.5,-88 724.5,-88 724.5,-73 695.5,-73"/>
<text text-anchor="start" x="697.5" y="-79" font-family="Ubuntu" font-style="italic" font-size="10.00">int64</text>
<text text-anchor="start" x="640.5" y="-63" font-family="Ubuntu" font-size="10.00">3</text>
<text text-anchor="start" x="651.5" y="-63" font-family="Ubuntu" font-size="10.00">returned</text>
<polygon fill="#a6cee3" stroke="transparent" points="695.5,-58 695.5,-73 724.5,-73 724.5,-58 695.5,-58"/>
<text text-anchor="start" x="697.5" y="-64" font-family="Ubuntu" font-style="italic" font-size="10.00">int64</text>
<text text-anchor="start" x="640.5" y="-48" font-family="Ubuntu" font-size="10.00">4</text>
<text text-anchor="start" x="651.5" y="-48" font-family="Ubuntu" font-size="10.00">ready</text>
<polygon fill="#a6cee3" stroke="transparent" points="695.5,-43 695.5,-58 724.5,-58 724.5,-43 695.5,-43"/>
<text text-anchor="start" x="697.5" y="-49" font-family="Ubuntu" font-style="italic" font-size="10.00">int64</text>
<text text-anchor="start" x="640.5" y="-33" font-family="Ubuntu" font-size="10.00">5</text>
<text text-anchor="start" x="651.5" y="-33" font-family="Ubuntu" font-size="10.00">rejected</text>
<polygon fill="#a6cee3" stroke="transparent" points="695.5,-28 695.5,-43 724.5,-43 724.5,-28 695.5,-28"/>
<text text-anchor="start" x="697.5" y="-34" font-family="Ubuntu" font-style="italic" font-size="10.00">int64</text>
<polygon fill="none" stroke="black" points="633.5,-27 633.5,-119 725.5,-119 725.5,-27 633.5,-27"/>
</a>
</g>
</g>
<!-- Node_Ja_113 -->
<g id="node7" class="node">
<title>Node_Ja_113</title>
<g id="a_node7"><a xlink:title="ScannerService">
<polygon fill="#ffd700" stroke="transparent" points="8,-138.5 8,-365.5 298,-365.5 298,-138.5 8,-138.5"/>
<polygon fill="#ff7f50" stroke="transparent" points="9,-349 9,-364 297,-364 297,-349 9,-349"/>
<text text-anchor="start" x="206" y="-355" font-family="Ubuntu" font-weight="bold" font-size="10.00">ScannerService</text>
<text text-anchor="start" x="11" y="-340" font-family="Ubuntu" font-weight="bold" font-size="10.00">StartAsyncScan</text>
<text text-anchor="start" x="180" y="-339" font-family="Ubuntu" font-size="10.00">ParamsScannerRequest</text>
<polygon fill="#ff7f50" stroke="transparent" points="139,-319 139,-334 178,-334 178,-319 139,-319"/>
<polygon fill="#ff7f50" stroke="transparent" points="178,-319 178,-334 297,-334 297,-319 178,-319"/>
<text text-anchor="start" x="216" y="-324" font-family="Ubuntu" font-size="10.00">ServerResponse</text>
<text text-anchor="start" x="11" y="-310" font-family="Ubuntu" font-weight="bold" font-size="10.00">StartScan</text>
<text text-anchor="start" x="180" y="-309" font-family="Ubuntu" font-size="10.00">ParamsScannerRequest</text>
<polygon fill="#ff7f50" stroke="transparent" points="139,-289 139,-304 178,-304 178,-289 139,-289"/>
<polygon fill="#ff7f50" stroke="transparent" points="178,-289 178,-304 297,-304 297,-289 178,-289"/>
<text text-anchor="start" x="216" y="-294" font-family="Ubuntu" font-size="10.00">ServerResponse</text>
<text text-anchor="start" x="11" y="-280" font-family="Ubuntu" font-weight="bold" font-size="10.00">GetScan</text>
<text text-anchor="start" x="198" y="-279" font-family="Ubuntu" font-size="10.00">GetScannerRequest</text>
<polygon fill="#ff7f50" stroke="transparent" points="139,-259 139,-274 178,-274 178,-259 139,-259"/>
<polygon fill="#ff7f50" stroke="transparent" points="178,-259 178,-274 297,-274 297,-259 178,-259"/>
<text text-anchor="start" x="216" y="-264" font-family="Ubuntu" font-size="10.00">ServerResponse</text>
<text text-anchor="start" x="11" y="-250" font-family="Ubuntu" font-weight="bold" font-size="10.00">DeleteScan</text>
<text text-anchor="start" x="198" y="-249" font-family="Ubuntu" font-size="10.00">GetScannerRequest</text>
<polygon fill="#ff7f50" stroke="transparent" points="139,-229 139,-244 178,-244 178,-229 139,-229"/>
<polygon fill="#ff7f50" stroke="transparent" points="178,-229 178,-244 297,-244 297,-229 178,-229"/>
<text text-anchor="start" x="216" y="-234" font-family="Ubuntu" font-size="10.00">ServerResponse</text>
<text text-anchor="start" x="11" y="-220" font-family="Ubuntu" font-weight="bold" font-size="10.00">ServiceControl</text>
<text text-anchor="start" x="184" y="-219" font-family="Ubuntu" font-size="10.00">ScannerServiceControl</text>
<polygon fill="#ff7f50" stroke="transparent" points="139,-199 139,-214 178,-214 178,-199 139,-199"/>
<polygon fill="#ff7f50" stroke="transparent" points="178,-199 178,-214 297,-214 297,-199 178,-199"/>
<text text-anchor="start" x="184" y="-204" font-family="Ubuntu" font-size="10.00">ScannerServiceControl</text>
<text text-anchor="start" x="11" y="-190" font-family="Ubuntu" font-weight="bold" font-size="10.00">StreamServiceControl</text>
<text text-anchor="start" x="184" y="-189" font-family="Ubuntu" font-size="10.00">ScannerServiceControl</text>
<polygon fill="#ff7f50" stroke="transparent" points="139,-169 139,-184 178,-184 178,-169 139,-169"/>
<text text-anchor="start" x="141" y="-174" font-family="Ubuntu" font-size="10.00">stream</text>
<polygon fill="#ff7f50" stroke="transparent" points="178,-169 178,-184 297,-184 297,-169 178,-169"/>
<text text-anchor="start" x="184" y="-174" font-family="Ubuntu" font-size="10.00">ScannerServiceControl</text>
<text text-anchor="start" x="11" y="-160" font-family="Ubuntu" font-weight="bold" font-size="10.00">StreamTasksStatus</text>
<text text-anchor="start" x="141" y="-159" font-family="Ubuntu" font-size="10.00">stream</text>
<text text-anchor="start" x="205" y="-159" font-family="Ubuntu" font-size="10.00">PrometheusStatus</text>
<polygon fill="#ff7f50" stroke="transparent" points="139,-139 139,-154 178,-154 178,-139 139,-139"/>
<text text-anchor="start" x="141" y="-144" font-family="Ubuntu" font-size="10.00">stream</text>
<polygon fill="#ff7f50" stroke="transparent" points="178,-139 178,-154 297,-154 297,-139 178,-139"/>
<text text-anchor="start" x="205" y="-144" font-family="Ubuntu" font-size="10.00">PrometheusStatus</text>
<polygon fill="none" stroke="black" points="8,-138.5 8,-365.5 298,-365.5 298,-138.5 8,-138.5"/>
</a>
</g>
</g>
<!-- Node_Ja_113&#45;&gt;Node_Ja_112 -->
<g id="edge8" class="edge">
<title>Node_Ja_113:e&#45;&gt;Node_Ja_112:header</title>
<g id="a_edge8"><a xlink:title="Ja_113 &#45;&#45;&gt; Ja_112">
<path fill="none" stroke="#000000" d="M298,-236C350.23,-236 311.59,-330.61 351.4,-343.54"/>
<polygon fill="#000000" stroke="#000000" points="351.1,-347.03 361.5,-345 352.1,-340.11 351.1,-347.03"/>
</a>
</g>
</g>
<!-- Node_Ja_113&#45;&gt;Node_Ja_112 -->
<g id="edge17" class="edge">
<title>Node_Ja_113:e&#45;&gt;Node_Ja_112:header</title>
<g id="a_edge17"><a xlink:title="Ja_113 &#45;&#45;&gt; Ja_112">
<path fill="none" stroke="#000000" d="M298,-297C329.51,-297 327.2,-335.07 351.31,-343.4"/>
<polygon fill="#000000" stroke="#000000" points="351.08,-346.91 361.5,-345 352.16,-339.99 351.08,-346.91"/>
</a>
</g>
</g>
<!-- Node_Ja_113&#45;&gt;Node_Ja_112 -->
<g id="edge19" class="edge">
<title>Node_Ja_113:e&#45;&gt;Node_Ja_112:header</title>
<g id="a_edge19"><a xlink:title="Ja_113 &#45;&#45;&gt; Ja_112">
<path fill="none" stroke="#000000" d="M298,-267C338.86,-267 320.73,-332.17 351.45,-343.37"/>
<polygon fill="#000000" stroke="#000000" points="351.07,-346.85 361.5,-345 352.19,-339.94 351.07,-346.85"/>
</a>
</g>
</g>
<!-- Node_Ja_113&#45;&gt;Node_Ja_112 -->
<g id="edge22" class="edge">
<title>Node_Ja_113:e&#45;&gt;Node_Ja_112:header</title>
<g id="a_edge22"><a xlink:title="Ja_113 &#45;&#45;&gt; Ja_112">
<path fill="none" stroke="#000000" d="M298,-327C323.55,-327 330.51,-340.66 351.27,-344.18"/>
<polygon fill="#000000" stroke="#000000" points="351.25,-347.69 361.5,-345 351.81,-340.71 351.25,-347.69"/>
</a>
</g>
</g>
<!-- Node_Ja_108 -->
<g id="node10" class="node">
<title>Node_Ja_108</title>
<g id="a_node10"><a xlink:title="proto.PrometheusStatus">
<polygon fill="#fffaf0" stroke="transparent" points="357,-72 357,-134 530,-134 530,-72 357,-72"/>
<polygon fill="#e31a1c" stroke="transparent" points="358.5,-118 358.5,-133 529.5,-133 529.5,-118 358.5,-118"/>
<text text-anchor="start" x="423.5" y="-124" font-family="Ubuntu" font-weight="bold" font-size="10.00">PrometheusStatus</text>
<text text-anchor="start" x="364.5" y="-108" font-family="Ubuntu" font-size="10.00">1</text>
<text text-anchor="start" x="375.5" y="-108" font-family="Ubuntu" font-size="10.00">tasks_status</text>
<polygon fill="#fb9a99" stroke="transparent" points="458.5,-103 458.5,-118 529.5,-118 529.5,-103 458.5,-103"/>
<text text-anchor="start" x="460.5" y="-109" font-family="Ubuntu" font-weight="bold" font-size="10.00">TasksStatus</text>
<text text-anchor="start" x="364.5" y="-93" font-family="Ubuntu" font-size="10.00">2</text>
<text text-anchor="start" x="375.5" y="-93" font-family="Ubuntu" font-size="10.00">worker_count</text>
<polygon fill="#a6cee3" stroke="transparent" points="458.5,-88 458.5,-103 529.5,-103 529.5,-88 458.5,-88"/>
<text text-anchor="start" x="502.5" y="-94" font-family="Ubuntu" font-style="italic" font-size="10.00">int64</text>
<text text-anchor="start" x="364.5" y="-78" font-family="Ubuntu" font-size="10.00">3</text>
<text text-anchor="start" x="375.5" y="-78" font-family="Ubuntu" font-size="10.00">consumer_count</text>
<polygon fill="#a6cee3" stroke="transparent" points="458.5,-73 458.5,-88 529.5,-88 529.5,-73 458.5,-73"/>
<text text-anchor="start" x="502.5" y="-79" font-family="Ubuntu" font-style="italic" font-size="10.00">int64</text>
<polygon fill="none" stroke="black" points="357,-72 357,-134 530,-134 530,-72 357,-72"/>
</a>
</g>
</g>
<!-- Node_Ja_113&#45;&gt;Node_Ja_108 -->
<g id="edge2" class="edge">
<title>Node_Ja_113:e&#45;&gt;Node_Ja_108:header</title>
<g id="a_edge2"><a xlink:title="Ja_113 &#45;&#45;&gt; Ja_108">
<path fill="none" stroke="#000000" d="M298,-146C322.08,-146 328.14,-131.09 347.29,-127.02"/>
<polygon fill="#000000" stroke="#000000" points="347.9,-130.48 357.5,-126 347.2,-123.51 347.9,-130.48"/>
</a>
</g>
</g>
<!-- Node_Ja_113&#45;&gt;Node_Ja_108 -->
<g id="edge20" class="edge">
<title>Node_Ja_113:e&#45;&gt;Node_Ja_108:header</title>
<g id="a_edge20"><a xlink:title="Ja_113 &#45;&#45;&gt; Ja_108">
<path fill="none" stroke="#000000" d="M298,-161C324.85,-161 326.78,-134.2 347.39,-127.5"/>
<polygon fill="#000000" stroke="#000000" points="348.12,-130.93 357.5,-126 347.09,-124.01 348.12,-130.93"/>
</a>
</g>
</g>
<!-- Node_Ja_111 -->
<g id="node11" class="node">
<title>Node_Ja_111</title>
<g id="a_node11"><a xlink:title="proto.GetScannerRequest">
<polygon fill="#fffaf0" stroke="transparent" points="384.5,-218 384.5,-250 502.5,-250 502.5,-218 384.5,-218"/>
<polygon fill="#e31a1c" stroke="transparent" points="385.5,-234 385.5,-249 501.5,-249 501.5,-234 385.5,-234"/>
<text text-anchor="start" x="387.5" y="-240" font-family="Ubuntu" font-weight="bold" font-size="10.00">GetScannerRequest</text>
<text text-anchor="start" x="426.5" y="-224" font-family="Ubuntu" font-size="10.00">1</text>
<text text-anchor="start" x="437.5" y="-224" font-family="Ubuntu" font-size="10.00">key</text>
<polygon fill="#a6cee3" stroke="transparent" points="463.5,-219 463.5,-234 501.5,-234 501.5,-219 463.5,-219"/>
<text text-anchor="start" x="471.5" y="-225" font-family="Ubuntu" font-style="italic" font-size="10.00">string</text>
<polygon fill="none" stroke="black" points="384.5,-218 384.5,-250 502.5,-250 502.5,-218 384.5,-218"/>
</a>
</g>
</g>
<!-- Node_Ja_113&#45;&gt;Node_Ja_111 -->
<g id="edge7" class="edge">
<title>Node_Ja_113:e&#45;&gt;Node_Ja_111:header</title>
<g id="a_edge7"><a xlink:title="Ja_113 &#45;&#45;&gt; Ja_111">
<path fill="none" stroke="#000000" d="M298,-251C333.03,-251 343.86,-243.61 374.36,-242.22"/>
<polygon fill="#000000" stroke="#000000" points="374.58,-245.72 384.5,-242 374.43,-238.72 374.58,-245.72"/>
</a>
</g>
</g>
<!-- Node_Ja_113&#45;&gt;Node_Ja_111 -->
<g id="edge18" class="edge">
<title>Node_Ja_113:e&#45;&gt;Node_Ja_111:header</title>
<g id="a_edge18"><a xlink:title="Ja_113 &#45;&#45;&gt; Ja_111">
<path fill="none" stroke="#000000" d="M298,-282C336.72,-282 341.54,-248.58 374.43,-242.84"/>
<polygon fill="#000000" stroke="#000000" points="374.82,-246.31 384.5,-242 374.24,-239.34 374.82,-246.31"/>
</a>
</g>
</g>
<!-- Node_Ja_106 -->
<g id="node13" class="node">
<title>Node_Ja_106</title>
<g id="a_node13"><a xlink:title="proto.ParamsScannerRequest">
<polygon fill="#fffaf0" stroke="transparent" points="350,-379.5 350,-636.5 537,-636.5 537,-379.5 350,-379.5"/>
<polygon fill="#e31a1c" stroke="transparent" points="351.5,-620 351.5,-635 536.5,-635 536.5,-620 351.5,-620"/>
<text text-anchor="start" x="400.5" y="-626" font-family="Ubuntu" font-weight="bold" font-size="10.00">ParamsScannerRequest</text>
<text text-anchor="start" x="363.5" y="-610" font-family="Ubuntu" font-size="10.00">1</text>
<text text-anchor="start" x="374.5" y="-610" font-family="Ubuntu" font-size="10.00">hosts</text>
<polygon fill="#a6cee3" stroke="transparent" points="504.5,-605 504.5,-620 536.5,-620 536.5,-605 504.5,-605"/>
<text text-anchor="start" x="506.5" y="-611" font-family="Ubuntu" font-style="italic" font-size="10.00">string</text>
<text text-anchor="start" x="363.5" y="-595" font-family="Ubuntu" font-size="10.00">2</text>
<text text-anchor="start" x="374.5" y="-595" font-family="Ubuntu" font-size="10.00">ports</text>
<polygon fill="#a6cee3" stroke="transparent" points="504.5,-590 504.5,-605 536.5,-605 536.5,-590 504.5,-590"/>
<text text-anchor="start" x="506.5" y="-596" font-family="Ubuntu" font-style="italic" font-size="10.00">string</text>
<text text-anchor="start" x="363.5" y="-580" font-family="Ubuntu" font-size="10.00">3</text>
<text text-anchor="start" x="374.5" y="-580" font-family="Ubuntu" font-size="10.00">with_aggressive_scan</text>
<polygon fill="#a6cee3" stroke="transparent" points="504.5,-575 504.5,-590 536.5,-590 536.5,-575 504.5,-575"/>
<text text-anchor="start" x="512.5" y="-581" font-family="Ubuntu" font-style="italic" font-size="10.00">bool</text>
<text text-anchor="start" x="363.5" y="-565" font-family="Ubuntu" font-size="10.00">4</text>
<text text-anchor="start" x="374.5" y="-565" font-family="Ubuntu" font-size="10.00">with_syn_scan</text>
<polygon fill="#a6cee3" stroke="transparent" points="504.5,-560 504.5,-575 536.5,-575 536.5,-560 504.5,-560"/>
<text text-anchor="start" x="512.5" y="-566" font-family="Ubuntu" font-style="italic" font-size="10.00">bool</text>
<text text-anchor="start" x="363.5" y="-550" font-family="Ubuntu" font-size="10.00">5</text>
<text text-anchor="start" x="374.5" y="-550" font-family="Ubuntu" font-size="10.00">with_null_scan</text>
<polygon fill="#a6cee3" stroke="transparent" points="504.5,-545 504.5,-560 536.5,-560 536.5,-545 504.5,-545"/>
<text text-anchor="start" x="512.5" y="-551" font-family="Ubuntu" font-style="italic" font-size="10.00">bool</text>
<text text-anchor="start" x="363.5" y="-535" font-family="Ubuntu" font-size="10.00">6</text>
<text text-anchor="start" x="374.5" y="-535" font-family="Ubuntu" font-size="10.00">service_version_detection</text>
<polygon fill="#a6cee3" stroke="transparent" points="504.5,-530 504.5,-545 536.5,-545 536.5,-530 504.5,-530"/>
<text text-anchor="start" x="512.5" y="-536" font-family="Ubuntu" font-style="italic" font-size="10.00">bool</text>
<text text-anchor="start" x="363.5" y="-520" font-family="Ubuntu" font-size="10.00">7</text>
<text text-anchor="start" x="374.5" y="-520" font-family="Ubuntu" font-size="10.00">os_detection</text>
<polygon fill="#a6cee3" stroke="transparent" points="504.5,-515 504.5,-530 536.5,-530 536.5,-515 504.5,-515"/>
<text text-anchor="start" x="512.5" y="-521" font-family="Ubuntu" font-style="italic" font-size="10.00">bool</text>
<text text-anchor="start" x="363.5" y="-505" font-family="Ubuntu" font-size="10.00">8</text>
<text text-anchor="start" x="374.5" y="-505" font-family="Ubuntu" font-size="10.00">service_default_scripts</text>
<polygon fill="#a6cee3" stroke="transparent" points="504.5,-500 504.5,-515 536.5,-515 536.5,-500 504.5,-500"/>
<text text-anchor="start" x="512.5" y="-506" font-family="Ubuntu" font-style="italic" font-size="10.00">bool</text>
<text text-anchor="start" x="363.5" y="-490" font-family="Ubuntu" font-size="10.00">9</text>
<text text-anchor="start" x="374.5" y="-490" font-family="Ubuntu" font-size="10.00">timeout</text>
<polygon fill="#a6cee3" stroke="transparent" points="504.5,-485 504.5,-500 536.5,-500 536.5,-485 504.5,-485"/>
<text text-anchor="start" x="509.5" y="-491" font-family="Ubuntu" font-style="italic" font-size="10.00">int32</text>
<text text-anchor="start" x="357.5" y="-475" font-family="Ubuntu" font-size="10.00">10</text>
<text text-anchor="start" x="374.5" y="-475" font-family="Ubuntu" font-size="10.00">ping_only</text>
<polygon fill="#a6cee3" stroke="transparent" points="504.5,-470 504.5,-485 536.5,-485 536.5,-470 504.5,-470"/>
<text text-anchor="start" x="512.5" y="-476" font-family="Ubuntu" font-style="italic" font-size="10.00">bool</text>
<text text-anchor="start" x="357.5" y="-460" font-family="Ubuntu" font-size="10.00">11</text>
<text text-anchor="start" x="374.5" y="-460" font-family="Ubuntu" font-size="10.00">retention_time</text>
<polygon fill="#a6cee3" stroke="transparent" points="504.5,-455 504.5,-470 536.5,-470 536.5,-455 504.5,-455"/>
<text text-anchor="start" x="509.5" y="-461" font-family="Ubuntu" font-style="italic" font-size="10.00">int32</text>
<text text-anchor="start" x="357.5" y="-445" font-family="Ubuntu" font-size="10.00">12</text>
<text text-anchor="start" x="374.5" y="-445" font-family="Ubuntu" font-size="10.00">fast_mode</text>
<polygon fill="#a6cee3" stroke="transparent" points="504.5,-440 504.5,-455 536.5,-455 536.5,-440 504.5,-440"/>
<text text-anchor="start" x="512.5" y="-446" font-family="Ubuntu" font-style="italic" font-size="10.00">bool</text>
<text text-anchor="start" x="357.5" y="-430" font-family="Ubuntu" font-size="10.00">13</text>
<text text-anchor="start" x="374.5" y="-430" font-family="Ubuntu" font-size="10.00">key</text>
<polygon fill="#a6cee3" stroke="transparent" points="504.5,-425 504.5,-440 536.5,-440 536.5,-425 504.5,-425"/>
<text text-anchor="start" x="506.5" y="-431" font-family="Ubuntu" font-style="italic" font-size="10.00">string</text>
<text text-anchor="start" x="357.5" y="-415" font-family="Ubuntu" font-size="10.00">14</text>
<text text-anchor="start" x="374.5" y="-415" font-family="Ubuntu" font-size="10.00">defer_duration</text>
<polygon fill="#a6cee3" stroke="transparent" points="504.5,-410 504.5,-425 536.5,-425 536.5,-410 504.5,-410"/>
<text text-anchor="start" x="509.5" y="-416" font-family="Ubuntu" font-style="italic" font-size="10.00">int64</text>
<text text-anchor="start" x="357.5" y="-400" font-family="Ubuntu" font-size="10.00">15</text>
<text text-anchor="start" x="374.5" y="-400" font-family="Ubuntu" font-size="10.00">crontab</text>
<polygon fill="#a6cee3" stroke="transparent" points="504.5,-395 504.5,-410 536.5,-410 536.5,-395 504.5,-395"/>
<text text-anchor="start" x="506.5" y="-401" font-family="Ubuntu" font-style="italic" font-size="10.00">string</text>
<text text-anchor="start" x="357.5" y="-385" font-family="Ubuntu" font-size="10.00">16</text>
<text text-anchor="start" x="374.5" y="-385" font-family="Ubuntu" font-size="10.00">scan_speed</text>
<polygon fill="#a6cee3" stroke="transparent" points="504.5,-380 504.5,-395 536.5,-395 536.5,-380 504.5,-380"/>
<text text-anchor="start" x="509.5" y="-386" font-family="Ubuntu" font-style="italic" font-size="10.00">int32</text>
<polygon fill="none" stroke="black" points="350,-379.5 350,-636.5 537,-636.5 537,-379.5 350,-379.5"/>
</a>
</g>
</g>
<!-- Node_Ja_113&#45;&gt;Node_Ja_106 -->
<g id="edge6" class="edge">
<title>Node_Ja_113:e&#45;&gt;Node_Ja_106:header</title>
<g id="a_edge6"><a xlink:title="Ja_113 &#45;&#45;&gt; Ja_106">
<path fill="none" stroke="#000000" d="M298,-342C423.58,-342 232.66,-612.03 340.31,-627.32"/>
<polygon fill="#000000" stroke="#000000" points="340.29,-630.83 350.5,-628 340.75,-623.85 340.29,-630.83"/>
</a>
</g>
</g>
<!-- Node_Ja_113&#45;&gt;Node_Ja_106 -->
<g id="edge10" class="edge">
<title>Node_Ja_113:e&#45;&gt;Node_Ja_106:header</title>
<g id="a_edge10"><a xlink:title="Ja_113 &#45;&#45;&gt; Ja_106">
<path fill="none" stroke="#000000" d="M298,-312C365.43,-312 288.35,-595.55 340.53,-625.46"/>
<polygon fill="#000000" stroke="#000000" points="339.95,-628.92 350.5,-628 341.68,-622.14 339.95,-628.92"/>
</a>
</g>
</g>
<!-- Node_Ja_109 -->
<g id="node14" class="node">
<title>Node_Ja_109</title>
<g id="a_node14"><a xlink:title="proto.ScannerServiceControl">
<polygon fill="#fffaf0" stroke="transparent" points="375.5,-160 375.5,-192 511.5,-192 511.5,-160 375.5,-160"/>
<polygon fill="#e31a1c" stroke="transparent" points="376.5,-176 376.5,-191 510.5,-191 510.5,-176 376.5,-176"/>
<text text-anchor="start" x="378.5" y="-182" font-family="Ubuntu" font-weight="bold" font-size="10.00">ScannerServiceControl</text>
<text text-anchor="start" x="400.5" y="-166" font-family="Ubuntu" font-size="10.00">1</text>
<text text-anchor="start" x="411.5" y="-166" font-family="Ubuntu" font-size="10.00">state</text>
<polygon fill="#b2df8a" stroke="transparent" points="441.5,-161 441.5,-176 510.5,-176 510.5,-161 441.5,-161"/>
<text text-anchor="start" x="446.5" y="-167" font-family="Ubuntu" text-decoration="underline" font-size="10.00">ServiceState</text>
<polygon fill="none" stroke="black" points="375.5,-160 375.5,-192 511.5,-192 511.5,-160 375.5,-160"/>
</a>
</g>
</g>
<!-- Node_Ja_113&#45;&gt;Node_Ja_109 -->
<g id="edge1" class="edge">
<title>Node_Ja_113:e&#45;&gt;Node_Ja_109:header</title>
<g id="a_edge1"><a xlink:title="Ja_113 &#45;&#45;&gt; Ja_109">
<path fill="none" stroke="#000000" d="M298,-176C328.98,-176 338.84,-182.4 365.36,-183.75"/>
<polygon fill="#000000" stroke="#000000" points="365.42,-187.25 375.5,-184 365.59,-180.26 365.42,-187.25"/>
</a>
</g>
</g>
<!-- Node_Ja_113&#45;&gt;Node_Ja_109 -->
<g id="edge11" class="edge">
<title>Node_Ja_113:e&#45;&gt;Node_Ja_109:header</title>
<g id="a_edge11"><a xlink:title="Ja_113 &#45;&#45;&gt; Ja_109">
<path fill="none" stroke="#000000" d="M298,-191C328.94,-191 338.87,-185.4 365.37,-184.22"/>
<polygon fill="#000000" stroke="#000000" points="365.58,-187.71 375.5,-184 365.43,-180.72 365.58,-187.71"/>
</a>
</g>
</g>
<!-- Node_Ja_113&#45;&gt;Node_Ja_109 -->
<g id="edge12" class="edge">
<title>Node_Ja_113:e&#45;&gt;Node_Ja_109:header</title>
<g id="a_edge12"><a xlink:title="Ja_113 &#45;&#45;&gt; Ja_109">
<path fill="none" stroke="#000000" d="M298,-221C332.44,-221 336.75,-190.87 365.31,-184.99"/>
<polygon fill="#000000" stroke="#000000" points="365.89,-188.45 375.5,-184 365.21,-181.48 365.89,-188.45"/>
</a>
</g>
</g>
<!-- Node_Ja_113&#45;&gt;Node_Ja_109 -->
<g id="edge13" class="edge">
<title>Node_Ja_113:e&#45;&gt;Node_Ja_109:header</title>
<g id="a_edge13"><a xlink:title="Ja_113 &#45;&#45;&gt; Ja_109">
<path fill="none" stroke="#000000" d="M298,-206C330.17,-206 338.19,-188.24 365.45,-184.63"/>
<polygon fill="#000000" stroke="#000000" points="365.74,-188.12 375.5,-184 365.3,-181.14 365.74,-188.12"/>
</a>
</g>
</g>
<!-- Node_Ja_102 -->
<g id="node8" class="node">
<title>Node_Ja_102</title>
<g id="a_node8"><a xlink:title="proto.Port">
<polygon fill="#fffaf0" stroke="transparent" points="984,-231 984,-323 1145,-323 1145,-231 984,-231"/>
<polygon fill="#e31a1c" stroke="transparent" points="985.5,-307 985.5,-322 1144.5,-322 1144.5,-307 985.5,-307"/>
<text text-anchor="start" x="1117.5" y="-313" font-family="Ubuntu" font-weight="bold" font-size="10.00">Port</text>
<text text-anchor="start" x="991.5" y="-297" font-family="Ubuntu" font-size="10.00">1</text>
<text text-anchor="start" x="1002.5" y="-297" font-family="Ubuntu" font-size="10.00">port_id</text>
<polygon fill="#a6cee3" stroke="transparent" points="1073.5,-292 1073.5,-307 1144.5,-307 1144.5,-292 1073.5,-292"/>
<text text-anchor="start" x="1114.5" y="-298" font-family="Ubuntu" font-style="italic" font-size="10.00">string</text>
<text text-anchor="start" x="991.5" y="-282" font-family="Ubuntu" font-size="10.00">2</text>
<text text-anchor="start" x="1002.5" y="-282" font-family="Ubuntu" font-size="10.00">protocol</text>
<polygon fill="#a6cee3" stroke="transparent" points="1073.5,-277 1073.5,-292 1144.5,-292 1144.5,-277 1073.5,-277"/>
<text text-anchor="start" x="1114.5" y="-283" font-family="Ubuntu" font-style="italic" font-size="10.00">string</text>
<text text-anchor="start" x="991.5" y="-267" font-family="Ubuntu" font-size="10.00">3</text>
<text text-anchor="start" x="1002.5" y="-267" font-family="Ubuntu" font-size="10.00">state</text>
<polygon fill="#a6cee3" stroke="transparent" points="1073.5,-262 1073.5,-277 1144.5,-277 1144.5,-262 1073.5,-262"/>
<text text-anchor="start" x="1114.5" y="-268" font-family="Ubuntu" font-style="italic" font-size="10.00">string</text>
<text text-anchor="start" x="991.5" y="-252" font-family="Ubuntu" font-size="10.00">4</text>
<text text-anchor="start" x="1002.5" y="-252" font-family="Ubuntu" font-size="10.00">service_name</text>
<polygon fill="#a6cee3" stroke="transparent" points="1073.5,-247 1073.5,-262 1144.5,-262 1144.5,-247 1073.5,-247"/>
<text text-anchor="start" x="1114.5" y="-253" font-family="Ubuntu" font-style="italic" font-size="10.00">string</text>
<text text-anchor="start" x="991.5" y="-237" font-family="Ubuntu" font-size="10.00">5</text>
<text text-anchor="start" x="1002.5" y="-237" font-family="Ubuntu" font-size="10.00">version</text>
<polygon fill="#fb9a99" stroke="transparent" points="1073.5,-232 1073.5,-247 1144.5,-247 1144.5,-232 1073.5,-232"/>
<text text-anchor="start" x="1075.5" y="-238" font-family="Ubuntu" font-weight="bold" font-size="10.00">PortVersion</text>
<polygon fill="none" stroke="black" points="984,-231 984,-323 1145,-323 1145,-231 984,-231"/>
</a>
</g>
</g>
<!-- Node_Ja_102&#45;&gt;Node_Ja_101 -->
<g id="edge14" class="edge">
<title>Node_Ja_102:e&#45;&gt;Node_Ja_101:header</title>
<g id="a_edge14"><a xlink:title="Ja_102 &#45;&#45;&gt; Ja_101">
<path fill="none" stroke="#000000" d="M1145.5,-239C1164.63,-239 1171.77,-239 1186.97,-239"/>
<polygon fill="#000000" stroke="#000000" points="1187,-242.5 1197,-239 1187,-235.5 1187,-242.5"/>
</a>
</g>
</g>
<!-- Node_Ja_104&#45;&gt;Node_Ja_105 -->
<g id="edge15" class="edge">
<title>Node_Ja_104:e&#45;&gt;Node_Ja_105</title>
<g id="a_edge15"><a xlink:title="Ja_104 &#45;&#45;&gt; Ja_105">
<path fill="none" stroke="#008000" d="M770.5,-243C787.18,-243 805.35,-243 821.84,-243"/>
<polygon fill="#008000" stroke="#008000" points="821.86,-246.5 831.86,-243 821.86,-239.5 821.86,-246.5"/>
</a>
</g>
</g>
<!-- Node_Ja_103 -->
<g id="node12" class="node">
<title>Node_Ja_103</title>
<g id="a_node12"><a xlink:title="proto.HostResult">
<polygon fill="#fffaf0" stroke="transparent" points="830.5,-351.5 830.5,-398.5 923.5,-398.5 923.5,-351.5 830.5,-351.5"/>
<polygon fill="#e31a1c" stroke="transparent" points="832,-382 832,-397 923,-397 923,-382 832,-382"/>
<text text-anchor="start" x="860" y="-388" font-family="Ubuntu" font-weight="bold" font-size="10.00">HostResult</text>
<text text-anchor="start" x="855" y="-372" font-family="Ubuntu" font-size="10.00">1</text>
<text text-anchor="start" x="866" y="-372" font-family="Ubuntu" font-size="10.00">host</text>
<polygon fill="#fb9a99" stroke="transparent" points="893,-367 893,-382 923,-382 923,-367 893,-367"/>
<text text-anchor="start" x="895" y="-373" font-family="Ubuntu" font-weight="bold" font-size="10.00">Host</text>
<text text-anchor="start" x="834" y="-357" font-family="Ubuntu" font-size="10.00">[...]</text>
<text text-anchor="start" x="855" y="-357" font-family="Ubuntu" font-size="10.00">2</text>
<text text-anchor="start" x="866" y="-357" font-family="Ubuntu" font-size="10.00">ports</text>
<polygon fill="#fb9a99" stroke="transparent" points="893,-352 893,-367 923,-367 923,-352 893,-352"/>
<text text-anchor="start" x="896" y="-358" font-family="Ubuntu" font-weight="bold" font-size="10.00">Port</text>
<polygon fill="none" stroke="black" points="830.5,-351.5 830.5,-398.5 923.5,-398.5 923.5,-351.5 830.5,-351.5"/>
</a>
</g>
</g>
<!-- Node_Ja_104&#45;&gt;Node_Ja_103 -->
<g id="edge4" class="edge">
<title>Node_Ja_104:e&#45;&gt;Node_Ja_103:header</title>
<g id="a_edge4"><a xlink:title="Ja_104 &#45;&#45;&gt; Ja_103">
<path fill="none" stroke="#000000" d="M770.5,-319C808.07,-319 793.18,-377.31 820.92,-388.24"/>
<polygon fill="#000000" stroke="#000000" points="820.55,-391.73 831,-390 821.75,-384.84 820.55,-391.73"/>
</a>
</g>
</g>
<!-- Node_Ja_108&#45;&gt;Node_Ja_107 -->
<g id="edge16" class="edge">
<title>Node_Ja_108:e&#45;&gt;Node_Ja_107:header</title>
<g id="a_edge16"><a xlink:title="Ja_108 &#45;&#45;&gt; Ja_107">
<path fill="none" stroke="#000000" d="M530.5,-111C572.7,-111 585.72,-111 623.37,-111"/>
<polygon fill="#000000" stroke="#000000" points="623.5,-114.5 633.5,-111 623.5,-107.5 623.5,-114.5"/>
</a>
</g>
</g>
<!-- Node_Ja_103&#45;&gt;Node_Ja_100 -->
<g id="edge3" class="edge">
<title>Node_Ja_103:e&#45;&gt;Node_Ja_100:header</title>
<g id="a_edge3"><a xlink:title="Ja_103 &#45;&#45;&gt; Ja_100">
<path fill="none" stroke="#000000" d="M924,-374C963.79,-374 967.58,-410.76 1001.18,-417.08"/>
<polygon fill="#000000" stroke="#000000" points="1001.23,-420.6 1011.5,-418 1001.85,-413.63 1001.23,-420.6"/>
</a>
</g>
</g>
<!-- Node_Ja_103&#45;&gt;Node_Ja_102 -->
<g id="edge9" class="edge">
<title>Node_Ja_103:e&#45;&gt;Node_Ja_102:header</title>
<g id="a_edge9"><a xlink:title="Ja_103 &#45;&#45;&gt; Ja_102">
<path fill="none" stroke="#000000" d="M924,-359C953.48,-359 952.11,-324.4 974.6,-316.57"/>
<polygon fill="#000000" stroke="#000000" points="975.17,-320.02 984.5,-315 974.08,-313.11 975.17,-320.02"/>
</a>
</g>
</g>
<!-- Node_Ja_109&#45;&gt;Node_Ja_110 -->
<g id="edge21" class="edge">
<title>Node_Ja_109:e&#45;&gt;Node_Ja_110</title>
<g id="a_edge21"><a xlink:title="Ja_109 &#45;&#45;&gt; Ja_110">
<path fill="none" stroke="#008000" d="M511.5,-168C613.44,-168 730.31,-151.21 803.65,-138.61"/>
<polygon fill="#008000" stroke="#008000" points="804.45,-142.02 813.7,-136.86 803.25,-135.13 804.45,-142.02"/>
</a>
</g>
</g>
</g>
</svg>
