<?xml version="1.0" encoding="UTF-8" standalone="no"?>
<!DOCTYPE svg PUBLIC "-//W3C//DTD SVG 1.1//EN"
 "http://www.w3.org/Graphics/SVG/1.1/DTD/svg11.dtd">
<!-- Generated by graphviz version 2.47.3 (0)
 -->
<!-- Title: protodot Pages: 1 -->
<svg width="1215pt" height="580pt"
 viewBox="0.00 0.00 1215.00 579.50" xmlns="http://www.w3.org/2000/svg" xmlns:xlink="http://www.w3.org/1999/xlink">
<g id="graph0" class="graph" transform="scale(1 1) rotate(0) translate(4 575.5)">
<title>protodot</title>
<g id="a_graph0"><a xlink:title="proto">
<text text-anchor="middle" x="603.5" y="-7.8" font-family="Times,serif" font-size="14.00">proto</text>
</a>
</g>
<!-- Node_Ja_101 -->
<g id="node1" class="node">
<title>Node_Ja_101</title>
<g id="a_node1"><a xlink:title="proto.PortVersion">
<polygon fill="#fffaf0" stroke="transparent" points="1083,-27 1083,-104 1199,-104 1199,-27 1083,-27"/>
<polygon fill="#e31a1c" stroke="transparent" points="1084,-87.5 1084,-102.5 1198,-102.5 1198,-87.5 1084,-87.5"/>
<text text-anchor="start" x="1129" y="-93.5" font-family="Ubuntu" font-weight="bold" font-size="10.00">PortVersion</text>
<text text-anchor="start" x="1090" y="-77.5" font-family="Ubuntu" font-size="10.00">1</text>
<text text-anchor="start" x="1101" y="-77.5" font-family="Ubuntu" font-size="10.00">low_version</text>
<polygon fill="#a6cee3" stroke="transparent" points="1166,-72.5 1166,-87.5 1198,-87.5 1198,-72.5 1166,-72.5"/>
<text text-anchor="start" x="1168" y="-78.5" font-family="Ubuntu" font-style="italic" font-size="10.00">string</text>
<text text-anchor="start" x="1090" y="-62.5" font-family="Ubuntu" font-size="10.00">2</text>
<text text-anchor="start" x="1101" y="-62.5" font-family="Ubuntu" font-size="10.00">high_version</text>
<polygon fill="#a6cee3" stroke="transparent" points="1166,-57.5 1166,-72.5 1198,-72.5 1198,-57.5 1166,-57.5"/>
<text text-anchor="start" x="1168" y="-63.5" font-family="Ubuntu" font-style="italic" font-size="10.00">string</text>
<text text-anchor="start" x="1090" y="-47.5" font-family="Ubuntu" font-size="10.00">3</text>
<text text-anchor="start" x="1101" y="-47.5" font-family="Ubuntu" font-size="10.00">extra_infos</text>
<polygon fill="#a6cee3" stroke="transparent" points="1166,-42.5 1166,-57.5 1198,-57.5 1198,-42.5 1166,-42.5"/>
<text text-anchor="start" x="1168" y="-48.5" font-family="Ubuntu" font-style="italic" font-size="10.00">string</text>
<text text-anchor="start" x="1090" y="-32.5" font-family="Ubuntu" font-size="10.00">4</text>
<text text-anchor="start" x="1101" y="-32.5" font-family="Ubuntu" font-size="10.00">product</text>
<polygon fill="#a6cee3" stroke="transparent" points="1166,-27.5 1166,-42.5 1198,-42.5 1198,-27.5 1166,-27.5"/>
<text text-anchor="start" x="1168" y="-33.5" font-family="Ubuntu" font-style="italic" font-size="10.00">string</text>
<polygon fill="none" stroke="black" points="1083,-27 1083,-104 1199,-104 1199,-27 1083,-27"/>
</a>
</g>
</g>
<!-- Node_Ja_102 -->
<g id="node2" class="node">
<title>Node_Ja_102</title>
<g id="a_node2"><a xlink:title="proto.Port">
<polygon fill="#fffaf0" stroke="transparent" points="870,-87.5 870,-179.5 1031,-179.5 1031,-87.5 870,-87.5"/>
<polygon fill="#e31a1c" stroke="transparent" points="871.5,-163.5 871.5,-178.5 1030.5,-178.5 1030.5,-163.5 871.5,-163.5"/>
<text text-anchor="start" x="1003.5" y="-169.5" font-family="Ubuntu" font-weight="bold" font-size="10.00">Port</text>
<text text-anchor="start" x="877.5" y="-153.5" font-family="Ubuntu" font-size="10.00">1</text>
<text text-anchor="start" x="888.5" y="-153.5" font-family="Ubuntu" font-size="10.00">port_id</text>
<polygon fill="#a6cee3" stroke="transparent" points="959.5,-148.5 959.5,-163.5 1030.5,-163.5 1030.5,-148.5 959.5,-148.5"/>
<text text-anchor="start" x="1000.5" y="-154.5" font-family="Ubuntu" font-style="italic" font-size="10.00">string</text>
<text text-anchor="start" x="877.5" y="-138.5" font-family="Ubuntu" font-size="10.00">2</text>
<text text-anchor="start" x="888.5" y="-138.5" font-family="Ubuntu" font-size="10.00">protocol</text>
<polygon fill="#a6cee3" stroke="transparent" points="959.5,-133.5 959.5,-148.5 1030.5,-148.5 1030.5,-133.5 959.5,-133.5"/>
<text text-anchor="start" x="1000.5" y="-139.5" font-family="Ubuntu" font-style="italic" font-size="10.00">string</text>
<text text-anchor="start" x="877.5" y="-123.5" font-family="Ubuntu" font-size="10.00">3</text>
<text text-anchor="start" x="888.5" y="-123.5" font-family="Ubuntu" font-size="10.00">state</text>
<polygon fill="#a6cee3" stroke="transparent" points="959.5,-118.5 959.5,-133.5 1030.5,-133.5 1030.5,-118.5 959.5,-118.5"/>
<text text-anchor="start" x="1000.5" y="-124.5" font-family="Ubuntu" font-style="italic" font-size="10.00">string</text>
<text text-anchor="start" x="877.5" y="-108.5" font-family="Ubuntu" font-size="10.00">4</text>
<text text-anchor="start" x="888.5" y="-108.5" font-family="Ubuntu" font-size="10.00">service_name</text>
<polygon fill="#a6cee3" stroke="transparent" points="959.5,-103.5 959.5,-118.5 1030.5,-118.5 1030.5,-103.5 959.5,-103.5"/>
<text text-anchor="start" x="1000.5" y="-109.5" font-family="Ubuntu" font-style="italic" font-size="10.00">string</text>
<text text-anchor="start" x="877.5" y="-93.5" font-family="Ubuntu" font-size="10.00">5</text>
<text text-anchor="start" x="888.5" y="-93.5" font-family="Ubuntu" font-size="10.00">version</text>
<polygon fill="#fb9a99" stroke="transparent" points="959.5,-88.5 959.5,-103.5 1030.5,-103.5 1030.5,-88.5 959.5,-88.5"/>
<text text-anchor="start" x="961.5" y="-94.5" font-family="Ubuntu" font-weight="bold" font-size="10.00">PortVersion</text>
<polygon fill="none" stroke="black" points="870,-87.5 870,-179.5 1031,-179.5 1031,-87.5 870,-87.5"/>
</a>
</g>
</g>
<!-- Node_Ja_102&#45;&gt;Node_Ja_101 -->
<g id="edge11" class="edge">
<title>Node_Ja_102:e&#45;&gt;Node_Ja_101:header</title>
<g id="a_edge11"><a xlink:title="Ja_102 &#45;&#45;&gt; Ja_101">
<path fill="none" stroke="#000000" d="M1031.5,-95.5C1050.63,-95.5 1057.77,-95.5 1072.97,-95.5"/>
<polygon fill="#000000" stroke="#000000" points="1073,-99 1083,-95.5 1073,-92 1073,-99"/>
</a>
</g>
</g>
<!-- Node_Ja_108 -->
<g id="node3" class="node">
<title>Node_Ja_108</title>
<g id="a_node3"><a xlink:title="ScannerService">
<polygon fill="#ffd700" stroke="transparent" points="8,-292 8,-399 201,-399 201,-292 8,-292"/>
<polygon fill="#ff7f50" stroke="transparent" points="9.5,-382.5 9.5,-397.5 200.5,-397.5 200.5,-382.5 9.5,-382.5"/>
<text text-anchor="start" x="109.5" y="-388.5" font-family="Ubuntu" font-weight="bold" font-size="10.00">ScannerService</text>
<text text-anchor="start" x="11.5" y="-373.5" font-family="Ubuntu" font-weight="bold" font-size="10.00">StartScan</text>
<text text-anchor="start" x="83.5" y="-372.5" font-family="Ubuntu" font-size="10.00">ParamsScannerRequest</text>
<polygon fill="#ff7f50" stroke="transparent" points="77.5,-352.5 77.5,-367.5 81.5,-367.5 81.5,-352.5 77.5,-352.5"/>
<polygon fill="#ff7f50" stroke="transparent" points="81.5,-352.5 81.5,-367.5 200.5,-367.5 200.5,-352.5 81.5,-352.5"/>
<text text-anchor="start" x="119.5" y="-357.5" font-family="Ubuntu" font-size="10.00">ServerResponse</text>
<text text-anchor="start" x="11.5" y="-343.5" font-family="Ubuntu" font-weight="bold" font-size="10.00">GetScan</text>
<text text-anchor="start" x="101.5" y="-342.5" font-family="Ubuntu" font-size="10.00">GetScannerRequest</text>
<polygon fill="#ff7f50" stroke="transparent" points="77.5,-322.5 77.5,-337.5 81.5,-337.5 81.5,-322.5 77.5,-322.5"/>
<polygon fill="#ff7f50" stroke="transparent" points="81.5,-322.5 81.5,-337.5 200.5,-337.5 200.5,-322.5 81.5,-322.5"/>
<text text-anchor="start" x="119.5" y="-327.5" font-family="Ubuntu" font-size="10.00">ServerResponse</text>
<text text-anchor="start" x="11.5" y="-313.5" font-family="Ubuntu" font-weight="bold" font-size="10.00">DeleteScan</text>
<text text-anchor="start" x="101.5" y="-312.5" font-family="Ubuntu" font-size="10.00">GetScannerRequest</text>
<polygon fill="#ff7f50" stroke="transparent" points="77.5,-292.5 77.5,-307.5 81.5,-307.5 81.5,-292.5 77.5,-292.5"/>
<polygon fill="#ff7f50" stroke="transparent" points="81.5,-292.5 81.5,-307.5 200.5,-307.5 200.5,-292.5 81.5,-292.5"/>
<text text-anchor="start" x="119.5" y="-297.5" font-family="Ubuntu" font-size="10.00">ServerResponse</text>
<polygon fill="none" stroke="black" points="8,-292 8,-399 201,-399 201,-292 8,-292"/>
</a>
</g>
</g>
<!-- Node_Ja_105 -->
<g id="node7" class="node">
<title>Node_Ja_105</title>
<g id="a_node7"><a xlink:title="proto.ParamsScannerRequest">
<polygon fill="#fffaf0" stroke="transparent" points="253,-385.5 253,-567.5 440,-567.5 440,-385.5 253,-385.5"/>
<polygon fill="#e31a1c" stroke="transparent" points="254.5,-551.5 254.5,-566.5 439.5,-566.5 439.5,-551.5 254.5,-551.5"/>
<text text-anchor="start" x="303.5" y="-557.5" font-family="Ubuntu" font-weight="bold" font-size="10.00">ParamsScannerRequest</text>
<text text-anchor="start" x="266.5" y="-541.5" font-family="Ubuntu" font-size="10.00">1</text>
<text text-anchor="start" x="277.5" y="-541.5" font-family="Ubuntu" font-size="10.00">hosts</text>
<polygon fill="#a6cee3" stroke="transparent" points="407.5,-536.5 407.5,-551.5 439.5,-551.5 439.5,-536.5 407.5,-536.5"/>
<text text-anchor="start" x="409.5" y="-542.5" font-family="Ubuntu" font-style="italic" font-size="10.00">string</text>
<text text-anchor="start" x="266.5" y="-526.5" font-family="Ubuntu" font-size="10.00">2</text>
<text text-anchor="start" x="277.5" y="-526.5" font-family="Ubuntu" font-size="10.00">ports</text>
<polygon fill="#a6cee3" stroke="transparent" points="407.5,-521.5 407.5,-536.5 439.5,-536.5 439.5,-521.5 407.5,-521.5"/>
<text text-anchor="start" x="409.5" y="-527.5" font-family="Ubuntu" font-style="italic" font-size="10.00">string</text>
<text text-anchor="start" x="266.5" y="-511.5" font-family="Ubuntu" font-size="10.00">3</text>
<text text-anchor="start" x="277.5" y="-511.5" font-family="Ubuntu" font-size="10.00">with_aggressive_scan</text>
<polygon fill="#a6cee3" stroke="transparent" points="407.5,-506.5 407.5,-521.5 439.5,-521.5 439.5,-506.5 407.5,-506.5"/>
<text text-anchor="start" x="415.5" y="-512.5" font-family="Ubuntu" font-style="italic" font-size="10.00">bool</text>
<text text-anchor="start" x="266.5" y="-496.5" font-family="Ubuntu" font-size="10.00">4</text>
<text text-anchor="start" x="277.5" y="-496.5" font-family="Ubuntu" font-size="10.00">with_syn_scan</text>
<polygon fill="#a6cee3" stroke="transparent" points="407.5,-491.5 407.5,-506.5 439.5,-506.5 439.5,-491.5 407.5,-491.5"/>
<text text-anchor="start" x="415.5" y="-497.5" font-family="Ubuntu" font-style="italic" font-size="10.00">bool</text>
<text text-anchor="start" x="266.5" y="-481.5" font-family="Ubuntu" font-size="10.00">5</text>
<text text-anchor="start" x="277.5" y="-481.5" font-family="Ubuntu" font-size="10.00">with_null_scan</text>
<polygon fill="#a6cee3" stroke="transparent" points="407.5,-476.5 407.5,-491.5 439.5,-491.5 439.5,-476.5 407.5,-476.5"/>
<text text-anchor="start" x="415.5" y="-482.5" font-family="Ubuntu" font-style="italic" font-size="10.00">bool</text>
<text text-anchor="start" x="266.5" y="-466.5" font-family="Ubuntu" font-size="10.00">6</text>
<text text-anchor="start" x="277.5" y="-466.5" font-family="Ubuntu" font-size="10.00">service_version_detection</text>
<polygon fill="#a6cee3" stroke="transparent" points="407.5,-461.5 407.5,-476.5 439.5,-476.5 439.5,-461.5 407.5,-461.5"/>
<text text-anchor="start" x="415.5" y="-467.5" font-family="Ubuntu" font-style="italic" font-size="10.00">bool</text>
<text text-anchor="start" x="266.5" y="-451.5" font-family="Ubuntu" font-size="10.00">7</text>
<text text-anchor="start" x="277.5" y="-451.5" font-family="Ubuntu" font-size="10.00">os_detection</text>
<polygon fill="#a6cee3" stroke="transparent" points="407.5,-446.5 407.5,-461.5 439.5,-461.5 439.5,-446.5 407.5,-446.5"/>
<text text-anchor="start" x="415.5" y="-452.5" font-family="Ubuntu" font-style="italic" font-size="10.00">bool</text>
<text text-anchor="start" x="266.5" y="-436.5" font-family="Ubuntu" font-size="10.00">8</text>
<text text-anchor="start" x="277.5" y="-436.5" font-family="Ubuntu" font-size="10.00">service_default_scripts</text>
<polygon fill="#a6cee3" stroke="transparent" points="407.5,-431.5 407.5,-446.5 439.5,-446.5 439.5,-431.5 407.5,-431.5"/>
<text text-anchor="start" x="415.5" y="-437.5" font-family="Ubuntu" font-style="italic" font-size="10.00">bool</text>
<text text-anchor="start" x="266.5" y="-421.5" font-family="Ubuntu" font-size="10.00">9</text>
<text text-anchor="start" x="277.5" y="-421.5" font-family="Ubuntu" font-size="10.00">timeout</text>
<polygon fill="#a6cee3" stroke="transparent" points="407.5,-416.5 407.5,-431.5 439.5,-431.5 439.5,-416.5 407.5,-416.5"/>
<text text-anchor="start" x="412.5" y="-422.5" font-family="Ubuntu" font-style="italic" font-size="10.00">int32</text>
<text text-anchor="start" x="260.5" y="-406.5" font-family="Ubuntu" font-size="10.00">10</text>
<text text-anchor="start" x="277.5" y="-406.5" font-family="Ubuntu" font-size="10.00">ping_only</text>
<polygon fill="#a6cee3" stroke="transparent" points="407.5,-401.5 407.5,-416.5 439.5,-416.5 439.5,-401.5 407.5,-401.5"/>
<text text-anchor="start" x="415.5" y="-407.5" font-family="Ubuntu" font-style="italic" font-size="10.00">bool</text>
<text text-anchor="start" x="260.5" y="-391.5" font-family="Ubuntu" font-size="10.00">11</text>
<text text-anchor="start" x="277.5" y="-391.5" font-family="Ubuntu" font-size="10.00">retention_time</text>
<polygon fill="#a6cee3" stroke="transparent" points="407.5,-386.5 407.5,-401.5 439.5,-401.5 439.5,-386.5 407.5,-386.5"/>
<text text-anchor="start" x="412.5" y="-392.5" font-family="Ubuntu" font-style="italic" font-size="10.00">int32</text>
<polygon fill="none" stroke="black" points="253,-385.5 253,-567.5 440,-567.5 440,-385.5 253,-385.5"/>
</a>
</g>
</g>
<!-- Node_Ja_108&#45;&gt;Node_Ja_105 -->
<g id="edge2" class="edge">
<title>Node_Ja_108:e&#45;&gt;Node_Ja_105:header</title>
<g id="a_edge2"><a xlink:title="Ja_108 &#45;&#45;&gt; Ja_105">
<path fill="none" stroke="#000000" d="M201.5,-375.5C282.66,-375.5 178.71,-543.34 243.24,-558.42"/>
<polygon fill="#000000" stroke="#000000" points="243.19,-561.93 253.5,-559.5 243.92,-554.97 243.19,-561.93"/>
</a>
</g>
</g>
<!-- Node_Ja_106 -->
<g id="node8" class="node">
<title>Node_Ja_106</title>
<g id="a_node8"><a xlink:title="proto.GetScannerRequest">
<polygon fill="#fffaf0" stroke="transparent" points="287.5,-327.5 287.5,-359.5 405.5,-359.5 405.5,-327.5 287.5,-327.5"/>
<polygon fill="#e31a1c" stroke="transparent" points="288.5,-343.5 288.5,-358.5 404.5,-358.5 404.5,-343.5 288.5,-343.5"/>
<text text-anchor="start" x="290.5" y="-349.5" font-family="Ubuntu" font-weight="bold" font-size="10.00">GetScannerRequest</text>
<text text-anchor="start" x="329.5" y="-333.5" font-family="Ubuntu" font-size="10.00">1</text>
<text text-anchor="start" x="340.5" y="-333.5" font-family="Ubuntu" font-size="10.00">key</text>
<polygon fill="#a6cee3" stroke="transparent" points="366.5,-328.5 366.5,-343.5 404.5,-343.5 404.5,-328.5 366.5,-328.5"/>
<text text-anchor="start" x="374.5" y="-334.5" font-family="Ubuntu" font-style="italic" font-size="10.00">string</text>
<polygon fill="none" stroke="black" points="287.5,-327.5 287.5,-359.5 405.5,-359.5 405.5,-327.5 287.5,-327.5"/>
</a>
</g>
</g>
<!-- Node_Ja_108&#45;&gt;Node_Ja_106 -->
<g id="edge3" class="edge">
<title>Node_Ja_108:e&#45;&gt;Node_Ja_106:header</title>
<g id="a_edge3"><a xlink:title="Ja_108 &#45;&#45;&gt; Ja_106">
<path fill="none" stroke="#000000" d="M201.5,-344.5C236.25,-344.5 247.15,-350.25 277.43,-351.33"/>
<polygon fill="#000000" stroke="#000000" points="277.44,-354.83 287.5,-351.5 277.56,-347.83 277.44,-354.83"/>
</a>
</g>
</g>
<!-- Node_Ja_108&#45;&gt;Node_Ja_106 -->
<g id="edge9" class="edge">
<title>Node_Ja_108:e&#45;&gt;Node_Ja_106:header</title>
<g id="a_edge9"><a xlink:title="Ja_108 &#45;&#45;&gt; Ja_106">
<path fill="none" stroke="#000000" d="M201.5,-314.5C239.37,-314.5 245.08,-345.15 277.17,-350.66"/>
<polygon fill="#000000" stroke="#000000" points="277.25,-354.18 287.5,-351.5 277.82,-347.2 277.25,-354.18"/>
</a>
</g>
</g>
<!-- Node_Ja_107 -->
<g id="node9" class="node">
<title>Node_Ja_107</title>
<g id="a_node9"><a xlink:title="proto.ServerResponse">
<polygon fill="#fffaf0" stroke="transparent" points="264.5,-224 264.5,-301 428.5,-301 428.5,-224 264.5,-224"/>
<polygon fill="#e31a1c" stroke="transparent" points="265.5,-284.5 265.5,-299.5 427.5,-299.5 427.5,-284.5 265.5,-284.5"/>
<text text-anchor="start" x="332.5" y="-290.5" font-family="Ubuntu" font-weight="bold" font-size="10.00">ServerResponse</text>
<text text-anchor="start" x="271.5" y="-274.5" font-family="Ubuntu" font-size="10.00">1</text>
<text text-anchor="start" x="282.5" y="-274.5" font-family="Ubuntu" font-size="10.00">success</text>
<polygon fill="#a6cee3" stroke="transparent" points="323.5,-269.5 323.5,-284.5 427.5,-284.5 427.5,-269.5 323.5,-269.5"/>
<text text-anchor="start" x="403.5" y="-275.5" font-family="Ubuntu" font-style="italic" font-size="10.00">bool</text>
<text text-anchor="start" x="271.5" y="-259.5" font-family="Ubuntu" font-size="10.00">2</text>
<text text-anchor="start" x="282.5" y="-259.5" font-family="Ubuntu" font-size="10.00">key</text>
<polygon fill="#a6cee3" stroke="transparent" points="323.5,-254.5 323.5,-269.5 427.5,-269.5 427.5,-254.5 323.5,-254.5"/>
<text text-anchor="start" x="397.5" y="-260.5" font-family="Ubuntu" font-style="italic" font-size="10.00">string</text>
<text text-anchor="start" x="271.5" y="-244.5" font-family="Ubuntu" font-size="10.00">3</text>
<text text-anchor="start" x="282.5" y="-244.5" font-family="Ubuntu" font-size="10.00">value</text>
<polygon fill="#fb9a99" stroke="transparent" points="323.5,-239.5 323.5,-254.5 427.5,-254.5 427.5,-239.5 323.5,-239.5"/>
<text text-anchor="start" x="325.5" y="-245.5" font-family="Ubuntu" font-weight="bold" font-size="10.00">ScannerResponse</text>
<text text-anchor="start" x="271.5" y="-229.5" font-family="Ubuntu" font-size="10.00">4</text>
<text text-anchor="start" x="282.5" y="-229.5" font-family="Ubuntu" font-size="10.00">error</text>
<polygon fill="#a6cee3" stroke="transparent" points="323.5,-224.5 323.5,-239.5 427.5,-239.5 427.5,-224.5 323.5,-224.5"/>
<text text-anchor="start" x="397.5" y="-230.5" font-family="Ubuntu" font-style="italic" font-size="10.00">string</text>
<polygon fill="none" stroke="black" points="264.5,-224 264.5,-301 428.5,-301 428.5,-224 264.5,-224"/>
</a>
</g>
</g>
<!-- Node_Ja_108&#45;&gt;Node_Ja_107 -->
<g id="edge7" class="edge">
<title>Node_Ja_108:e&#45;&gt;Node_Ja_107:header</title>
<g id="a_edge7"><a xlink:title="Ja_108 &#45;&#45;&gt; Ja_107">
<path fill="none" stroke="#000000" d="M201.5,-360.5C238.84,-360.5 226.41,-304.65 254.41,-294.18"/>
<polygon fill="#000000" stroke="#000000" points="255.21,-297.6 264.5,-292.5 254.06,-290.69 255.21,-297.6"/>
</a>
</g>
</g>
<!-- Node_Ja_108&#45;&gt;Node_Ja_107 -->
<g id="edge8" class="edge">
<title>Node_Ja_108:e&#45;&gt;Node_Ja_107:header</title>
<g id="a_edge8"><a xlink:title="Ja_108 &#45;&#45;&gt; Ja_107">
<path fill="none" stroke="#000000" d="M201.5,-329.5C230.17,-329.5 232.01,-300.66 254.39,-293.91"/>
<polygon fill="#000000" stroke="#000000" points="255.08,-297.34 264.5,-292.5 254.11,-290.41 255.08,-297.34"/>
</a>
</g>
</g>
<!-- Node_Ja_108&#45;&gt;Node_Ja_107 -->
<g id="edge10" class="edge">
<title>Node_Ja_108:e&#45;&gt;Node_Ja_107:header</title>
<g id="a_edge10"><a xlink:title="Ja_108 &#45;&#45;&gt; Ja_107">
<path fill="none" stroke="#000000" d="M201.5,-299.5C225.93,-299.5 234.18,-294.24 254.31,-292.84"/>
<polygon fill="#000000" stroke="#000000" points="254.62,-296.33 264.5,-292.5 254.39,-289.33 254.62,-296.33"/>
</a>
</g>
</g>
<!-- Node_Ja_100 -->
<g id="node4" class="node">
<title>Node_Ja_100</title>
<g id="a_node4"><a xlink:title="proto.Host">
<polygon fill="#fffaf0" stroke="transparent" points="897.5,-206 897.5,-253 1003.5,-253 1003.5,-206 897.5,-206"/>
<polygon fill="#e31a1c" stroke="transparent" points="898.5,-236.5 898.5,-251.5 1002.5,-251.5 1002.5,-236.5 898.5,-236.5"/>
<text text-anchor="start" x="974.5" y="-242.5" font-family="Ubuntu" font-weight="bold" font-size="10.00">Host</text>
<text text-anchor="start" x="904.5" y="-226.5" font-family="Ubuntu" font-size="10.00">1</text>
<text text-anchor="start" x="915.5" y="-226.5" font-family="Ubuntu" font-size="10.00">address</text>
<polygon fill="#a6cee3" stroke="transparent" points="970.5,-221.5 970.5,-236.5 1002.5,-236.5 1002.5,-221.5 970.5,-221.5"/>
<text text-anchor="start" x="972.5" y="-227.5" font-family="Ubuntu" font-style="italic" font-size="10.00">string</text>
<text text-anchor="start" x="904.5" y="-211.5" font-family="Ubuntu" font-size="10.00">2</text>
<text text-anchor="start" x="915.5" y="-211.5" font-family="Ubuntu" font-size="10.00">os_version</text>
<polygon fill="#a6cee3" stroke="transparent" points="970.5,-206.5 970.5,-221.5 1002.5,-221.5 1002.5,-206.5 970.5,-206.5"/>
<text text-anchor="start" x="972.5" y="-212.5" font-family="Ubuntu" font-style="italic" font-size="10.00">string</text>
<polygon fill="none" stroke="black" points="897.5,-206 897.5,-253 1003.5,-253 1003.5,-206 897.5,-206"/>
</a>
</g>
</g>
<!-- Node_Ja_103 -->
<g id="node5" class="node">
<title>Node_Ja_103</title>
<g id="a_node5"><a xlink:title="proto.HostResult">
<polygon fill="#fffaf0" stroke="transparent" points="725,-193 725,-240 818,-240 818,-193 725,-193"/>
<polygon fill="#e31a1c" stroke="transparent" points="726.5,-223.5 726.5,-238.5 817.5,-238.5 817.5,-223.5 726.5,-223.5"/>
<text text-anchor="start" x="754.5" y="-229.5" font-family="Ubuntu" font-weight="bold" font-size="10.00">HostResult</text>
<text text-anchor="start" x="749.5" y="-213.5" font-family="Ubuntu" font-size="10.00">1</text>
<text text-anchor="start" x="760.5" y="-213.5" font-family="Ubuntu" font-size="10.00">host</text>
<polygon fill="#fb9a99" stroke="transparent" points="787.5,-208.5 787.5,-223.5 817.5,-223.5 817.5,-208.5 787.5,-208.5"/>
<text text-anchor="start" x="789.5" y="-214.5" font-family="Ubuntu" font-weight="bold" font-size="10.00">Host</text>
<text text-anchor="start" x="728.5" y="-198.5" font-family="Ubuntu" font-size="10.00">[...]</text>
<text text-anchor="start" x="749.5" y="-198.5" font-family="Ubuntu" font-size="10.00">2</text>
<text text-anchor="start" x="760.5" y="-198.5" font-family="Ubuntu" font-size="10.00">ports</text>
<polygon fill="#fb9a99" stroke="transparent" points="787.5,-193.5 787.5,-208.5 817.5,-208.5 817.5,-193.5 787.5,-193.5"/>
<text text-anchor="start" x="790.5" y="-199.5" font-family="Ubuntu" font-weight="bold" font-size="10.00">Port</text>
<polygon fill="none" stroke="black" points="725,-193 725,-240 818,-240 818,-193 725,-193"/>
</a>
</g>
</g>
<!-- Node_Ja_103&#45;&gt;Node_Ja_102 -->
<g id="edge4" class="edge">
<title>Node_Ja_103:e&#45;&gt;Node_Ja_102:header</title>
<g id="a_edge4"><a xlink:title="Ja_103 &#45;&#45;&gt; Ja_102">
<path fill="none" stroke="#000000" d="M818.5,-200.5C841.03,-200.5 843.71,-179.47 860.35,-173.23"/>
<polygon fill="#000000" stroke="#000000" points="861.23,-176.63 870.5,-171.5 860.05,-169.73 861.23,-176.63"/>
</a>
</g>
</g>
<!-- Node_Ja_103&#45;&gt;Node_Ja_100 -->
<g id="edge5" class="edge">
<title>Node_Ja_103:e&#45;&gt;Node_Ja_100:header</title>
<g id="a_edge5"><a xlink:title="Ja_103 &#45;&#45;&gt; Ja_100">
<path fill="none" stroke="#000000" d="M818.5,-215.5C852.25,-215.5 858.96,-239.11 887.43,-243.72"/>
<polygon fill="#000000" stroke="#000000" points="887.26,-247.22 897.5,-244.5 887.8,-240.24 887.26,-247.22"/>
</a>
</g>
</g>
<!-- Node_Ja_104 -->
<g id="node6" class="node">
<title>Node_Ja_104</title>
<g id="a_node6"><a xlink:title="proto.ScannerResponse">
<polygon fill="#fffaf0" stroke="transparent" points="492,-178 492,-255 673,-255 673,-178 492,-178"/>
<polygon fill="#e31a1c" stroke="transparent" points="493.5,-238.5 493.5,-253.5 672.5,-253.5 672.5,-238.5 493.5,-238.5"/>
<text text-anchor="start" x="570.5" y="-244.5" font-family="Ubuntu" font-weight="bold" font-size="10.00">ScannerResponse</text>
<text text-anchor="start" x="495.5" y="-228.5" font-family="Ubuntu" font-size="10.00">[...]</text>
<text text-anchor="start" x="516.5" y="-228.5" font-family="Ubuntu" font-size="10.00">1</text>
<text text-anchor="start" x="527.5" y="-228.5" font-family="Ubuntu" font-size="10.00">host_result</text>
<polygon fill="#fb9a99" stroke="transparent" points="607.5,-223.5 607.5,-238.5 672.5,-238.5 672.5,-223.5 607.5,-223.5"/>
<text text-anchor="start" x="609.5" y="-229.5" font-family="Ubuntu" font-weight="bold" font-size="10.00">HostResult</text>
<text text-anchor="start" x="516.5" y="-213.5" font-family="Ubuntu" font-size="10.00">2</text>
<text text-anchor="start" x="527.5" y="-213.5" font-family="Ubuntu" font-size="10.00">start_time</text>
<polygon fill="#a6cee3" stroke="transparent" points="607.5,-208.5 607.5,-223.5 672.5,-223.5 672.5,-208.5 607.5,-208.5"/>
<text text-anchor="start" x="642.5" y="-214.5" font-family="Ubuntu" font-style="italic" font-size="10.00">string</text>
<text text-anchor="start" x="516.5" y="-198.5" font-family="Ubuntu" font-size="10.00">3</text>
<text text-anchor="start" x="527.5" y="-198.5" font-family="Ubuntu" font-size="10.00">end_time</text>
<polygon fill="#a6cee3" stroke="transparent" points="607.5,-193.5 607.5,-208.5 672.5,-208.5 672.5,-193.5 607.5,-193.5"/>
<text text-anchor="start" x="642.5" y="-199.5" font-family="Ubuntu" font-style="italic" font-size="10.00">string</text>
<text text-anchor="start" x="516.5" y="-183.5" font-family="Ubuntu" font-size="10.00">4</text>
<text text-anchor="start" x="527.5" y="-183.5" font-family="Ubuntu" font-size="10.00">expiration_time</text>
<polygon fill="#a6cee3" stroke="transparent" points="607.5,-178.5 607.5,-193.5 672.5,-193.5 672.5,-178.5 607.5,-178.5"/>
<text text-anchor="start" x="642.5" y="-184.5" font-family="Ubuntu" font-style="italic" font-size="10.00">string</text>
<polygon fill="none" stroke="black" points="492,-178 492,-255 673,-255 673,-178 492,-178"/>
</a>
</g>
</g>
<!-- Node_Ja_104&#45;&gt;Node_Ja_103 -->
<g id="edge1" class="edge">
<title>Node_Ja_104:e&#45;&gt;Node_Ja_103:header</title>
<g id="a_edge1"><a xlink:title="Ja_104 &#45;&#45;&gt; Ja_103">
<path fill="none" stroke="#000000" d="M673.5,-231.5C692.82,-231.5 700.03,-231.5 715.37,-231.5"/>
<polygon fill="#000000" stroke="#000000" points="715.5,-235 725.5,-231.5 715.5,-228 715.5,-235"/>
</a>
</g>
</g>
<!-- Node_Ja_107&#45;&gt;Node_Ja_104 -->
<g id="edge6" class="edge">
<title>Node_Ja_107:e&#45;&gt;Node_Ja_104:header</title>
<g id="a_edge6"><a xlink:title="Ja_107 &#45;&#45;&gt; Ja_104">
<path fill="none" stroke="#000000" d="M428.5,-246.5C453.28,-246.5 461.87,-246.5 482.47,-246.5"/>
<polygon fill="#000000" stroke="#000000" points="482.5,-250 492.5,-246.5 482.5,-243 482.5,-250"/>
</a>
</g>
</g>
</g>
</svg>
