<?xml version="1.0" encoding="UTF-8" standalone="no"?>
<!DOCTYPE svg PUBLIC "-//W3C//DTD SVG 1.1//EN"
 "http://www.w3.org/Graphics/SVG/1.1/DTD/svg11.dtd">
<!-- Generated by graphviz version 2.47.3 (0)
 -->
<!-- Title: protodot Pages: 1 -->
<svg width="1324pt" height="836pt"
 viewBox="0.00 0.00 1324.00 836.00" xmlns="http://www.w3.org/2000/svg" xmlns:xlink="http://www.w3.org/1999/xlink">
<g id="graph0" class="graph" transform="scale(1 1) rotate(0) translate(4 832)">
<title>protodot</title>
<g id="a_graph0"><a xlink:title="proto">
<text text-anchor="middle" x="658" y="-7.8" font-family="Times,serif" font-size="14.00">proto</text>
</a>
</g>
<g id="clust1" class="cluster">
<title>cluster_b3ebafa206c0</title>
<g id="a_clust1"><a xlink:title="proto/service.proto">
<polygon fill="#caff70" stroke="black" points="17.5,-296 17.5,-820 1308,-820 1308,-296 17.5,-296"/>
<text text-anchor="middle" x="662.75" y="-804.8" font-family="Times,serif" font-size="14.00">service.proto</text>
</a>
</g>
</g>
<g id="clust2" class="cluster">
<title>cluster_dfe805b7589f</title>
<g id="a_clust2"><a xlink:title="proto">
<polygon fill="#caff70" stroke="black" points="785,-31 785,-288 927,-288 927,-31 785,-31"/>
<text text-anchor="middle" x="856" y="-272.8" font-family="Times,serif" font-size="14.00">proto</text>
</a>
</g>
</g>
<!-- Node_Ja_103 -->
<g id="node1" class="node">
<title>Node_Ja_103</title>
<g id="a_node1"><a xlink:title="proto.HostResult">
<polygon fill="#fffaf0" stroke="transparent" points="809.5,-419.5 809.5,-466.5 902.5,-466.5 902.5,-419.5 809.5,-419.5"/>
<polygon fill="#e31a1c" stroke="transparent" points="811,-450 811,-465 902,-465 902,-450 811,-450"/>
<text text-anchor="start" x="839" y="-456" font-family="Ubuntu" font-weight="bold" font-size="10.00">HostResult</text>
<text text-anchor="start" x="834" y="-440" font-family="Ubuntu" font-size="10.00">1</text>
<text text-anchor="start" x="845" y="-440" font-family="Ubuntu" font-size="10.00">host</text>
<polygon fill="#fb9a99" stroke="transparent" points="872,-435 872,-450 902,-450 902,-435 872,-435"/>
<text text-anchor="start" x="874" y="-441" font-family="Ubuntu" font-weight="bold" font-size="10.00">Host</text>
<text text-anchor="start" x="813" y="-425" font-family="Ubuntu" font-size="10.00">[...]</text>
<text text-anchor="start" x="834" y="-425" font-family="Ubuntu" font-size="10.00">2</text>
<text text-anchor="start" x="845" y="-425" font-family="Ubuntu" font-size="10.00">ports</text>
<polygon fill="#fb9a99" stroke="transparent" points="872,-420 872,-435 902,-435 902,-420 872,-420"/>
<text text-anchor="start" x="875" y="-426" font-family="Ubuntu" font-weight="bold" font-size="10.00">Port</text>
<polygon fill="none" stroke="black" points="809.5,-419.5 809.5,-466.5 902.5,-466.5 902.5,-419.5 809.5,-419.5"/>
</a>
</g>
</g>
<!-- Node_Ja_100 -->
<g id="node4" class="node">
<title>Node_Ja_100</title>
<g id="a_node4"><a xlink:title="proto.Host">
<polygon fill="#fffaf0" stroke="transparent" points="990.5,-461.5 990.5,-538.5 1096.5,-538.5 1096.5,-461.5 990.5,-461.5"/>
<polygon fill="#e31a1c" stroke="transparent" points="991.5,-522 991.5,-537 1095.5,-537 1095.5,-522 991.5,-522"/>
<text text-anchor="start" x="1067.5" y="-528" font-family="Ubuntu" font-weight="bold" font-size="10.00">Host</text>
<text text-anchor="start" x="997.5" y="-512" font-family="Ubuntu" font-size="10.00">1</text>
<text text-anchor="start" x="1008.5" y="-512" font-family="Ubuntu" font-size="10.00">address</text>
<polygon fill="#a6cee3" stroke="transparent" points="1063.5,-507 1063.5,-522 1095.5,-522 1095.5,-507 1063.5,-507"/>
<text text-anchor="start" x="1065.5" y="-513" font-family="Ubuntu" font-style="italic" font-size="10.00">string</text>
<text text-anchor="start" x="997.5" y="-497" font-family="Ubuntu" font-size="10.00">2</text>
<text text-anchor="start" x="1008.5" y="-497" font-family="Ubuntu" font-size="10.00">os_version</text>
<polygon fill="#a6cee3" stroke="transparent" points="1063.5,-492 1063.5,-507 1095.5,-507 1095.5,-492 1063.5,-492"/>
<text text-anchor="start" x="1065.5" y="-498" font-family="Ubuntu" font-style="italic" font-size="10.00">string</text>
<text text-anchor="start" x="997.5" y="-482" font-family="Ubuntu" font-size="10.00">3</text>
<text text-anchor="start" x="1008.5" y="-482" font-family="Ubuntu" font-size="10.00">state</text>
<polygon fill="#a6cee3" stroke="transparent" points="1063.5,-477 1063.5,-492 1095.5,-492 1095.5,-477 1063.5,-477"/>
<text text-anchor="start" x="1065.5" y="-483" font-family="Ubuntu" font-style="italic" font-size="10.00">string</text>
<text text-anchor="start" x="997.5" y="-467" font-family="Ubuntu" font-size="10.00">4</text>
<text text-anchor="start" x="1008.5" y="-467" font-family="Ubuntu" font-size="10.00">fqdn</text>
<polygon fill="#a6cee3" stroke="transparent" points="1063.5,-462 1063.5,-477 1095.5,-477 1095.5,-462 1063.5,-462"/>
<text text-anchor="start" x="1065.5" y="-468" font-family="Ubuntu" font-style="italic" font-size="10.00">string</text>
<polygon fill="none" stroke="black" points="990.5,-461.5 990.5,-538.5 1096.5,-538.5 1096.5,-461.5 990.5,-461.5"/>
</a>
</g>
</g>
<!-- Node_Ja_103&#45;&gt;Node_Ja_100 -->
<g id="edge10" class="edge">
<title>Node_Ja_103:e&#45;&gt;Node_Ja_100:header</title>
<g id="a_edge10"><a xlink:title="Ja_103 &#45;&#45;&gt; Ja_100">
<path fill="none" stroke="#000000" d="M903,-442C954.49,-442 938.03,-518.7 980.5,-528.89"/>
<polygon fill="#000000" stroke="#000000" points="980.17,-532.37 990.5,-530 980.95,-525.42 980.17,-532.37"/>
</a>
</g>
</g>
<!-- Node_Ja_102 -->
<g id="node8" class="node">
<title>Node_Ja_102</title>
<g id="a_node8"><a xlink:title="proto.Port">
<polygon fill="#fffaf0" stroke="transparent" points="963,-343 963,-435 1124,-435 1124,-343 963,-343"/>
<polygon fill="#e31a1c" stroke="transparent" points="964.5,-419 964.5,-434 1123.5,-434 1123.5,-419 964.5,-419"/>
<text text-anchor="start" x="1096.5" y="-425" font-family="Ubuntu" font-weight="bold" font-size="10.00">Port</text>
<text text-anchor="start" x="970.5" y="-409" font-family="Ubuntu" font-size="10.00">1</text>
<text text-anchor="start" x="981.5" y="-409" font-family="Ubuntu" font-size="10.00">port_id</text>
<polygon fill="#a6cee3" stroke="transparent" points="1052.5,-404 1052.5,-419 1123.5,-419 1123.5,-404 1052.5,-404"/>
<text text-anchor="start" x="1093.5" y="-410" font-family="Ubuntu" font-style="italic" font-size="10.00">string</text>
<text text-anchor="start" x="970.5" y="-394" font-family="Ubuntu" font-size="10.00">2</text>
<text text-anchor="start" x="981.5" y="-394" font-family="Ubuntu" font-size="10.00">protocol</text>
<polygon fill="#a6cee3" stroke="transparent" points="1052.5,-389 1052.5,-404 1123.5,-404 1123.5,-389 1052.5,-389"/>
<text text-anchor="start" x="1093.5" y="-395" font-family="Ubuntu" font-style="italic" font-size="10.00">string</text>
<text text-anchor="start" x="970.5" y="-379" font-family="Ubuntu" font-size="10.00">3</text>
<text text-anchor="start" x="981.5" y="-379" font-family="Ubuntu" font-size="10.00">state</text>
<polygon fill="#a6cee3" stroke="transparent" points="1052.5,-374 1052.5,-389 1123.5,-389 1123.5,-374 1052.5,-374"/>
<text text-anchor="start" x="1093.5" y="-380" font-family="Ubuntu" font-style="italic" font-size="10.00">string</text>
<text text-anchor="start" x="970.5" y="-364" font-family="Ubuntu" font-size="10.00">4</text>
<text text-anchor="start" x="981.5" y="-364" font-family="Ubuntu" font-size="10.00">service_name</text>
<polygon fill="#a6cee3" stroke="transparent" points="1052.5,-359 1052.5,-374 1123.5,-374 1123.5,-359 1052.5,-359"/>
<text text-anchor="start" x="1093.5" y="-365" font-family="Ubuntu" font-style="italic" font-size="10.00">string</text>
<text text-anchor="start" x="970.5" y="-349" font-family="Ubuntu" font-size="10.00">5</text>
<text text-anchor="start" x="981.5" y="-349" font-family="Ubuntu" font-size="10.00">version</text>
<polygon fill="#fb9a99" stroke="transparent" points="1052.5,-344 1052.5,-359 1123.5,-359 1123.5,-344 1052.5,-344"/>
<text text-anchor="start" x="1054.5" y="-350" font-family="Ubuntu" font-weight="bold" font-size="10.00">PortVersion</text>
<polygon fill="none" stroke="black" points="963,-343 963,-435 1124,-435 1124,-343 963,-343"/>
</a>
</g>
</g>
<!-- Node_Ja_103&#45;&gt;Node_Ja_102 -->
<g id="edge14" class="edge">
<title>Node_Ja_103:e&#45;&gt;Node_Ja_102:header</title>
<g id="a_edge14"><a xlink:title="Ja_103 &#45;&#45;&gt; Ja_102">
<path fill="none" stroke="#000000" d="M903,-427C926.21,-427 934.4,-427 953.5,-427"/>
<polygon fill="#000000" stroke="#000000" points="953.5,-430.5 963.5,-427 953.5,-423.5 953.5,-430.5"/>
</a>
</g>
</g>
<!-- Node_Ja_104 -->
<g id="node2" class="node">
<title>Node_Ja_104</title>
<g id="a_node2"><a xlink:title="proto.ScannerResponse">
<polygon fill="#fffaf0" stroke="transparent" points="568,-348.5 568,-455.5 749,-455.5 749,-348.5 568,-348.5"/>
<polygon fill="#e31a1c" stroke="transparent" points="569.5,-439 569.5,-454 748.5,-454 748.5,-439 569.5,-439"/>
<text text-anchor="start" x="646.5" y="-445" font-family="Ubuntu" font-weight="bold" font-size="10.00">ScannerResponse</text>
<text text-anchor="start" x="571.5" y="-429" font-family="Ubuntu" font-size="10.00">[...]</text>
<text text-anchor="start" x="592.5" y="-429" font-family="Ubuntu" font-size="10.00">1</text>
<text text-anchor="start" x="603.5" y="-429" font-family="Ubuntu" font-size="10.00">host_result</text>
<polygon fill="#fb9a99" stroke="transparent" points="683.5,-424 683.5,-439 748.5,-439 748.5,-424 683.5,-424"/>
<text text-anchor="start" x="685.5" y="-430" font-family="Ubuntu" font-weight="bold" font-size="10.00">HostResult</text>
<text text-anchor="start" x="592.5" y="-414" font-family="Ubuntu" font-size="10.00">2</text>
<text text-anchor="start" x="603.5" y="-414" font-family="Ubuntu" font-size="10.00">start_time</text>
<polygon fill="#a6cee3" stroke="transparent" points="683.5,-409 683.5,-424 748.5,-424 748.5,-409 683.5,-409"/>
<text text-anchor="start" x="718.5" y="-415" font-family="Ubuntu" font-style="italic" font-size="10.00">string</text>
<text text-anchor="start" x="592.5" y="-399" font-family="Ubuntu" font-size="10.00">3</text>
<text text-anchor="start" x="603.5" y="-399" font-family="Ubuntu" font-size="10.00">end_time</text>
<polygon fill="#a6cee3" stroke="transparent" points="683.5,-394 683.5,-409 748.5,-409 748.5,-394 683.5,-394"/>
<text text-anchor="start" x="718.5" y="-400" font-family="Ubuntu" font-style="italic" font-size="10.00">string</text>
<text text-anchor="start" x="592.5" y="-384" font-family="Ubuntu" font-size="10.00">4</text>
<text text-anchor="start" x="603.5" y="-384" font-family="Ubuntu" font-size="10.00">expiration_time</text>
<polygon fill="#a6cee3" stroke="transparent" points="683.5,-379 683.5,-394 748.5,-394 748.5,-379 683.5,-379"/>
<text text-anchor="start" x="718.5" y="-385" font-family="Ubuntu" font-style="italic" font-size="10.00">string</text>
<text text-anchor="start" x="592.5" y="-369" font-family="Ubuntu" font-size="10.00">5</text>
<text text-anchor="start" x="603.5" y="-369" font-family="Ubuntu" font-size="10.00">key</text>
<polygon fill="#a6cee3" stroke="transparent" points="683.5,-364 683.5,-379 748.5,-379 748.5,-364 683.5,-364"/>
<text text-anchor="start" x="718.5" y="-370" font-family="Ubuntu" font-style="italic" font-size="10.00">string</text>
<text text-anchor="start" x="592.5" y="-354" font-family="Ubuntu" font-size="10.00">6</text>
<text text-anchor="start" x="603.5" y="-354" font-family="Ubuntu" font-size="10.00">status</text>
<polygon fill="#b2df8a" stroke="transparent" points="683.5,-349 683.5,-364 748.5,-364 748.5,-349 683.5,-349"/>
<text text-anchor="start" x="715.5" y="-355" font-family="Ubuntu" text-decoration="underline" font-size="10.00">Status</text>
<polygon fill="none" stroke="black" points="568,-348.5 568,-455.5 749,-455.5 749,-348.5 568,-348.5"/>
</a>
</g>
</g>
<!-- Node_Ja_104&#45;&gt;Node_Ja_103 -->
<g id="edge11" class="edge">
<title>Node_Ja_104:e&#45;&gt;Node_Ja_103:header</title>
<g id="a_edge11"><a xlink:title="Ja_104 &#45;&#45;&gt; Ja_103">
<path fill="none" stroke="#000000" d="M749.5,-432C774.99,-432 779.77,-451.73 799.93,-456.82"/>
<polygon fill="#000000" stroke="#000000" points="799.66,-460.31 810,-458 800.48,-453.36 799.66,-460.31"/>
</a>
</g>
</g>
<!-- Node_Ja_105 -->
<g id="node11" class="node">
<title>Node_Ja_105</title>
<g id="a_node11"><a xlink:title="Status">
<polygon fill="#b2df8a" stroke="transparent" points="819,-131 819,-253 893,-253 893,-131 819,-131"/>
<polygon fill="#33a02c" stroke="transparent" points="820,-237 820,-252 892,-252 892,-237 820,-237"/>
<text text-anchor="start" x="822" y="-243" font-family="Ubuntu" font-size="10.00">enum </text>
<text text-anchor="start" x="853" y="-243" font-family="Ubuntu" font-weight="bold" font-size="10.00">Status</text>
<polygon fill="#b2df8a" stroke="transparent" points="820,-222 820,-237 880,-237 880,-222 820,-222"/>
<text text-anchor="start" x="822" y="-227" font-family="Ubuntu" font-size="10.00">UNKNOWN</text>
<polygon fill="#b2df8a" stroke="transparent" points="880,-222 880,-237 892,-237 892,-222 880,-222"/>
<text text-anchor="start" x="882" y="-227" font-family="Ubuntu" font-size="10.00">0</text>
<polygon fill="#b2df8a" stroke="transparent" points="820,-207 820,-222 880,-222 880,-207 820,-207"/>
<text text-anchor="start" x="822" y="-212" font-family="Ubuntu" font-size="10.00">QUEUED</text>
<polygon fill="#b2df8a" stroke="transparent" points="880,-207 880,-222 892,-222 892,-207 880,-207"/>
<text text-anchor="start" x="882" y="-212" font-family="Ubuntu" font-size="10.00">1</text>
<polygon fill="#b2df8a" stroke="transparent" points="820,-192 820,-207 880,-207 880,-192 820,-192"/>
<text text-anchor="start" x="822" y="-197" font-family="Ubuntu" font-size="10.00">RUNNING</text>
<polygon fill="#b2df8a" stroke="transparent" points="880,-192 880,-207 892,-207 892,-192 880,-192"/>
<text text-anchor="start" x="882" y="-197" font-family="Ubuntu" font-size="10.00">2</text>
<polygon fill="#b2df8a" stroke="transparent" points="820,-177 820,-192 880,-192 880,-177 820,-177"/>
<text text-anchor="start" x="822" y="-182" font-family="Ubuntu" font-size="10.00">OK</text>
<polygon fill="#b2df8a" stroke="transparent" points="880,-177 880,-192 892,-192 892,-177 880,-177"/>
<text text-anchor="start" x="882" y="-182" font-family="Ubuntu" font-size="10.00">3</text>
<polygon fill="#b2df8a" stroke="transparent" points="820,-162 820,-177 880,-177 880,-162 820,-162"/>
<text text-anchor="start" x="822" y="-167" font-family="Ubuntu" font-size="10.00">ERROR</text>
<polygon fill="#b2df8a" stroke="transparent" points="880,-162 880,-177 892,-177 892,-162 880,-162"/>
<text text-anchor="start" x="882" y="-167" font-family="Ubuntu" font-size="10.00">4</text>
<polygon fill="#b2df8a" stroke="transparent" points="820,-147 820,-162 880,-162 880,-147 820,-147"/>
<text text-anchor="start" x="822" y="-152" font-family="Ubuntu" font-size="10.00">CANCEL</text>
<polygon fill="#b2df8a" stroke="transparent" points="880,-147 880,-162 892,-162 892,-147 880,-147"/>
<text text-anchor="start" x="882" y="-152" font-family="Ubuntu" font-size="10.00">5</text>
<polygon fill="#b2df8a" stroke="transparent" points="820,-132 820,-147 880,-147 880,-132 820,-132"/>
<text text-anchor="start" x="822" y="-137" font-family="Ubuntu" font-size="10.00">TIMEOUT</text>
<polygon fill="#b2df8a" stroke="transparent" points="880,-132 880,-147 892,-147 892,-132 880,-132"/>
<text text-anchor="start" x="882" y="-137" font-family="Ubuntu" font-size="10.00">6</text>
<polygon fill="none" stroke="black" points="819,-131 819,-253 893,-253 893,-131 819,-131"/>
</a>
</g>
</g>
<!-- Node_Ja_104&#45;&gt;Node_Ja_105 -->
<g id="edge21" class="edge">
<title>Node_Ja_104:e&#45;&gt;Node_Ja_105</title>
<g id="a_edge21"><a xlink:title="Ja_104 &#45;&#45;&gt; Ja_105">
<path fill="none" stroke="#008000" d="M749.5,-356C782.03,-356 767.76,-319.58 785,-292 791.27,-281.96 798.14,-271.54 805.05,-261.39"/>
<polygon fill="#008000" stroke="#008000" points="808.08,-263.16 810.84,-252.93 802.3,-259.2 808.08,-263.16"/>
</a>
</g>
</g>
<!-- Node_Ja_108 -->
<g id="node3" class="node">
<title>Node_Ja_108</title>
<g id="a_node3"><a xlink:title="proto.ServerResponse">
<polygon fill="#fffaf0" stroke="transparent" points="340.5,-424.5 340.5,-501.5 504.5,-501.5 504.5,-424.5 340.5,-424.5"/>
<polygon fill="#e31a1c" stroke="transparent" points="341.5,-485 341.5,-500 503.5,-500 503.5,-485 341.5,-485"/>
<text text-anchor="start" x="408.5" y="-491" font-family="Ubuntu" font-weight="bold" font-size="10.00">ServerResponse</text>
<text text-anchor="start" x="347.5" y="-475" font-family="Ubuntu" font-size="10.00">1</text>
<text text-anchor="start" x="358.5" y="-475" font-family="Ubuntu" font-size="10.00">success</text>
<polygon fill="#a6cee3" stroke="transparent" points="399.5,-470 399.5,-485 503.5,-485 503.5,-470 399.5,-470"/>
<text text-anchor="start" x="479.5" y="-476" font-family="Ubuntu" font-style="italic" font-size="10.00">bool</text>
<text text-anchor="start" x="347.5" y="-460" font-family="Ubuntu" font-size="10.00">2</text>
<text text-anchor="start" x="358.5" y="-460" font-family="Ubuntu" font-size="10.00">key</text>
<polygon fill="#a6cee3" stroke="transparent" points="399.5,-455 399.5,-470 503.5,-470 503.5,-455 399.5,-455"/>
<text text-anchor="start" x="473.5" y="-461" font-family="Ubuntu" font-style="italic" font-size="10.00">string</text>
<text text-anchor="start" x="347.5" y="-445" font-family="Ubuntu" font-size="10.00">3</text>
<text text-anchor="start" x="358.5" y="-445" font-family="Ubuntu" font-size="10.00">value</text>
<polygon fill="#fb9a99" stroke="transparent" points="399.5,-440 399.5,-455 503.5,-455 503.5,-440 399.5,-440"/>
<text text-anchor="start" x="401.5" y="-446" font-family="Ubuntu" font-weight="bold" font-size="10.00">ScannerResponse</text>
<text text-anchor="start" x="347.5" y="-430" font-family="Ubuntu" font-size="10.00">4</text>
<text text-anchor="start" x="358.5" y="-430" font-family="Ubuntu" font-size="10.00">error</text>
<polygon fill="#a6cee3" stroke="transparent" points="399.5,-425 399.5,-440 503.5,-440 503.5,-425 399.5,-425"/>
<text text-anchor="start" x="473.5" y="-431" font-family="Ubuntu" font-style="italic" font-size="10.00">string</text>
<polygon fill="none" stroke="black" points="340.5,-424.5 340.5,-501.5 504.5,-501.5 504.5,-424.5 340.5,-424.5"/>
</a>
</g>
</g>
<!-- Node_Ja_108&#45;&gt;Node_Ja_104 -->
<g id="edge12" class="edge">
<title>Node_Ja_108:e&#45;&gt;Node_Ja_104:header</title>
<g id="a_edge12"><a xlink:title="Ja_108 &#45;&#45;&gt; Ja_104">
<path fill="none" stroke="#000000" d="M504.5,-447C529.28,-447 537.87,-447 558.47,-447"/>
<polygon fill="#000000" stroke="#000000" points="558.5,-450.5 568.5,-447 558.5,-443.5 558.5,-450.5"/>
</a>
</g>
</g>
<!-- Node_Ja_109 -->
<g id="node5" class="node">
<title>Node_Ja_109</title>
<g id="a_node5"><a xlink:title="proto.ServiceStateValues">
<polygon fill="#fffaf0" stroke="transparent" points="364,-308 364,-340 481,-340 481,-308 364,-308"/>
<polygon fill="#e31a1c" stroke="transparent" points="365.5,-324 365.5,-339 480.5,-339 480.5,-324 365.5,-324"/>
<text text-anchor="start" x="367.5" y="-330" font-family="Ubuntu" font-weight="bold" font-size="10.00">ServiceStateValues</text>
<text text-anchor="start" x="374.5" y="-314" font-family="Ubuntu" font-size="10.00">1</text>
<text text-anchor="start" x="385.5" y="-314" font-family="Ubuntu" font-size="10.00">state</text>
<polygon fill="#b2df8a" stroke="transparent" points="413.5,-309 413.5,-324 480.5,-324 480.5,-309 413.5,-309"/>
<text text-anchor="start" x="416.5" y="-315" font-family="Ubuntu" text-decoration="underline" font-size="10.00">ServiceState</text>
<polygon fill="none" stroke="black" points="364,-308 364,-340 481,-340 481,-308 364,-308"/>
</a>
</g>
</g>
<!-- Node_Ja_110 -->
<g id="node12" class="node">
<title>Node_Ja_110</title>
<g id="a_node12"><a xlink:title="ServiceState">
<polygon fill="#b2df8a" stroke="transparent" points="801,-43 801,-105 911,-105 911,-43 801,-43"/>
<polygon fill="#33a02c" stroke="transparent" points="802,-89 802,-104 910,-104 910,-89 802,-89"/>
<text text-anchor="start" x="804" y="-95" font-family="Ubuntu" font-size="10.00">enum </text>
<text text-anchor="start" x="835" y="-95" font-family="Ubuntu" font-weight="bold" font-size="10.00">ServiceState</text>
<polygon fill="#b2df8a" stroke="transparent" points="802,-74 802,-89 880,-89 880,-74 802,-74"/>
<text text-anchor="start" x="804" y="-79" font-family="Ubuntu" font-size="10.00">UNKNOWN</text>
<polygon fill="#b2df8a" stroke="transparent" points="880,-74 880,-89 910,-89 910,-74 880,-74"/>
<text text-anchor="start" x="882" y="-79" font-family="Ubuntu" font-size="10.00">0</text>
<polygon fill="#b2df8a" stroke="transparent" points="802,-59 802,-74 880,-74 880,-59 802,-59"/>
<text text-anchor="start" x="804" y="-64" font-family="Ubuntu" font-size="10.00">START</text>
<polygon fill="#b2df8a" stroke="transparent" points="880,-59 880,-74 910,-74 910,-59 880,-59"/>
<text text-anchor="start" x="882" y="-64" font-family="Ubuntu" font-size="10.00">1</text>
<polygon fill="#b2df8a" stroke="transparent" points="802,-44 802,-59 880,-59 880,-44 802,-44"/>
<text text-anchor="start" x="804" y="-49" font-family="Ubuntu" font-size="10.00">STOP</text>
<polygon fill="#b2df8a" stroke="transparent" points="880,-44 880,-59 910,-59 910,-44 880,-44"/>
<text text-anchor="start" x="882" y="-49" font-family="Ubuntu" font-size="10.00">2</text>
<polygon fill="none" stroke="black" points="801,-43 801,-105 911,-105 911,-43 801,-43"/>
</a>
</g>
</g>
<!-- Node_Ja_109&#45;&gt;Node_Ja_110 -->
<g id="edge5" class="edge">
<title>Node_Ja_109:e&#45;&gt;Node_Ja_110</title>
<g id="a_edge5"><a xlink:title="Ja_109 &#45;&#45;&gt; Ja_110">
<path fill="none" stroke="#008000" d="M481.5,-316C610.18,-316 668.83,-320.72 757,-227 791.27,-190.57 755.51,-158.4 785,-118 785.37,-117.49 785.75,-116.99 786.13,-116.49"/>
<polygon fill="#008000" stroke="#008000" points="788.94,-118.61 792.97,-108.81 783.71,-113.96 788.94,-118.61"/>
</a>
</g>
</g>
<!-- Node_Ja_107 -->
<g id="node6" class="node">
<title>Node_Ja_107</title>
<g id="a_node6"><a xlink:title="proto.GetScannerRequest">
<polygon fill="#fffaf0" stroke="transparent" points="363.5,-366 363.5,-398 481.5,-398 481.5,-366 363.5,-366"/>
<polygon fill="#e31a1c" stroke="transparent" points="364.5,-382 364.5,-397 480.5,-397 480.5,-382 364.5,-382"/>
<text text-anchor="start" x="366.5" y="-388" font-family="Ubuntu" font-weight="bold" font-size="10.00">GetScannerRequest</text>
<text text-anchor="start" x="405.5" y="-372" font-family="Ubuntu" font-size="10.00">1</text>
<text text-anchor="start" x="416.5" y="-372" font-family="Ubuntu" font-size="10.00">key</text>
<polygon fill="#a6cee3" stroke="transparent" points="442.5,-367 442.5,-382 480.5,-382 480.5,-367 442.5,-367"/>
<text text-anchor="start" x="450.5" y="-373" font-family="Ubuntu" font-style="italic" font-size="10.00">string</text>
<polygon fill="none" stroke="black" points="363.5,-366 363.5,-398 481.5,-398 481.5,-366 363.5,-366"/>
</a>
</g>
</g>
<!-- Node_Ja_111 -->
<g id="node7" class="node">
<title>Node_Ja_111</title>
<g id="a_node7"><a xlink:title="ScannerService">
<polygon fill="#ffd700" stroke="transparent" points="33.5,-379.5 33.5,-546.5 251.5,-546.5 251.5,-379.5 33.5,-379.5"/>
<polygon fill="#ff7f50" stroke="transparent" points="34.5,-530 34.5,-545 250.5,-545 250.5,-530 34.5,-530"/>
<text text-anchor="start" x="159.5" y="-536" font-family="Ubuntu" font-weight="bold" font-size="10.00">ScannerService</text>
<text text-anchor="start" x="36.5" y="-521" font-family="Ubuntu" font-weight="bold" font-size="10.00">StartAsyncScan</text>
<text text-anchor="start" x="133.5" y="-520" font-family="Ubuntu" font-size="10.00">ParamsScannerRequest</text>
<polygon fill="#ff7f50" stroke="transparent" points="127.5,-500 127.5,-515 131.5,-515 131.5,-500 127.5,-500"/>
<polygon fill="#ff7f50" stroke="transparent" points="131.5,-500 131.5,-515 250.5,-515 250.5,-500 131.5,-500"/>
<text text-anchor="start" x="169.5" y="-505" font-family="Ubuntu" font-size="10.00">ServerResponse</text>
<text text-anchor="start" x="36.5" y="-491" font-family="Ubuntu" font-weight="bold" font-size="10.00">StartScan</text>
<text text-anchor="start" x="133.5" y="-490" font-family="Ubuntu" font-size="10.00">ParamsScannerRequest</text>
<polygon fill="#ff7f50" stroke="transparent" points="127.5,-470 127.5,-485 131.5,-485 131.5,-470 127.5,-470"/>
<polygon fill="#ff7f50" stroke="transparent" points="131.5,-470 131.5,-485 250.5,-485 250.5,-470 131.5,-470"/>
<text text-anchor="start" x="169.5" y="-475" font-family="Ubuntu" font-size="10.00">ServerResponse</text>
<text text-anchor="start" x="36.5" y="-461" font-family="Ubuntu" font-weight="bold" font-size="10.00">GetScan</text>
<text text-anchor="start" x="151.5" y="-460" font-family="Ubuntu" font-size="10.00">GetScannerRequest</text>
<polygon fill="#ff7f50" stroke="transparent" points="127.5,-440 127.5,-455 131.5,-455 131.5,-440 127.5,-440"/>
<polygon fill="#ff7f50" stroke="transparent" points="131.5,-440 131.5,-455 250.5,-455 250.5,-440 131.5,-440"/>
<text text-anchor="start" x="169.5" y="-445" font-family="Ubuntu" font-size="10.00">ServerResponse</text>
<text text-anchor="start" x="36.5" y="-431" font-family="Ubuntu" font-weight="bold" font-size="10.00">DeleteScan</text>
<text text-anchor="start" x="151.5" y="-430" font-family="Ubuntu" font-size="10.00">GetScannerRequest</text>
<polygon fill="#ff7f50" stroke="transparent" points="127.5,-410 127.5,-425 131.5,-425 131.5,-410 127.5,-410"/>
<polygon fill="#ff7f50" stroke="transparent" points="131.5,-410 131.5,-425 250.5,-425 250.5,-410 131.5,-410"/>
<text text-anchor="start" x="169.5" y="-415" font-family="Ubuntu" font-size="10.00">ServerResponse</text>
<text text-anchor="start" x="36.5" y="-401" font-family="Ubuntu" font-weight="bold" font-size="10.00">ServiceControl</text>
<text text-anchor="start" x="154.5" y="-400" font-family="Ubuntu" font-size="10.00">ServiceStateValues</text>
<polygon fill="#ff7f50" stroke="transparent" points="127.5,-380 127.5,-395 131.5,-395 131.5,-380 127.5,-380"/>
<polygon fill="#ff7f50" stroke="transparent" points="131.5,-380 131.5,-395 250.5,-395 250.5,-380 131.5,-380"/>
<text text-anchor="start" x="154.5" y="-385" font-family="Ubuntu" font-size="10.00">ServiceStateValues</text>
<polygon fill="none" stroke="black" points="33.5,-379.5 33.5,-546.5 251.5,-546.5 251.5,-379.5 33.5,-379.5"/>
</a>
</g>
</g>
<!-- Node_Ja_111&#45;&gt;Node_Ja_108 -->
<g id="edge3" class="edge">
<title>Node_Ja_111:e&#45;&gt;Node_Ja_108:header</title>
<g id="a_edge3"><a xlink:title="Ja_111 &#45;&#45;&gt; Ja_108">
<path fill="none" stroke="#000000" d="M251.5,-417C299.86,-417 290.27,-482.69 330.48,-491.93"/>
<polygon fill="#000000" stroke="#000000" points="330.18,-495.41 340.5,-493 330.93,-488.45 330.18,-495.41"/>
</a>
</g>
</g>
<!-- Node_Ja_111&#45;&gt;Node_Ja_108 -->
<g id="edge7" class="edge">
<title>Node_Ja_111:e&#45;&gt;Node_Ja_108:header</title>
<g id="a_edge7"><a xlink:title="Ja_111 &#45;&#45;&gt; Ja_108">
<path fill="none" stroke="#000000" d="M251.5,-478C288.01,-478 298.56,-490.43 330.4,-492.66"/>
<polygon fill="#000000" stroke="#000000" points="330.39,-496.16 340.5,-493 330.62,-489.16 330.39,-496.16"/>
</a>
</g>
</g>
<!-- Node_Ja_111&#45;&gt;Node_Ja_108 -->
<g id="edge8" class="edge">
<title>Node_Ja_111:e&#45;&gt;Node_Ja_108:header</title>
<g id="a_edge8"><a xlink:title="Ja_111 &#45;&#45;&gt; Ja_108">
<path fill="none" stroke="#000000" d="M251.5,-447C292.37,-447 295.68,-485.76 330.39,-492.12"/>
<polygon fill="#000000" stroke="#000000" points="330.23,-495.62 340.5,-493 330.84,-488.65 330.23,-495.62"/>
</a>
</g>
</g>
<!-- Node_Ja_111&#45;&gt;Node_Ja_108 -->
<g id="edge22" class="edge">
<title>Node_Ja_111:e&#45;&gt;Node_Ja_108:header</title>
<g id="a_edge22"><a xlink:title="Ja_111 &#45;&#45;&gt; Ja_108">
<path fill="none" stroke="#000000" d="M251.5,-508C288.01,-508 298.56,-495.57 330.4,-493.34"/>
<polygon fill="#000000" stroke="#000000" points="330.62,-496.84 340.5,-493 330.39,-489.84 330.62,-496.84"/>
</a>
</g>
</g>
<!-- Node_Ja_111&#45;&gt;Node_Ja_109 -->
<g id="edge4" class="edge">
<title>Node_Ja_111:e&#45;&gt;Node_Ja_109:header</title>
<g id="a_edge4"><a xlink:title="Ja_111 &#45;&#45;&gt; Ja_109">
<path fill="none" stroke="#000000" d="M251.5,-402C307,-402 305.81,-340.22 354.45,-332.74"/>
<polygon fill="#000000" stroke="#000000" points="354.78,-336.22 364.5,-332 354.27,-329.24 354.78,-336.22"/>
</a>
</g>
</g>
<!-- Node_Ja_111&#45;&gt;Node_Ja_109 -->
<g id="edge15" class="edge">
<title>Node_Ja_111:e&#45;&gt;Node_Ja_109:header</title>
<g id="a_edge15"><a xlink:title="Ja_111 &#45;&#45;&gt; Ja_109">
<path fill="none" stroke="#000000" d="M251.5,-387C303.76,-387 308.25,-338.86 354.35,-332.66"/>
<polygon fill="#000000" stroke="#000000" points="354.75,-336.14 364.5,-332 354.3,-329.15 354.75,-336.14"/>
</a>
</g>
</g>
<!-- Node_Ja_111&#45;&gt;Node_Ja_107 -->
<g id="edge17" class="edge">
<title>Node_Ja_111:e&#45;&gt;Node_Ja_107:header</title>
<g id="a_edge17"><a xlink:title="Ja_111 &#45;&#45;&gt; Ja_107">
<path fill="none" stroke="#000000" d="M251.5,-462C307.09,-462 304.85,-398.45 353.44,-390.76"/>
<polygon fill="#000000" stroke="#000000" points="353.79,-394.24 363.5,-390 353.26,-387.26 353.79,-394.24"/>
</a>
</g>
</g>
<!-- Node_Ja_111&#45;&gt;Node_Ja_107 -->
<g id="edge18" class="edge">
<title>Node_Ja_111:e&#45;&gt;Node_Ja_107:header</title>
<g id="a_edge18"><a xlink:title="Ja_111 &#45;&#45;&gt; Ja_107">
<path fill="none" stroke="#000000" d="M251.5,-432C301.13,-432 309.37,-395.39 353.51,-390.53"/>
<polygon fill="#000000" stroke="#000000" points="353.7,-394.03 363.5,-390 353.33,-387.04 353.7,-394.03"/>
</a>
</g>
</g>
<!-- Node_Ja_106 -->
<g id="node9" class="node">
<title>Node_Ja_106</title>
<g id="a_node9"><a xlink:title="proto.ParamsScannerRequest">
<polygon fill="#fffaf0" stroke="transparent" points="329,-527.5 329,-784.5 516,-784.5 516,-527.5 329,-527.5"/>
<polygon fill="#e31a1c" stroke="transparent" points="330.5,-768 330.5,-783 515.5,-783 515.5,-768 330.5,-768"/>
<text text-anchor="start" x="379.5" y="-774" font-family="Ubuntu" font-weight="bold" font-size="10.00">ParamsScannerRequest</text>
<text text-anchor="start" x="342.5" y="-758" font-family="Ubuntu" font-size="10.00">1</text>
<text text-anchor="start" x="353.5" y="-758" font-family="Ubuntu" font-size="10.00">hosts</text>
<polygon fill="#a6cee3" stroke="transparent" points="483.5,-753 483.5,-768 515.5,-768 515.5,-753 483.5,-753"/>
<text text-anchor="start" x="485.5" y="-759" font-family="Ubuntu" font-style="italic" font-size="10.00">string</text>
<text text-anchor="start" x="342.5" y="-743" font-family="Ubuntu" font-size="10.00">2</text>
<text text-anchor="start" x="353.5" y="-743" font-family="Ubuntu" font-size="10.00">ports</text>
<polygon fill="#a6cee3" stroke="transparent" points="483.5,-738 483.5,-753 515.5,-753 515.5,-738 483.5,-738"/>
<text text-anchor="start" x="485.5" y="-744" font-family="Ubuntu" font-style="italic" font-size="10.00">string</text>
<text text-anchor="start" x="342.5" y="-728" font-family="Ubuntu" font-size="10.00">3</text>
<text text-anchor="start" x="353.5" y="-728" font-family="Ubuntu" font-size="10.00">with_aggressive_scan</text>
<polygon fill="#a6cee3" stroke="transparent" points="483.5,-723 483.5,-738 515.5,-738 515.5,-723 483.5,-723"/>
<text text-anchor="start" x="491.5" y="-729" font-family="Ubuntu" font-style="italic" font-size="10.00">bool</text>
<text text-anchor="start" x="342.5" y="-713" font-family="Ubuntu" font-size="10.00">4</text>
<text text-anchor="start" x="353.5" y="-713" font-family="Ubuntu" font-size="10.00">with_syn_scan</text>
<polygon fill="#a6cee3" stroke="transparent" points="483.5,-708 483.5,-723 515.5,-723 515.5,-708 483.5,-708"/>
<text text-anchor="start" x="491.5" y="-714" font-family="Ubuntu" font-style="italic" font-size="10.00">bool</text>
<text text-anchor="start" x="342.5" y="-698" font-family="Ubuntu" font-size="10.00">5</text>
<text text-anchor="start" x="353.5" y="-698" font-family="Ubuntu" font-size="10.00">with_null_scan</text>
<polygon fill="#a6cee3" stroke="transparent" points="483.5,-693 483.5,-708 515.5,-708 515.5,-693 483.5,-693"/>
<text text-anchor="start" x="491.5" y="-699" font-family="Ubuntu" font-style="italic" font-size="10.00">bool</text>
<text text-anchor="start" x="342.5" y="-683" font-family="Ubuntu" font-size="10.00">6</text>
<text text-anchor="start" x="353.5" y="-683" font-family="Ubuntu" font-size="10.00">service_version_detection</text>
<polygon fill="#a6cee3" stroke="transparent" points="483.5,-678 483.5,-693 515.5,-693 515.5,-678 483.5,-678"/>
<text text-anchor="start" x="491.5" y="-684" font-family="Ubuntu" font-style="italic" font-size="10.00">bool</text>
<text text-anchor="start" x="342.5" y="-668" font-family="Ubuntu" font-size="10.00">7</text>
<text text-anchor="start" x="353.5" y="-668" font-family="Ubuntu" font-size="10.00">os_detection</text>
<polygon fill="#a6cee3" stroke="transparent" points="483.5,-663 483.5,-678 515.5,-678 515.5,-663 483.5,-663"/>
<text text-anchor="start" x="491.5" y="-669" font-family="Ubuntu" font-style="italic" font-size="10.00">bool</text>
<text text-anchor="start" x="342.5" y="-653" font-family="Ubuntu" font-size="10.00">8</text>
<text text-anchor="start" x="353.5" y="-653" font-family="Ubuntu" font-size="10.00">service_default_scripts</text>
<polygon fill="#a6cee3" stroke="transparent" points="483.5,-648 483.5,-663 515.5,-663 515.5,-648 483.5,-648"/>
<text text-anchor="start" x="491.5" y="-654" font-family="Ubuntu" font-style="italic" font-size="10.00">bool</text>
<text text-anchor="start" x="342.5" y="-638" font-family="Ubuntu" font-size="10.00">9</text>
<text text-anchor="start" x="353.5" y="-638" font-family="Ubuntu" font-size="10.00">timeout</text>
<polygon fill="#a6cee3" stroke="transparent" points="483.5,-633 483.5,-648 515.5,-648 515.5,-633 483.5,-633"/>
<text text-anchor="start" x="488.5" y="-639" font-family="Ubuntu" font-style="italic" font-size="10.00">int32</text>
<text text-anchor="start" x="336.5" y="-623" font-family="Ubuntu" font-size="10.00">10</text>
<text text-anchor="start" x="353.5" y="-623" font-family="Ubuntu" font-size="10.00">ping_only</text>
<polygon fill="#a6cee3" stroke="transparent" points="483.5,-618 483.5,-633 515.5,-633 515.5,-618 483.5,-618"/>
<text text-anchor="start" x="491.5" y="-624" font-family="Ubuntu" font-style="italic" font-size="10.00">bool</text>
<text text-anchor="start" x="336.5" y="-608" font-family="Ubuntu" font-size="10.00">11</text>
<text text-anchor="start" x="353.5" y="-608" font-family="Ubuntu" font-size="10.00">retention_time</text>
<polygon fill="#a6cee3" stroke="transparent" points="483.5,-603 483.5,-618 515.5,-618 515.5,-603 483.5,-603"/>
<text text-anchor="start" x="488.5" y="-609" font-family="Ubuntu" font-style="italic" font-size="10.00">int32</text>
<text text-anchor="start" x="336.5" y="-593" font-family="Ubuntu" font-size="10.00">12</text>
<text text-anchor="start" x="353.5" y="-593" font-family="Ubuntu" font-size="10.00">fast_mode</text>
<polygon fill="#a6cee3" stroke="transparent" points="483.5,-588 483.5,-603 515.5,-603 515.5,-588 483.5,-588"/>
<text text-anchor="start" x="491.5" y="-594" font-family="Ubuntu" font-style="italic" font-size="10.00">bool</text>
<text text-anchor="start" x="336.5" y="-578" font-family="Ubuntu" font-size="10.00">13</text>
<text text-anchor="start" x="353.5" y="-578" font-family="Ubuntu" font-size="10.00">key</text>
<polygon fill="#a6cee3" stroke="transparent" points="483.5,-573 483.5,-588 515.5,-588 515.5,-573 483.5,-573"/>
<text text-anchor="start" x="485.5" y="-579" font-family="Ubuntu" font-style="italic" font-size="10.00">string</text>
<text text-anchor="start" x="336.5" y="-563" font-family="Ubuntu" font-size="10.00">14</text>
<text text-anchor="start" x="353.5" y="-563" font-family="Ubuntu" font-size="10.00">defer_duration</text>
<polygon fill="#a6cee3" stroke="transparent" points="483.5,-558 483.5,-573 515.5,-573 515.5,-558 483.5,-558"/>
<text text-anchor="start" x="488.5" y="-564" font-family="Ubuntu" font-style="italic" font-size="10.00">int64</text>
<text text-anchor="start" x="336.5" y="-548" font-family="Ubuntu" font-size="10.00">15</text>
<text text-anchor="start" x="353.5" y="-548" font-family="Ubuntu" font-size="10.00">crontab</text>
<polygon fill="#a6cee3" stroke="transparent" points="483.5,-543 483.5,-558 515.5,-558 515.5,-543 483.5,-543"/>
<text text-anchor="start" x="485.5" y="-549" font-family="Ubuntu" font-style="italic" font-size="10.00">string</text>
<text text-anchor="start" x="336.5" y="-533" font-family="Ubuntu" font-size="10.00">16</text>
<text text-anchor="start" x="353.5" y="-533" font-family="Ubuntu" font-size="10.00">scan_speed</text>
<polygon fill="#a6cee3" stroke="transparent" points="483.5,-528 483.5,-543 515.5,-543 515.5,-528 483.5,-528"/>
<text text-anchor="start" x="488.5" y="-534" font-family="Ubuntu" font-style="italic" font-size="10.00">int32</text>
<polygon fill="none" stroke="black" points="329,-527.5 329,-784.5 516,-784.5 516,-527.5 329,-527.5"/>
</a>
</g>
</g>
<!-- Node_Ja_111&#45;&gt;Node_Ja_106 -->
<g id="edge2" class="edge">
<title>Node_Ja_111:e&#45;&gt;Node_Ja_106:header</title>
<g id="a_edge2"><a xlink:title="Ja_111 &#45;&#45;&gt; Ja_106">
<path fill="none" stroke="#000000" d="M251.5,-523C365.49,-523 221.4,-760.43 319.26,-775.27"/>
<polygon fill="#000000" stroke="#000000" points="319.28,-778.78 329.5,-776 319.77,-771.8 319.28,-778.78"/>
</a>
</g>
</g>
<!-- Node_Ja_111&#45;&gt;Node_Ja_106 -->
<g id="edge6" class="edge">
<title>Node_Ja_111:e&#45;&gt;Node_Ja_106:header</title>
<g id="a_edge6"><a xlink:title="Ja_111 &#45;&#45;&gt; Ja_106">
<path fill="none" stroke="#000000" d="M251.5,-493C378.4,-493 208.8,-760.74 319.49,-775.38"/>
<polygon fill="#000000" stroke="#000000" points="319.3,-778.87 329.5,-776 319.74,-771.89 319.3,-778.87"/>
</a>
</g>
</g>
<!-- Node_Ja_101 -->
<g id="node10" class="node">
<title>Node_Ja_101</title>
<g id="a_node10"><a xlink:title="proto.PortVersion">
<polygon fill="#fffaf0" stroke="transparent" points="1176,-308.5 1176,-385.5 1292,-385.5 1292,-308.5 1176,-308.5"/>
<polygon fill="#e31a1c" stroke="transparent" points="1177,-369 1177,-384 1291,-384 1291,-369 1177,-369"/>
<text text-anchor="start" x="1222" y="-375" font-family="Ubuntu" font-weight="bold" font-size="10.00">PortVersion</text>
<text text-anchor="start" x="1183" y="-359" font-family="Ubuntu" font-size="10.00">1</text>
<text text-anchor="start" x="1194" y="-359" font-family="Ubuntu" font-size="10.00">low_version</text>
<polygon fill="#a6cee3" stroke="transparent" points="1259,-354 1259,-369 1291,-369 1291,-354 1259,-354"/>
<text text-anchor="start" x="1261" y="-360" font-family="Ubuntu" font-style="italic" font-size="10.00">string</text>
<text text-anchor="start" x="1183" y="-344" font-family="Ubuntu" font-size="10.00">2</text>
<text text-anchor="start" x="1194" y="-344" font-family="Ubuntu" font-size="10.00">high_version</text>
<polygon fill="#a6cee3" stroke="transparent" points="1259,-339 1259,-354 1291,-354 1291,-339 1259,-339"/>
<text text-anchor="start" x="1261" y="-345" font-family="Ubuntu" font-style="italic" font-size="10.00">string</text>
<text text-anchor="start" x="1183" y="-329" font-family="Ubuntu" font-size="10.00">3</text>
<text text-anchor="start" x="1194" y="-329" font-family="Ubuntu" font-size="10.00">extra_infos</text>
<polygon fill="#a6cee3" stroke="transparent" points="1259,-324 1259,-339 1291,-339 1291,-324 1259,-324"/>
<text text-anchor="start" x="1261" y="-330" font-family="Ubuntu" font-style="italic" font-size="10.00">string</text>
<text text-anchor="start" x="1183" y="-314" font-family="Ubuntu" font-size="10.00">4</text>
<text text-anchor="start" x="1194" y="-314" font-family="Ubuntu" font-size="10.00">product</text>
<polygon fill="#a6cee3" stroke="transparent" points="1259,-309 1259,-324 1291,-324 1291,-309 1259,-309"/>
<text text-anchor="start" x="1261" y="-315" font-family="Ubuntu" font-style="italic" font-size="10.00">string</text>
<polygon fill="none" stroke="black" points="1176,-308.5 1176,-385.5 1292,-385.5 1292,-308.5 1176,-308.5"/>
</a>
</g>
</g>
<!-- Node_Ja_102&#45;&gt;Node_Ja_101 -->
<g id="edge20" class="edge">
<title>Node_Ja_102:e&#45;&gt;Node_Ja_101:header</title>
<g id="a_edge20"><a xlink:title="Ja_102 &#45;&#45;&gt; Ja_101">
<path fill="none" stroke="#000000" d="M1124.5,-351C1146.33,-351 1149.73,-369.85 1166.1,-375.45"/>
<polygon fill="#000000" stroke="#000000" points="1165.58,-378.91 1176,-377 1166.66,-372 1165.58,-378.91"/>
</a>
</g>
</g>
<!-- Node_Ja_118 -->
<g id="node13" class="node">
<title>Node_Ja_118</title>
<g id="a_node13"><a xlink:title="proto.TasksStatus">
<polygon fill="#fffaf0" stroke="transparent" points="612.5,-122 612.5,-214 704.5,-214 704.5,-122 612.5,-122"/>
<polygon fill="#e31a1c" stroke="transparent" points="613.5,-198 613.5,-213 703.5,-213 703.5,-198 613.5,-198"/>
<text text-anchor="start" x="634.5" y="-204" font-family="Ubuntu" font-weight="bold" font-size="10.00">TasksStatus</text>
<text text-anchor="start" x="619.5" y="-188" font-family="Ubuntu" font-size="10.00">1</text>
<text text-anchor="start" x="630.5" y="-188" font-family="Ubuntu" font-size="10.00">success</text>
<polygon fill="#a6cee3" stroke="transparent" points="674.5,-183 674.5,-198 703.5,-198 703.5,-183 674.5,-183"/>
<text text-anchor="start" x="676.5" y="-189" font-family="Ubuntu" font-style="italic" font-size="10.00">int64</text>
<text text-anchor="start" x="619.5" y="-173" font-family="Ubuntu" font-size="10.00">2</text>
<text text-anchor="start" x="630.5" y="-173" font-family="Ubuntu" font-size="10.00">failed</text>
<polygon fill="#a6cee3" stroke="transparent" points="674.5,-168 674.5,-183 703.5,-183 703.5,-168 674.5,-168"/>
<text text-anchor="start" x="676.5" y="-174" font-family="Ubuntu" font-style="italic" font-size="10.00">int64</text>
<text text-anchor="start" x="619.5" y="-158" font-family="Ubuntu" font-size="10.00">3</text>
<text text-anchor="start" x="630.5" y="-158" font-family="Ubuntu" font-size="10.00">returned</text>
<polygon fill="#a6cee3" stroke="transparent" points="674.5,-153 674.5,-168 703.5,-168 703.5,-153 674.5,-153"/>
<text text-anchor="start" x="676.5" y="-159" font-family="Ubuntu" font-style="italic" font-size="10.00">int64</text>
<text text-anchor="start" x="619.5" y="-143" font-family="Ubuntu" font-size="10.00">4</text>
<text text-anchor="start" x="630.5" y="-143" font-family="Ubuntu" font-size="10.00">ready</text>
<polygon fill="#a6cee3" stroke="transparent" points="674.5,-138 674.5,-153 703.5,-153 703.5,-138 674.5,-138"/>
<text text-anchor="start" x="676.5" y="-144" font-family="Ubuntu" font-style="italic" font-size="10.00">int64</text>
<text text-anchor="start" x="619.5" y="-128" font-family="Ubuntu" font-size="10.00">5</text>
<text text-anchor="start" x="630.5" y="-128" font-family="Ubuntu" font-size="10.00">rejected</text>
<polygon fill="#a6cee3" stroke="transparent" points="674.5,-123 674.5,-138 703.5,-138 703.5,-123 674.5,-123"/>
<text text-anchor="start" x="676.5" y="-129" font-family="Ubuntu" font-style="italic" font-size="10.00">int64</text>
<polygon fill="none" stroke="black" points="612.5,-122 612.5,-214 704.5,-214 704.5,-122 612.5,-122"/>
</a>
</g>
</g>
<!-- Node_Ja_119 -->
<g id="node14" class="node">
<title>Node_Ja_119</title>
<g id="a_node14"><a xlink:title="BackendService">
<polygon fill="#ffd700" stroke="transparent" points="8,-206.5 8,-283.5 277,-283.5 277,-206.5 8,-206.5"/>
<polygon fill="#ff7f50" stroke="transparent" points="9.5,-267 9.5,-282 276.5,-282 276.5,-267 9.5,-267"/>
<text text-anchor="start" x="183.5" y="-273" font-family="Ubuntu" font-weight="bold" font-size="10.00">BackendService</text>
<text text-anchor="start" x="11.5" y="-258" font-family="Ubuntu" font-weight="bold" font-size="10.00">StreamServiceControl</text>
<text text-anchor="start" x="180.5" y="-257" font-family="Ubuntu" font-size="10.00">ServiceStateValues</text>
<polygon fill="#ff7f50" stroke="transparent" points="139.5,-237 139.5,-252 178.5,-252 178.5,-237 139.5,-237"/>
<text text-anchor="start" x="141.5" y="-242" font-family="Ubuntu" font-size="10.00">stream</text>
<polygon fill="#ff7f50" stroke="transparent" points="178.5,-237 178.5,-252 276.5,-252 276.5,-237 178.5,-237"/>
<text text-anchor="start" x="180.5" y="-242" font-family="Ubuntu" font-size="10.00">ServiceStateValues</text>
<text text-anchor="start" x="11.5" y="-228" font-family="Ubuntu" font-weight="bold" font-size="10.00">StreamTasksStatus</text>
<text text-anchor="start" x="141.5" y="-227" font-family="Ubuntu" font-size="10.00">stream</text>
<text text-anchor="start" x="184.5" y="-227" font-family="Ubuntu" font-size="10.00">PrometheusStatus</text>
<polygon fill="#ff7f50" stroke="transparent" points="139.5,-207 139.5,-222 178.5,-222 178.5,-207 139.5,-207"/>
<text text-anchor="start" x="141.5" y="-212" font-family="Ubuntu" font-size="10.00">stream</text>
<polygon fill="#ff7f50" stroke="transparent" points="178.5,-207 178.5,-222 276.5,-222 276.5,-207 178.5,-207"/>
<text text-anchor="start" x="184.5" y="-212" font-family="Ubuntu" font-size="10.00">PrometheusStatus</text>
<polygon fill="none" stroke="black" points="8,-206.5 8,-283.5 277,-283.5 277,-206.5 8,-206.5"/>
</a>
</g>
</g>
<!-- Node_Ja_119&#45;&gt;Node_Ja_109 -->
<g id="edge1" class="edge">
<title>Node_Ja_119:e&#45;&gt;Node_Ja_109:header</title>
<g id="a_edge1"><a xlink:title="Ja_119 &#45;&#45;&gt; Ja_109">
<path fill="none" stroke="#000000" d="M277.5,-260C323.97,-260 315.95,-321.71 354.32,-330.87"/>
<polygon fill="#000000" stroke="#000000" points="354.17,-334.37 364.5,-332 354.95,-327.42 354.17,-334.37"/>
</a>
</g>
</g>
<!-- Node_Ja_119&#45;&gt;Node_Ja_109 -->
<g id="edge16" class="edge">
<title>Node_Ja_119:e&#45;&gt;Node_Ja_109:header</title>
<g id="a_edge16"><a xlink:title="Ja_119 &#45;&#45;&gt; Ja_109">
<path fill="none" stroke="#000000" d="M277.5,-244C328.85,-244 312.21,-320.7 354.53,-330.89"/>
<polygon fill="#000000" stroke="#000000" points="354.17,-334.37 364.5,-332 354.95,-327.41 354.17,-334.37"/>
</a>
</g>
</g>
<!-- Node_Ja_117 -->
<g id="node15" class="node">
<title>Node_Ja_117</title>
<g id="a_node15"><a xlink:title="proto.PrometheusStatus">
<polygon fill="#fffaf0" stroke="transparent" points="336,-167 336,-229 509,-229 509,-167 336,-167"/>
<polygon fill="#e31a1c" stroke="transparent" points="337.5,-213 337.5,-228 508.5,-228 508.5,-213 337.5,-213"/>
<text text-anchor="start" x="402.5" y="-219" font-family="Ubuntu" font-weight="bold" font-size="10.00">PrometheusStatus</text>
<text text-anchor="start" x="343.5" y="-203" font-family="Ubuntu" font-size="10.00">1</text>
<text text-anchor="start" x="354.5" y="-203" font-family="Ubuntu" font-size="10.00">tasks_status</text>
<polygon fill="#fb9a99" stroke="transparent" points="437.5,-198 437.5,-213 508.5,-213 508.5,-198 437.5,-198"/>
<text text-anchor="start" x="439.5" y="-204" font-family="Ubuntu" font-weight="bold" font-size="10.00">TasksStatus</text>
<text text-anchor="start" x="343.5" y="-188" font-family="Ubuntu" font-size="10.00">2</text>
<text text-anchor="start" x="354.5" y="-188" font-family="Ubuntu" font-size="10.00">worker_count</text>
<polygon fill="#a6cee3" stroke="transparent" points="437.5,-183 437.5,-198 508.5,-198 508.5,-183 437.5,-183"/>
<text text-anchor="start" x="481.5" y="-189" font-family="Ubuntu" font-style="italic" font-size="10.00">int64</text>
<text text-anchor="start" x="343.5" y="-173" font-family="Ubuntu" font-size="10.00">3</text>
<text text-anchor="start" x="354.5" y="-173" font-family="Ubuntu" font-size="10.00">consumer_count</text>
<polygon fill="#a6cee3" stroke="transparent" points="437.5,-168 437.5,-183 508.5,-183 508.5,-168 437.5,-168"/>
<text text-anchor="start" x="481.5" y="-174" font-family="Ubuntu" font-style="italic" font-size="10.00">int64</text>
<polygon fill="none" stroke="black" points="336,-167 336,-229 509,-229 509,-167 336,-167"/>
</a>
</g>
</g>
<!-- Node_Ja_119&#45;&gt;Node_Ja_117 -->
<g id="edge9" class="edge">
<title>Node_Ja_119:e&#45;&gt;Node_Ja_117:header</title>
<g id="a_edge9"><a xlink:title="Ja_119 &#45;&#45;&gt; Ja_117">
<path fill="none" stroke="#000000" d="M277.5,-229C300.24,-229 307.93,-223.09 326.43,-221.43"/>
<polygon fill="#000000" stroke="#000000" points="326.66,-224.92 336.5,-221 326.36,-217.93 326.66,-224.92"/>
</a>
</g>
</g>
<!-- Node_Ja_119&#45;&gt;Node_Ja_117 -->
<g id="edge13" class="edge">
<title>Node_Ja_119:e&#45;&gt;Node_Ja_117:header</title>
<g id="a_edge13"><a xlink:title="Ja_119 &#45;&#45;&gt; Ja_117">
<path fill="none" stroke="#000000" d="M277.5,-214C300.19,-214 307.95,-219.17 326.45,-220.62"/>
<polygon fill="#000000" stroke="#000000" points="326.38,-224.12 336.5,-221 326.64,-217.13 326.38,-224.12"/>
</a>
</g>
</g>
<!-- Node_Ja_117&#45;&gt;Node_Ja_118 -->
<g id="edge19" class="edge">
<title>Node_Ja_117:e&#45;&gt;Node_Ja_118:header</title>
<g id="a_edge19"><a xlink:title="Ja_117 &#45;&#45;&gt; Ja_118">
<path fill="none" stroke="#000000" d="M509.5,-206C551.7,-206 564.72,-206 602.37,-206"/>
<polygon fill="#000000" stroke="#000000" points="602.5,-209.5 612.5,-206 602.5,-202.5 602.5,-209.5"/>
</a>
</g>
</g>
</g>
</svg>
