<?xml version="1.0" encoding="UTF-8" standalone="no"?>
<!DOCTYPE svg PUBLIC "-//W3C//DTD SVG 1.1//EN"
 "http://www.w3.org/Graphics/SVG/1.1/DTD/svg11.dtd">
<!-- Generated by graphviz version 2.47.3 (0)
 -->
<!-- Title: protodot Pages: 1 -->
<svg width="1215pt" height="602pt"
 viewBox="0.00 0.00 1215.00 602.00" xmlns="http://www.w3.org/2000/svg" xmlns:xlink="http://www.w3.org/1999/xlink">
<g id="graph0" class="graph" transform="scale(1 1) rotate(0) translate(4 598)">
<title>protodot</title>
<g id="a_graph0"><a xlink:title="proto">
<text text-anchor="middle" x="603.5" y="-7.8" font-family="Times,serif" font-size="14.00">proto</text>
</a>
</g>
<!-- Node_Ja_102 -->
<g id="node1" class="node">
<title>Node_Ja_102</title>
<g id="a_node1"><a xlink:title="proto.Port">
<polygon fill="#fffaf0" stroke="transparent" points="870,-87.5 870,-179.5 1031,-179.5 1031,-87.5 870,-87.5"/>
<polygon fill="#e31a1c" stroke="transparent" points="871.5,-163.5 871.5,-178.5 1030.5,-178.5 1030.5,-163.5 871.5,-163.5"/>
<text text-anchor="start" x="1003.5" y="-169.5" font-family="Ubuntu" font-weight="bold" font-size="10.00">Port</text>
<text text-anchor="start" x="877.5" y="-153.5" font-family="Ubuntu" font-size="10.00">1</text>
<text text-anchor="start" x="888.5" y="-153.5" font-family="Ubuntu" font-size="10.00">port_id</text>
<polygon fill="#a6cee3" stroke="transparent" points="959.5,-148.5 959.5,-163.5 1030.5,-163.5 1030.5,-148.5 959.5,-148.5"/>
<text text-anchor="start" x="1000.5" y="-154.5" font-family="Ubuntu" font-style="italic" font-size="10.00">string</text>
<text text-anchor="start" x="877.5" y="-138.5" font-family="Ubuntu" font-size="10.00">2</text>
<text text-anchor="start" x="888.5" y="-138.5" font-family="Ubuntu" font-size="10.00">protocol</text>
<polygon fill="#a6cee3" stroke="transparent" points="959.5,-133.5 959.5,-148.5 1030.5,-148.5 1030.5,-133.5 959.5,-133.5"/>
<text text-anchor="start" x="1000.5" y="-139.5" font-family="Ubuntu" font-style="italic" font-size="10.00">string</text>
<text text-anchor="start" x="877.5" y="-123.5" font-family="Ubuntu" font-size="10.00">3</text>
<text text-anchor="start" x="888.5" y="-123.5" font-family="Ubuntu" font-size="10.00">state</text>
<polygon fill="#a6cee3" stroke="transparent" points="959.5,-118.5 959.5,-133.5 1030.5,-133.5 1030.5,-118.5 959.5,-118.5"/>
<text text-anchor="start" x="1000.5" y="-124.5" font-family="Ubuntu" font-style="italic" font-size="10.00">string</text>
<text text-anchor="start" x="877.5" y="-108.5" font-family="Ubuntu" font-size="10.00">4</text>
<text text-anchor="start" x="888.5" y="-108.5" font-family="Ubuntu" font-size="10.00">service_name</text>
<polygon fill="#a6cee3" stroke="transparent" points="959.5,-103.5 959.5,-118.5 1030.5,-118.5 1030.5,-103.5 959.5,-103.5"/>
<text text-anchor="start" x="1000.5" y="-109.5" font-family="Ubuntu" font-style="italic" font-size="10.00">string</text>
<text text-anchor="start" x="877.5" y="-93.5" font-family="Ubuntu" font-size="10.00">5</text>
<text text-anchor="start" x="888.5" y="-93.5" font-family="Ubuntu" font-size="10.00">version</text>
<polygon fill="#fb9a99" stroke="transparent" points="959.5,-88.5 959.5,-103.5 1030.5,-103.5 1030.5,-88.5 959.5,-88.5"/>
<text text-anchor="start" x="961.5" y="-94.5" font-family="Ubuntu" font-weight="bold" font-size="10.00">PortVersion</text>
<polygon fill="none" stroke="black" points="870,-87.5 870,-179.5 1031,-179.5 1031,-87.5 870,-87.5"/>
</a>
</g>
</g>
<!-- Node_Ja_101 -->
<g id="node7" class="node">
<title>Node_Ja_101</title>
<g id="a_node7"><a xlink:title="proto.PortVersion">
<polygon fill="#fffaf0" stroke="transparent" points="1083,-27 1083,-104 1199,-104 1199,-27 1083,-27"/>
<polygon fill="#e31a1c" stroke="transparent" points="1084,-87.5 1084,-102.5 1198,-102.5 1198,-87.5 1084,-87.5"/>
<text text-anchor="start" x="1129" y="-93.5" font-family="Ubuntu" font-weight="bold" font-size="10.00">PortVersion</text>
<text text-anchor="start" x="1090" y="-77.5" font-family="Ubuntu" font-size="10.00">1</text>
<text text-anchor="start" x="1101" y="-77.5" font-family="Ubuntu" font-size="10.00">low_version</text>
<polygon fill="#a6cee3" stroke="transparent" points="1166,-72.5 1166,-87.5 1198,-87.5 1198,-72.5 1166,-72.5"/>
<text text-anchor="start" x="1168" y="-78.5" font-family="Ubuntu" font-style="italic" font-size="10.00">string</text>
<text text-anchor="start" x="1090" y="-62.5" font-family="Ubuntu" font-size="10.00">2</text>
<text text-anchor="start" x="1101" y="-62.5" font-family="Ubuntu" font-size="10.00">high_version</text>
<polygon fill="#a6cee3" stroke="transparent" points="1166,-57.5 1166,-72.5 1198,-72.5 1198,-57.5 1166,-57.5"/>
<text text-anchor="start" x="1168" y="-63.5" font-family="Ubuntu" font-style="italic" font-size="10.00">string</text>
<text text-anchor="start" x="1090" y="-47.5" font-family="Ubuntu" font-size="10.00">3</text>
<text text-anchor="start" x="1101" y="-47.5" font-family="Ubuntu" font-size="10.00">extra_infos</text>
<polygon fill="#a6cee3" stroke="transparent" points="1166,-42.5 1166,-57.5 1198,-57.5 1198,-42.5 1166,-42.5"/>
<text text-anchor="start" x="1168" y="-48.5" font-family="Ubuntu" font-style="italic" font-size="10.00">string</text>
<text text-anchor="start" x="1090" y="-32.5" font-family="Ubuntu" font-size="10.00">4</text>
<text text-anchor="start" x="1101" y="-32.5" font-family="Ubuntu" font-size="10.00">product</text>
<polygon fill="#a6cee3" stroke="transparent" points="1166,-27.5 1166,-42.5 1198,-42.5 1198,-27.5 1166,-27.5"/>
<text text-anchor="start" x="1168" y="-33.5" font-family="Ubuntu" font-style="italic" font-size="10.00">string</text>
<polygon fill="none" stroke="black" points="1083,-27 1083,-104 1199,-104 1199,-27 1083,-27"/>
</a>
</g>
</g>
<!-- Node_Ja_102&#45;&gt;Node_Ja_101 -->
<g id="edge5" class="edge">
<title>Node_Ja_102:e&#45;&gt;Node_Ja_101:header</title>
<g id="a_edge5"><a xlink:title="Ja_102 &#45;&#45;&gt; Ja_101">
<path fill="none" stroke="#000000" d="M1031.5,-95.5C1050.63,-95.5 1057.77,-95.5 1072.97,-95.5"/>
<polygon fill="#000000" stroke="#000000" points="1073,-99 1083,-95.5 1073,-92 1073,-99"/>
</a>
</g>
</g>
<!-- Node_Ja_104 -->
<g id="node2" class="node">
<title>Node_Ja_104</title>
<g id="a_node2"><a xlink:title="proto.ScannerResponse">
<polygon fill="#fffaf0" stroke="transparent" points="492,-185 492,-262 673,-262 673,-185 492,-185"/>
<polygon fill="#e31a1c" stroke="transparent" points="493.5,-245.5 493.5,-260.5 672.5,-260.5 672.5,-245.5 493.5,-245.5"/>
<text text-anchor="start" x="570.5" y="-251.5" font-family="Ubuntu" font-weight="bold" font-size="10.00">ScannerResponse</text>
<text text-anchor="start" x="495.5" y="-235.5" font-family="Ubuntu" font-size="10.00">[...]</text>
<text text-anchor="start" x="516.5" y="-235.5" font-family="Ubuntu" font-size="10.00">1</text>
<text text-anchor="start" x="527.5" y="-235.5" font-family="Ubuntu" font-size="10.00">host_result</text>
<polygon fill="#fb9a99" stroke="transparent" points="607.5,-230.5 607.5,-245.5 672.5,-245.5 672.5,-230.5 607.5,-230.5"/>
<text text-anchor="start" x="609.5" y="-236.5" font-family="Ubuntu" font-weight="bold" font-size="10.00">HostResult</text>
<text text-anchor="start" x="516.5" y="-220.5" font-family="Ubuntu" font-size="10.00">2</text>
<text text-anchor="start" x="527.5" y="-220.5" font-family="Ubuntu" font-size="10.00">start_time</text>
<polygon fill="#a6cee3" stroke="transparent" points="607.5,-215.5 607.5,-230.5 672.5,-230.5 672.5,-215.5 607.5,-215.5"/>
<text text-anchor="start" x="642.5" y="-221.5" font-family="Ubuntu" font-style="italic" font-size="10.00">string</text>
<text text-anchor="start" x="516.5" y="-205.5" font-family="Ubuntu" font-size="10.00">3</text>
<text text-anchor="start" x="527.5" y="-205.5" font-family="Ubuntu" font-size="10.00">end_time</text>
<polygon fill="#a6cee3" stroke="transparent" points="607.5,-200.5 607.5,-215.5 672.5,-215.5 672.5,-200.5 607.5,-200.5"/>
<text text-anchor="start" x="642.5" y="-206.5" font-family="Ubuntu" font-style="italic" font-size="10.00">string</text>
<text text-anchor="start" x="516.5" y="-190.5" font-family="Ubuntu" font-size="10.00">4</text>
<text text-anchor="start" x="527.5" y="-190.5" font-family="Ubuntu" font-size="10.00">expiration_time</text>
<polygon fill="#a6cee3" stroke="transparent" points="607.5,-185.5 607.5,-200.5 672.5,-200.5 672.5,-185.5 607.5,-185.5"/>
<text text-anchor="start" x="642.5" y="-191.5" font-family="Ubuntu" font-style="italic" font-size="10.00">string</text>
<polygon fill="none" stroke="black" points="492,-185 492,-262 673,-262 673,-185 492,-185"/>
</a>
</g>
</g>
<!-- Node_Ja_103 -->
<g id="node8" class="node">
<title>Node_Ja_103</title>
<g id="a_node8"><a xlink:title="proto.HostResult">
<polygon fill="#fffaf0" stroke="transparent" points="725,-200 725,-247 818,-247 818,-200 725,-200"/>
<polygon fill="#e31a1c" stroke="transparent" points="726.5,-230.5 726.5,-245.5 817.5,-245.5 817.5,-230.5 726.5,-230.5"/>
<text text-anchor="start" x="754.5" y="-236.5" font-family="Ubuntu" font-weight="bold" font-size="10.00">HostResult</text>
<text text-anchor="start" x="749.5" y="-220.5" font-family="Ubuntu" font-size="10.00">1</text>
<text text-anchor="start" x="760.5" y="-220.5" font-family="Ubuntu" font-size="10.00">host</text>
<polygon fill="#fb9a99" stroke="transparent" points="787.5,-215.5 787.5,-230.5 817.5,-230.5 817.5,-215.5 787.5,-215.5"/>
<text text-anchor="start" x="789.5" y="-221.5" font-family="Ubuntu" font-weight="bold" font-size="10.00">Host</text>
<text text-anchor="start" x="728.5" y="-205.5" font-family="Ubuntu" font-size="10.00">[...]</text>
<text text-anchor="start" x="749.5" y="-205.5" font-family="Ubuntu" font-size="10.00">2</text>
<text text-anchor="start" x="760.5" y="-205.5" font-family="Ubuntu" font-size="10.00">ports</text>
<polygon fill="#fb9a99" stroke="transparent" points="787.5,-200.5 787.5,-215.5 817.5,-215.5 817.5,-200.5 787.5,-200.5"/>
<text text-anchor="start" x="790.5" y="-206.5" font-family="Ubuntu" font-weight="bold" font-size="10.00">Port</text>
<polygon fill="none" stroke="black" points="725,-200 725,-247 818,-247 818,-200 725,-200"/>
</a>
</g>
</g>
<!-- Node_Ja_104&#45;&gt;Node_Ja_103 -->
<g id="edge2" class="edge">
<title>Node_Ja_104:e&#45;&gt;Node_Ja_103:header</title>
<g id="a_edge2"><a xlink:title="Ja_104 &#45;&#45;&gt; Ja_103">
<path fill="none" stroke="#000000" d="M673.5,-238.5C692.82,-238.5 700.03,-238.5 715.37,-238.5"/>
<polygon fill="#000000" stroke="#000000" points="715.5,-242 725.5,-238.5 715.5,-235 715.5,-242"/>
</a>
</g>
</g>
<!-- Node_Ja_105 -->
<g id="node3" class="node">
<title>Node_Ja_105</title>
<g id="a_node3"><a xlink:title="proto.ParamsScannerRequest">
<polygon fill="#fffaf0" stroke="transparent" points="253,-393 253,-590 440,-590 440,-393 253,-393"/>
<polygon fill="#e31a1c" stroke="transparent" points="254.5,-573.5 254.5,-588.5 439.5,-588.5 439.5,-573.5 254.5,-573.5"/>
<text text-anchor="start" x="303.5" y="-579.5" font-family="Ubuntu" font-weight="bold" font-size="10.00">ParamsScannerRequest</text>
<text text-anchor="start" x="266.5" y="-563.5" font-family="Ubuntu" font-size="10.00">1</text>
<text text-anchor="start" x="277.5" y="-563.5" font-family="Ubuntu" font-size="10.00">hosts</text>
<polygon fill="#a6cee3" stroke="transparent" points="407.5,-558.5 407.5,-573.5 439.5,-573.5 439.5,-558.5 407.5,-558.5"/>
<text text-anchor="start" x="409.5" y="-564.5" font-family="Ubuntu" font-style="italic" font-size="10.00">string</text>
<text text-anchor="start" x="266.5" y="-548.5" font-family="Ubuntu" font-size="10.00">2</text>
<text text-anchor="start" x="277.5" y="-548.5" font-family="Ubuntu" font-size="10.00">ports</text>
<polygon fill="#a6cee3" stroke="transparent" points="407.5,-543.5 407.5,-558.5 439.5,-558.5 439.5,-543.5 407.5,-543.5"/>
<text text-anchor="start" x="409.5" y="-549.5" font-family="Ubuntu" font-style="italic" font-size="10.00">string</text>
<text text-anchor="start" x="266.5" y="-533.5" font-family="Ubuntu" font-size="10.00">3</text>
<text text-anchor="start" x="277.5" y="-533.5" font-family="Ubuntu" font-size="10.00">with_aggressive_scan</text>
<polygon fill="#a6cee3" stroke="transparent" points="407.5,-528.5 407.5,-543.5 439.5,-543.5 439.5,-528.5 407.5,-528.5"/>
<text text-anchor="start" x="415.5" y="-534.5" font-family="Ubuntu" font-style="italic" font-size="10.00">bool</text>
<text text-anchor="start" x="266.5" y="-518.5" font-family="Ubuntu" font-size="10.00">4</text>
<text text-anchor="start" x="277.5" y="-518.5" font-family="Ubuntu" font-size="10.00">with_syn_scan</text>
<polygon fill="#a6cee3" stroke="transparent" points="407.5,-513.5 407.5,-528.5 439.5,-528.5 439.5,-513.5 407.5,-513.5"/>
<text text-anchor="start" x="415.5" y="-519.5" font-family="Ubuntu" font-style="italic" font-size="10.00">bool</text>
<text text-anchor="start" x="266.5" y="-503.5" font-family="Ubuntu" font-size="10.00">5</text>
<text text-anchor="start" x="277.5" y="-503.5" font-family="Ubuntu" font-size="10.00">with_null_scan</text>
<polygon fill="#a6cee3" stroke="transparent" points="407.5,-498.5 407.5,-513.5 439.5,-513.5 439.5,-498.5 407.5,-498.5"/>
<text text-anchor="start" x="415.5" y="-504.5" font-family="Ubuntu" font-style="italic" font-size="10.00">bool</text>
<text text-anchor="start" x="266.5" y="-488.5" font-family="Ubuntu" font-size="10.00">6</text>
<text text-anchor="start" x="277.5" y="-488.5" font-family="Ubuntu" font-size="10.00">service_version_detection</text>
<polygon fill="#a6cee3" stroke="transparent" points="407.5,-483.5 407.5,-498.5 439.5,-498.5 439.5,-483.5 407.5,-483.5"/>
<text text-anchor="start" x="415.5" y="-489.5" font-family="Ubuntu" font-style="italic" font-size="10.00">bool</text>
<text text-anchor="start" x="266.5" y="-473.5" font-family="Ubuntu" font-size="10.00">7</text>
<text text-anchor="start" x="277.5" y="-473.5" font-family="Ubuntu" font-size="10.00">os_detection</text>
<polygon fill="#a6cee3" stroke="transparent" points="407.5,-468.5 407.5,-483.5 439.5,-483.5 439.5,-468.5 407.5,-468.5"/>
<text text-anchor="start" x="415.5" y="-474.5" font-family="Ubuntu" font-style="italic" font-size="10.00">bool</text>
<text text-anchor="start" x="266.5" y="-458.5" font-family="Ubuntu" font-size="10.00">8</text>
<text text-anchor="start" x="277.5" y="-458.5" font-family="Ubuntu" font-size="10.00">service_default_scripts</text>
<polygon fill="#a6cee3" stroke="transparent" points="407.5,-453.5 407.5,-468.5 439.5,-468.5 439.5,-453.5 407.5,-453.5"/>
<text text-anchor="start" x="415.5" y="-459.5" font-family="Ubuntu" font-style="italic" font-size="10.00">bool</text>
<text text-anchor="start" x="266.5" y="-443.5" font-family="Ubuntu" font-size="10.00">9</text>
<text text-anchor="start" x="277.5" y="-443.5" font-family="Ubuntu" font-size="10.00">timeout</text>
<polygon fill="#a6cee3" stroke="transparent" points="407.5,-438.5 407.5,-453.5 439.5,-453.5 439.5,-438.5 407.5,-438.5"/>
<text text-anchor="start" x="412.5" y="-444.5" font-family="Ubuntu" font-style="italic" font-size="10.00">int32</text>
<text text-anchor="start" x="260.5" y="-428.5" font-family="Ubuntu" font-size="10.00">10</text>
<text text-anchor="start" x="277.5" y="-428.5" font-family="Ubuntu" font-size="10.00">ping_only</text>
<polygon fill="#a6cee3" stroke="transparent" points="407.5,-423.5 407.5,-438.5 439.5,-438.5 439.5,-423.5 407.5,-423.5"/>
<text text-anchor="start" x="415.5" y="-429.5" font-family="Ubuntu" font-style="italic" font-size="10.00">bool</text>
<text text-anchor="start" x="260.5" y="-413.5" font-family="Ubuntu" font-size="10.00">11</text>
<text text-anchor="start" x="277.5" y="-413.5" font-family="Ubuntu" font-size="10.00">retention_time</text>
<polygon fill="#a6cee3" stroke="transparent" points="407.5,-408.5 407.5,-423.5 439.5,-423.5 439.5,-408.5 407.5,-408.5"/>
<text text-anchor="start" x="412.5" y="-414.5" font-family="Ubuntu" font-style="italic" font-size="10.00">int32</text>
<text text-anchor="start" x="260.5" y="-398.5" font-family="Ubuntu" font-size="10.00">12</text>
<text text-anchor="start" x="277.5" y="-398.5" font-family="Ubuntu" font-size="10.00">fast_mode</text>
<polygon fill="#a6cee3" stroke="transparent" points="407.5,-393.5 407.5,-408.5 439.5,-408.5 439.5,-393.5 407.5,-393.5"/>
<text text-anchor="start" x="415.5" y="-399.5" font-family="Ubuntu" font-style="italic" font-size="10.00">bool</text>
<polygon fill="none" stroke="black" points="253,-393 253,-590 440,-590 440,-393 253,-393"/>
</a>
</g>
</g>
<!-- Node_Ja_106 -->
<g id="node4" class="node">
<title>Node_Ja_106</title>
<g id="a_node4"><a xlink:title="proto.GetScannerRequest">
<polygon fill="#fffaf0" stroke="transparent" points="287.5,-334.5 287.5,-366.5 405.5,-366.5 405.5,-334.5 287.5,-334.5"/>
<polygon fill="#e31a1c" stroke="transparent" points="288.5,-350.5 288.5,-365.5 404.5,-365.5 404.5,-350.5 288.5,-350.5"/>
<text text-anchor="start" x="290.5" y="-356.5" font-family="Ubuntu" font-weight="bold" font-size="10.00">GetScannerRequest</text>
<text text-anchor="start" x="329.5" y="-340.5" font-family="Ubuntu" font-size="10.00">1</text>
<text text-anchor="start" x="340.5" y="-340.5" font-family="Ubuntu" font-size="10.00">key</text>
<polygon fill="#a6cee3" stroke="transparent" points="366.5,-335.5 366.5,-350.5 404.5,-350.5 404.5,-335.5 366.5,-335.5"/>
<text text-anchor="start" x="374.5" y="-341.5" font-family="Ubuntu" font-style="italic" font-size="10.00">string</text>
<polygon fill="none" stroke="black" points="287.5,-334.5 287.5,-366.5 405.5,-366.5 405.5,-334.5 287.5,-334.5"/>
</a>
</g>
</g>
<!-- Node_Ja_108 -->
<g id="node5" class="node">
<title>Node_Ja_108</title>
<g id="a_node5"><a xlink:title="ScannerService">
<polygon fill="#ffd700" stroke="transparent" points="8,-299 8,-406 201,-406 201,-299 8,-299"/>
<polygon fill="#ff7f50" stroke="transparent" points="9.5,-389.5 9.5,-404.5 200.5,-404.5 200.5,-389.5 9.5,-389.5"/>
<text text-anchor="start" x="109.5" y="-395.5" font-family="Ubuntu" font-weight="bold" font-size="10.00">ScannerService</text>
<text text-anchor="start" x="11.5" y="-380.5" font-family="Ubuntu" font-weight="bold" font-size="10.00">StartScan</text>
<text text-anchor="start" x="83.5" y="-379.5" font-family="Ubuntu" font-size="10.00">ParamsScannerRequest</text>
<polygon fill="#ff7f50" stroke="transparent" points="77.5,-359.5 77.5,-374.5 81.5,-374.5 81.5,-359.5 77.5,-359.5"/>
<polygon fill="#ff7f50" stroke="transparent" points="81.5,-359.5 81.5,-374.5 200.5,-374.5 200.5,-359.5 81.5,-359.5"/>
<text text-anchor="start" x="119.5" y="-364.5" font-family="Ubuntu" font-size="10.00">ServerResponse</text>
<text text-anchor="start" x="11.5" y="-350.5" font-family="Ubuntu" font-weight="bold" font-size="10.00">GetScan</text>
<text text-anchor="start" x="101.5" y="-349.5" font-family="Ubuntu" font-size="10.00">GetScannerRequest</text>
<polygon fill="#ff7f50" stroke="transparent" points="77.5,-329.5 77.5,-344.5 81.5,-344.5 81.5,-329.5 77.5,-329.5"/>
<polygon fill="#ff7f50" stroke="transparent" points="81.5,-329.5 81.5,-344.5 200.5,-344.5 200.5,-329.5 81.5,-329.5"/>
<text text-anchor="start" x="119.5" y="-334.5" font-family="Ubuntu" font-size="10.00">ServerResponse</text>
<text text-anchor="start" x="11.5" y="-320.5" font-family="Ubuntu" font-weight="bold" font-size="10.00">DeleteScan</text>
<text text-anchor="start" x="101.5" y="-319.5" font-family="Ubuntu" font-size="10.00">GetScannerRequest</text>
<polygon fill="#ff7f50" stroke="transparent" points="77.5,-299.5 77.5,-314.5 81.5,-314.5 81.5,-299.5 77.5,-299.5"/>
<polygon fill="#ff7f50" stroke="transparent" points="81.5,-299.5 81.5,-314.5 200.5,-314.5 200.5,-299.5 81.5,-299.5"/>
<text text-anchor="start" x="119.5" y="-304.5" font-family="Ubuntu" font-size="10.00">ServerResponse</text>
<polygon fill="none" stroke="black" points="8,-299 8,-406 201,-406 201,-299 8,-299"/>
</a>
</g>
</g>
<!-- Node_Ja_108&#45;&gt;Node_Ja_105 -->
<g id="edge8" class="edge">
<title>Node_Ja_108:e&#45;&gt;Node_Ja_105:header</title>
<g id="a_edge8"><a xlink:title="Ja_108 &#45;&#45;&gt; Ja_105">
<path fill="none" stroke="#000000" d="M201.5,-382.5C289.16,-382.5 172.44,-565.51 243.34,-580.52"/>
<polygon fill="#000000" stroke="#000000" points="243.21,-584.03 253.5,-581.5 243.88,-577.06 243.21,-584.03"/>
</a>
</g>
</g>
<!-- Node_Ja_108&#45;&gt;Node_Ja_106 -->
<g id="edge3" class="edge">
<title>Node_Ja_108:e&#45;&gt;Node_Ja_106:header</title>
<g id="a_edge3"><a xlink:title="Ja_108 &#45;&#45;&gt; Ja_106">
<path fill="none" stroke="#000000" d="M201.5,-351.5C236.25,-351.5 247.15,-357.25 277.43,-358.33"/>
<polygon fill="#000000" stroke="#000000" points="277.44,-361.83 287.5,-358.5 277.56,-354.83 277.44,-361.83"/>
</a>
</g>
</g>
<!-- Node_Ja_108&#45;&gt;Node_Ja_106 -->
<g id="edge10" class="edge">
<title>Node_Ja_108:e&#45;&gt;Node_Ja_106:header</title>
<g id="a_edge10"><a xlink:title="Ja_108 &#45;&#45;&gt; Ja_106">
<path fill="none" stroke="#000000" d="M201.5,-321.5C239.37,-321.5 245.08,-352.15 277.17,-357.66"/>
<polygon fill="#000000" stroke="#000000" points="277.25,-361.18 287.5,-358.5 277.82,-354.2 277.25,-361.18"/>
</a>
</g>
</g>
<!-- Node_Ja_107 -->
<g id="node9" class="node">
<title>Node_Ja_107</title>
<g id="a_node9"><a xlink:title="proto.ServerResponse">
<polygon fill="#fffaf0" stroke="transparent" points="264.5,-231 264.5,-308 428.5,-308 428.5,-231 264.5,-231"/>
<polygon fill="#e31a1c" stroke="transparent" points="265.5,-291.5 265.5,-306.5 427.5,-306.5 427.5,-291.5 265.5,-291.5"/>
<text text-anchor="start" x="332.5" y="-297.5" font-family="Ubuntu" font-weight="bold" font-size="10.00">ServerResponse</text>
<text text-anchor="start" x="271.5" y="-281.5" font-family="Ubuntu" font-size="10.00">1</text>
<text text-anchor="start" x="282.5" y="-281.5" font-family="Ubuntu" font-size="10.00">success</text>
<polygon fill="#a6cee3" stroke="transparent" points="323.5,-276.5 323.5,-291.5 427.5,-291.5 427.5,-276.5 323.5,-276.5"/>
<text text-anchor="start" x="403.5" y="-282.5" font-family="Ubuntu" font-style="italic" font-size="10.00">bool</text>
<text text-anchor="start" x="271.5" y="-266.5" font-family="Ubuntu" font-size="10.00">2</text>
<text text-anchor="start" x="282.5" y="-266.5" font-family="Ubuntu" font-size="10.00">key</text>
<polygon fill="#a6cee3" stroke="transparent" points="323.5,-261.5 323.5,-276.5 427.5,-276.5 427.5,-261.5 323.5,-261.5"/>
<text text-anchor="start" x="397.5" y="-267.5" font-family="Ubuntu" font-style="italic" font-size="10.00">string</text>
<text text-anchor="start" x="271.5" y="-251.5" font-family="Ubuntu" font-size="10.00">3</text>
<text text-anchor="start" x="282.5" y="-251.5" font-family="Ubuntu" font-size="10.00">value</text>
<polygon fill="#fb9a99" stroke="transparent" points="323.5,-246.5 323.5,-261.5 427.5,-261.5 427.5,-246.5 323.5,-246.5"/>
<text text-anchor="start" x="325.5" y="-252.5" font-family="Ubuntu" font-weight="bold" font-size="10.00">ScannerResponse</text>
<text text-anchor="start" x="271.5" y="-236.5" font-family="Ubuntu" font-size="10.00">4</text>
<text text-anchor="start" x="282.5" y="-236.5" font-family="Ubuntu" font-size="10.00">error</text>
<polygon fill="#a6cee3" stroke="transparent" points="323.5,-231.5 323.5,-246.5 427.5,-246.5 427.5,-231.5 323.5,-231.5"/>
<text text-anchor="start" x="397.5" y="-237.5" font-family="Ubuntu" font-style="italic" font-size="10.00">string</text>
<polygon fill="none" stroke="black" points="264.5,-231 264.5,-308 428.5,-308 428.5,-231 264.5,-231"/>
</a>
</g>
</g>
<!-- Node_Ja_108&#45;&gt;Node_Ja_107 -->
<g id="edge4" class="edge">
<title>Node_Ja_108:e&#45;&gt;Node_Ja_107:header</title>
<g id="a_edge4"><a xlink:title="Ja_108 &#45;&#45;&gt; Ja_107">
<path fill="none" stroke="#000000" d="M201.5,-336.5C230.17,-336.5 232.01,-307.66 254.39,-300.91"/>
<polygon fill="#000000" stroke="#000000" points="255.08,-304.34 264.5,-299.5 254.11,-297.41 255.08,-304.34"/>
</a>
</g>
</g>
<!-- Node_Ja_108&#45;&gt;Node_Ja_107 -->
<g id="edge9" class="edge">
<title>Node_Ja_108:e&#45;&gt;Node_Ja_107:header</title>
<g id="a_edge9"><a xlink:title="Ja_108 &#45;&#45;&gt; Ja_107">
<path fill="none" stroke="#000000" d="M201.5,-367.5C238.84,-367.5 226.41,-311.65 254.41,-301.18"/>
<polygon fill="#000000" stroke="#000000" points="255.21,-304.6 264.5,-299.5 254.06,-297.69 255.21,-304.6"/>
</a>
</g>
</g>
<!-- Node_Ja_108&#45;&gt;Node_Ja_107 -->
<g id="edge11" class="edge">
<title>Node_Ja_108:e&#45;&gt;Node_Ja_107:header</title>
<g id="a_edge11"><a xlink:title="Ja_108 &#45;&#45;&gt; Ja_107">
<path fill="none" stroke="#000000" d="M201.5,-306.5C225.93,-306.5 234.18,-301.24 254.31,-299.84"/>
<polygon fill="#000000" stroke="#000000" points="254.62,-303.33 264.5,-299.5 254.39,-296.33 254.62,-303.33"/>
</a>
</g>
</g>
<!-- Node_Ja_100 -->
<g id="node6" class="node">
<title>Node_Ja_100</title>
<g id="a_node6"><a xlink:title="proto.Host">
<polygon fill="#fffaf0" stroke="transparent" points="897.5,-205.5 897.5,-267.5 1003.5,-267.5 1003.5,-205.5 897.5,-205.5"/>
<polygon fill="#e31a1c" stroke="transparent" points="898.5,-251.5 898.5,-266.5 1002.5,-266.5 1002.5,-251.5 898.5,-251.5"/>
<text text-anchor="start" x="974.5" y="-257.5" font-family="Ubuntu" font-weight="bold" font-size="10.00">Host</text>
<text text-anchor="start" x="904.5" y="-241.5" font-family="Ubuntu" font-size="10.00">1</text>
<text text-anchor="start" x="915.5" y="-241.5" font-family="Ubuntu" font-size="10.00">address</text>
<polygon fill="#a6cee3" stroke="transparent" points="970.5,-236.5 970.5,-251.5 1002.5,-251.5 1002.5,-236.5 970.5,-236.5"/>
<text text-anchor="start" x="972.5" y="-242.5" font-family="Ubuntu" font-style="italic" font-size="10.00">string</text>
<text text-anchor="start" x="904.5" y="-226.5" font-family="Ubuntu" font-size="10.00">2</text>
<text text-anchor="start" x="915.5" y="-226.5" font-family="Ubuntu" font-size="10.00">os_version</text>
<polygon fill="#a6cee3" stroke="transparent" points="970.5,-221.5 970.5,-236.5 1002.5,-236.5 1002.5,-221.5 970.5,-221.5"/>
<text text-anchor="start" x="972.5" y="-227.5" font-family="Ubuntu" font-style="italic" font-size="10.00">string</text>
<text text-anchor="start" x="904.5" y="-211.5" font-family="Ubuntu" font-size="10.00">3</text>
<text text-anchor="start" x="915.5" y="-211.5" font-family="Ubuntu" font-size="10.00">state</text>
<polygon fill="#a6cee3" stroke="transparent" points="970.5,-206.5 970.5,-221.5 1002.5,-221.5 1002.5,-206.5 970.5,-206.5"/>
<text text-anchor="start" x="972.5" y="-212.5" font-family="Ubuntu" font-style="italic" font-size="10.00">string</text>
<polygon fill="none" stroke="black" points="897.5,-205.5 897.5,-267.5 1003.5,-267.5 1003.5,-205.5 897.5,-205.5"/>
</a>
</g>
</g>
<!-- Node_Ja_103&#45;&gt;Node_Ja_102 -->
<g id="edge1" class="edge">
<title>Node_Ja_103:e&#45;&gt;Node_Ja_102:header</title>
<g id="a_edge1"><a xlink:title="Ja_103 &#45;&#45;&gt; Ja_102">
<path fill="none" stroke="#000000" d="M818.5,-207.5C842.66,-207.5 842.94,-180.91 860.38,-173.44"/>
<polygon fill="#000000" stroke="#000000" points="861.34,-176.82 870.5,-171.5 860.02,-169.94 861.34,-176.82"/>
</a>
</g>
</g>
<!-- Node_Ja_103&#45;&gt;Node_Ja_100 -->
<g id="edge6" class="edge">
<title>Node_Ja_103:e&#45;&gt;Node_Ja_100:header</title>
<g id="a_edge6"><a xlink:title="Ja_103 &#45;&#45;&gt; Ja_100">
<path fill="none" stroke="#000000" d="M818.5,-222.5C853.64,-222.5 858.13,-252.89 887.52,-258.59"/>
<polygon fill="#000000" stroke="#000000" points="887.22,-262.07 897.5,-259.5 887.86,-255.1 887.22,-262.07"/>
</a>
</g>
</g>
<!-- Node_Ja_107&#45;&gt;Node_Ja_104 -->
<g id="edge7" class="edge">
<title>Node_Ja_107:e&#45;&gt;Node_Ja_104:header</title>
<g id="a_edge7"><a xlink:title="Ja_107 &#45;&#45;&gt; Ja_104">
<path fill="none" stroke="#000000" d="M428.5,-253.5C453.28,-253.5 461.87,-253.5 482.47,-253.5"/>
<polygon fill="#000000" stroke="#000000" points="482.5,-257 492.5,-253.5 482.5,-250 482.5,-257"/>
</a>
</g>
</g>
</g>
</svg>
