<?xml version="1.0" encoding="UTF-8" standalone="no"?>
<!DOCTYPE svg PUBLIC "-//W3C//DTD SVG 1.1//EN"
 "http://www.w3.org/Graphics/SVG/1.1/DTD/svg11.dtd">
<!-- Generated by graphviz version 2.47.3 (0)
 -->
<!-- Title: protodot Pages: 1 -->
<svg width="1329pt" height="613pt"
 viewBox="0.00 0.00 1329.00 612.50" xmlns="http://www.w3.org/2000/svg" xmlns:xlink="http://www.w3.org/1999/xlink">
<g id="graph0" class="graph" transform="scale(1 1) rotate(0) translate(4 608.5)">
<title>protodot</title>
<g id="a_graph0"><a xlink:title="proto">
<text text-anchor="middle" x="660.5" y="-7.8" font-family="Times,serif" font-size="14.00">proto</text>
</a>
</g>
<g id="clust1" class="cluster">
<title>cluster_dfe805b7589f</title>
<g id="a_clust1"><a xlink:title="proto">
<polygon fill="#caff70" stroke="black" points="806,-31 806,-288 948,-288 948,-31 806,-31"/>
<text text-anchor="middle" x="877" y="-272.8" font-family="Times,serif" font-size="14.00">proto</text>
</a>
</g>
</g>
<!-- Node_Ja_107 -->
<g id="node1" class="node">
<title>Node_Ja_107</title>
<g id="a_node1"><a xlink:title="proto.ScannerServiceStatus">
<polygon fill="#fffaf0" stroke="transparent" points="378,-50.5 378,-97.5 509,-97.5 509,-50.5 378,-50.5"/>
<polygon fill="#e31a1c" stroke="transparent" points="379.5,-81 379.5,-96 508.5,-96 508.5,-81 379.5,-81"/>
<text text-anchor="start" x="381.5" y="-87" font-family="Ubuntu" font-weight="bold" font-size="10.00">ScannerServiceStatus</text>
<text text-anchor="start" x="416.5" y="-71" font-family="Ubuntu" font-size="10.00">1</text>
<text text-anchor="start" x="427.5" y="-71" font-family="Ubuntu" font-size="10.00">failed</text>
<polygon fill="#a6cee3" stroke="transparent" points="473.5,-66 473.5,-81 508.5,-81 508.5,-66 473.5,-66"/>
<text text-anchor="start" x="481.5" y="-72" font-family="Ubuntu" font-style="italic" font-size="10.00">int64</text>
<text text-anchor="start" x="416.5" y="-56" font-family="Ubuntu" font-size="10.00">2</text>
<text text-anchor="start" x="427.5" y="-56" font-family="Ubuntu" font-size="10.00">success</text>
<polygon fill="#a6cee3" stroke="transparent" points="473.5,-51 473.5,-66 508.5,-66 508.5,-51 473.5,-51"/>
<text text-anchor="start" x="481.5" y="-57" font-family="Ubuntu" font-style="italic" font-size="10.00">int64</text>
<polygon fill="none" stroke="black" points="378,-50.5 378,-97.5 509,-97.5 509,-50.5 378,-50.5"/>
</a>
</g>
</g>
<!-- Node_Ja_112 -->
<g id="node2" class="node">
<title>Node_Ja_112</title>
<g id="a_node2"><a xlink:title="ScannerService">
<polygon fill="#ffd700" stroke="transparent" points="8,-102.5 8,-329.5 298,-329.5 298,-102.5 8,-102.5"/>
<polygon fill="#ff7f50" stroke="transparent" points="9,-313 9,-328 297,-328 297,-313 9,-313"/>
<text text-anchor="start" x="206" y="-319" font-family="Ubuntu" font-weight="bold" font-size="10.00">ScannerService</text>
<text text-anchor="start" x="11" y="-304" font-family="Ubuntu" font-weight="bold" font-size="10.00">StartAsyncScan</text>
<text text-anchor="start" x="180" y="-303" font-family="Ubuntu" font-size="10.00">ParamsScannerRequest</text>
<polygon fill="#ff7f50" stroke="transparent" points="139,-283 139,-298 178,-298 178,-283 139,-283"/>
<polygon fill="#ff7f50" stroke="transparent" points="178,-283 178,-298 297,-298 297,-283 178,-283"/>
<text text-anchor="start" x="216" y="-288" font-family="Ubuntu" font-size="10.00">ServerResponse</text>
<text text-anchor="start" x="11" y="-274" font-family="Ubuntu" font-weight="bold" font-size="10.00">StartScan</text>
<text text-anchor="start" x="180" y="-273" font-family="Ubuntu" font-size="10.00">ParamsScannerRequest</text>
<polygon fill="#ff7f50" stroke="transparent" points="139,-253 139,-268 178,-268 178,-253 139,-253"/>
<polygon fill="#ff7f50" stroke="transparent" points="178,-253 178,-268 297,-268 297,-253 178,-253"/>
<text text-anchor="start" x="216" y="-258" font-family="Ubuntu" font-size="10.00">ServerResponse</text>
<text text-anchor="start" x="11" y="-244" font-family="Ubuntu" font-weight="bold" font-size="10.00">GetScan</text>
<text text-anchor="start" x="198" y="-243" font-family="Ubuntu" font-size="10.00">GetScannerRequest</text>
<polygon fill="#ff7f50" stroke="transparent" points="139,-223 139,-238 178,-238 178,-223 139,-223"/>
<polygon fill="#ff7f50" stroke="transparent" points="178,-223 178,-238 297,-238 297,-223 178,-223"/>
<text text-anchor="start" x="216" y="-228" font-family="Ubuntu" font-size="10.00">ServerResponse</text>
<text text-anchor="start" x="11" y="-214" font-family="Ubuntu" font-weight="bold" font-size="10.00">DeleteScan</text>
<text text-anchor="start" x="198" y="-213" font-family="Ubuntu" font-size="10.00">GetScannerRequest</text>
<polygon fill="#ff7f50" stroke="transparent" points="139,-193 139,-208 178,-208 178,-193 139,-193"/>
<polygon fill="#ff7f50" stroke="transparent" points="178,-193 178,-208 297,-208 297,-193 178,-193"/>
<text text-anchor="start" x="216" y="-198" font-family="Ubuntu" font-size="10.00">ServerResponse</text>
<text text-anchor="start" x="11" y="-184" font-family="Ubuntu" font-weight="bold" font-size="10.00">ServiceControl</text>
<text text-anchor="start" x="184" y="-183" font-family="Ubuntu" font-size="10.00">ScannerServiceControl</text>
<polygon fill="#ff7f50" stroke="transparent" points="139,-163 139,-178 178,-178 178,-163 139,-163"/>
<polygon fill="#ff7f50" stroke="transparent" points="178,-163 178,-178 297,-178 297,-163 178,-163"/>
<text text-anchor="start" x="184" y="-168" font-family="Ubuntu" font-size="10.00">ScannerServiceControl</text>
<text text-anchor="start" x="11" y="-154" font-family="Ubuntu" font-weight="bold" font-size="10.00">StreamServiceControl</text>
<text text-anchor="start" x="184" y="-153" font-family="Ubuntu" font-size="10.00">ScannerServiceControl</text>
<polygon fill="#ff7f50" stroke="transparent" points="139,-133 139,-148 178,-148 178,-133 139,-133"/>
<text text-anchor="start" x="141" y="-138" font-family="Ubuntu" font-size="10.00">stream</text>
<polygon fill="#ff7f50" stroke="transparent" points="178,-133 178,-148 297,-148 297,-133 178,-133"/>
<text text-anchor="start" x="184" y="-138" font-family="Ubuntu" font-size="10.00">ScannerServiceControl</text>
<text text-anchor="start" x="11" y="-124" font-family="Ubuntu" font-weight="bold" font-size="10.00">StreamServiceStatus</text>
<text text-anchor="start" x="189" y="-123" font-family="Ubuntu" font-size="10.00">ScannerServiceStatus</text>
<polygon fill="#ff7f50" stroke="transparent" points="139,-103 139,-118 178,-118 178,-103 139,-103"/>
<text text-anchor="start" x="141" y="-108" font-family="Ubuntu" font-size="10.00">stream</text>
<polygon fill="#ff7f50" stroke="transparent" points="178,-103 178,-118 297,-118 297,-103 178,-103"/>
<text text-anchor="start" x="189" y="-108" font-family="Ubuntu" font-size="10.00">ScannerServiceStatus</text>
<polygon fill="none" stroke="black" points="8,-102.5 8,-329.5 298,-329.5 298,-102.5 8,-102.5"/>
</a>
</g>
</g>
<!-- Node_Ja_112&#45;&gt;Node_Ja_107 -->
<g id="edge2" class="edge">
<title>Node_Ja_112:e&#45;&gt;Node_Ja_107:header</title>
<g id="a_edge2"><a xlink:title="Ja_112 &#45;&#45;&gt; Ja_107">
<path fill="none" stroke="#000000" d="M298,-125C333.52,-125 338.59,-95.43 368.39,-89.89"/>
<polygon fill="#000000" stroke="#000000" points="368.85,-93.36 378.5,-89 368.23,-86.39 368.85,-93.36"/>
</a>
</g>
</g>
<!-- Node_Ja_112&#45;&gt;Node_Ja_107 -->
<g id="edge9" class="edge">
<title>Node_Ja_112:e&#45;&gt;Node_Ja_107:header</title>
<g id="a_edge9"><a xlink:title="Ja_112 &#45;&#45;&gt; Ja_107">
<path fill="none" stroke="#000000" d="M298,-110C331.36,-110 339.96,-92.9 368.48,-89.56"/>
<polygon fill="#000000" stroke="#000000" points="368.71,-93.05 378.5,-89 368.32,-86.07 368.71,-93.05"/>
</a>
</g>
</g>
<!-- Node_Ja_106 -->
<g id="node4" class="node">
<title>Node_Ja_106</title>
<g id="a_node4"><a xlink:title="proto.ParamsScannerRequest">
<polygon fill="#fffaf0" stroke="transparent" points="350,-343.5 350,-600.5 537,-600.5 537,-343.5 350,-343.5"/>
<polygon fill="#e31a1c" stroke="transparent" points="351.5,-584 351.5,-599 536.5,-599 536.5,-584 351.5,-584"/>
<text text-anchor="start" x="400.5" y="-590" font-family="Ubuntu" font-weight="bold" font-size="10.00">ParamsScannerRequest</text>
<text text-anchor="start" x="363.5" y="-574" font-family="Ubuntu" font-size="10.00">1</text>
<text text-anchor="start" x="374.5" y="-574" font-family="Ubuntu" font-size="10.00">hosts</text>
<polygon fill="#a6cee3" stroke="transparent" points="504.5,-569 504.5,-584 536.5,-584 536.5,-569 504.5,-569"/>
<text text-anchor="start" x="506.5" y="-575" font-family="Ubuntu" font-style="italic" font-size="10.00">string</text>
<text text-anchor="start" x="363.5" y="-559" font-family="Ubuntu" font-size="10.00">2</text>
<text text-anchor="start" x="374.5" y="-559" font-family="Ubuntu" font-size="10.00">ports</text>
<polygon fill="#a6cee3" stroke="transparent" points="504.5,-554 504.5,-569 536.5,-569 536.5,-554 504.5,-554"/>
<text text-anchor="start" x="506.5" y="-560" font-family="Ubuntu" font-style="italic" font-size="10.00">string</text>
<text text-anchor="start" x="363.5" y="-544" font-family="Ubuntu" font-size="10.00">3</text>
<text text-anchor="start" x="374.5" y="-544" font-family="Ubuntu" font-size="10.00">with_aggressive_scan</text>
<polygon fill="#a6cee3" stroke="transparent" points="504.5,-539 504.5,-554 536.5,-554 536.5,-539 504.5,-539"/>
<text text-anchor="start" x="512.5" y="-545" font-family="Ubuntu" font-style="italic" font-size="10.00">bool</text>
<text text-anchor="start" x="363.5" y="-529" font-family="Ubuntu" font-size="10.00">4</text>
<text text-anchor="start" x="374.5" y="-529" font-family="Ubuntu" font-size="10.00">with_syn_scan</text>
<polygon fill="#a6cee3" stroke="transparent" points="504.5,-524 504.5,-539 536.5,-539 536.5,-524 504.5,-524"/>
<text text-anchor="start" x="512.5" y="-530" font-family="Ubuntu" font-style="italic" font-size="10.00">bool</text>
<text text-anchor="start" x="363.5" y="-514" font-family="Ubuntu" font-size="10.00">5</text>
<text text-anchor="start" x="374.5" y="-514" font-family="Ubuntu" font-size="10.00">with_null_scan</text>
<polygon fill="#a6cee3" stroke="transparent" points="504.5,-509 504.5,-524 536.5,-524 536.5,-509 504.5,-509"/>
<text text-anchor="start" x="512.5" y="-515" font-family="Ubuntu" font-style="italic" font-size="10.00">bool</text>
<text text-anchor="start" x="363.5" y="-499" font-family="Ubuntu" font-size="10.00">6</text>
<text text-anchor="start" x="374.5" y="-499" font-family="Ubuntu" font-size="10.00">service_version_detection</text>
<polygon fill="#a6cee3" stroke="transparent" points="504.5,-494 504.5,-509 536.5,-509 536.5,-494 504.5,-494"/>
<text text-anchor="start" x="512.5" y="-500" font-family="Ubuntu" font-style="italic" font-size="10.00">bool</text>
<text text-anchor="start" x="363.5" y="-484" font-family="Ubuntu" font-size="10.00">7</text>
<text text-anchor="start" x="374.5" y="-484" font-family="Ubuntu" font-size="10.00">os_detection</text>
<polygon fill="#a6cee3" stroke="transparent" points="504.5,-479 504.5,-494 536.5,-494 536.5,-479 504.5,-479"/>
<text text-anchor="start" x="512.5" y="-485" font-family="Ubuntu" font-style="italic" font-size="10.00">bool</text>
<text text-anchor="start" x="363.5" y="-469" font-family="Ubuntu" font-size="10.00">8</text>
<text text-anchor="start" x="374.5" y="-469" font-family="Ubuntu" font-size="10.00">service_default_scripts</text>
<polygon fill="#a6cee3" stroke="transparent" points="504.5,-464 504.5,-479 536.5,-479 536.5,-464 504.5,-464"/>
<text text-anchor="start" x="512.5" y="-470" font-family="Ubuntu" font-style="italic" font-size="10.00">bool</text>
<text text-anchor="start" x="363.5" y="-454" font-family="Ubuntu" font-size="10.00">9</text>
<text text-anchor="start" x="374.5" y="-454" font-family="Ubuntu" font-size="10.00">timeout</text>
<polygon fill="#a6cee3" stroke="transparent" points="504.5,-449 504.5,-464 536.5,-464 536.5,-449 504.5,-449"/>
<text text-anchor="start" x="509.5" y="-455" font-family="Ubuntu" font-style="italic" font-size="10.00">int32</text>
<text text-anchor="start" x="357.5" y="-439" font-family="Ubuntu" font-size="10.00">10</text>
<text text-anchor="start" x="374.5" y="-439" font-family="Ubuntu" font-size="10.00">ping_only</text>
<polygon fill="#a6cee3" stroke="transparent" points="504.5,-434 504.5,-449 536.5,-449 536.5,-434 504.5,-434"/>
<text text-anchor="start" x="512.5" y="-440" font-family="Ubuntu" font-style="italic" font-size="10.00">bool</text>
<text text-anchor="start" x="357.5" y="-424" font-family="Ubuntu" font-size="10.00">11</text>
<text text-anchor="start" x="374.5" y="-424" font-family="Ubuntu" font-size="10.00">retention_time</text>
<polygon fill="#a6cee3" stroke="transparent" points="504.5,-419 504.5,-434 536.5,-434 536.5,-419 504.5,-419"/>
<text text-anchor="start" x="509.5" y="-425" font-family="Ubuntu" font-style="italic" font-size="10.00">int32</text>
<text text-anchor="start" x="357.5" y="-409" font-family="Ubuntu" font-size="10.00">12</text>
<text text-anchor="start" x="374.5" y="-409" font-family="Ubuntu" font-size="10.00">fast_mode</text>
<polygon fill="#a6cee3" stroke="transparent" points="504.5,-404 504.5,-419 536.5,-419 536.5,-404 504.5,-404"/>
<text text-anchor="start" x="512.5" y="-410" font-family="Ubuntu" font-style="italic" font-size="10.00">bool</text>
<text text-anchor="start" x="357.5" y="-394" font-family="Ubuntu" font-size="10.00">13</text>
<text text-anchor="start" x="374.5" y="-394" font-family="Ubuntu" font-size="10.00">key</text>
<polygon fill="#a6cee3" stroke="transparent" points="504.5,-389 504.5,-404 536.5,-404 536.5,-389 504.5,-389"/>
<text text-anchor="start" x="506.5" y="-395" font-family="Ubuntu" font-style="italic" font-size="10.00">string</text>
<text text-anchor="start" x="357.5" y="-379" font-family="Ubuntu" font-size="10.00">14</text>
<text text-anchor="start" x="374.5" y="-379" font-family="Ubuntu" font-size="10.00">defer_duration</text>
<polygon fill="#a6cee3" stroke="transparent" points="504.5,-374 504.5,-389 536.5,-389 536.5,-374 504.5,-374"/>
<text text-anchor="start" x="509.5" y="-380" font-family="Ubuntu" font-style="italic" font-size="10.00">int64</text>
<text text-anchor="start" x="357.5" y="-364" font-family="Ubuntu" font-size="10.00">15</text>
<text text-anchor="start" x="374.5" y="-364" font-family="Ubuntu" font-size="10.00">crontab</text>
<polygon fill="#a6cee3" stroke="transparent" points="504.5,-359 504.5,-374 536.5,-374 536.5,-359 504.5,-359"/>
<text text-anchor="start" x="506.5" y="-365" font-family="Ubuntu" font-style="italic" font-size="10.00">string</text>
<text text-anchor="start" x="357.5" y="-349" font-family="Ubuntu" font-size="10.00">16</text>
<text text-anchor="start" x="374.5" y="-349" font-family="Ubuntu" font-size="10.00">scan_speed</text>
<polygon fill="#a6cee3" stroke="transparent" points="504.5,-344 504.5,-359 536.5,-359 536.5,-344 504.5,-344"/>
<text text-anchor="start" x="509.5" y="-350" font-family="Ubuntu" font-style="italic" font-size="10.00">int32</text>
<polygon fill="none" stroke="black" points="350,-343.5 350,-600.5 537,-600.5 537,-343.5 350,-343.5"/>
</a>
</g>
</g>
<!-- Node_Ja_112&#45;&gt;Node_Ja_106 -->
<g id="edge6" class="edge">
<title>Node_Ja_112:e&#45;&gt;Node_Ja_106:header</title>
<g id="a_edge6"><a xlink:title="Ja_112 &#45;&#45;&gt; Ja_106">
<path fill="none" stroke="#000000" d="M298,-276C365.43,-276 288.35,-559.55 340.53,-589.46"/>
<polygon fill="#000000" stroke="#000000" points="339.95,-592.92 350.5,-592 341.68,-586.14 339.95,-592.92"/>
</a>
</g>
</g>
<!-- Node_Ja_112&#45;&gt;Node_Ja_106 -->
<g id="edge12" class="edge">
<title>Node_Ja_112:e&#45;&gt;Node_Ja_106:header</title>
<g id="a_edge12"><a xlink:title="Ja_112 &#45;&#45;&gt; Ja_106">
<path fill="none" stroke="#000000" d="M298,-306C423.58,-306 232.66,-576.03 340.31,-591.32"/>
<polygon fill="#000000" stroke="#000000" points="340.29,-594.83 350.5,-592 340.75,-587.85 340.29,-594.83"/>
</a>
</g>
</g>
<!-- Node_Ja_108 -->
<g id="node7" class="node">
<title>Node_Ja_108</title>
<g id="a_node7"><a xlink:title="proto.ScannerServiceControl">
<polygon fill="#fffaf0" stroke="transparent" points="375.5,-124 375.5,-156 511.5,-156 511.5,-124 375.5,-124"/>
<polygon fill="#e31a1c" stroke="transparent" points="376.5,-140 376.5,-155 510.5,-155 510.5,-140 376.5,-140"/>
<text text-anchor="start" x="378.5" y="-146" font-family="Ubuntu" font-weight="bold" font-size="10.00">ScannerServiceControl</text>
<text text-anchor="start" x="400.5" y="-130" font-family="Ubuntu" font-size="10.00">1</text>
<text text-anchor="start" x="411.5" y="-130" font-family="Ubuntu" font-size="10.00">state</text>
<polygon fill="#b2df8a" stroke="transparent" points="441.5,-125 441.5,-140 510.5,-140 510.5,-125 441.5,-125"/>
<text text-anchor="start" x="446.5" y="-131" font-family="Ubuntu" text-decoration="underline" font-size="10.00">ServiceState</text>
<polygon fill="none" stroke="black" points="375.5,-124 375.5,-156 511.5,-156 511.5,-124 375.5,-124"/>
</a>
</g>
</g>
<!-- Node_Ja_112&#45;&gt;Node_Ja_108 -->
<g id="edge8" class="edge">
<title>Node_Ja_112:e&#45;&gt;Node_Ja_108:header</title>
<g id="a_edge8"><a xlink:title="Ja_112 &#45;&#45;&gt; Ja_108">
<path fill="none" stroke="#000000" d="M298,-185C332.44,-185 336.75,-154.87 365.31,-148.99"/>
<polygon fill="#000000" stroke="#000000" points="365.89,-152.45 375.5,-148 365.21,-145.48 365.89,-152.45"/>
</a>
</g>
</g>
<!-- Node_Ja_112&#45;&gt;Node_Ja_108 -->
<g id="edge15" class="edge">
<title>Node_Ja_112:e&#45;&gt;Node_Ja_108:header</title>
<g id="a_edge15"><a xlink:title="Ja_112 &#45;&#45;&gt; Ja_108">
<path fill="none" stroke="#000000" d="M298,-155C328.94,-155 338.87,-149.4 365.37,-148.22"/>
<polygon fill="#000000" stroke="#000000" points="365.58,-151.71 375.5,-148 365.43,-144.72 365.58,-151.71"/>
</a>
</g>
</g>
<!-- Node_Ja_112&#45;&gt;Node_Ja_108 -->
<g id="edge20" class="edge">
<title>Node_Ja_112:e&#45;&gt;Node_Ja_108:header</title>
<g id="a_edge20"><a xlink:title="Ja_112 &#45;&#45;&gt; Ja_108">
<path fill="none" stroke="#000000" d="M298,-170C330.17,-170 338.19,-152.24 365.45,-148.63"/>
<polygon fill="#000000" stroke="#000000" points="365.74,-152.12 375.5,-148 365.3,-145.14 365.74,-152.12"/>
</a>
</g>
</g>
<!-- Node_Ja_112&#45;&gt;Node_Ja_108 -->
<g id="edge21" class="edge">
<title>Node_Ja_112:e&#45;&gt;Node_Ja_108:header</title>
<g id="a_edge21"><a xlink:title="Ja_112 &#45;&#45;&gt; Ja_108">
<path fill="none" stroke="#000000" d="M298,-140C328.98,-140 338.84,-146.4 365.36,-147.75"/>
<polygon fill="#000000" stroke="#000000" points="365.42,-151.25 375.5,-148 365.59,-144.26 365.42,-151.25"/>
</a>
</g>
</g>
<!-- Node_Ja_110 -->
<g id="node9" class="node">
<title>Node_Ja_110</title>
<g id="a_node9"><a xlink:title="proto.GetScannerRequest">
<polygon fill="#fffaf0" stroke="transparent" points="384.5,-182 384.5,-214 502.5,-214 502.5,-182 384.5,-182"/>
<polygon fill="#e31a1c" stroke="transparent" points="385.5,-198 385.5,-213 501.5,-213 501.5,-198 385.5,-198"/>
<text text-anchor="start" x="387.5" y="-204" font-family="Ubuntu" font-weight="bold" font-size="10.00">GetScannerRequest</text>
<text text-anchor="start" x="426.5" y="-188" font-family="Ubuntu" font-size="10.00">1</text>
<text text-anchor="start" x="437.5" y="-188" font-family="Ubuntu" font-size="10.00">key</text>
<polygon fill="#a6cee3" stroke="transparent" points="463.5,-183 463.5,-198 501.5,-198 501.5,-183 463.5,-183"/>
<text text-anchor="start" x="471.5" y="-189" font-family="Ubuntu" font-style="italic" font-size="10.00">string</text>
<polygon fill="none" stroke="black" points="384.5,-182 384.5,-214 502.5,-214 502.5,-182 384.5,-182"/>
</a>
</g>
</g>
<!-- Node_Ja_112&#45;&gt;Node_Ja_110 -->
<g id="edge14" class="edge">
<title>Node_Ja_112:e&#45;&gt;Node_Ja_110:header</title>
<g id="a_edge14"><a xlink:title="Ja_112 &#45;&#45;&gt; Ja_110">
<path fill="none" stroke="#000000" d="M298,-215C333.03,-215 343.86,-207.61 374.36,-206.22"/>
<polygon fill="#000000" stroke="#000000" points="374.58,-209.72 384.5,-206 374.43,-202.72 374.58,-209.72"/>
</a>
</g>
</g>
<!-- Node_Ja_112&#45;&gt;Node_Ja_110 -->
<g id="edge18" class="edge">
<title>Node_Ja_112:e&#45;&gt;Node_Ja_110:header</title>
<g id="a_edge18"><a xlink:title="Ja_112 &#45;&#45;&gt; Ja_110">
<path fill="none" stroke="#000000" d="M298,-246C336.72,-246 341.54,-212.58 374.43,-206.84"/>
<polygon fill="#000000" stroke="#000000" points="374.82,-210.31 384.5,-206 374.24,-203.34 374.82,-210.31"/>
</a>
</g>
</g>
<!-- Node_Ja_111 -->
<g id="node10" class="node">
<title>Node_Ja_111</title>
<g id="a_node10"><a xlink:title="proto.ServerResponse">
<polygon fill="#fffaf0" stroke="transparent" points="361.5,-240.5 361.5,-317.5 525.5,-317.5 525.5,-240.5 361.5,-240.5"/>
<polygon fill="#e31a1c" stroke="transparent" points="362.5,-301 362.5,-316 524.5,-316 524.5,-301 362.5,-301"/>
<text text-anchor="start" x="429.5" y="-307" font-family="Ubuntu" font-weight="bold" font-size="10.00">ServerResponse</text>
<text text-anchor="start" x="368.5" y="-291" font-family="Ubuntu" font-size="10.00">1</text>
<text text-anchor="start" x="379.5" y="-291" font-family="Ubuntu" font-size="10.00">success</text>
<polygon fill="#a6cee3" stroke="transparent" points="420.5,-286 420.5,-301 524.5,-301 524.5,-286 420.5,-286"/>
<text text-anchor="start" x="500.5" y="-292" font-family="Ubuntu" font-style="italic" font-size="10.00">bool</text>
<text text-anchor="start" x="368.5" y="-276" font-family="Ubuntu" font-size="10.00">2</text>
<text text-anchor="start" x="379.5" y="-276" font-family="Ubuntu" font-size="10.00">key</text>
<polygon fill="#a6cee3" stroke="transparent" points="420.5,-271 420.5,-286 524.5,-286 524.5,-271 420.5,-271"/>
<text text-anchor="start" x="494.5" y="-277" font-family="Ubuntu" font-style="italic" font-size="10.00">string</text>
<text text-anchor="start" x="368.5" y="-261" font-family="Ubuntu" font-size="10.00">3</text>
<text text-anchor="start" x="379.5" y="-261" font-family="Ubuntu" font-size="10.00">value</text>
<polygon fill="#fb9a99" stroke="transparent" points="420.5,-256 420.5,-271 524.5,-271 524.5,-256 420.5,-256"/>
<text text-anchor="start" x="422.5" y="-262" font-family="Ubuntu" font-weight="bold" font-size="10.00">ScannerResponse</text>
<text text-anchor="start" x="368.5" y="-246" font-family="Ubuntu" font-size="10.00">4</text>
<text text-anchor="start" x="379.5" y="-246" font-family="Ubuntu" font-size="10.00">error</text>
<polygon fill="#a6cee3" stroke="transparent" points="420.5,-241 420.5,-256 524.5,-256 524.5,-241 420.5,-241"/>
<text text-anchor="start" x="494.5" y="-247" font-family="Ubuntu" font-style="italic" font-size="10.00">string</text>
<polygon fill="none" stroke="black" points="361.5,-240.5 361.5,-317.5 525.5,-317.5 525.5,-240.5 361.5,-240.5"/>
</a>
</g>
</g>
<!-- Node_Ja_112&#45;&gt;Node_Ja_111 -->
<g id="edge7" class="edge">
<title>Node_Ja_112:e&#45;&gt;Node_Ja_111:header</title>
<g id="a_edge7"><a xlink:title="Ja_112 &#45;&#45;&gt; Ja_111">
<path fill="none" stroke="#000000" d="M298,-231C338.86,-231 320.73,-296.17 351.45,-307.37"/>
<polygon fill="#000000" stroke="#000000" points="351.07,-310.85 361.5,-309 352.19,-303.94 351.07,-310.85"/>
</a>
</g>
</g>
<!-- Node_Ja_112&#45;&gt;Node_Ja_111 -->
<g id="edge13" class="edge">
<title>Node_Ja_112:e&#45;&gt;Node_Ja_111:header</title>
<g id="a_edge13"><a xlink:title="Ja_112 &#45;&#45;&gt; Ja_111">
<path fill="none" stroke="#000000" d="M298,-291C323.55,-291 330.51,-304.66 351.27,-308.18"/>
<polygon fill="#000000" stroke="#000000" points="351.25,-311.69 361.5,-309 351.81,-304.71 351.25,-311.69"/>
</a>
</g>
</g>
<!-- Node_Ja_112&#45;&gt;Node_Ja_111 -->
<g id="edge17" class="edge">
<title>Node_Ja_112:e&#45;&gt;Node_Ja_111:header</title>
<g id="a_edge17"><a xlink:title="Ja_112 &#45;&#45;&gt; Ja_111">
<path fill="none" stroke="#000000" d="M298,-261C329.51,-261 327.2,-299.07 351.31,-307.4"/>
<polygon fill="#000000" stroke="#000000" points="351.08,-310.91 361.5,-309 352.16,-303.99 351.08,-310.91"/>
</a>
</g>
</g>
<!-- Node_Ja_112&#45;&gt;Node_Ja_111 -->
<g id="edge19" class="edge">
<title>Node_Ja_112:e&#45;&gt;Node_Ja_111:header</title>
<g id="a_edge19"><a xlink:title="Ja_112 &#45;&#45;&gt; Ja_111">
<path fill="none" stroke="#000000" d="M298,-200C350.23,-200 311.59,-294.61 351.4,-307.54"/>
<polygon fill="#000000" stroke="#000000" points="351.1,-311.03 361.5,-309 352.1,-304.11 351.1,-311.03"/>
</a>
</g>
</g>
<!-- Node_Ja_100 -->
<g id="node3" class="node">
<title>Node_Ja_100</title>
<g id="a_node3"><a xlink:title="proto.Host">
<polygon fill="#fffaf0" stroke="transparent" points="1011.5,-298.5 1011.5,-375.5 1117.5,-375.5 1117.5,-298.5 1011.5,-298.5"/>
<polygon fill="#e31a1c" stroke="transparent" points="1012.5,-359 1012.5,-374 1116.5,-374 1116.5,-359 1012.5,-359"/>
<text text-anchor="start" x="1088.5" y="-365" font-family="Ubuntu" font-weight="bold" font-size="10.00">Host</text>
<text text-anchor="start" x="1018.5" y="-349" font-family="Ubuntu" font-size="10.00">1</text>
<text text-anchor="start" x="1029.5" y="-349" font-family="Ubuntu" font-size="10.00">address</text>
<polygon fill="#a6cee3" stroke="transparent" points="1084.5,-344 1084.5,-359 1116.5,-359 1116.5,-344 1084.5,-344"/>
<text text-anchor="start" x="1086.5" y="-350" font-family="Ubuntu" font-style="italic" font-size="10.00">string</text>
<text text-anchor="start" x="1018.5" y="-334" font-family="Ubuntu" font-size="10.00">2</text>
<text text-anchor="start" x="1029.5" y="-334" font-family="Ubuntu" font-size="10.00">os_version</text>
<polygon fill="#a6cee3" stroke="transparent" points="1084.5,-329 1084.5,-344 1116.5,-344 1116.5,-329 1084.5,-329"/>
<text text-anchor="start" x="1086.5" y="-335" font-family="Ubuntu" font-style="italic" font-size="10.00">string</text>
<text text-anchor="start" x="1018.5" y="-319" font-family="Ubuntu" font-size="10.00">3</text>
<text text-anchor="start" x="1029.5" y="-319" font-family="Ubuntu" font-size="10.00">state</text>
<polygon fill="#a6cee3" stroke="transparent" points="1084.5,-314 1084.5,-329 1116.5,-329 1116.5,-314 1084.5,-314"/>
<text text-anchor="start" x="1086.5" y="-320" font-family="Ubuntu" font-style="italic" font-size="10.00">string</text>
<text text-anchor="start" x="1018.5" y="-304" font-family="Ubuntu" font-size="10.00">4</text>
<text text-anchor="start" x="1029.5" y="-304" font-family="Ubuntu" font-size="10.00">fqdn</text>
<polygon fill="#a6cee3" stroke="transparent" points="1084.5,-299 1084.5,-314 1116.5,-314 1116.5,-299 1084.5,-299"/>
<text text-anchor="start" x="1086.5" y="-305" font-family="Ubuntu" font-style="italic" font-size="10.00">string</text>
<polygon fill="none" stroke="black" points="1011.5,-298.5 1011.5,-375.5 1117.5,-375.5 1117.5,-298.5 1011.5,-298.5"/>
</a>
</g>
</g>
<!-- Node_Ja_102 -->
<g id="node5" class="node">
<title>Node_Ja_102</title>
<g id="a_node5"><a xlink:title="proto.Port">
<polygon fill="#fffaf0" stroke="transparent" points="984,-180 984,-272 1145,-272 1145,-180 984,-180"/>
<polygon fill="#e31a1c" stroke="transparent" points="985.5,-256 985.5,-271 1144.5,-271 1144.5,-256 985.5,-256"/>
<text text-anchor="start" x="1117.5" y="-262" font-family="Ubuntu" font-weight="bold" font-size="10.00">Port</text>
<text text-anchor="start" x="991.5" y="-246" font-family="Ubuntu" font-size="10.00">1</text>
<text text-anchor="start" x="1002.5" y="-246" font-family="Ubuntu" font-size="10.00">port_id</text>
<polygon fill="#a6cee3" stroke="transparent" points="1073.5,-241 1073.5,-256 1144.5,-256 1144.5,-241 1073.5,-241"/>
<text text-anchor="start" x="1114.5" y="-247" font-family="Ubuntu" font-style="italic" font-size="10.00">string</text>
<text text-anchor="start" x="991.5" y="-231" font-family="Ubuntu" font-size="10.00">2</text>
<text text-anchor="start" x="1002.5" y="-231" font-family="Ubuntu" font-size="10.00">protocol</text>
<polygon fill="#a6cee3" stroke="transparent" points="1073.5,-226 1073.5,-241 1144.5,-241 1144.5,-226 1073.5,-226"/>
<text text-anchor="start" x="1114.5" y="-232" font-family="Ubuntu" font-style="italic" font-size="10.00">string</text>
<text text-anchor="start" x="991.5" y="-216" font-family="Ubuntu" font-size="10.00">3</text>
<text text-anchor="start" x="1002.5" y="-216" font-family="Ubuntu" font-size="10.00">state</text>
<polygon fill="#a6cee3" stroke="transparent" points="1073.5,-211 1073.5,-226 1144.5,-226 1144.5,-211 1073.5,-211"/>
<text text-anchor="start" x="1114.5" y="-217" font-family="Ubuntu" font-style="italic" font-size="10.00">string</text>
<text text-anchor="start" x="991.5" y="-201" font-family="Ubuntu" font-size="10.00">4</text>
<text text-anchor="start" x="1002.5" y="-201" font-family="Ubuntu" font-size="10.00">service_name</text>
<polygon fill="#a6cee3" stroke="transparent" points="1073.5,-196 1073.5,-211 1144.5,-211 1144.5,-196 1073.5,-196"/>
<text text-anchor="start" x="1114.5" y="-202" font-family="Ubuntu" font-style="italic" font-size="10.00">string</text>
<text text-anchor="start" x="991.5" y="-186" font-family="Ubuntu" font-size="10.00">5</text>
<text text-anchor="start" x="1002.5" y="-186" font-family="Ubuntu" font-size="10.00">version</text>
<polygon fill="#fb9a99" stroke="transparent" points="1073.5,-181 1073.5,-196 1144.5,-196 1144.5,-181 1073.5,-181"/>
<text text-anchor="start" x="1075.5" y="-187" font-family="Ubuntu" font-weight="bold" font-size="10.00">PortVersion</text>
<polygon fill="none" stroke="black" points="984,-180 984,-272 1145,-272 1145,-180 984,-180"/>
</a>
</g>
</g>
<!-- Node_Ja_101 -->
<g id="node8" class="node">
<title>Node_Ja_101</title>
<g id="a_node8"><a xlink:title="proto.PortVersion">
<polygon fill="#fffaf0" stroke="transparent" points="1197,-119.5 1197,-196.5 1313,-196.5 1313,-119.5 1197,-119.5"/>
<polygon fill="#e31a1c" stroke="transparent" points="1198,-180 1198,-195 1312,-195 1312,-180 1198,-180"/>
<text text-anchor="start" x="1243" y="-186" font-family="Ubuntu" font-weight="bold" font-size="10.00">PortVersion</text>
<text text-anchor="start" x="1204" y="-170" font-family="Ubuntu" font-size="10.00">1</text>
<text text-anchor="start" x="1215" y="-170" font-family="Ubuntu" font-size="10.00">low_version</text>
<polygon fill="#a6cee3" stroke="transparent" points="1280,-165 1280,-180 1312,-180 1312,-165 1280,-165"/>
<text text-anchor="start" x="1282" y="-171" font-family="Ubuntu" font-style="italic" font-size="10.00">string</text>
<text text-anchor="start" x="1204" y="-155" font-family="Ubuntu" font-size="10.00">2</text>
<text text-anchor="start" x="1215" y="-155" font-family="Ubuntu" font-size="10.00">high_version</text>
<polygon fill="#a6cee3" stroke="transparent" points="1280,-150 1280,-165 1312,-165 1312,-150 1280,-150"/>
<text text-anchor="start" x="1282" y="-156" font-family="Ubuntu" font-style="italic" font-size="10.00">string</text>
<text text-anchor="start" x="1204" y="-140" font-family="Ubuntu" font-size="10.00">3</text>
<text text-anchor="start" x="1215" y="-140" font-family="Ubuntu" font-size="10.00">extra_infos</text>
<polygon fill="#a6cee3" stroke="transparent" points="1280,-135 1280,-150 1312,-150 1312,-135 1280,-135"/>
<text text-anchor="start" x="1282" y="-141" font-family="Ubuntu" font-style="italic" font-size="10.00">string</text>
<text text-anchor="start" x="1204" y="-125" font-family="Ubuntu" font-size="10.00">4</text>
<text text-anchor="start" x="1215" y="-125" font-family="Ubuntu" font-size="10.00">product</text>
<polygon fill="#a6cee3" stroke="transparent" points="1280,-120 1280,-135 1312,-135 1312,-120 1280,-120"/>
<text text-anchor="start" x="1282" y="-126" font-family="Ubuntu" font-style="italic" font-size="10.00">string</text>
<polygon fill="none" stroke="black" points="1197,-119.5 1197,-196.5 1313,-196.5 1313,-119.5 1197,-119.5"/>
</a>
</g>
</g>
<!-- Node_Ja_102&#45;&gt;Node_Ja_101 -->
<g id="edge10" class="edge">
<title>Node_Ja_102:e&#45;&gt;Node_Ja_101:header</title>
<g id="a_edge10"><a xlink:title="Ja_102 &#45;&#45;&gt; Ja_101">
<path fill="none" stroke="#000000" d="M1145.5,-188C1164.63,-188 1171.77,-188 1186.97,-188"/>
<polygon fill="#000000" stroke="#000000" points="1187,-191.5 1197,-188 1187,-184.5 1187,-191.5"/>
</a>
</g>
</g>
<!-- Node_Ja_104 -->
<g id="node6" class="node">
<title>Node_Ja_104</title>
<g id="a_node6"><a xlink:title="proto.ScannerResponse">
<polygon fill="#fffaf0" stroke="transparent" points="589,-184.5 589,-291.5 770,-291.5 770,-184.5 589,-184.5"/>
<polygon fill="#e31a1c" stroke="transparent" points="590.5,-275 590.5,-290 769.5,-290 769.5,-275 590.5,-275"/>
<text text-anchor="start" x="667.5" y="-281" font-family="Ubuntu" font-weight="bold" font-size="10.00">ScannerResponse</text>
<text text-anchor="start" x="592.5" y="-265" font-family="Ubuntu" font-size="10.00">[...]</text>
<text text-anchor="start" x="613.5" y="-265" font-family="Ubuntu" font-size="10.00">1</text>
<text text-anchor="start" x="624.5" y="-265" font-family="Ubuntu" font-size="10.00">host_result</text>
<polygon fill="#fb9a99" stroke="transparent" points="704.5,-260 704.5,-275 769.5,-275 769.5,-260 704.5,-260"/>
<text text-anchor="start" x="706.5" y="-266" font-family="Ubuntu" font-weight="bold" font-size="10.00">HostResult</text>
<text text-anchor="start" x="613.5" y="-250" font-family="Ubuntu" font-size="10.00">2</text>
<text text-anchor="start" x="624.5" y="-250" font-family="Ubuntu" font-size="10.00">start_time</text>
<polygon fill="#a6cee3" stroke="transparent" points="704.5,-245 704.5,-260 769.5,-260 769.5,-245 704.5,-245"/>
<text text-anchor="start" x="739.5" y="-251" font-family="Ubuntu" font-style="italic" font-size="10.00">string</text>
<text text-anchor="start" x="613.5" y="-235" font-family="Ubuntu" font-size="10.00">3</text>
<text text-anchor="start" x="624.5" y="-235" font-family="Ubuntu" font-size="10.00">end_time</text>
<polygon fill="#a6cee3" stroke="transparent" points="704.5,-230 704.5,-245 769.5,-245 769.5,-230 704.5,-230"/>
<text text-anchor="start" x="739.5" y="-236" font-family="Ubuntu" font-style="italic" font-size="10.00">string</text>
<text text-anchor="start" x="613.5" y="-220" font-family="Ubuntu" font-size="10.00">4</text>
<text text-anchor="start" x="624.5" y="-220" font-family="Ubuntu" font-size="10.00">expiration_time</text>
<polygon fill="#a6cee3" stroke="transparent" points="704.5,-215 704.5,-230 769.5,-230 769.5,-215 704.5,-215"/>
<text text-anchor="start" x="739.5" y="-221" font-family="Ubuntu" font-style="italic" font-size="10.00">string</text>
<text text-anchor="start" x="613.5" y="-205" font-family="Ubuntu" font-size="10.00">5</text>
<text text-anchor="start" x="624.5" y="-205" font-family="Ubuntu" font-size="10.00">key</text>
<polygon fill="#a6cee3" stroke="transparent" points="704.5,-200 704.5,-215 769.5,-215 769.5,-200 704.5,-200"/>
<text text-anchor="start" x="739.5" y="-206" font-family="Ubuntu" font-style="italic" font-size="10.00">string</text>
<text text-anchor="start" x="613.5" y="-190" font-family="Ubuntu" font-size="10.00">6</text>
<text text-anchor="start" x="624.5" y="-190" font-family="Ubuntu" font-size="10.00">status</text>
<polygon fill="#b2df8a" stroke="transparent" points="704.5,-185 704.5,-200 769.5,-200 769.5,-185 704.5,-185"/>
<text text-anchor="start" x="736.5" y="-191" font-family="Ubuntu" text-decoration="underline" font-size="10.00">Status</text>
<polygon fill="none" stroke="black" points="589,-184.5 589,-291.5 770,-291.5 770,-184.5 589,-184.5"/>
</a>
</g>
</g>
<!-- Node_Ja_103 -->
<g id="node11" class="node">
<title>Node_Ja_103</title>
<g id="a_node11"><a xlink:title="proto.HostResult">
<polygon fill="#fffaf0" stroke="transparent" points="830.5,-300.5 830.5,-347.5 923.5,-347.5 923.5,-300.5 830.5,-300.5"/>
<polygon fill="#e31a1c" stroke="transparent" points="832,-331 832,-346 923,-346 923,-331 832,-331"/>
<text text-anchor="start" x="860" y="-337" font-family="Ubuntu" font-weight="bold" font-size="10.00">HostResult</text>
<text text-anchor="start" x="855" y="-321" font-family="Ubuntu" font-size="10.00">1</text>
<text text-anchor="start" x="866" y="-321" font-family="Ubuntu" font-size="10.00">host</text>
<polygon fill="#fb9a99" stroke="transparent" points="893,-316 893,-331 923,-331 923,-316 893,-316"/>
<text text-anchor="start" x="895" y="-322" font-family="Ubuntu" font-weight="bold" font-size="10.00">Host</text>
<text text-anchor="start" x="834" y="-306" font-family="Ubuntu" font-size="10.00">[...]</text>
<text text-anchor="start" x="855" y="-306" font-family="Ubuntu" font-size="10.00">2</text>
<text text-anchor="start" x="866" y="-306" font-family="Ubuntu" font-size="10.00">ports</text>
<polygon fill="#fb9a99" stroke="transparent" points="893,-301 893,-316 923,-316 923,-301 893,-301"/>
<text text-anchor="start" x="896" y="-307" font-family="Ubuntu" font-weight="bold" font-size="10.00">Port</text>
<polygon fill="none" stroke="black" points="830.5,-300.5 830.5,-347.5 923.5,-347.5 923.5,-300.5 830.5,-300.5"/>
</a>
</g>
</g>
<!-- Node_Ja_104&#45;&gt;Node_Ja_103 -->
<g id="edge1" class="edge">
<title>Node_Ja_104:e&#45;&gt;Node_Ja_103:header</title>
<g id="a_edge1"><a xlink:title="Ja_104 &#45;&#45;&gt; Ja_103">
<path fill="none" stroke="#000000" d="M770.5,-268C808.07,-268 793.18,-326.31 820.92,-337.24"/>
<polygon fill="#000000" stroke="#000000" points="820.55,-340.73 831,-339 821.75,-333.84 820.55,-340.73"/>
</a>
</g>
</g>
<!-- Node_Ja_105 -->
<g id="node12" class="node">
<title>Node_Ja_105</title>
<g id="a_node12"><a xlink:title="Status">
<polygon fill="#b2df8a" stroke="transparent" points="840,-131 840,-253 914,-253 914,-131 840,-131"/>
<polygon fill="#33a02c" stroke="transparent" points="841,-237 841,-252 913,-252 913,-237 841,-237"/>
<text text-anchor="start" x="843" y="-243" font-family="Ubuntu" font-size="10.00">enum </text>
<text text-anchor="start" x="874" y="-243" font-family="Ubuntu" font-weight="bold" font-size="10.00">Status</text>
<polygon fill="#b2df8a" stroke="transparent" points="841,-222 841,-237 901,-237 901,-222 841,-222"/>
<text text-anchor="start" x="843" y="-227" font-family="Ubuntu" font-size="10.00">UNKNOWN</text>
<polygon fill="#b2df8a" stroke="transparent" points="901,-222 901,-237 913,-237 913,-222 901,-222"/>
<text text-anchor="start" x="903" y="-227" font-family="Ubuntu" font-size="10.00">0</text>
<polygon fill="#b2df8a" stroke="transparent" points="841,-207 841,-222 901,-222 901,-207 841,-207"/>
<text text-anchor="start" x="843" y="-212" font-family="Ubuntu" font-size="10.00">QUEUED</text>
<polygon fill="#b2df8a" stroke="transparent" points="901,-207 901,-222 913,-222 913,-207 901,-207"/>
<text text-anchor="start" x="903" y="-212" font-family="Ubuntu" font-size="10.00">1</text>
<polygon fill="#b2df8a" stroke="transparent" points="841,-192 841,-207 901,-207 901,-192 841,-192"/>
<text text-anchor="start" x="843" y="-197" font-family="Ubuntu" font-size="10.00">RUNNING</text>
<polygon fill="#b2df8a" stroke="transparent" points="901,-192 901,-207 913,-207 913,-192 901,-192"/>
<text text-anchor="start" x="903" y="-197" font-family="Ubuntu" font-size="10.00">2</text>
<polygon fill="#b2df8a" stroke="transparent" points="841,-177 841,-192 901,-192 901,-177 841,-177"/>
<text text-anchor="start" x="843" y="-182" font-family="Ubuntu" font-size="10.00">OK</text>
<polygon fill="#b2df8a" stroke="transparent" points="901,-177 901,-192 913,-192 913,-177 901,-177"/>
<text text-anchor="start" x="903" y="-182" font-family="Ubuntu" font-size="10.00">3</text>
<polygon fill="#b2df8a" stroke="transparent" points="841,-162 841,-177 901,-177 901,-162 841,-162"/>
<text text-anchor="start" x="843" y="-167" font-family="Ubuntu" font-size="10.00">ERROR</text>
<polygon fill="#b2df8a" stroke="transparent" points="901,-162 901,-177 913,-177 913,-162 901,-162"/>
<text text-anchor="start" x="903" y="-167" font-family="Ubuntu" font-size="10.00">4</text>
<polygon fill="#b2df8a" stroke="transparent" points="841,-147 841,-162 901,-162 901,-147 841,-147"/>
<text text-anchor="start" x="843" y="-152" font-family="Ubuntu" font-size="10.00">CANCEL</text>
<polygon fill="#b2df8a" stroke="transparent" points="901,-147 901,-162 913,-162 913,-147 901,-147"/>
<text text-anchor="start" x="903" y="-152" font-family="Ubuntu" font-size="10.00">5</text>
<polygon fill="#b2df8a" stroke="transparent" points="841,-132 841,-147 901,-147 901,-132 841,-132"/>
<text text-anchor="start" x="843" y="-137" font-family="Ubuntu" font-size="10.00">TIMEOUT</text>
<polygon fill="#b2df8a" stroke="transparent" points="901,-132 901,-147 913,-147 913,-132 901,-132"/>
<text text-anchor="start" x="903" y="-137" font-family="Ubuntu" font-size="10.00">6</text>
<polygon fill="none" stroke="black" points="840,-131 840,-253 914,-253 914,-131 840,-131"/>
</a>
</g>
</g>
<!-- Node_Ja_104&#45;&gt;Node_Ja_105 -->
<g id="edge4" class="edge">
<title>Node_Ja_104:e&#45;&gt;Node_Ja_105</title>
<g id="a_edge4"><a xlink:title="Ja_104 &#45;&#45;&gt; Ja_105">
<path fill="none" stroke="#008000" d="M770.5,-192C787.18,-192 805.35,-192 821.84,-192"/>
<polygon fill="#008000" stroke="#008000" points="821.86,-195.5 831.86,-192 821.86,-188.5 821.86,-195.5"/>
</a>
</g>
</g>
<!-- Node_Ja_109 -->
<g id="node13" class="node">
<title>Node_Ja_109</title>
<g id="a_node13"><a xlink:title="ServiceState">
<polygon fill="#b2df8a" stroke="transparent" points="822,-43 822,-105 932,-105 932,-43 822,-43"/>
<polygon fill="#33a02c" stroke="transparent" points="823,-89 823,-104 931,-104 931,-89 823,-89"/>
<text text-anchor="start" x="825" y="-95" font-family="Ubuntu" font-size="10.00">enum </text>
<text text-anchor="start" x="856" y="-95" font-family="Ubuntu" font-weight="bold" font-size="10.00">ServiceState</text>
<polygon fill="#b2df8a" stroke="transparent" points="823,-74 823,-89 901,-89 901,-74 823,-74"/>
<text text-anchor="start" x="825" y="-79" font-family="Ubuntu" font-size="10.00">UNKNOWN</text>
<polygon fill="#b2df8a" stroke="transparent" points="901,-74 901,-89 931,-89 931,-74 901,-74"/>
<text text-anchor="start" x="903" y="-79" font-family="Ubuntu" font-size="10.00">0</text>
<polygon fill="#b2df8a" stroke="transparent" points="823,-59 823,-74 901,-74 901,-59 823,-59"/>
<text text-anchor="start" x="825" y="-64" font-family="Ubuntu" font-size="10.00">START</text>
<polygon fill="#b2df8a" stroke="transparent" points="901,-59 901,-74 931,-74 931,-59 901,-59"/>
<text text-anchor="start" x="903" y="-64" font-family="Ubuntu" font-size="10.00">1</text>
<polygon fill="#b2df8a" stroke="transparent" points="823,-44 823,-59 901,-59 901,-44 823,-44"/>
<text text-anchor="start" x="825" y="-49" font-family="Ubuntu" font-size="10.00">STOP</text>
<polygon fill="#b2df8a" stroke="transparent" points="901,-44 901,-59 931,-59 931,-44 901,-44"/>
<text text-anchor="start" x="903" y="-49" font-family="Ubuntu" font-size="10.00">2</text>
<polygon fill="none" stroke="black" points="822,-43 822,-105 932,-105 932,-43 822,-43"/>
</a>
</g>
</g>
<!-- Node_Ja_108&#45;&gt;Node_Ja_109 -->
<g id="edge16" class="edge">
<title>Node_Ja_108:e&#45;&gt;Node_Ja_109</title>
<g id="a_edge16"><a xlink:title="Ja_108 &#45;&#45;&gt; Ja_109">
<path fill="none" stroke="#008000" d="M511.5,-132C614.01,-132 730.74,-109.35 803.89,-92.36"/>
<polygon fill="#008000" stroke="#008000" points="804.98,-95.7 813.91,-90 803.38,-88.88 804.98,-95.7"/>
</a>
</g>
</g>
<!-- Node_Ja_111&#45;&gt;Node_Ja_104 -->
<g id="edge5" class="edge">
<title>Node_Ja_111:e&#45;&gt;Node_Ja_104:header</title>
<g id="a_edge5"><a xlink:title="Ja_111 &#45;&#45;&gt; Ja_104">
<path fill="none" stroke="#000000" d="M525.5,-263C551.58,-263 558.2,-278.31 579.42,-282.14"/>
<polygon fill="#000000" stroke="#000000" points="579.24,-285.64 589.5,-283 579.83,-278.66 579.24,-285.64"/>
</a>
</g>
</g>
<!-- Node_Ja_103&#45;&gt;Node_Ja_100 -->
<g id="edge3" class="edge">
<title>Node_Ja_103:e&#45;&gt;Node_Ja_100:header</title>
<g id="a_edge3"><a xlink:title="Ja_103 &#45;&#45;&gt; Ja_100">
<path fill="none" stroke="#000000" d="M924,-323C963.79,-323 967.58,-359.76 1001.18,-366.08"/>
<polygon fill="#000000" stroke="#000000" points="1001.23,-369.6 1011.5,-367 1001.85,-362.63 1001.23,-369.6"/>
</a>
</g>
</g>
<!-- Node_Ja_103&#45;&gt;Node_Ja_102 -->
<g id="edge11" class="edge">
<title>Node_Ja_103:e&#45;&gt;Node_Ja_102:header</title>
<g id="a_edge11"><a xlink:title="Ja_103 &#45;&#45;&gt; Ja_102">
<path fill="none" stroke="#000000" d="M924,-308C953.48,-308 952.11,-273.4 974.6,-265.57"/>
<polygon fill="#000000" stroke="#000000" points="975.17,-269.02 984.5,-264 974.08,-262.11 975.17,-269.02"/>
</a>
</g>
</g>
</g>
</svg>
