<?xml version="1.0" encoding="UTF-8" standalone="no"?>
<!DOCTYPE svg PUBLIC "-//W3C//DTD SVG 1.1//EN"
 "http://www.w3.org/Graphics/SVG/1.1/DTD/svg11.dtd">
<!-- Generated by graphviz version 2.47.3 (0)
 -->
<!-- Title: protodot Pages: 1 -->
<svg width="1257pt" height="594pt"
 viewBox="0.00 0.00 1257.00 594.00" xmlns="http://www.w3.org/2000/svg" xmlns:xlink="http://www.w3.org/1999/xlink">
<g id="graph0" class="graph" transform="scale(1 1) rotate(0) translate(4 590)">
<title>protodot</title>
<g id="a_graph0"><a xlink:title="proto">
<text text-anchor="middle" x="624.5" y="-7.8" font-family="Times,serif" font-size="14.00">proto</text>
</a>
</g>
<g id="clust1" class="cluster">
<title>cluster_dfe805b7589f</title>
<g id="a_clust1"><a xlink:title="proto">
<polygon fill="#caff70" stroke="black" points="734,-31 734,-288 876,-288 876,-31 734,-31"/>
<text text-anchor="middle" x="805" y="-272.8" font-family="Times,serif" font-size="14.00">proto</text>
</a>
</g>
</g>
<!-- Node_Ja_105 -->
<g id="node1" class="node">
<title>Node_Ja_105</title>
<g id="a_node1"><a xlink:title="Status">
<polygon fill="#b2df8a" stroke="transparent" points="768,-161 768,-253 842,-253 842,-161 768,-161"/>
<polygon fill="#33a02c" stroke="transparent" points="769,-237 769,-252 841,-252 841,-237 769,-237"/>
<text text-anchor="start" x="771" y="-243" font-family="Ubuntu" font-size="10.00">enum </text>
<text text-anchor="start" x="802" y="-243" font-family="Ubuntu" font-weight="bold" font-size="10.00">Status</text>
<polygon fill="#b2df8a" stroke="transparent" points="769,-222 769,-237 829,-237 829,-222 769,-222"/>
<text text-anchor="start" x="771" y="-227" font-family="Ubuntu" font-size="10.00">UNKNOWN</text>
<polygon fill="#b2df8a" stroke="transparent" points="829,-222 829,-237 841,-237 841,-222 829,-222"/>
<text text-anchor="start" x="831" y="-227" font-family="Ubuntu" font-size="10.00">0</text>
<polygon fill="#b2df8a" stroke="transparent" points="769,-207 769,-222 829,-222 829,-207 769,-207"/>
<text text-anchor="start" x="771" y="-212" font-family="Ubuntu" font-size="10.00">QUEUED</text>
<polygon fill="#b2df8a" stroke="transparent" points="829,-207 829,-222 841,-222 841,-207 829,-207"/>
<text text-anchor="start" x="831" y="-212" font-family="Ubuntu" font-size="10.00">1</text>
<polygon fill="#b2df8a" stroke="transparent" points="769,-192 769,-207 829,-207 829,-192 769,-192"/>
<text text-anchor="start" x="771" y="-197" font-family="Ubuntu" font-size="10.00">RUNNING</text>
<polygon fill="#b2df8a" stroke="transparent" points="829,-192 829,-207 841,-207 841,-192 829,-192"/>
<text text-anchor="start" x="831" y="-197" font-family="Ubuntu" font-size="10.00">2</text>
<polygon fill="#b2df8a" stroke="transparent" points="769,-177 769,-192 829,-192 829,-177 769,-177"/>
<text text-anchor="start" x="771" y="-182" font-family="Ubuntu" font-size="10.00">OK</text>
<polygon fill="#b2df8a" stroke="transparent" points="829,-177 829,-192 841,-192 841,-177 829,-177"/>
<text text-anchor="start" x="831" y="-182" font-family="Ubuntu" font-size="10.00">3</text>
<polygon fill="#b2df8a" stroke="transparent" points="769,-162 769,-177 829,-177 829,-162 769,-162"/>
<text text-anchor="start" x="771" y="-167" font-family="Ubuntu" font-size="10.00">ERROR</text>
<polygon fill="#b2df8a" stroke="transparent" points="829,-162 829,-177 841,-177 841,-162 829,-162"/>
<text text-anchor="start" x="831" y="-167" font-family="Ubuntu" font-size="10.00">4</text>
<polygon fill="none" stroke="black" points="768,-161 768,-253 842,-253 842,-161 768,-161"/>
</a>
</g>
</g>
<!-- Node_Ja_108 -->
<g id="node2" class="node">
<title>Node_Ja_108</title>
<g id="a_node2"><a xlink:title="ServiceState">
<polygon fill="#b2df8a" stroke="transparent" points="750,-43 750,-135 860,-135 860,-43 750,-43"/>
<polygon fill="#33a02c" stroke="transparent" points="751,-119 751,-134 859,-134 859,-119 751,-119"/>
<text text-anchor="start" x="753" y="-125" font-family="Ubuntu" font-size="10.00">enum </text>
<text text-anchor="start" x="784" y="-125" font-family="Ubuntu" font-weight="bold" font-size="10.00">ServiceState</text>
<polygon fill="#b2df8a" stroke="transparent" points="751,-104 751,-119 829,-119 829,-104 751,-104"/>
<text text-anchor="start" x="753" y="-109" font-family="Ubuntu" font-size="10.00">UNKNOWN</text>
<polygon fill="#b2df8a" stroke="transparent" points="829,-104 829,-119 859,-119 859,-104 829,-104"/>
<text text-anchor="start" x="831" y="-109" font-family="Ubuntu" font-size="10.00">0</text>
<polygon fill="#b2df8a" stroke="transparent" points="751,-89 751,-104 829,-104 829,-89 751,-89"/>
<text text-anchor="start" x="753" y="-94" font-family="Ubuntu" font-size="10.00">START</text>
<polygon fill="#b2df8a" stroke="transparent" points="829,-89 829,-104 859,-104 859,-89 829,-89"/>
<text text-anchor="start" x="831" y="-94" font-family="Ubuntu" font-size="10.00">1</text>
<polygon fill="#b2df8a" stroke="transparent" points="751,-74 751,-89 829,-89 829,-74 751,-74"/>
<text text-anchor="start" x="753" y="-79" font-family="Ubuntu" font-size="10.00">STARTED</text>
<polygon fill="#b2df8a" stroke="transparent" points="829,-74 829,-89 859,-89 859,-74 829,-74"/>
<text text-anchor="start" x="831" y="-79" font-family="Ubuntu" font-size="10.00">2</text>
<polygon fill="#b2df8a" stroke="transparent" points="751,-59 751,-74 829,-74 829,-59 751,-59"/>
<text text-anchor="start" x="753" y="-64" font-family="Ubuntu" font-size="10.00">STOP</text>
<polygon fill="#b2df8a" stroke="transparent" points="829,-59 829,-74 859,-74 859,-59 829,-59"/>
<text text-anchor="start" x="831" y="-64" font-family="Ubuntu" font-size="10.00">3</text>
<polygon fill="#b2df8a" stroke="transparent" points="751,-44 751,-59 829,-59 829,-44 751,-44"/>
<text text-anchor="start" x="753" y="-49" font-family="Ubuntu" font-size="10.00">STOPPED</text>
<polygon fill="#b2df8a" stroke="transparent" points="829,-44 829,-59 859,-59 859,-44 829,-44"/>
<text text-anchor="start" x="831" y="-49" font-family="Ubuntu" font-size="10.00">4</text>
<polygon fill="none" stroke="black" points="750,-43 750,-135 860,-135 860,-43 750,-43"/>
</a>
</g>
</g>
<!-- Node_Ja_111 -->
<g id="node3" class="node">
<title>Node_Ja_111</title>
<g id="a_node3"><a xlink:title="ScannerService">
<polygon fill="#ffd700" stroke="transparent" points="8,-203.5 8,-370.5 226,-370.5 226,-203.5 8,-203.5"/>
<polygon fill="#ff7f50" stroke="transparent" points="9,-354 9,-369 225,-369 225,-354 9,-354"/>
<text text-anchor="start" x="134" y="-360" font-family="Ubuntu" font-weight="bold" font-size="10.00">ScannerService</text>
<text text-anchor="start" x="11" y="-345" font-family="Ubuntu" font-weight="bold" font-size="10.00">StartAsyncScan</text>
<text text-anchor="start" x="108" y="-344" font-family="Ubuntu" font-size="10.00">ParamsScannerRequest</text>
<polygon fill="#ff7f50" stroke="transparent" points="102,-324 102,-339 106,-339 106,-324 102,-324"/>
<polygon fill="#ff7f50" stroke="transparent" points="106,-324 106,-339 225,-339 225,-324 106,-324"/>
<text text-anchor="start" x="144" y="-329" font-family="Ubuntu" font-size="10.00">ServerResponse</text>
<text text-anchor="start" x="11" y="-315" font-family="Ubuntu" font-weight="bold" font-size="10.00">StartScan</text>
<text text-anchor="start" x="108" y="-314" font-family="Ubuntu" font-size="10.00">ParamsScannerRequest</text>
<polygon fill="#ff7f50" stroke="transparent" points="102,-294 102,-309 106,-309 106,-294 102,-294"/>
<polygon fill="#ff7f50" stroke="transparent" points="106,-294 106,-309 225,-309 225,-294 106,-294"/>
<text text-anchor="start" x="144" y="-299" font-family="Ubuntu" font-size="10.00">ServerResponse</text>
<text text-anchor="start" x="11" y="-285" font-family="Ubuntu" font-weight="bold" font-size="10.00">GetScan</text>
<text text-anchor="start" x="126" y="-284" font-family="Ubuntu" font-size="10.00">GetScannerRequest</text>
<polygon fill="#ff7f50" stroke="transparent" points="102,-264 102,-279 106,-279 106,-264 102,-264"/>
<polygon fill="#ff7f50" stroke="transparent" points="106,-264 106,-279 225,-279 225,-264 106,-264"/>
<text text-anchor="start" x="144" y="-269" font-family="Ubuntu" font-size="10.00">ServerResponse</text>
<text text-anchor="start" x="11" y="-255" font-family="Ubuntu" font-weight="bold" font-size="10.00">DeleteScan</text>
<text text-anchor="start" x="126" y="-254" font-family="Ubuntu" font-size="10.00">GetScannerRequest</text>
<polygon fill="#ff7f50" stroke="transparent" points="102,-234 102,-249 106,-249 106,-234 102,-234"/>
<polygon fill="#ff7f50" stroke="transparent" points="106,-234 106,-249 225,-249 225,-234 106,-234"/>
<text text-anchor="start" x="144" y="-239" font-family="Ubuntu" font-size="10.00">ServerResponse</text>
<text text-anchor="start" x="11" y="-225" font-family="Ubuntu" font-weight="bold" font-size="10.00">ServiceControl</text>
<text text-anchor="start" x="112" y="-224" font-family="Ubuntu" font-size="10.00">ScannerServiceControl</text>
<polygon fill="#ff7f50" stroke="transparent" points="102,-204 102,-219 106,-219 106,-204 102,-204"/>
<polygon fill="#ff7f50" stroke="transparent" points="106,-204 106,-219 225,-219 225,-204 106,-204"/>
<text text-anchor="start" x="112" y="-209" font-family="Ubuntu" font-size="10.00">ScannerServiceControl</text>
<polygon fill="none" stroke="black" points="8,-203.5 8,-370.5 226,-370.5 226,-203.5 8,-203.5"/>
</a>
</g>
</g>
<!-- Node_Ja_107 -->
<g id="node6" class="node">
<title>Node_Ja_107</title>
<g id="a_node6"><a xlink:title="proto.ScannerServiceControl">
<polygon fill="#fffaf0" stroke="transparent" points="303.5,-120 303.5,-152 439.5,-152 439.5,-120 303.5,-120"/>
<polygon fill="#e31a1c" stroke="transparent" points="304.5,-136 304.5,-151 438.5,-151 438.5,-136 304.5,-136"/>
<text text-anchor="start" x="306.5" y="-142" font-family="Ubuntu" font-weight="bold" font-size="10.00">ScannerServiceControl</text>
<text text-anchor="start" x="328.5" y="-126" font-family="Ubuntu" font-size="10.00">1</text>
<text text-anchor="start" x="339.5" y="-126" font-family="Ubuntu" font-size="10.00">state</text>
<polygon fill="#b2df8a" stroke="transparent" points="369.5,-121 369.5,-136 438.5,-136 438.5,-121 369.5,-121"/>
<text text-anchor="start" x="374.5" y="-127" font-family="Ubuntu" text-decoration="underline" font-size="10.00">ServiceState</text>
<polygon fill="none" stroke="black" points="303.5,-120 303.5,-152 439.5,-152 439.5,-120 303.5,-120"/>
</a>
</g>
</g>
<!-- Node_Ja_111&#45;&gt;Node_Ja_107 -->
<g id="edge12" class="edge">
<title>Node_Ja_111:e&#45;&gt;Node_Ja_107:header</title>
<g id="a_edge12"><a xlink:title="Ja_111 &#45;&#45;&gt; Ja_107">
<path fill="none" stroke="#000000" d="M226,-211C254.29,-211 248.07,-182.87 270,-165 280.54,-156.41 284.3,-148.55 293.6,-145.42"/>
<polygon fill="#000000" stroke="#000000" points="294.1,-148.89 303.5,-144 293.1,-141.96 294.1,-148.89"/>
</a>
</g>
</g>
<!-- Node_Ja_111&#45;&gt;Node_Ja_107 -->
<g id="edge17" class="edge">
<title>Node_Ja_111:e&#45;&gt;Node_Ja_107:header</title>
<g id="a_edge17"><a xlink:title="Ja_111 &#45;&#45;&gt; Ja_107">
<path fill="none" stroke="#000000" d="M226,-226C259.43,-226 245.61,-187.86 270,-165 279.92,-155.71 284.02,-148.23 293.5,-145.31"/>
<polygon fill="#000000" stroke="#000000" points="294.04,-148.77 303.5,-144 293.13,-141.83 294.04,-148.77"/>
</a>
</g>
</g>
<!-- Node_Ja_106 -->
<g id="node9" class="node">
<title>Node_Ja_106</title>
<g id="a_node9"><a xlink:title="proto.ParamsScannerRequest">
<polygon fill="#fffaf0" stroke="transparent" points="278,-340 278,-582 465,-582 465,-340 278,-340"/>
<polygon fill="#e31a1c" stroke="transparent" points="279.5,-566 279.5,-581 464.5,-581 464.5,-566 279.5,-566"/>
<text text-anchor="start" x="328.5" y="-572" font-family="Ubuntu" font-weight="bold" font-size="10.00">ParamsScannerRequest</text>
<text text-anchor="start" x="291.5" y="-556" font-family="Ubuntu" font-size="10.00">1</text>
<text text-anchor="start" x="302.5" y="-556" font-family="Ubuntu" font-size="10.00">hosts</text>
<polygon fill="#a6cee3" stroke="transparent" points="432.5,-551 432.5,-566 464.5,-566 464.5,-551 432.5,-551"/>
<text text-anchor="start" x="434.5" y="-557" font-family="Ubuntu" font-style="italic" font-size="10.00">string</text>
<text text-anchor="start" x="291.5" y="-541" font-family="Ubuntu" font-size="10.00">2</text>
<text text-anchor="start" x="302.5" y="-541" font-family="Ubuntu" font-size="10.00">ports</text>
<polygon fill="#a6cee3" stroke="transparent" points="432.5,-536 432.5,-551 464.5,-551 464.5,-536 432.5,-536"/>
<text text-anchor="start" x="434.5" y="-542" font-family="Ubuntu" font-style="italic" font-size="10.00">string</text>
<text text-anchor="start" x="291.5" y="-526" font-family="Ubuntu" font-size="10.00">3</text>
<text text-anchor="start" x="302.5" y="-526" font-family="Ubuntu" font-size="10.00">with_aggressive_scan</text>
<polygon fill="#a6cee3" stroke="transparent" points="432.5,-521 432.5,-536 464.5,-536 464.5,-521 432.5,-521"/>
<text text-anchor="start" x="440.5" y="-527" font-family="Ubuntu" font-style="italic" font-size="10.00">bool</text>
<text text-anchor="start" x="291.5" y="-511" font-family="Ubuntu" font-size="10.00">4</text>
<text text-anchor="start" x="302.5" y="-511" font-family="Ubuntu" font-size="10.00">with_syn_scan</text>
<polygon fill="#a6cee3" stroke="transparent" points="432.5,-506 432.5,-521 464.5,-521 464.5,-506 432.5,-506"/>
<text text-anchor="start" x="440.5" y="-512" font-family="Ubuntu" font-style="italic" font-size="10.00">bool</text>
<text text-anchor="start" x="291.5" y="-496" font-family="Ubuntu" font-size="10.00">5</text>
<text text-anchor="start" x="302.5" y="-496" font-family="Ubuntu" font-size="10.00">with_null_scan</text>
<polygon fill="#a6cee3" stroke="transparent" points="432.5,-491 432.5,-506 464.5,-506 464.5,-491 432.5,-491"/>
<text text-anchor="start" x="440.5" y="-497" font-family="Ubuntu" font-style="italic" font-size="10.00">bool</text>
<text text-anchor="start" x="291.5" y="-481" font-family="Ubuntu" font-size="10.00">6</text>
<text text-anchor="start" x="302.5" y="-481" font-family="Ubuntu" font-size="10.00">service_version_detection</text>
<polygon fill="#a6cee3" stroke="transparent" points="432.5,-476 432.5,-491 464.5,-491 464.5,-476 432.5,-476"/>
<text text-anchor="start" x="440.5" y="-482" font-family="Ubuntu" font-style="italic" font-size="10.00">bool</text>
<text text-anchor="start" x="291.5" y="-466" font-family="Ubuntu" font-size="10.00">7</text>
<text text-anchor="start" x="302.5" y="-466" font-family="Ubuntu" font-size="10.00">os_detection</text>
<polygon fill="#a6cee3" stroke="transparent" points="432.5,-461 432.5,-476 464.5,-476 464.5,-461 432.5,-461"/>
<text text-anchor="start" x="440.5" y="-467" font-family="Ubuntu" font-style="italic" font-size="10.00">bool</text>
<text text-anchor="start" x="291.5" y="-451" font-family="Ubuntu" font-size="10.00">8</text>
<text text-anchor="start" x="302.5" y="-451" font-family="Ubuntu" font-size="10.00">service_default_scripts</text>
<polygon fill="#a6cee3" stroke="transparent" points="432.5,-446 432.5,-461 464.5,-461 464.5,-446 432.5,-446"/>
<text text-anchor="start" x="440.5" y="-452" font-family="Ubuntu" font-style="italic" font-size="10.00">bool</text>
<text text-anchor="start" x="291.5" y="-436" font-family="Ubuntu" font-size="10.00">9</text>
<text text-anchor="start" x="302.5" y="-436" font-family="Ubuntu" font-size="10.00">timeout</text>
<polygon fill="#a6cee3" stroke="transparent" points="432.5,-431 432.5,-446 464.5,-446 464.5,-431 432.5,-431"/>
<text text-anchor="start" x="437.5" y="-437" font-family="Ubuntu" font-style="italic" font-size="10.00">int32</text>
<text text-anchor="start" x="285.5" y="-421" font-family="Ubuntu" font-size="10.00">10</text>
<text text-anchor="start" x="302.5" y="-421" font-family="Ubuntu" font-size="10.00">ping_only</text>
<polygon fill="#a6cee3" stroke="transparent" points="432.5,-416 432.5,-431 464.5,-431 464.5,-416 432.5,-416"/>
<text text-anchor="start" x="440.5" y="-422" font-family="Ubuntu" font-style="italic" font-size="10.00">bool</text>
<text text-anchor="start" x="285.5" y="-406" font-family="Ubuntu" font-size="10.00">11</text>
<text text-anchor="start" x="302.5" y="-406" font-family="Ubuntu" font-size="10.00">retention_time</text>
<polygon fill="#a6cee3" stroke="transparent" points="432.5,-401 432.5,-416 464.5,-416 464.5,-401 432.5,-401"/>
<text text-anchor="start" x="437.5" y="-407" font-family="Ubuntu" font-style="italic" font-size="10.00">int32</text>
<text text-anchor="start" x="285.5" y="-391" font-family="Ubuntu" font-size="10.00">12</text>
<text text-anchor="start" x="302.5" y="-391" font-family="Ubuntu" font-size="10.00">fast_mode</text>
<polygon fill="#a6cee3" stroke="transparent" points="432.5,-386 432.5,-401 464.5,-401 464.5,-386 432.5,-386"/>
<text text-anchor="start" x="440.5" y="-392" font-family="Ubuntu" font-style="italic" font-size="10.00">bool</text>
<text text-anchor="start" x="285.5" y="-376" font-family="Ubuntu" font-size="10.00">13</text>
<text text-anchor="start" x="302.5" y="-376" font-family="Ubuntu" font-size="10.00">key</text>
<polygon fill="#a6cee3" stroke="transparent" points="432.5,-371 432.5,-386 464.5,-386 464.5,-371 432.5,-371"/>
<text text-anchor="start" x="434.5" y="-377" font-family="Ubuntu" font-style="italic" font-size="10.00">string</text>
<text text-anchor="start" x="285.5" y="-361" font-family="Ubuntu" font-size="10.00">14</text>
<text text-anchor="start" x="302.5" y="-361" font-family="Ubuntu" font-size="10.00">defer_duration</text>
<polygon fill="#a6cee3" stroke="transparent" points="432.5,-356 432.5,-371 464.5,-371 464.5,-356 432.5,-356"/>
<text text-anchor="start" x="437.5" y="-362" font-family="Ubuntu" font-style="italic" font-size="10.00">int64</text>
<text text-anchor="start" x="285.5" y="-346" font-family="Ubuntu" font-size="10.00">15</text>
<text text-anchor="start" x="302.5" y="-346" font-family="Ubuntu" font-size="10.00">crontab</text>
<polygon fill="#a6cee3" stroke="transparent" points="432.5,-341 432.5,-356 464.5,-356 464.5,-341 432.5,-341"/>
<text text-anchor="start" x="434.5" y="-347" font-family="Ubuntu" font-style="italic" font-size="10.00">string</text>
<polygon fill="none" stroke="black" points="278,-340 278,-582 465,-582 465,-340 278,-340"/>
</a>
</g>
</g>
<!-- Node_Ja_111&#45;&gt;Node_Ja_106 -->
<g id="edge1" class="edge">
<title>Node_Ja_111:e&#45;&gt;Node_Ja_106:header</title>
<g id="a_edge1"><a xlink:title="Ja_111 &#45;&#45;&gt; Ja_106">
<path fill="none" stroke="#000000" d="M226,-317C338.94,-317 172.92,-558.19 268.42,-573.26"/>
<polygon fill="#000000" stroke="#000000" points="268.27,-576.76 278.5,-574 268.78,-569.78 268.27,-576.76"/>
</a>
</g>
</g>
<!-- Node_Ja_111&#45;&gt;Node_Ja_106 -->
<g id="edge7" class="edge">
<title>Node_Ja_111:e&#45;&gt;Node_Ja_106:header</title>
<g id="a_edge7"><a xlink:title="Ja_111 &#45;&#45;&gt; Ja_106">
<path fill="none" stroke="#000000" d="M226,-347C325.91,-347 185.5,-558.32 268.51,-573.18"/>
<polygon fill="#000000" stroke="#000000" points="268.25,-576.67 278.5,-574 268.82,-569.69 268.25,-576.67"/>
</a>
</g>
</g>
<!-- Node_Ja_110 -->
<g id="node11" class="node">
<title>Node_Ja_110</title>
<g id="a_node11"><a xlink:title="proto.ServerResponse">
<polygon fill="#fffaf0" stroke="transparent" points="289.5,-236.5 289.5,-313.5 453.5,-313.5 453.5,-236.5 289.5,-236.5"/>
<polygon fill="#e31a1c" stroke="transparent" points="290.5,-297 290.5,-312 452.5,-312 452.5,-297 290.5,-297"/>
<text text-anchor="start" x="357.5" y="-303" font-family="Ubuntu" font-weight="bold" font-size="10.00">ServerResponse</text>
<text text-anchor="start" x="296.5" y="-287" font-family="Ubuntu" font-size="10.00">1</text>
<text text-anchor="start" x="307.5" y="-287" font-family="Ubuntu" font-size="10.00">success</text>
<polygon fill="#a6cee3" stroke="transparent" points="348.5,-282 348.5,-297 452.5,-297 452.5,-282 348.5,-282"/>
<text text-anchor="start" x="428.5" y="-288" font-family="Ubuntu" font-style="italic" font-size="10.00">bool</text>
<text text-anchor="start" x="296.5" y="-272" font-family="Ubuntu" font-size="10.00">2</text>
<text text-anchor="start" x="307.5" y="-272" font-family="Ubuntu" font-size="10.00">key</text>
<polygon fill="#a6cee3" stroke="transparent" points="348.5,-267 348.5,-282 452.5,-282 452.5,-267 348.5,-267"/>
<text text-anchor="start" x="422.5" y="-273" font-family="Ubuntu" font-style="italic" font-size="10.00">string</text>
<text text-anchor="start" x="296.5" y="-257" font-family="Ubuntu" font-size="10.00">3</text>
<text text-anchor="start" x="307.5" y="-257" font-family="Ubuntu" font-size="10.00">value</text>
<polygon fill="#fb9a99" stroke="transparent" points="348.5,-252 348.5,-267 452.5,-267 452.5,-252 348.5,-252"/>
<text text-anchor="start" x="350.5" y="-258" font-family="Ubuntu" font-weight="bold" font-size="10.00">ScannerResponse</text>
<text text-anchor="start" x="296.5" y="-242" font-family="Ubuntu" font-size="10.00">4</text>
<text text-anchor="start" x="307.5" y="-242" font-family="Ubuntu" font-size="10.00">error</text>
<polygon fill="#a6cee3" stroke="transparent" points="348.5,-237 348.5,-252 452.5,-252 452.5,-237 348.5,-237"/>
<text text-anchor="start" x="422.5" y="-243" font-family="Ubuntu" font-style="italic" font-size="10.00">string</text>
<polygon fill="none" stroke="black" points="289.5,-236.5 289.5,-313.5 453.5,-313.5 453.5,-236.5 289.5,-236.5"/>
</a>
</g>
</g>
<!-- Node_Ja_111&#45;&gt;Node_Ja_110 -->
<g id="edge2" class="edge">
<title>Node_Ja_111:e&#45;&gt;Node_Ja_110:header</title>
<g id="a_edge2"><a xlink:title="Ja_111 &#45;&#45;&gt; Ja_110">
<path fill="none" stroke="#000000" d="M226,-302C250.5,-302 259.01,-304.26 279.27,-304.86"/>
<polygon fill="#000000" stroke="#000000" points="279.45,-308.36 289.5,-305 279.55,-301.36 279.45,-308.36"/>
</a>
</g>
</g>
<!-- Node_Ja_111&#45;&gt;Node_Ja_110 -->
<g id="edge6" class="edge">
<title>Node_Ja_111:e&#45;&gt;Node_Ja_110:header</title>
<g id="a_edge6"><a xlink:title="Ja_111 &#45;&#45;&gt; Ja_110">
<path fill="none" stroke="#000000" d="M226,-332C252.95,-332 257.89,-311.14 279.51,-306.09"/>
<polygon fill="#000000" stroke="#000000" points="279.94,-309.57 289.5,-305 279.18,-302.61 279.94,-309.57"/>
</a>
</g>
</g>
<!-- Node_Ja_111&#45;&gt;Node_Ja_110 -->
<g id="edge11" class="edge">
<title>Node_Ja_111:e&#45;&gt;Node_Ja_110:header</title>
<g id="a_edge11"><a xlink:title="Ja_111 &#45;&#45;&gt; Ja_110">
<path fill="none" stroke="#000000" d="M226,-271C254.26,-271 257.16,-297.5 279.48,-303.71"/>
<polygon fill="#000000" stroke="#000000" points="279.13,-307.19 289.5,-305 280.03,-300.25 279.13,-307.19"/>
</a>
</g>
</g>
<!-- Node_Ja_111&#45;&gt;Node_Ja_110 -->
<g id="edge16" class="edge">
<title>Node_Ja_111:e&#45;&gt;Node_Ja_110:header</title>
<g id="a_edge16"><a xlink:title="Ja_111 &#45;&#45;&gt; Ja_110">
<path fill="none" stroke="#000000" d="M226,-241C262.16,-241 252.14,-293.11 279.28,-303.29"/>
<polygon fill="#000000" stroke="#000000" points="279.06,-306.8 289.5,-305 280.22,-299.9 279.06,-306.8"/>
</a>
</g>
</g>
<!-- Node_Ja_109 -->
<g id="node13" class="node">
<title>Node_Ja_109</title>
<g id="a_node13"><a xlink:title="proto.GetScannerRequest">
<polygon fill="#fffaf0" stroke="transparent" points="312.5,-178 312.5,-210 430.5,-210 430.5,-178 312.5,-178"/>
<polygon fill="#e31a1c" stroke="transparent" points="313.5,-194 313.5,-209 429.5,-209 429.5,-194 313.5,-194"/>
<text text-anchor="start" x="315.5" y="-200" font-family="Ubuntu" font-weight="bold" font-size="10.00">GetScannerRequest</text>
<text text-anchor="start" x="354.5" y="-184" font-family="Ubuntu" font-size="10.00">1</text>
<text text-anchor="start" x="365.5" y="-184" font-family="Ubuntu" font-size="10.00">key</text>
<polygon fill="#a6cee3" stroke="transparent" points="391.5,-179 391.5,-194 429.5,-194 429.5,-179 391.5,-179"/>
<text text-anchor="start" x="399.5" y="-185" font-family="Ubuntu" font-style="italic" font-size="10.00">string</text>
<polygon fill="none" stroke="black" points="312.5,-178 312.5,-210 430.5,-210 430.5,-178 312.5,-178"/>
</a>
</g>
</g>
<!-- Node_Ja_111&#45;&gt;Node_Ja_109 -->
<g id="edge3" class="edge">
<title>Node_Ja_111:e&#45;&gt;Node_Ja_109:header</title>
<g id="a_edge3"><a xlink:title="Ja_111 &#45;&#45;&gt; Ja_109">
<path fill="none" stroke="#000000" d="M226,-286C259.79,-286 244.5,-246.17 270,-224 283.17,-212.55 289.02,-205.08 302.44,-202.77"/>
<polygon fill="#000000" stroke="#000000" points="302.79,-206.25 312.5,-202 302.26,-199.27 302.79,-206.25"/>
</a>
</g>
</g>
<!-- Node_Ja_111&#45;&gt;Node_Ja_109 -->
<g id="edge15" class="edge">
<title>Node_Ja_111:e&#45;&gt;Node_Ja_109:header</title>
<g id="a_edge15"><a xlink:title="Ja_111 &#45;&#45;&gt; Ja_109">
<path fill="none" stroke="#000000" d="M226,-256C250.18,-256 249.43,-236.71 270,-224 284.7,-214.92 289.53,-206.07 302.23,-203.07"/>
<polygon fill="#000000" stroke="#000000" points="302.92,-206.52 312.5,-202 302.19,-199.56 302.92,-206.52"/>
</a>
</g>
</g>
<!-- Node_Ja_100 -->
<g id="node4" class="node">
<title>Node_Ja_100</title>
<g id="a_node4"><a xlink:title="proto.Host">
<polygon fill="#fffaf0" stroke="transparent" points="939.5,-298.5 939.5,-375.5 1045.5,-375.5 1045.5,-298.5 939.5,-298.5"/>
<polygon fill="#e31a1c" stroke="transparent" points="940.5,-359 940.5,-374 1044.5,-374 1044.5,-359 940.5,-359"/>
<text text-anchor="start" x="1016.5" y="-365" font-family="Ubuntu" font-weight="bold" font-size="10.00">Host</text>
<text text-anchor="start" x="946.5" y="-349" font-family="Ubuntu" font-size="10.00">1</text>
<text text-anchor="start" x="957.5" y="-349" font-family="Ubuntu" font-size="10.00">address</text>
<polygon fill="#a6cee3" stroke="transparent" points="1012.5,-344 1012.5,-359 1044.5,-359 1044.5,-344 1012.5,-344"/>
<text text-anchor="start" x="1014.5" y="-350" font-family="Ubuntu" font-style="italic" font-size="10.00">string</text>
<text text-anchor="start" x="946.5" y="-334" font-family="Ubuntu" font-size="10.00">2</text>
<text text-anchor="start" x="957.5" y="-334" font-family="Ubuntu" font-size="10.00">os_version</text>
<polygon fill="#a6cee3" stroke="transparent" points="1012.5,-329 1012.5,-344 1044.5,-344 1044.5,-329 1012.5,-329"/>
<text text-anchor="start" x="1014.5" y="-335" font-family="Ubuntu" font-style="italic" font-size="10.00">string</text>
<text text-anchor="start" x="946.5" y="-319" font-family="Ubuntu" font-size="10.00">3</text>
<text text-anchor="start" x="957.5" y="-319" font-family="Ubuntu" font-size="10.00">state</text>
<polygon fill="#a6cee3" stroke="transparent" points="1012.5,-314 1012.5,-329 1044.5,-329 1044.5,-314 1012.5,-314"/>
<text text-anchor="start" x="1014.5" y="-320" font-family="Ubuntu" font-style="italic" font-size="10.00">string</text>
<text text-anchor="start" x="946.5" y="-304" font-family="Ubuntu" font-size="10.00">4</text>
<text text-anchor="start" x="957.5" y="-304" font-family="Ubuntu" font-size="10.00">fqdn</text>
<polygon fill="#a6cee3" stroke="transparent" points="1012.5,-299 1012.5,-314 1044.5,-314 1044.5,-299 1012.5,-299"/>
<text text-anchor="start" x="1014.5" y="-305" font-family="Ubuntu" font-style="italic" font-size="10.00">string</text>
<polygon fill="none" stroke="black" points="939.5,-298.5 939.5,-375.5 1045.5,-375.5 1045.5,-298.5 939.5,-298.5"/>
</a>
</g>
</g>
<!-- Node_Ja_101 -->
<g id="node5" class="node">
<title>Node_Ja_101</title>
<g id="a_node5"><a xlink:title="proto.PortVersion">
<polygon fill="#fffaf0" stroke="transparent" points="1125,-119.5 1125,-196.5 1241,-196.5 1241,-119.5 1125,-119.5"/>
<polygon fill="#e31a1c" stroke="transparent" points="1126,-180 1126,-195 1240,-195 1240,-180 1126,-180"/>
<text text-anchor="start" x="1171" y="-186" font-family="Ubuntu" font-weight="bold" font-size="10.00">PortVersion</text>
<text text-anchor="start" x="1132" y="-170" font-family="Ubuntu" font-size="10.00">1</text>
<text text-anchor="start" x="1143" y="-170" font-family="Ubuntu" font-size="10.00">low_version</text>
<polygon fill="#a6cee3" stroke="transparent" points="1208,-165 1208,-180 1240,-180 1240,-165 1208,-165"/>
<text text-anchor="start" x="1210" y="-171" font-family="Ubuntu" font-style="italic" font-size="10.00">string</text>
<text text-anchor="start" x="1132" y="-155" font-family="Ubuntu" font-size="10.00">2</text>
<text text-anchor="start" x="1143" y="-155" font-family="Ubuntu" font-size="10.00">high_version</text>
<polygon fill="#a6cee3" stroke="transparent" points="1208,-150 1208,-165 1240,-165 1240,-150 1208,-150"/>
<text text-anchor="start" x="1210" y="-156" font-family="Ubuntu" font-style="italic" font-size="10.00">string</text>
<text text-anchor="start" x="1132" y="-140" font-family="Ubuntu" font-size="10.00">3</text>
<text text-anchor="start" x="1143" y="-140" font-family="Ubuntu" font-size="10.00">extra_infos</text>
<polygon fill="#a6cee3" stroke="transparent" points="1208,-135 1208,-150 1240,-150 1240,-135 1208,-135"/>
<text text-anchor="start" x="1210" y="-141" font-family="Ubuntu" font-style="italic" font-size="10.00">string</text>
<text text-anchor="start" x="1132" y="-125" font-family="Ubuntu" font-size="10.00">4</text>
<text text-anchor="start" x="1143" y="-125" font-family="Ubuntu" font-size="10.00">product</text>
<polygon fill="#a6cee3" stroke="transparent" points="1208,-120 1208,-135 1240,-135 1240,-120 1208,-120"/>
<text text-anchor="start" x="1210" y="-126" font-family="Ubuntu" font-style="italic" font-size="10.00">string</text>
<polygon fill="none" stroke="black" points="1125,-119.5 1125,-196.5 1241,-196.5 1241,-119.5 1125,-119.5"/>
</a>
</g>
</g>
<!-- Node_Ja_107&#45;&gt;Node_Ja_108 -->
<g id="edge5" class="edge">
<title>Node_Ja_107:e&#45;&gt;Node_Ja_108</title>
<g id="a_edge5"><a xlink:title="Ja_107 &#45;&#45;&gt; Ja_108">
<path fill="none" stroke="#008000" d="M439.5,-128C541.46,-128 658.57,-112.72 731.92,-101.29"/>
<polygon fill="#008000" stroke="#008000" points="732.64,-104.72 741.98,-99.71 731.55,-97.81 732.64,-104.72"/>
</a>
</g>
</g>
<!-- Node_Ja_117 -->
<g id="node7" class="node">
<title>Node_Ja_117</title>
<g id="a_node7"><a xlink:title="ServerWorkerComm">
<polygon fill="#ffd700" stroke="transparent" points="12,-124.5 12,-171.5 222,-171.5 222,-124.5 12,-124.5"/>
<polygon fill="#ff7f50" stroke="transparent" points="13,-155 13,-170 221,-170 221,-155 13,-155"/>
<text text-anchor="start" x="104" y="-161" font-family="Ubuntu" font-weight="bold" font-size="10.00">ServerWorkerComm</text>
<text text-anchor="start" x="15" y="-146" font-family="Ubuntu" font-weight="bold" font-size="10.00">ServiceControl</text>
<text text-anchor="start" x="108" y="-145" font-family="Ubuntu" font-size="10.00">ScannerServiceControl</text>
<polygon fill="#ff7f50" stroke="transparent" points="102,-125 102,-140 106,-140 106,-125 102,-125"/>
<polygon fill="#ff7f50" stroke="transparent" points="106,-125 106,-140 221,-140 221,-125 106,-125"/>
<text text-anchor="start" x="108" y="-130" font-family="Ubuntu" font-size="10.00">ScannerServiceControl</text>
<polygon fill="none" stroke="black" points="12,-124.5 12,-171.5 222,-171.5 222,-124.5 12,-124.5"/>
</a>
</g>
</g>
<!-- Node_Ja_117&#45;&gt;Node_Ja_107 -->
<g id="edge4" class="edge">
<title>Node_Ja_117:e&#45;&gt;Node_Ja_107:header</title>
<g id="a_edge4"><a xlink:title="Ja_117 &#45;&#45;&gt; Ja_107">
<path fill="none" stroke="#000000" d="M222,-147C254.57,-147 265.14,-144.58 293.24,-144.09"/>
<polygon fill="#000000" stroke="#000000" points="293.53,-147.58 303.5,-144 293.47,-140.58 293.53,-147.58"/>
</a>
</g>
</g>
<!-- Node_Ja_117&#45;&gt;Node_Ja_107 -->
<g id="edge18" class="edge">
<title>Node_Ja_117:e&#45;&gt;Node_Ja_107:header</title>
<g id="a_edge18"><a xlink:title="Ja_117 &#45;&#45;&gt; Ja_107">
<path fill="none" stroke="#000000" d="M222,-132C254.89,-132 264.91,-141.69 293.16,-143.65"/>
<polygon fill="#000000" stroke="#000000" points="293.39,-147.16 303.5,-144 293.62,-140.17 293.39,-147.16"/>
</a>
</g>
</g>
<!-- Node_Ja_104 -->
<g id="node8" class="node">
<title>Node_Ja_104</title>
<g id="a_node8"><a xlink:title="proto.ScannerResponse">
<polygon fill="#fffaf0" stroke="transparent" points="517,-199.5 517,-306.5 698,-306.5 698,-199.5 517,-199.5"/>
<polygon fill="#e31a1c" stroke="transparent" points="518.5,-290 518.5,-305 697.5,-305 697.5,-290 518.5,-290"/>
<text text-anchor="start" x="595.5" y="-296" font-family="Ubuntu" font-weight="bold" font-size="10.00">ScannerResponse</text>
<text text-anchor="start" x="520.5" y="-280" font-family="Ubuntu" font-size="10.00">[...]</text>
<text text-anchor="start" x="541.5" y="-280" font-family="Ubuntu" font-size="10.00">1</text>
<text text-anchor="start" x="552.5" y="-280" font-family="Ubuntu" font-size="10.00">host_result</text>
<polygon fill="#fb9a99" stroke="transparent" points="632.5,-275 632.5,-290 697.5,-290 697.5,-275 632.5,-275"/>
<text text-anchor="start" x="634.5" y="-281" font-family="Ubuntu" font-weight="bold" font-size="10.00">HostResult</text>
<text text-anchor="start" x="541.5" y="-265" font-family="Ubuntu" font-size="10.00">2</text>
<text text-anchor="start" x="552.5" y="-265" font-family="Ubuntu" font-size="10.00">start_time</text>
<polygon fill="#a6cee3" stroke="transparent" points="632.5,-260 632.5,-275 697.5,-275 697.5,-260 632.5,-260"/>
<text text-anchor="start" x="667.5" y="-266" font-family="Ubuntu" font-style="italic" font-size="10.00">string</text>
<text text-anchor="start" x="541.5" y="-250" font-family="Ubuntu" font-size="10.00">3</text>
<text text-anchor="start" x="552.5" y="-250" font-family="Ubuntu" font-size="10.00">end_time</text>
<polygon fill="#a6cee3" stroke="transparent" points="632.5,-245 632.5,-260 697.5,-260 697.5,-245 632.5,-245"/>
<text text-anchor="start" x="667.5" y="-251" font-family="Ubuntu" font-style="italic" font-size="10.00">string</text>
<text text-anchor="start" x="541.5" y="-235" font-family="Ubuntu" font-size="10.00">4</text>
<text text-anchor="start" x="552.5" y="-235" font-family="Ubuntu" font-size="10.00">expiration_time</text>
<polygon fill="#a6cee3" stroke="transparent" points="632.5,-230 632.5,-245 697.5,-245 697.5,-230 632.5,-230"/>
<text text-anchor="start" x="667.5" y="-236" font-family="Ubuntu" font-style="italic" font-size="10.00">string</text>
<text text-anchor="start" x="541.5" y="-220" font-family="Ubuntu" font-size="10.00">5</text>
<text text-anchor="start" x="552.5" y="-220" font-family="Ubuntu" font-size="10.00">key</text>
<polygon fill="#a6cee3" stroke="transparent" points="632.5,-215 632.5,-230 697.5,-230 697.5,-215 632.5,-215"/>
<text text-anchor="start" x="667.5" y="-221" font-family="Ubuntu" font-style="italic" font-size="10.00">string</text>
<text text-anchor="start" x="541.5" y="-205" font-family="Ubuntu" font-size="10.00">6</text>
<text text-anchor="start" x="552.5" y="-205" font-family="Ubuntu" font-size="10.00">status</text>
<polygon fill="#b2df8a" stroke="transparent" points="632.5,-200 632.5,-215 697.5,-215 697.5,-200 632.5,-200"/>
<text text-anchor="start" x="664.5" y="-206" font-family="Ubuntu" text-decoration="underline" font-size="10.00">Status</text>
<polygon fill="none" stroke="black" points="517,-199.5 517,-306.5 698,-306.5 698,-199.5 517,-199.5"/>
</a>
</g>
</g>
<!-- Node_Ja_104&#45;&gt;Node_Ja_105 -->
<g id="edge14" class="edge">
<title>Node_Ja_104:e&#45;&gt;Node_Ja_105</title>
<g id="a_edge14"><a xlink:title="Ja_104 &#45;&#45;&gt; Ja_105">
<path fill="none" stroke="#008000" d="M698.5,-207C715.18,-207 733.35,-207 749.84,-207"/>
<polygon fill="#008000" stroke="#008000" points="749.86,-210.5 759.86,-207 749.86,-203.5 749.86,-210.5"/>
</a>
</g>
</g>
<!-- Node_Ja_103 -->
<g id="node10" class="node">
<title>Node_Ja_103</title>
<g id="a_node10"><a xlink:title="proto.HostResult">
<polygon fill="#fffaf0" stroke="transparent" points="758.5,-300.5 758.5,-347.5 851.5,-347.5 851.5,-300.5 758.5,-300.5"/>
<polygon fill="#e31a1c" stroke="transparent" points="760,-331 760,-346 851,-346 851,-331 760,-331"/>
<text text-anchor="start" x="788" y="-337" font-family="Ubuntu" font-weight="bold" font-size="10.00">HostResult</text>
<text text-anchor="start" x="783" y="-321" font-family="Ubuntu" font-size="10.00">1</text>
<text text-anchor="start" x="794" y="-321" font-family="Ubuntu" font-size="10.00">host</text>
<polygon fill="#fb9a99" stroke="transparent" points="821,-316 821,-331 851,-331 851,-316 821,-316"/>
<text text-anchor="start" x="823" y="-322" font-family="Ubuntu" font-weight="bold" font-size="10.00">Host</text>
<text text-anchor="start" x="762" y="-306" font-family="Ubuntu" font-size="10.00">[...]</text>
<text text-anchor="start" x="783" y="-306" font-family="Ubuntu" font-size="10.00">2</text>
<text text-anchor="start" x="794" y="-306" font-family="Ubuntu" font-size="10.00">ports</text>
<polygon fill="#fb9a99" stroke="transparent" points="821,-301 821,-316 851,-316 851,-301 821,-301"/>
<text text-anchor="start" x="824" y="-307" font-family="Ubuntu" font-weight="bold" font-size="10.00">Port</text>
<polygon fill="none" stroke="black" points="758.5,-300.5 758.5,-347.5 851.5,-347.5 851.5,-300.5 758.5,-300.5"/>
</a>
</g>
</g>
<!-- Node_Ja_104&#45;&gt;Node_Ja_103 -->
<g id="edge9" class="edge">
<title>Node_Ja_104:e&#45;&gt;Node_Ja_103:header</title>
<g id="a_edge9"><a xlink:title="Ja_104 &#45;&#45;&gt; Ja_103">
<path fill="none" stroke="#000000" d="M698.5,-283C731.28,-283 724.51,-327.81 748.94,-337.26"/>
<polygon fill="#000000" stroke="#000000" points="748.55,-340.75 759,-339 749.74,-333.85 748.55,-340.75"/>
</a>
</g>
</g>
<!-- Node_Ja_103&#45;&gt;Node_Ja_100 -->
<g id="edge13" class="edge">
<title>Node_Ja_103:e&#45;&gt;Node_Ja_100:header</title>
<g id="a_edge13"><a xlink:title="Ja_103 &#45;&#45;&gt; Ja_100">
<path fill="none" stroke="#000000" d="M852,-323C891.79,-323 895.58,-359.76 929.18,-366.08"/>
<polygon fill="#000000" stroke="#000000" points="929.23,-369.6 939.5,-367 929.85,-362.63 929.23,-369.6"/>
</a>
</g>
</g>
<!-- Node_Ja_102 -->
<g id="node12" class="node">
<title>Node_Ja_102</title>
<g id="a_node12"><a xlink:title="proto.Port">
<polygon fill="#fffaf0" stroke="transparent" points="912,-180 912,-272 1073,-272 1073,-180 912,-180"/>
<polygon fill="#e31a1c" stroke="transparent" points="913.5,-256 913.5,-271 1072.5,-271 1072.5,-256 913.5,-256"/>
<text text-anchor="start" x="1045.5" y="-262" font-family="Ubuntu" font-weight="bold" font-size="10.00">Port</text>
<text text-anchor="start" x="919.5" y="-246" font-family="Ubuntu" font-size="10.00">1</text>
<text text-anchor="start" x="930.5" y="-246" font-family="Ubuntu" font-size="10.00">port_id</text>
<polygon fill="#a6cee3" stroke="transparent" points="1001.5,-241 1001.5,-256 1072.5,-256 1072.5,-241 1001.5,-241"/>
<text text-anchor="start" x="1042.5" y="-247" font-family="Ubuntu" font-style="italic" font-size="10.00">string</text>
<text text-anchor="start" x="919.5" y="-231" font-family="Ubuntu" font-size="10.00">2</text>
<text text-anchor="start" x="930.5" y="-231" font-family="Ubuntu" font-size="10.00">protocol</text>
<polygon fill="#a6cee3" stroke="transparent" points="1001.5,-226 1001.5,-241 1072.5,-241 1072.5,-226 1001.5,-226"/>
<text text-anchor="start" x="1042.5" y="-232" font-family="Ubuntu" font-style="italic" font-size="10.00">string</text>
<text text-anchor="start" x="919.5" y="-216" font-family="Ubuntu" font-size="10.00">3</text>
<text text-anchor="start" x="930.5" y="-216" font-family="Ubuntu" font-size="10.00">state</text>
<polygon fill="#a6cee3" stroke="transparent" points="1001.5,-211 1001.5,-226 1072.5,-226 1072.5,-211 1001.5,-211"/>
<text text-anchor="start" x="1042.5" y="-217" font-family="Ubuntu" font-style="italic" font-size="10.00">string</text>
<text text-anchor="start" x="919.5" y="-201" font-family="Ubuntu" font-size="10.00">4</text>
<text text-anchor="start" x="930.5" y="-201" font-family="Ubuntu" font-size="10.00">service_name</text>
<polygon fill="#a6cee3" stroke="transparent" points="1001.5,-196 1001.5,-211 1072.5,-211 1072.5,-196 1001.5,-196"/>
<text text-anchor="start" x="1042.5" y="-202" font-family="Ubuntu" font-style="italic" font-size="10.00">string</text>
<text text-anchor="start" x="919.5" y="-186" font-family="Ubuntu" font-size="10.00">5</text>
<text text-anchor="start" x="930.5" y="-186" font-family="Ubuntu" font-size="10.00">version</text>
<polygon fill="#fb9a99" stroke="transparent" points="1001.5,-181 1001.5,-196 1072.5,-196 1072.5,-181 1001.5,-181"/>
<text text-anchor="start" x="1003.5" y="-187" font-family="Ubuntu" font-weight="bold" font-size="10.00">PortVersion</text>
<polygon fill="none" stroke="black" points="912,-180 912,-272 1073,-272 1073,-180 912,-180"/>
</a>
</g>
</g>
<!-- Node_Ja_103&#45;&gt;Node_Ja_102 -->
<g id="edge8" class="edge">
<title>Node_Ja_103:e&#45;&gt;Node_Ja_102:header</title>
<g id="a_edge8"><a xlink:title="Ja_103 &#45;&#45;&gt; Ja_102">
<path fill="none" stroke="#000000" d="M852,-308C881.48,-308 880.11,-273.4 902.6,-265.57"/>
<polygon fill="#000000" stroke="#000000" points="903.17,-269.02 912.5,-264 902.08,-262.11 903.17,-269.02"/>
</a>
</g>
</g>
<!-- Node_Ja_110&#45;&gt;Node_Ja_104 -->
<g id="edge10" class="edge">
<title>Node_Ja_110:e&#45;&gt;Node_Ja_104:header</title>
<g id="a_edge10"><a xlink:title="Ja_110 &#45;&#45;&gt; Ja_104">
<path fill="none" stroke="#000000" d="M453.5,-259C483.04,-259 484.32,-289.66 507.46,-296.61"/>
<polygon fill="#000000" stroke="#000000" points="507.11,-300.1 517.5,-298 508.07,-293.16 507.11,-300.1"/>
</a>
</g>
</g>
<!-- Node_Ja_102&#45;&gt;Node_Ja_101 -->
<g id="edge19" class="edge">
<title>Node_Ja_102:e&#45;&gt;Node_Ja_101:header</title>
<g id="a_edge19"><a xlink:title="Ja_102 &#45;&#45;&gt; Ja_101">
<path fill="none" stroke="#000000" d="M1073.5,-188C1092.63,-188 1099.77,-188 1114.97,-188"/>
<polygon fill="#000000" stroke="#000000" points="1115,-191.5 1125,-188 1115,-184.5 1115,-191.5"/>
</a>
</g>
</g>
</g>
</svg>
