<?xml version="1.0" encoding="UTF-8" standalone="no"?>
<!DOCTYPE svg PUBLIC "-//W3C//DTD SVG 1.1//EN"
 "http://www.w3.org/Graphics/SVG/1.1/DTD/svg11.dtd">
<!-- Generated by graphviz version 2.47.3 (0)
 -->
<!-- Title: protodot Pages: 1 -->
<svg width="1240pt" height="559pt"
 viewBox="0.00 0.00 1240.00 558.50" xmlns="http://www.w3.org/2000/svg" xmlns:xlink="http://www.w3.org/1999/xlink">
<g id="graph0" class="graph" transform="scale(1 1) rotate(0) translate(4 554.5)">
<title>protodot</title>
<g id="a_graph0"><a xlink:title="proto">
<text text-anchor="middle" x="616" y="-7.8" font-family="Times,serif" font-size="14.00">proto</text>
</a>
</g>
<g id="clust1" class="cluster">
<title>cluster_dfe805b7589f</title>
<g id="a_clust1"><a xlink:title="proto">
<polygon fill="#caff70" stroke="black" points="64,-398.5 64,-537.5 170,-537.5 170,-398.5 64,-398.5"/>
<text text-anchor="middle" x="117" y="-522.3" font-family="Times,serif" font-size="14.00">proto</text>
</a>
</g>
</g>
<!-- Node_Ja_101 -->
<g id="node1" class="node">
<title>Node_Ja_101</title>
<g id="a_node1"><a xlink:title="proto.PortVersion">
<polygon fill="#fffaf0" stroke="transparent" points="1108,-27 1108,-104 1224,-104 1224,-27 1108,-27"/>
<polygon fill="#e31a1c" stroke="transparent" points="1109,-87.5 1109,-102.5 1223,-102.5 1223,-87.5 1109,-87.5"/>
<text text-anchor="start" x="1154" y="-93.5" font-family="Ubuntu" font-weight="bold" font-size="10.00">PortVersion</text>
<text text-anchor="start" x="1115" y="-77.5" font-family="Ubuntu" font-size="10.00">1</text>
<text text-anchor="start" x="1126" y="-77.5" font-family="Ubuntu" font-size="10.00">low_version</text>
<polygon fill="#a6cee3" stroke="transparent" points="1191,-72.5 1191,-87.5 1223,-87.5 1223,-72.5 1191,-72.5"/>
<text text-anchor="start" x="1193" y="-78.5" font-family="Ubuntu" font-style="italic" font-size="10.00">string</text>
<text text-anchor="start" x="1115" y="-62.5" font-family="Ubuntu" font-size="10.00">2</text>
<text text-anchor="start" x="1126" y="-62.5" font-family="Ubuntu" font-size="10.00">high_version</text>
<polygon fill="#a6cee3" stroke="transparent" points="1191,-57.5 1191,-72.5 1223,-72.5 1223,-57.5 1191,-57.5"/>
<text text-anchor="start" x="1193" y="-63.5" font-family="Ubuntu" font-style="italic" font-size="10.00">string</text>
<text text-anchor="start" x="1115" y="-47.5" font-family="Ubuntu" font-size="10.00">3</text>
<text text-anchor="start" x="1126" y="-47.5" font-family="Ubuntu" font-size="10.00">extra_infos</text>
<polygon fill="#a6cee3" stroke="transparent" points="1191,-42.5 1191,-57.5 1223,-57.5 1223,-42.5 1191,-42.5"/>
<text text-anchor="start" x="1193" y="-48.5" font-family="Ubuntu" font-style="italic" font-size="10.00">string</text>
<text text-anchor="start" x="1115" y="-32.5" font-family="Ubuntu" font-size="10.00">4</text>
<text text-anchor="start" x="1126" y="-32.5" font-family="Ubuntu" font-size="10.00">product</text>
<polygon fill="#a6cee3" stroke="transparent" points="1191,-27.5 1191,-42.5 1223,-42.5 1223,-27.5 1191,-27.5"/>
<text text-anchor="start" x="1193" y="-33.5" font-family="Ubuntu" font-style="italic" font-size="10.00">string</text>
<polygon fill="none" stroke="black" points="1108,-27 1108,-104 1224,-104 1224,-27 1108,-27"/>
</a>
</g>
</g>
<!-- Node_Ja_102 -->
<g id="node2" class="node">
<title>Node_Ja_102</title>
<g id="a_node2"><a xlink:title="proto.Port">
<polygon fill="#fffaf0" stroke="transparent" points="895,-87.5 895,-179.5 1056,-179.5 1056,-87.5 895,-87.5"/>
<polygon fill="#e31a1c" stroke="transparent" points="896.5,-163.5 896.5,-178.5 1055.5,-178.5 1055.5,-163.5 896.5,-163.5"/>
<text text-anchor="start" x="1028.5" y="-169.5" font-family="Ubuntu" font-weight="bold" font-size="10.00">Port</text>
<text text-anchor="start" x="902.5" y="-153.5" font-family="Ubuntu" font-size="10.00">1</text>
<text text-anchor="start" x="913.5" y="-153.5" font-family="Ubuntu" font-size="10.00">port_id</text>
<polygon fill="#a6cee3" stroke="transparent" points="984.5,-148.5 984.5,-163.5 1055.5,-163.5 1055.5,-148.5 984.5,-148.5"/>
<text text-anchor="start" x="1025.5" y="-154.5" font-family="Ubuntu" font-style="italic" font-size="10.00">string</text>
<text text-anchor="start" x="902.5" y="-138.5" font-family="Ubuntu" font-size="10.00">2</text>
<text text-anchor="start" x="913.5" y="-138.5" font-family="Ubuntu" font-size="10.00">protocol</text>
<polygon fill="#a6cee3" stroke="transparent" points="984.5,-133.5 984.5,-148.5 1055.5,-148.5 1055.5,-133.5 984.5,-133.5"/>
<text text-anchor="start" x="1025.5" y="-139.5" font-family="Ubuntu" font-style="italic" font-size="10.00">string</text>
<text text-anchor="start" x="902.5" y="-123.5" font-family="Ubuntu" font-size="10.00">3</text>
<text text-anchor="start" x="913.5" y="-123.5" font-family="Ubuntu" font-size="10.00">state</text>
<polygon fill="#a6cee3" stroke="transparent" points="984.5,-118.5 984.5,-133.5 1055.5,-133.5 1055.5,-118.5 984.5,-118.5"/>
<text text-anchor="start" x="1025.5" y="-124.5" font-family="Ubuntu" font-style="italic" font-size="10.00">string</text>
<text text-anchor="start" x="902.5" y="-108.5" font-family="Ubuntu" font-size="10.00">4</text>
<text text-anchor="start" x="913.5" y="-108.5" font-family="Ubuntu" font-size="10.00">service_name</text>
<polygon fill="#a6cee3" stroke="transparent" points="984.5,-103.5 984.5,-118.5 1055.5,-118.5 1055.5,-103.5 984.5,-103.5"/>
<text text-anchor="start" x="1025.5" y="-109.5" font-family="Ubuntu" font-style="italic" font-size="10.00">string</text>
<text text-anchor="start" x="902.5" y="-93.5" font-family="Ubuntu" font-size="10.00">5</text>
<text text-anchor="start" x="913.5" y="-93.5" font-family="Ubuntu" font-size="10.00">version</text>
<polygon fill="#fb9a99" stroke="transparent" points="984.5,-88.5 984.5,-103.5 1055.5,-103.5 1055.5,-88.5 984.5,-88.5"/>
<text text-anchor="start" x="986.5" y="-94.5" font-family="Ubuntu" font-weight="bold" font-size="10.00">PortVersion</text>
<polygon fill="none" stroke="black" points="895,-87.5 895,-179.5 1056,-179.5 1056,-87.5 895,-87.5"/>
</a>
</g>
</g>
<!-- Node_Ja_102&#45;&gt;Node_Ja_101 -->
<g id="edge11" class="edge">
<title>Node_Ja_102:e&#45;&gt;Node_Ja_101:header</title>
<g id="a_edge11"><a xlink:title="Ja_102 &#45;&#45;&gt; Ja_101">
<path fill="none" stroke="#000000" d="M1056.5,-95.5C1075.63,-95.5 1082.77,-95.5 1097.97,-95.5"/>
<polygon fill="#000000" stroke="#000000" points="1098,-99 1108,-95.5 1098,-92 1098,-99"/>
</a>
</g>
</g>
<!-- Node_Ja_103 -->
<g id="node3" class="node">
<title>Node_Ja_103</title>
<g id="a_node3"><a xlink:title="proto.HostResult">
<polygon fill="#fffaf0" stroke="transparent" points="750,-200 750,-247 843,-247 843,-200 750,-200"/>
<polygon fill="#e31a1c" stroke="transparent" points="751.5,-230.5 751.5,-245.5 842.5,-245.5 842.5,-230.5 751.5,-230.5"/>
<text text-anchor="start" x="779.5" y="-236.5" font-family="Ubuntu" font-weight="bold" font-size="10.00">HostResult</text>
<text text-anchor="start" x="774.5" y="-220.5" font-family="Ubuntu" font-size="10.00">1</text>
<text text-anchor="start" x="785.5" y="-220.5" font-family="Ubuntu" font-size="10.00">host</text>
<polygon fill="#fb9a99" stroke="transparent" points="812.5,-215.5 812.5,-230.5 842.5,-230.5 842.5,-215.5 812.5,-215.5"/>
<text text-anchor="start" x="814.5" y="-221.5" font-family="Ubuntu" font-weight="bold" font-size="10.00">Host</text>
<text text-anchor="start" x="753.5" y="-205.5" font-family="Ubuntu" font-size="10.00">[...]</text>
<text text-anchor="start" x="774.5" y="-205.5" font-family="Ubuntu" font-size="10.00">2</text>
<text text-anchor="start" x="785.5" y="-205.5" font-family="Ubuntu" font-size="10.00">ports</text>
<polygon fill="#fb9a99" stroke="transparent" points="812.5,-200.5 812.5,-215.5 842.5,-215.5 842.5,-200.5 812.5,-200.5"/>
<text text-anchor="start" x="815.5" y="-206.5" font-family="Ubuntu" font-weight="bold" font-size="10.00">Port</text>
<polygon fill="none" stroke="black" points="750,-200 750,-247 843,-247 843,-200 750,-200"/>
</a>
</g>
</g>
<!-- Node_Ja_103&#45;&gt;Node_Ja_102 -->
<g id="edge12" class="edge">
<title>Node_Ja_103:e&#45;&gt;Node_Ja_102:header</title>
<g id="a_edge12"><a xlink:title="Ja_103 &#45;&#45;&gt; Ja_102">
<path fill="none" stroke="#000000" d="M843.5,-207.5C867.66,-207.5 867.94,-180.91 885.38,-173.44"/>
<polygon fill="#000000" stroke="#000000" points="886.34,-176.82 895.5,-171.5 885.02,-169.94 886.34,-176.82"/>
</a>
</g>
</g>
<!-- Node_Ja_100 -->
<g id="node8" class="node">
<title>Node_Ja_100</title>
<g id="a_node8"><a xlink:title="proto.Host">
<polygon fill="#fffaf0" stroke="transparent" points="922.5,-205.5 922.5,-267.5 1028.5,-267.5 1028.5,-205.5 922.5,-205.5"/>
<polygon fill="#e31a1c" stroke="transparent" points="923.5,-251.5 923.5,-266.5 1027.5,-266.5 1027.5,-251.5 923.5,-251.5"/>
<text text-anchor="start" x="999.5" y="-257.5" font-family="Ubuntu" font-weight="bold" font-size="10.00">Host</text>
<text text-anchor="start" x="929.5" y="-241.5" font-family="Ubuntu" font-size="10.00">1</text>
<text text-anchor="start" x="940.5" y="-241.5" font-family="Ubuntu" font-size="10.00">address</text>
<polygon fill="#a6cee3" stroke="transparent" points="995.5,-236.5 995.5,-251.5 1027.5,-251.5 1027.5,-236.5 995.5,-236.5"/>
<text text-anchor="start" x="997.5" y="-242.5" font-family="Ubuntu" font-style="italic" font-size="10.00">string</text>
<text text-anchor="start" x="929.5" y="-226.5" font-family="Ubuntu" font-size="10.00">2</text>
<text text-anchor="start" x="940.5" y="-226.5" font-family="Ubuntu" font-size="10.00">os_version</text>
<polygon fill="#a6cee3" stroke="transparent" points="995.5,-221.5 995.5,-236.5 1027.5,-236.5 1027.5,-221.5 995.5,-221.5"/>
<text text-anchor="start" x="997.5" y="-227.5" font-family="Ubuntu" font-style="italic" font-size="10.00">string</text>
<text text-anchor="start" x="929.5" y="-211.5" font-family="Ubuntu" font-size="10.00">3</text>
<text text-anchor="start" x="940.5" y="-211.5" font-family="Ubuntu" font-size="10.00">state</text>
<polygon fill="#a6cee3" stroke="transparent" points="995.5,-206.5 995.5,-221.5 1027.5,-221.5 1027.5,-206.5 995.5,-206.5"/>
<text text-anchor="start" x="997.5" y="-212.5" font-family="Ubuntu" font-style="italic" font-size="10.00">string</text>
<polygon fill="none" stroke="black" points="922.5,-205.5 922.5,-267.5 1028.5,-267.5 1028.5,-205.5 922.5,-205.5"/>
</a>
</g>
</g>
<!-- Node_Ja_103&#45;&gt;Node_Ja_100 -->
<g id="edge5" class="edge">
<title>Node_Ja_103:e&#45;&gt;Node_Ja_100:header</title>
<g id="a_edge5"><a xlink:title="Ja_103 &#45;&#45;&gt; Ja_100">
<path fill="none" stroke="#000000" d="M843.5,-222.5C878.64,-222.5 883.13,-252.89 912.52,-258.59"/>
<polygon fill="#000000" stroke="#000000" points="912.22,-262.07 922.5,-259.5 912.86,-255.1 912.22,-262.07"/>
</a>
</g>
</g>
<!-- Node_Ja_104 -->
<g id="node4" class="node">
<title>Node_Ja_104</title>
<g id="a_node4"><a xlink:title="proto.ScannerResponse">
<polygon fill="#fffaf0" stroke="transparent" points="517,-169.5 517,-261.5 698,-261.5 698,-169.5 517,-169.5"/>
<polygon fill="#e31a1c" stroke="transparent" points="518.5,-245.5 518.5,-260.5 697.5,-260.5 697.5,-245.5 518.5,-245.5"/>
<text text-anchor="start" x="595.5" y="-251.5" font-family="Ubuntu" font-weight="bold" font-size="10.00">ScannerResponse</text>
<text text-anchor="start" x="520.5" y="-235.5" font-family="Ubuntu" font-size="10.00">[...]</text>
<text text-anchor="start" x="541.5" y="-235.5" font-family="Ubuntu" font-size="10.00">1</text>
<text text-anchor="start" x="552.5" y="-235.5" font-family="Ubuntu" font-size="10.00">host_result</text>
<polygon fill="#fb9a99" stroke="transparent" points="632.5,-230.5 632.5,-245.5 697.5,-245.5 697.5,-230.5 632.5,-230.5"/>
<text text-anchor="start" x="634.5" y="-236.5" font-family="Ubuntu" font-weight="bold" font-size="10.00">HostResult</text>
<text text-anchor="start" x="541.5" y="-220.5" font-family="Ubuntu" font-size="10.00">2</text>
<text text-anchor="start" x="552.5" y="-220.5" font-family="Ubuntu" font-size="10.00">start_time</text>
<polygon fill="#a6cee3" stroke="transparent" points="632.5,-215.5 632.5,-230.5 697.5,-230.5 697.5,-215.5 632.5,-215.5"/>
<text text-anchor="start" x="667.5" y="-221.5" font-family="Ubuntu" font-style="italic" font-size="10.00">string</text>
<text text-anchor="start" x="541.5" y="-205.5" font-family="Ubuntu" font-size="10.00">3</text>
<text text-anchor="start" x="552.5" y="-205.5" font-family="Ubuntu" font-size="10.00">end_time</text>
<polygon fill="#a6cee3" stroke="transparent" points="632.5,-200.5 632.5,-215.5 697.5,-215.5 697.5,-200.5 632.5,-200.5"/>
<text text-anchor="start" x="667.5" y="-206.5" font-family="Ubuntu" font-style="italic" font-size="10.00">string</text>
<text text-anchor="start" x="541.5" y="-190.5" font-family="Ubuntu" font-size="10.00">4</text>
<text text-anchor="start" x="552.5" y="-190.5" font-family="Ubuntu" font-size="10.00">expiration_time</text>
<polygon fill="#a6cee3" stroke="transparent" points="632.5,-185.5 632.5,-200.5 697.5,-200.5 697.5,-185.5 632.5,-185.5"/>
<text text-anchor="start" x="667.5" y="-191.5" font-family="Ubuntu" font-style="italic" font-size="10.00">string</text>
<text text-anchor="start" x="541.5" y="-175.5" font-family="Ubuntu" font-size="10.00">5</text>
<text text-anchor="start" x="552.5" y="-175.5" font-family="Ubuntu" font-size="10.00">key</text>
<polygon fill="#a6cee3" stroke="transparent" points="632.5,-170.5 632.5,-185.5 697.5,-185.5 697.5,-170.5 632.5,-170.5"/>
<text text-anchor="start" x="667.5" y="-176.5" font-family="Ubuntu" font-style="italic" font-size="10.00">string</text>
<polygon fill="none" stroke="black" points="517,-169.5 517,-261.5 698,-261.5 698,-169.5 517,-169.5"/>
</a>
</g>
</g>
<!-- Node_Ja_104&#45;&gt;Node_Ja_103 -->
<g id="edge6" class="edge">
<title>Node_Ja_104:e&#45;&gt;Node_Ja_103:header</title>
<g id="a_edge6"><a xlink:title="Ja_104 &#45;&#45;&gt; Ja_103">
<path fill="none" stroke="#000000" d="M698.5,-238.5C717.82,-238.5 725.03,-238.5 740.37,-238.5"/>
<polygon fill="#000000" stroke="#000000" points="740.5,-242 750.5,-238.5 740.5,-235 740.5,-242"/>
</a>
</g>
</g>
<!-- Node_Ja_106 -->
<g id="node5" class="node">
<title>Node_Ja_106</title>
<g id="a_node5"><a xlink:title="proto.ParamsScannerRequest">
<polygon fill="#fffaf0" stroke="transparent" points="278,-334.5 278,-546.5 465,-546.5 465,-334.5 278,-334.5"/>
<polygon fill="#e31a1c" stroke="transparent" points="279.5,-530.5 279.5,-545.5 464.5,-545.5 464.5,-530.5 279.5,-530.5"/>
<text text-anchor="start" x="328.5" y="-536.5" font-family="Ubuntu" font-weight="bold" font-size="10.00">ParamsScannerRequest</text>
<text text-anchor="start" x="291.5" y="-520.5" font-family="Ubuntu" font-size="10.00">1</text>
<text text-anchor="start" x="302.5" y="-520.5" font-family="Ubuntu" font-size="10.00">hosts</text>
<polygon fill="#a6cee3" stroke="transparent" points="432.5,-515.5 432.5,-530.5 464.5,-530.5 464.5,-515.5 432.5,-515.5"/>
<text text-anchor="start" x="434.5" y="-521.5" font-family="Ubuntu" font-style="italic" font-size="10.00">string</text>
<text text-anchor="start" x="291.5" y="-505.5" font-family="Ubuntu" font-size="10.00">2</text>
<text text-anchor="start" x="302.5" y="-505.5" font-family="Ubuntu" font-size="10.00">ports</text>
<polygon fill="#a6cee3" stroke="transparent" points="432.5,-500.5 432.5,-515.5 464.5,-515.5 464.5,-500.5 432.5,-500.5"/>
<text text-anchor="start" x="434.5" y="-506.5" font-family="Ubuntu" font-style="italic" font-size="10.00">string</text>
<text text-anchor="start" x="291.5" y="-490.5" font-family="Ubuntu" font-size="10.00">3</text>
<text text-anchor="start" x="302.5" y="-490.5" font-family="Ubuntu" font-size="10.00">with_aggressive_scan</text>
<polygon fill="#a6cee3" stroke="transparent" points="432.5,-485.5 432.5,-500.5 464.5,-500.5 464.5,-485.5 432.5,-485.5"/>
<text text-anchor="start" x="440.5" y="-491.5" font-family="Ubuntu" font-style="italic" font-size="10.00">bool</text>
<text text-anchor="start" x="291.5" y="-475.5" font-family="Ubuntu" font-size="10.00">4</text>
<text text-anchor="start" x="302.5" y="-475.5" font-family="Ubuntu" font-size="10.00">with_syn_scan</text>
<polygon fill="#a6cee3" stroke="transparent" points="432.5,-470.5 432.5,-485.5 464.5,-485.5 464.5,-470.5 432.5,-470.5"/>
<text text-anchor="start" x="440.5" y="-476.5" font-family="Ubuntu" font-style="italic" font-size="10.00">bool</text>
<text text-anchor="start" x="291.5" y="-460.5" font-family="Ubuntu" font-size="10.00">5</text>
<text text-anchor="start" x="302.5" y="-460.5" font-family="Ubuntu" font-size="10.00">with_null_scan</text>
<polygon fill="#a6cee3" stroke="transparent" points="432.5,-455.5 432.5,-470.5 464.5,-470.5 464.5,-455.5 432.5,-455.5"/>
<text text-anchor="start" x="440.5" y="-461.5" font-family="Ubuntu" font-style="italic" font-size="10.00">bool</text>
<text text-anchor="start" x="291.5" y="-445.5" font-family="Ubuntu" font-size="10.00">6</text>
<text text-anchor="start" x="302.5" y="-445.5" font-family="Ubuntu" font-size="10.00">service_version_detection</text>
<polygon fill="#a6cee3" stroke="transparent" points="432.5,-440.5 432.5,-455.5 464.5,-455.5 464.5,-440.5 432.5,-440.5"/>
<text text-anchor="start" x="440.5" y="-446.5" font-family="Ubuntu" font-style="italic" font-size="10.00">bool</text>
<text text-anchor="start" x="291.5" y="-430.5" font-family="Ubuntu" font-size="10.00">7</text>
<text text-anchor="start" x="302.5" y="-430.5" font-family="Ubuntu" font-size="10.00">os_detection</text>
<polygon fill="#a6cee3" stroke="transparent" points="432.5,-425.5 432.5,-440.5 464.5,-440.5 464.5,-425.5 432.5,-425.5"/>
<text text-anchor="start" x="440.5" y="-431.5" font-family="Ubuntu" font-style="italic" font-size="10.00">bool</text>
<text text-anchor="start" x="291.5" y="-415.5" font-family="Ubuntu" font-size="10.00">8</text>
<text text-anchor="start" x="302.5" y="-415.5" font-family="Ubuntu" font-size="10.00">service_default_scripts</text>
<polygon fill="#a6cee3" stroke="transparent" points="432.5,-410.5 432.5,-425.5 464.5,-425.5 464.5,-410.5 432.5,-410.5"/>
<text text-anchor="start" x="440.5" y="-416.5" font-family="Ubuntu" font-style="italic" font-size="10.00">bool</text>
<text text-anchor="start" x="291.5" y="-400.5" font-family="Ubuntu" font-size="10.00">9</text>
<text text-anchor="start" x="302.5" y="-400.5" font-family="Ubuntu" font-size="10.00">timeout</text>
<polygon fill="#a6cee3" stroke="transparent" points="432.5,-395.5 432.5,-410.5 464.5,-410.5 464.5,-395.5 432.5,-395.5"/>
<text text-anchor="start" x="437.5" y="-401.5" font-family="Ubuntu" font-style="italic" font-size="10.00">int32</text>
<text text-anchor="start" x="285.5" y="-385.5" font-family="Ubuntu" font-size="10.00">10</text>
<text text-anchor="start" x="302.5" y="-385.5" font-family="Ubuntu" font-size="10.00">ping_only</text>
<polygon fill="#a6cee3" stroke="transparent" points="432.5,-380.5 432.5,-395.5 464.5,-395.5 464.5,-380.5 432.5,-380.5"/>
<text text-anchor="start" x="440.5" y="-386.5" font-family="Ubuntu" font-style="italic" font-size="10.00">bool</text>
<text text-anchor="start" x="285.5" y="-370.5" font-family="Ubuntu" font-size="10.00">11</text>
<text text-anchor="start" x="302.5" y="-370.5" font-family="Ubuntu" font-size="10.00">retention_time</text>
<polygon fill="#a6cee3" stroke="transparent" points="432.5,-365.5 432.5,-380.5 464.5,-380.5 464.5,-365.5 432.5,-365.5"/>
<text text-anchor="start" x="437.5" y="-371.5" font-family="Ubuntu" font-style="italic" font-size="10.00">int32</text>
<text text-anchor="start" x="285.5" y="-355.5" font-family="Ubuntu" font-size="10.00">12</text>
<text text-anchor="start" x="302.5" y="-355.5" font-family="Ubuntu" font-size="10.00">fast_mode</text>
<polygon fill="#a6cee3" stroke="transparent" points="432.5,-350.5 432.5,-365.5 464.5,-365.5 464.5,-350.5 432.5,-350.5"/>
<text text-anchor="start" x="440.5" y="-356.5" font-family="Ubuntu" font-style="italic" font-size="10.00">bool</text>
<text text-anchor="start" x="285.5" y="-340.5" font-family="Ubuntu" font-size="10.00">13</text>
<text text-anchor="start" x="302.5" y="-340.5" font-family="Ubuntu" font-size="10.00">key</text>
<polygon fill="#a6cee3" stroke="transparent" points="432.5,-335.5 432.5,-350.5 464.5,-350.5 464.5,-335.5 432.5,-335.5"/>
<text text-anchor="start" x="434.5" y="-341.5" font-family="Ubuntu" font-style="italic" font-size="10.00">string</text>
<polygon fill="none" stroke="black" points="278,-334.5 278,-546.5 465,-546.5 465,-334.5 278,-334.5"/>
</a>
</g>
</g>
<!-- Node_Ja_107 -->
<g id="node6" class="node">
<title>Node_Ja_107</title>
<g id="a_node6"><a xlink:title="proto.GetScannerRequest">
<polygon fill="#fffaf0" stroke="transparent" points="312.5,-172.5 312.5,-204.5 430.5,-204.5 430.5,-172.5 312.5,-172.5"/>
<polygon fill="#e31a1c" stroke="transparent" points="313.5,-188.5 313.5,-203.5 429.5,-203.5 429.5,-188.5 313.5,-188.5"/>
<text text-anchor="start" x="315.5" y="-194.5" font-family="Ubuntu" font-weight="bold" font-size="10.00">GetScannerRequest</text>
<text text-anchor="start" x="354.5" y="-178.5" font-family="Ubuntu" font-size="10.00">1</text>
<text text-anchor="start" x="365.5" y="-178.5" font-family="Ubuntu" font-size="10.00">key</text>
<polygon fill="#a6cee3" stroke="transparent" points="391.5,-173.5 391.5,-188.5 429.5,-188.5 429.5,-173.5 391.5,-173.5"/>
<text text-anchor="start" x="399.5" y="-179.5" font-family="Ubuntu" font-style="italic" font-size="10.00">string</text>
<polygon fill="none" stroke="black" points="312.5,-172.5 312.5,-204.5 430.5,-204.5 430.5,-172.5 312.5,-172.5"/>
</a>
</g>
</g>
<!-- Node_Ja_108 -->
<g id="node7" class="node">
<title>Node_Ja_108</title>
<g id="a_node7"><a xlink:title="proto.ServerResponse">
<polygon fill="#fffaf0" stroke="transparent" points="289.5,-231 289.5,-308 453.5,-308 453.5,-231 289.5,-231"/>
<polygon fill="#e31a1c" stroke="transparent" points="290.5,-291.5 290.5,-306.5 452.5,-306.5 452.5,-291.5 290.5,-291.5"/>
<text text-anchor="start" x="357.5" y="-297.5" font-family="Ubuntu" font-weight="bold" font-size="10.00">ServerResponse</text>
<text text-anchor="start" x="296.5" y="-281.5" font-family="Ubuntu" font-size="10.00">1</text>
<text text-anchor="start" x="307.5" y="-281.5" font-family="Ubuntu" font-size="10.00">success</text>
<polygon fill="#a6cee3" stroke="transparent" points="348.5,-276.5 348.5,-291.5 452.5,-291.5 452.5,-276.5 348.5,-276.5"/>
<text text-anchor="start" x="428.5" y="-282.5" font-family="Ubuntu" font-style="italic" font-size="10.00">bool</text>
<text text-anchor="start" x="296.5" y="-266.5" font-family="Ubuntu" font-size="10.00">2</text>
<text text-anchor="start" x="307.5" y="-266.5" font-family="Ubuntu" font-size="10.00">key</text>
<polygon fill="#a6cee3" stroke="transparent" points="348.5,-261.5 348.5,-276.5 452.5,-276.5 452.5,-261.5 348.5,-261.5"/>
<text text-anchor="start" x="422.5" y="-267.5" font-family="Ubuntu" font-style="italic" font-size="10.00">string</text>
<text text-anchor="start" x="296.5" y="-251.5" font-family="Ubuntu" font-size="10.00">3</text>
<text text-anchor="start" x="307.5" y="-251.5" font-family="Ubuntu" font-size="10.00">value</text>
<polygon fill="#fb9a99" stroke="transparent" points="348.5,-246.5 348.5,-261.5 452.5,-261.5 452.5,-246.5 348.5,-246.5"/>
<text text-anchor="start" x="350.5" y="-252.5" font-family="Ubuntu" font-weight="bold" font-size="10.00">ScannerResponse</text>
<text text-anchor="start" x="296.5" y="-236.5" font-family="Ubuntu" font-size="10.00">4</text>
<text text-anchor="start" x="307.5" y="-236.5" font-family="Ubuntu" font-size="10.00">error</text>
<polygon fill="#a6cee3" stroke="transparent" points="348.5,-231.5 348.5,-246.5 452.5,-246.5 452.5,-231.5 348.5,-231.5"/>
<text text-anchor="start" x="422.5" y="-237.5" font-family="Ubuntu" font-style="italic" font-size="10.00">string</text>
<polygon fill="none" stroke="black" points="289.5,-231 289.5,-308 453.5,-308 453.5,-231 289.5,-231"/>
</a>
</g>
</g>
<!-- Node_Ja_108&#45;&gt;Node_Ja_104 -->
<g id="edge13" class="edge">
<title>Node_Ja_108:e&#45;&gt;Node_Ja_104:header</title>
<g id="a_edge13"><a xlink:title="Ja_108 &#45;&#45;&gt; Ja_104">
<path fill="none" stroke="#000000" d="M453.5,-253.5C478.28,-253.5 486.87,-253.5 507.47,-253.5"/>
<polygon fill="#000000" stroke="#000000" points="507.5,-257 517.5,-253.5 507.5,-250 507.5,-257"/>
</a>
</g>
</g>
<!-- Node_Ja_109 -->
<g id="node9" class="node">
<title>Node_Ja_109</title>
<g id="a_node9"><a xlink:title="ScannerService">
<polygon fill="#ffd700" stroke="transparent" points="8,-247 8,-384 226,-384 226,-247 8,-247"/>
<polygon fill="#ff7f50" stroke="transparent" points="9,-367.5 9,-382.5 225,-382.5 225,-367.5 9,-367.5"/>
<text text-anchor="start" x="134" y="-373.5" font-family="Ubuntu" font-weight="bold" font-size="10.00">ScannerService</text>
<text text-anchor="start" x="11" y="-358.5" font-family="Ubuntu" font-weight="bold" font-size="10.00">StartAsyncScan</text>
<text text-anchor="start" x="108" y="-357.5" font-family="Ubuntu" font-size="10.00">ParamsScannerRequest</text>
<polygon fill="#ff7f50" stroke="transparent" points="102,-337.5 102,-352.5 106,-352.5 106,-337.5 102,-337.5"/>
<polygon fill="#ff7f50" stroke="transparent" points="106,-337.5 106,-352.5 225,-352.5 225,-337.5 106,-337.5"/>
<text text-anchor="start" x="144" y="-342.5" font-family="Ubuntu" font-size="10.00">ServerResponse</text>
<text text-anchor="start" x="11" y="-328.5" font-family="Ubuntu" font-weight="bold" font-size="10.00">StartScan</text>
<text text-anchor="start" x="108" y="-327.5" font-family="Ubuntu" font-size="10.00">ParamsScannerRequest</text>
<polygon fill="#ff7f50" stroke="transparent" points="102,-307.5 102,-322.5 106,-322.5 106,-307.5 102,-307.5"/>
<polygon fill="#ff7f50" stroke="transparent" points="106,-307.5 106,-322.5 225,-322.5 225,-307.5 106,-307.5"/>
<text text-anchor="start" x="144" y="-312.5" font-family="Ubuntu" font-size="10.00">ServerResponse</text>
<text text-anchor="start" x="11" y="-298.5" font-family="Ubuntu" font-weight="bold" font-size="10.00">GetScan</text>
<text text-anchor="start" x="126" y="-297.5" font-family="Ubuntu" font-size="10.00">GetScannerRequest</text>
<polygon fill="#ff7f50" stroke="transparent" points="102,-277.5 102,-292.5 106,-292.5 106,-277.5 102,-277.5"/>
<polygon fill="#ff7f50" stroke="transparent" points="106,-277.5 106,-292.5 225,-292.5 225,-277.5 106,-277.5"/>
<text text-anchor="start" x="144" y="-282.5" font-family="Ubuntu" font-size="10.00">ServerResponse</text>
<text text-anchor="start" x="11" y="-268.5" font-family="Ubuntu" font-weight="bold" font-size="10.00">DeleteScan</text>
<text text-anchor="start" x="126" y="-267.5" font-family="Ubuntu" font-size="10.00">GetScannerRequest</text>
<polygon fill="#ff7f50" stroke="transparent" points="102,-247.5 102,-262.5 106,-262.5 106,-247.5 102,-247.5"/>
<polygon fill="#ff7f50" stroke="transparent" points="106,-247.5 106,-262.5 225,-262.5 225,-247.5 106,-247.5"/>
<text text-anchor="start" x="144" y="-252.5" font-family="Ubuntu" font-size="10.00">ServerResponse</text>
<polygon fill="none" stroke="black" points="8,-247 8,-384 226,-384 226,-247 8,-247"/>
</a>
</g>
</g>
<!-- Node_Ja_109&#45;&gt;Node_Ja_106 -->
<g id="edge7" class="edge">
<title>Node_Ja_109:e&#45;&gt;Node_Ja_106:header</title>
<g id="a_edge7"><a xlink:title="Ja_109 &#45;&#45;&gt; Ja_106">
<path fill="none" stroke="#000000" d="M226,-360.5C304.78,-360.5 205.73,-522.87 268.53,-537.45"/>
<polygon fill="#000000" stroke="#000000" points="268.19,-540.94 278.5,-538.5 268.92,-533.98 268.19,-540.94"/>
</a>
</g>
</g>
<!-- Node_Ja_109&#45;&gt;Node_Ja_106 -->
<g id="edge9" class="edge">
<title>Node_Ja_109:e&#45;&gt;Node_Ja_106:header</title>
<g id="a_edge9"><a xlink:title="Ja_109 &#45;&#45;&gt; Ja_106">
<path fill="none" stroke="#000000" d="M226,-330.5C317.62,-330.5 193.6,-522.57 268.37,-537.57"/>
<polygon fill="#000000" stroke="#000000" points="268.22,-541.07 278.5,-538.5 268.86,-534.1 268.22,-541.07"/>
</a>
</g>
</g>
<!-- Node_Ja_109&#45;&gt;Node_Ja_107 -->
<g id="edge2" class="edge">
<title>Node_Ja_109:e&#45;&gt;Node_Ja_107:header</title>
<g id="a_edge2"><a xlink:title="Ja_109 &#45;&#45;&gt; Ja_107">
<path fill="none" stroke="#000000" d="M226,-299.5C267.36,-299.5 240.27,-246.25 270,-217.5 282.42,-205.49 288.89,-199.05 302.44,-197.13"/>
<polygon fill="#000000" stroke="#000000" points="302.74,-200.61 312.5,-196.5 302.3,-193.63 302.74,-200.61"/>
</a>
</g>
</g>
<!-- Node_Ja_109&#45;&gt;Node_Ja_107 -->
<g id="edge10" class="edge">
<title>Node_Ja_109:e&#45;&gt;Node_Ja_107:header</title>
<g id="a_edge10"><a xlink:title="Ja_109 &#45;&#45;&gt; Ja_107">
<path fill="none" stroke="#000000" d="M226,-269.5C256.27,-269.5 246.15,-236.15 270,-217.5 283.48,-206.95 289.2,-199.68 302.18,-197.33"/>
<polygon fill="#000000" stroke="#000000" points="302.81,-200.79 312.5,-196.5 302.25,-193.81 302.81,-200.79"/>
</a>
</g>
</g>
<!-- Node_Ja_109&#45;&gt;Node_Ja_108 -->
<g id="edge1" class="edge">
<title>Node_Ja_109:e&#45;&gt;Node_Ja_108:header</title>
<g id="a_edge1"><a xlink:title="Ja_109 &#45;&#45;&gt; Ja_108">
<path fill="none" stroke="#000000" d="M226,-314.5C251.26,-314.5 258.69,-303.12 279.36,-300.18"/>
<polygon fill="#000000" stroke="#000000" points="279.76,-303.66 289.5,-299.5 279.29,-296.68 279.76,-303.66"/>
</a>
</g>
</g>
<!-- Node_Ja_109&#45;&gt;Node_Ja_108 -->
<g id="edge3" class="edge">
<title>Node_Ja_109:e&#45;&gt;Node_Ja_108:header</title>
<g id="a_edge3"><a xlink:title="Ja_109 &#45;&#45;&gt; Ja_108">
<path fill="none" stroke="#000000" d="M226,-284.5C251.26,-284.5 258.69,-295.88 279.36,-298.82"/>
<polygon fill="#000000" stroke="#000000" points="279.29,-302.32 289.5,-299.5 279.76,-295.34 279.29,-302.32"/>
</a>
</g>
</g>
<!-- Node_Ja_109&#45;&gt;Node_Ja_108 -->
<g id="edge4" class="edge">
<title>Node_Ja_109:e&#45;&gt;Node_Ja_108:header</title>
<g id="a_edge4"><a xlink:title="Ja_109 &#45;&#45;&gt; Ja_108">
<path fill="none" stroke="#000000" d="M226,-254.5C256.81,-254.5 255.67,-290.19 279.49,-298"/>
<polygon fill="#000000" stroke="#000000" points="279.09,-301.48 289.5,-299.5 280.13,-294.56 279.09,-301.48"/>
</a>
</g>
</g>
<!-- Node_Ja_109&#45;&gt;Node_Ja_108 -->
<g id="edge8" class="edge">
<title>Node_Ja_109:e&#45;&gt;Node_Ja_108:header</title>
<g id="a_edge8"><a xlink:title="Ja_109 &#45;&#45;&gt; Ja_108">
<path fill="none" stroke="#000000" d="M226,-345.5C257.04,-345.5 255.52,-309.01 279.43,-301.03"/>
<polygon fill="#000000" stroke="#000000" points="280.14,-304.46 289.5,-299.5 279.09,-297.54 280.14,-304.46"/>
</a>
</g>
</g>
<!-- Node_Ja_105 -->
<g id="node10" class="node">
<title>Node_Ja_105</title>
<g id="a_node10"><a xlink:title="Status">
<polygon fill="#b2df8a" stroke="transparent" points="80,-410.5 80,-502.5 154,-502.5 154,-410.5 80,-410.5"/>
<polygon fill="#33a02c" stroke="transparent" points="81,-486.5 81,-501.5 153,-501.5 153,-486.5 81,-486.5"/>
<text text-anchor="start" x="83" y="-492.5" font-family="Ubuntu" font-size="10.00">enum </text>
<text text-anchor="start" x="114" y="-492.5" font-family="Ubuntu" font-weight="bold" font-size="10.00">Status</text>
<polygon fill="#b2df8a" stroke="transparent" points="81,-471.5 81,-486.5 141,-486.5 141,-471.5 81,-471.5"/>
<text text-anchor="start" x="83" y="-476.5" font-family="Ubuntu" font-size="10.00">UNKNOWN</text>
<polygon fill="#b2df8a" stroke="transparent" points="141,-471.5 141,-486.5 153,-486.5 153,-471.5 141,-471.5"/>
<text text-anchor="start" x="143" y="-476.5" font-family="Ubuntu" font-size="10.00">0</text>
<polygon fill="#b2df8a" stroke="transparent" points="81,-456.5 81,-471.5 141,-471.5 141,-456.5 81,-456.5"/>
<text text-anchor="start" x="83" y="-461.5" font-family="Ubuntu" font-size="10.00">QUEUED</text>
<polygon fill="#b2df8a" stroke="transparent" points="141,-456.5 141,-471.5 153,-471.5 153,-456.5 141,-456.5"/>
<text text-anchor="start" x="143" y="-461.5" font-family="Ubuntu" font-size="10.00">1</text>
<polygon fill="#b2df8a" stroke="transparent" points="81,-441.5 81,-456.5 141,-456.5 141,-441.5 81,-441.5"/>
<text text-anchor="start" x="83" y="-446.5" font-family="Ubuntu" font-size="10.00">RUNNING</text>
<polygon fill="#b2df8a" stroke="transparent" points="141,-441.5 141,-456.5 153,-456.5 153,-441.5 141,-441.5"/>
<text text-anchor="start" x="143" y="-446.5" font-family="Ubuntu" font-size="10.00">2</text>
<polygon fill="#b2df8a" stroke="transparent" points="81,-426.5 81,-441.5 141,-441.5 141,-426.5 81,-426.5"/>
<text text-anchor="start" x="83" y="-431.5" font-family="Ubuntu" font-size="10.00">OK</text>
<polygon fill="#b2df8a" stroke="transparent" points="141,-426.5 141,-441.5 153,-441.5 153,-426.5 141,-426.5"/>
<text text-anchor="start" x="143" y="-431.5" font-family="Ubuntu" font-size="10.00">3</text>
<polygon fill="#b2df8a" stroke="transparent" points="81,-411.5 81,-426.5 141,-426.5 141,-411.5 81,-411.5"/>
<text text-anchor="start" x="83" y="-416.5" font-family="Ubuntu" font-size="10.00">ERROR</text>
<polygon fill="#b2df8a" stroke="transparent" points="141,-411.5 141,-426.5 153,-426.5 153,-411.5 141,-411.5"/>
<text text-anchor="start" x="143" y="-416.5" font-family="Ubuntu" font-size="10.00">4</text>
<polygon fill="none" stroke="black" points="80,-410.5 80,-502.5 154,-502.5 154,-410.5 80,-410.5"/>
</a>
</g>
</g>
</g>
</svg>
