<?xml version="1.0" encoding="UTF-8" standalone="no"?>
<!DOCTYPE svg PUBLIC "-//W3C//DTD SVG 1.1//EN"
 "http://www.w3.org/Graphics/SVG/1.1/DTD/svg11.dtd">
<!-- Generated by graphviz version 2.47.3 (0)
 -->
<!-- Title: protodot Pages: 1 -->
<svg width="1329pt" height="572pt"
 viewBox="0.00 0.00 1329.00 572.00" xmlns="http://www.w3.org/2000/svg" xmlns:xlink="http://www.w3.org/1999/xlink">
<g id="graph0" class="graph" transform="scale(1 1) rotate(0) translate(4 568)">
<title>protodot</title>
<g id="a_graph0"><a xlink:title="proto">
<text text-anchor="middle" x="660.5" y="-7.8" font-family="Times,serif" font-size="14.00">proto</text>
</a>
</g>
<g id="clust1" class="cluster">
<title>cluster_dfe805b7589f</title>
<g id="a_clust1"><a xlink:title="proto">
<polygon fill="#caff70" stroke="black" points="806,-31 806,-258 948,-258 948,-31 806,-31"/>
<text text-anchor="middle" x="877" y="-242.8" font-family="Times,serif" font-size="14.00">proto</text>
</a>
</g>
</g>
<!-- Node_Ja_105 -->
<g id="node1" class="node">
<title>Node_Ja_105</title>
<g id="a_node1"><a xlink:title="Status">
<polygon fill="#b2df8a" stroke="transparent" points="840,-131 840,-223 914,-223 914,-131 840,-131"/>
<polygon fill="#33a02c" stroke="transparent" points="841,-207 841,-222 913,-222 913,-207 841,-207"/>
<text text-anchor="start" x="843" y="-213" font-family="Ubuntu" font-size="10.00">enum </text>
<text text-anchor="start" x="874" y="-213" font-family="Ubuntu" font-weight="bold" font-size="10.00">Status</text>
<polygon fill="#b2df8a" stroke="transparent" points="841,-192 841,-207 901,-207 901,-192 841,-192"/>
<text text-anchor="start" x="843" y="-197" font-family="Ubuntu" font-size="10.00">UNKNOWN</text>
<polygon fill="#b2df8a" stroke="transparent" points="901,-192 901,-207 913,-207 913,-192 901,-192"/>
<text text-anchor="start" x="903" y="-197" font-family="Ubuntu" font-size="10.00">0</text>
<polygon fill="#b2df8a" stroke="transparent" points="841,-177 841,-192 901,-192 901,-177 841,-177"/>
<text text-anchor="start" x="843" y="-182" font-family="Ubuntu" font-size="10.00">QUEUED</text>
<polygon fill="#b2df8a" stroke="transparent" points="901,-177 901,-192 913,-192 913,-177 901,-177"/>
<text text-anchor="start" x="903" y="-182" font-family="Ubuntu" font-size="10.00">1</text>
<polygon fill="#b2df8a" stroke="transparent" points="841,-162 841,-177 901,-177 901,-162 841,-162"/>
<text text-anchor="start" x="843" y="-167" font-family="Ubuntu" font-size="10.00">RUNNING</text>
<polygon fill="#b2df8a" stroke="transparent" points="901,-162 901,-177 913,-177 913,-162 901,-162"/>
<text text-anchor="start" x="903" y="-167" font-family="Ubuntu" font-size="10.00">2</text>
<polygon fill="#b2df8a" stroke="transparent" points="841,-147 841,-162 901,-162 901,-147 841,-147"/>
<text text-anchor="start" x="843" y="-152" font-family="Ubuntu" font-size="10.00">OK</text>
<polygon fill="#b2df8a" stroke="transparent" points="901,-147 901,-162 913,-162 913,-147 901,-147"/>
<text text-anchor="start" x="903" y="-152" font-family="Ubuntu" font-size="10.00">3</text>
<polygon fill="#b2df8a" stroke="transparent" points="841,-132 841,-147 901,-147 901,-132 841,-132"/>
<text text-anchor="start" x="843" y="-137" font-family="Ubuntu" font-size="10.00">ERROR</text>
<polygon fill="#b2df8a" stroke="transparent" points="901,-132 901,-147 913,-147 913,-132 901,-132"/>
<text text-anchor="start" x="903" y="-137" font-family="Ubuntu" font-size="10.00">4</text>
<polygon fill="none" stroke="black" points="840,-131 840,-223 914,-223 914,-131 840,-131"/>
</a>
</g>
</g>
<!-- Node_Ja_108 -->
<g id="node2" class="node">
<title>Node_Ja_108</title>
<g id="a_node2"><a xlink:title="ServiceState">
<polygon fill="#b2df8a" stroke="transparent" points="822,-43 822,-105 932,-105 932,-43 822,-43"/>
<polygon fill="#33a02c" stroke="transparent" points="823,-89 823,-104 931,-104 931,-89 823,-89"/>
<text text-anchor="start" x="825" y="-95" font-family="Ubuntu" font-size="10.00">enum </text>
<text text-anchor="start" x="856" y="-95" font-family="Ubuntu" font-weight="bold" font-size="10.00">ServiceState</text>
<polygon fill="#b2df8a" stroke="transparent" points="823,-74 823,-89 901,-89 901,-74 823,-74"/>
<text text-anchor="start" x="825" y="-79" font-family="Ubuntu" font-size="10.00">UNKNOWN</text>
<polygon fill="#b2df8a" stroke="transparent" points="901,-74 901,-89 931,-89 931,-74 901,-74"/>
<text text-anchor="start" x="903" y="-79" font-family="Ubuntu" font-size="10.00">0</text>
<polygon fill="#b2df8a" stroke="transparent" points="823,-59 823,-74 901,-74 901,-59 823,-59"/>
<text text-anchor="start" x="825" y="-64" font-family="Ubuntu" font-size="10.00">START</text>
<polygon fill="#b2df8a" stroke="transparent" points="901,-59 901,-74 931,-74 931,-59 901,-59"/>
<text text-anchor="start" x="903" y="-64" font-family="Ubuntu" font-size="10.00">1</text>
<polygon fill="#b2df8a" stroke="transparent" points="823,-44 823,-59 901,-59 901,-44 823,-44"/>
<text text-anchor="start" x="825" y="-49" font-family="Ubuntu" font-size="10.00">STOP</text>
<polygon fill="#b2df8a" stroke="transparent" points="901,-44 901,-59 931,-59 931,-44 901,-44"/>
<text text-anchor="start" x="903" y="-49" font-family="Ubuntu" font-size="10.00">2</text>
<polygon fill="none" stroke="black" points="822,-43 822,-105 932,-105 932,-43 822,-43"/>
</a>
</g>
</g>
<!-- Node_Ja_109 -->
<g id="node3" class="node">
<title>Node_Ja_109</title>
<g id="a_node3"><a xlink:title="proto.GetScannerRequest">
<polygon fill="#fffaf0" stroke="transparent" points="384.5,-156 384.5,-188 502.5,-188 502.5,-156 384.5,-156"/>
<polygon fill="#e31a1c" stroke="transparent" points="385.5,-172 385.5,-187 501.5,-187 501.5,-172 385.5,-172"/>
<text text-anchor="start" x="387.5" y="-178" font-family="Ubuntu" font-weight="bold" font-size="10.00">GetScannerRequest</text>
<text text-anchor="start" x="426.5" y="-162" font-family="Ubuntu" font-size="10.00">1</text>
<text text-anchor="start" x="437.5" y="-162" font-family="Ubuntu" font-size="10.00">key</text>
<polygon fill="#a6cee3" stroke="transparent" points="463.5,-157 463.5,-172 501.5,-172 501.5,-157 463.5,-157"/>
<text text-anchor="start" x="471.5" y="-163" font-family="Ubuntu" font-style="italic" font-size="10.00">string</text>
<polygon fill="none" stroke="black" points="384.5,-156 384.5,-188 502.5,-188 502.5,-156 384.5,-156"/>
</a>
</g>
</g>
<!-- Node_Ja_110 -->
<g id="node4" class="node">
<title>Node_Ja_110</title>
<g id="a_node4"><a xlink:title="proto.ServerResponse">
<polygon fill="#fffaf0" stroke="transparent" points="361.5,-214.5 361.5,-291.5 525.5,-291.5 525.5,-214.5 361.5,-214.5"/>
<polygon fill="#e31a1c" stroke="transparent" points="362.5,-275 362.5,-290 524.5,-290 524.5,-275 362.5,-275"/>
<text text-anchor="start" x="429.5" y="-281" font-family="Ubuntu" font-weight="bold" font-size="10.00">ServerResponse</text>
<text text-anchor="start" x="368.5" y="-265" font-family="Ubuntu" font-size="10.00">1</text>
<text text-anchor="start" x="379.5" y="-265" font-family="Ubuntu" font-size="10.00">success</text>
<polygon fill="#a6cee3" stroke="transparent" points="420.5,-260 420.5,-275 524.5,-275 524.5,-260 420.5,-260"/>
<text text-anchor="start" x="500.5" y="-266" font-family="Ubuntu" font-style="italic" font-size="10.00">bool</text>
<text text-anchor="start" x="368.5" y="-250" font-family="Ubuntu" font-size="10.00">2</text>
<text text-anchor="start" x="379.5" y="-250" font-family="Ubuntu" font-size="10.00">key</text>
<polygon fill="#a6cee3" stroke="transparent" points="420.5,-245 420.5,-260 524.5,-260 524.5,-245 420.5,-245"/>
<text text-anchor="start" x="494.5" y="-251" font-family="Ubuntu" font-style="italic" font-size="10.00">string</text>
<text text-anchor="start" x="368.5" y="-235" font-family="Ubuntu" font-size="10.00">3</text>
<text text-anchor="start" x="379.5" y="-235" font-family="Ubuntu" font-size="10.00">value</text>
<polygon fill="#fb9a99" stroke="transparent" points="420.5,-230 420.5,-245 524.5,-245 524.5,-230 420.5,-230"/>
<text text-anchor="start" x="422.5" y="-236" font-family="Ubuntu" font-weight="bold" font-size="10.00">ScannerResponse</text>
<text text-anchor="start" x="368.5" y="-220" font-family="Ubuntu" font-size="10.00">4</text>
<text text-anchor="start" x="379.5" y="-220" font-family="Ubuntu" font-size="10.00">error</text>
<polygon fill="#a6cee3" stroke="transparent" points="420.5,-215 420.5,-230 524.5,-230 524.5,-215 420.5,-215"/>
<text text-anchor="start" x="494.5" y="-221" font-family="Ubuntu" font-style="italic" font-size="10.00">string</text>
<polygon fill="none" stroke="black" points="361.5,-214.5 361.5,-291.5 525.5,-291.5 525.5,-214.5 361.5,-214.5"/>
</a>
</g>
</g>
<!-- Node_Ja_104 -->
<g id="node11" class="node">
<title>Node_Ja_104</title>
<g id="a_node11"><a xlink:title="proto.ScannerResponse">
<polygon fill="#fffaf0" stroke="transparent" points="589,-169.5 589,-276.5 770,-276.5 770,-169.5 589,-169.5"/>
<polygon fill="#e31a1c" stroke="transparent" points="590.5,-260 590.5,-275 769.5,-275 769.5,-260 590.5,-260"/>
<text text-anchor="start" x="667.5" y="-266" font-family="Ubuntu" font-weight="bold" font-size="10.00">ScannerResponse</text>
<text text-anchor="start" x="592.5" y="-250" font-family="Ubuntu" font-size="10.00">[...]</text>
<text text-anchor="start" x="613.5" y="-250" font-family="Ubuntu" font-size="10.00">1</text>
<text text-anchor="start" x="624.5" y="-250" font-family="Ubuntu" font-size="10.00">host_result</text>
<polygon fill="#fb9a99" stroke="transparent" points="704.5,-245 704.5,-260 769.5,-260 769.5,-245 704.5,-245"/>
<text text-anchor="start" x="706.5" y="-251" font-family="Ubuntu" font-weight="bold" font-size="10.00">HostResult</text>
<text text-anchor="start" x="613.5" y="-235" font-family="Ubuntu" font-size="10.00">2</text>
<text text-anchor="start" x="624.5" y="-235" font-family="Ubuntu" font-size="10.00">start_time</text>
<polygon fill="#a6cee3" stroke="transparent" points="704.5,-230 704.5,-245 769.5,-245 769.5,-230 704.5,-230"/>
<text text-anchor="start" x="739.5" y="-236" font-family="Ubuntu" font-style="italic" font-size="10.00">string</text>
<text text-anchor="start" x="613.5" y="-220" font-family="Ubuntu" font-size="10.00">3</text>
<text text-anchor="start" x="624.5" y="-220" font-family="Ubuntu" font-size="10.00">end_time</text>
<polygon fill="#a6cee3" stroke="transparent" points="704.5,-215 704.5,-230 769.5,-230 769.5,-215 704.5,-215"/>
<text text-anchor="start" x="739.5" y="-221" font-family="Ubuntu" font-style="italic" font-size="10.00">string</text>
<text text-anchor="start" x="613.5" y="-205" font-family="Ubuntu" font-size="10.00">4</text>
<text text-anchor="start" x="624.5" y="-205" font-family="Ubuntu" font-size="10.00">expiration_time</text>
<polygon fill="#a6cee3" stroke="transparent" points="704.5,-200 704.5,-215 769.5,-215 769.5,-200 704.5,-200"/>
<text text-anchor="start" x="739.5" y="-206" font-family="Ubuntu" font-style="italic" font-size="10.00">string</text>
<text text-anchor="start" x="613.5" y="-190" font-family="Ubuntu" font-size="10.00">5</text>
<text text-anchor="start" x="624.5" y="-190" font-family="Ubuntu" font-size="10.00">key</text>
<polygon fill="#a6cee3" stroke="transparent" points="704.5,-185 704.5,-200 769.5,-200 769.5,-185 704.5,-185"/>
<text text-anchor="start" x="739.5" y="-191" font-family="Ubuntu" font-style="italic" font-size="10.00">string</text>
<text text-anchor="start" x="613.5" y="-175" font-family="Ubuntu" font-size="10.00">6</text>
<text text-anchor="start" x="624.5" y="-175" font-family="Ubuntu" font-size="10.00">status</text>
<polygon fill="#b2df8a" stroke="transparent" points="704.5,-170 704.5,-185 769.5,-185 769.5,-170 704.5,-170"/>
<text text-anchor="start" x="736.5" y="-176" font-family="Ubuntu" text-decoration="underline" font-size="10.00">Status</text>
<polygon fill="none" stroke="black" points="589,-169.5 589,-276.5 770,-276.5 770,-169.5 589,-169.5"/>
</a>
</g>
</g>
<!-- Node_Ja_110&#45;&gt;Node_Ja_104 -->
<g id="edge12" class="edge">
<title>Node_Ja_110:e&#45;&gt;Node_Ja_104:header</title>
<g id="a_edge12"><a xlink:title="Ja_110 &#45;&#45;&gt; Ja_104">
<path fill="none" stroke="#000000" d="M525.5,-237C553.4,-237 557.29,-261.16 579.56,-266.82"/>
<polygon fill="#000000" stroke="#000000" points="579.16,-270.3 589.5,-268 579.98,-263.35 579.16,-270.3"/>
</a>
</g>
</g>
<!-- Node_Ja_107 -->
<g id="node5" class="node">
<title>Node_Ja_107</title>
<g id="a_node5"><a xlink:title="proto.ScannerServiceControl">
<polygon fill="#fffaf0" stroke="transparent" points="375.5,-98 375.5,-130 511.5,-130 511.5,-98 375.5,-98"/>
<polygon fill="#e31a1c" stroke="transparent" points="376.5,-114 376.5,-129 510.5,-129 510.5,-114 376.5,-114"/>
<text text-anchor="start" x="378.5" y="-120" font-family="Ubuntu" font-weight="bold" font-size="10.00">ScannerServiceControl</text>
<text text-anchor="start" x="400.5" y="-104" font-family="Ubuntu" font-size="10.00">1</text>
<text text-anchor="start" x="411.5" y="-104" font-family="Ubuntu" font-size="10.00">state</text>
<polygon fill="#b2df8a" stroke="transparent" points="441.5,-99 441.5,-114 510.5,-114 510.5,-99 441.5,-99"/>
<text text-anchor="start" x="446.5" y="-105" font-family="Ubuntu" text-decoration="underline" font-size="10.00">ServiceState</text>
<polygon fill="none" stroke="black" points="375.5,-98 375.5,-130 511.5,-130 511.5,-98 375.5,-98"/>
</a>
</g>
</g>
<!-- Node_Ja_107&#45;&gt;Node_Ja_108 -->
<g id="edge3" class="edge">
<title>Node_Ja_107:e&#45;&gt;Node_Ja_108</title>
<g id="a_edge3"><a xlink:title="Ja_107 &#45;&#45;&gt; Ja_108">
<path fill="none" stroke="#008000" d="M511.5,-106C613.28,-106 730.43,-93.47 803.84,-84.09"/>
<polygon fill="#008000" stroke="#008000" points="804.44,-87.54 813.91,-82.79 803.54,-80.6 804.44,-87.54"/>
</a>
</g>
</g>
<!-- Node_Ja_101 -->
<g id="node6" class="node">
<title>Node_Ja_101</title>
<g id="a_node6"><a xlink:title="proto.PortVersion">
<polygon fill="#fffaf0" stroke="transparent" points="1197,-89.5 1197,-166.5 1313,-166.5 1313,-89.5 1197,-89.5"/>
<polygon fill="#e31a1c" stroke="transparent" points="1198,-150 1198,-165 1312,-165 1312,-150 1198,-150"/>
<text text-anchor="start" x="1243" y="-156" font-family="Ubuntu" font-weight="bold" font-size="10.00">PortVersion</text>
<text text-anchor="start" x="1204" y="-140" font-family="Ubuntu" font-size="10.00">1</text>
<text text-anchor="start" x="1215" y="-140" font-family="Ubuntu" font-size="10.00">low_version</text>
<polygon fill="#a6cee3" stroke="transparent" points="1280,-135 1280,-150 1312,-150 1312,-135 1280,-135"/>
<text text-anchor="start" x="1282" y="-141" font-family="Ubuntu" font-style="italic" font-size="10.00">string</text>
<text text-anchor="start" x="1204" y="-125" font-family="Ubuntu" font-size="10.00">2</text>
<text text-anchor="start" x="1215" y="-125" font-family="Ubuntu" font-size="10.00">high_version</text>
<polygon fill="#a6cee3" stroke="transparent" points="1280,-120 1280,-135 1312,-135 1312,-120 1280,-120"/>
<text text-anchor="start" x="1282" y="-126" font-family="Ubuntu" font-style="italic" font-size="10.00">string</text>
<text text-anchor="start" x="1204" y="-110" font-family="Ubuntu" font-size="10.00">3</text>
<text text-anchor="start" x="1215" y="-110" font-family="Ubuntu" font-size="10.00">extra_infos</text>
<polygon fill="#a6cee3" stroke="transparent" points="1280,-105 1280,-120 1312,-120 1312,-105 1280,-105"/>
<text text-anchor="start" x="1282" y="-111" font-family="Ubuntu" font-style="italic" font-size="10.00">string</text>
<text text-anchor="start" x="1204" y="-95" font-family="Ubuntu" font-size="10.00">4</text>
<text text-anchor="start" x="1215" y="-95" font-family="Ubuntu" font-size="10.00">product</text>
<polygon fill="#a6cee3" stroke="transparent" points="1280,-90 1280,-105 1312,-105 1312,-90 1280,-90"/>
<text text-anchor="start" x="1282" y="-96" font-family="Ubuntu" font-style="italic" font-size="10.00">string</text>
<polygon fill="none" stroke="black" points="1197,-89.5 1197,-166.5 1313,-166.5 1313,-89.5 1197,-89.5"/>
</a>
</g>
</g>
<!-- Node_Ja_106 -->
<g id="node7" class="node">
<title>Node_Ja_106</title>
<g id="a_node7"><a xlink:title="proto.ParamsScannerRequest">
<polygon fill="#fffaf0" stroke="transparent" points="350,-318 350,-560 537,-560 537,-318 350,-318"/>
<polygon fill="#e31a1c" stroke="transparent" points="351.5,-544 351.5,-559 536.5,-559 536.5,-544 351.5,-544"/>
<text text-anchor="start" x="400.5" y="-550" font-family="Ubuntu" font-weight="bold" font-size="10.00">ParamsScannerRequest</text>
<text text-anchor="start" x="363.5" y="-534" font-family="Ubuntu" font-size="10.00">1</text>
<text text-anchor="start" x="374.5" y="-534" font-family="Ubuntu" font-size="10.00">hosts</text>
<polygon fill="#a6cee3" stroke="transparent" points="504.5,-529 504.5,-544 536.5,-544 536.5,-529 504.5,-529"/>
<text text-anchor="start" x="506.5" y="-535" font-family="Ubuntu" font-style="italic" font-size="10.00">string</text>
<text text-anchor="start" x="363.5" y="-519" font-family="Ubuntu" font-size="10.00">2</text>
<text text-anchor="start" x="374.5" y="-519" font-family="Ubuntu" font-size="10.00">ports</text>
<polygon fill="#a6cee3" stroke="transparent" points="504.5,-514 504.5,-529 536.5,-529 536.5,-514 504.5,-514"/>
<text text-anchor="start" x="506.5" y="-520" font-family="Ubuntu" font-style="italic" font-size="10.00">string</text>
<text text-anchor="start" x="363.5" y="-504" font-family="Ubuntu" font-size="10.00">3</text>
<text text-anchor="start" x="374.5" y="-504" font-family="Ubuntu" font-size="10.00">with_aggressive_scan</text>
<polygon fill="#a6cee3" stroke="transparent" points="504.5,-499 504.5,-514 536.5,-514 536.5,-499 504.5,-499"/>
<text text-anchor="start" x="512.5" y="-505" font-family="Ubuntu" font-style="italic" font-size="10.00">bool</text>
<text text-anchor="start" x="363.5" y="-489" font-family="Ubuntu" font-size="10.00">4</text>
<text text-anchor="start" x="374.5" y="-489" font-family="Ubuntu" font-size="10.00">with_syn_scan</text>
<polygon fill="#a6cee3" stroke="transparent" points="504.5,-484 504.5,-499 536.5,-499 536.5,-484 504.5,-484"/>
<text text-anchor="start" x="512.5" y="-490" font-family="Ubuntu" font-style="italic" font-size="10.00">bool</text>
<text text-anchor="start" x="363.5" y="-474" font-family="Ubuntu" font-size="10.00">5</text>
<text text-anchor="start" x="374.5" y="-474" font-family="Ubuntu" font-size="10.00">with_null_scan</text>
<polygon fill="#a6cee3" stroke="transparent" points="504.5,-469 504.5,-484 536.5,-484 536.5,-469 504.5,-469"/>
<text text-anchor="start" x="512.5" y="-475" font-family="Ubuntu" font-style="italic" font-size="10.00">bool</text>
<text text-anchor="start" x="363.5" y="-459" font-family="Ubuntu" font-size="10.00">6</text>
<text text-anchor="start" x="374.5" y="-459" font-family="Ubuntu" font-size="10.00">service_version_detection</text>
<polygon fill="#a6cee3" stroke="transparent" points="504.5,-454 504.5,-469 536.5,-469 536.5,-454 504.5,-454"/>
<text text-anchor="start" x="512.5" y="-460" font-family="Ubuntu" font-style="italic" font-size="10.00">bool</text>
<text text-anchor="start" x="363.5" y="-444" font-family="Ubuntu" font-size="10.00">7</text>
<text text-anchor="start" x="374.5" y="-444" font-family="Ubuntu" font-size="10.00">os_detection</text>
<polygon fill="#a6cee3" stroke="transparent" points="504.5,-439 504.5,-454 536.5,-454 536.5,-439 504.5,-439"/>
<text text-anchor="start" x="512.5" y="-445" font-family="Ubuntu" font-style="italic" font-size="10.00">bool</text>
<text text-anchor="start" x="363.5" y="-429" font-family="Ubuntu" font-size="10.00">8</text>
<text text-anchor="start" x="374.5" y="-429" font-family="Ubuntu" font-size="10.00">service_default_scripts</text>
<polygon fill="#a6cee3" stroke="transparent" points="504.5,-424 504.5,-439 536.5,-439 536.5,-424 504.5,-424"/>
<text text-anchor="start" x="512.5" y="-430" font-family="Ubuntu" font-style="italic" font-size="10.00">bool</text>
<text text-anchor="start" x="363.5" y="-414" font-family="Ubuntu" font-size="10.00">9</text>
<text text-anchor="start" x="374.5" y="-414" font-family="Ubuntu" font-size="10.00">timeout</text>
<polygon fill="#a6cee3" stroke="transparent" points="504.5,-409 504.5,-424 536.5,-424 536.5,-409 504.5,-409"/>
<text text-anchor="start" x="509.5" y="-415" font-family="Ubuntu" font-style="italic" font-size="10.00">int32</text>
<text text-anchor="start" x="357.5" y="-399" font-family="Ubuntu" font-size="10.00">10</text>
<text text-anchor="start" x="374.5" y="-399" font-family="Ubuntu" font-size="10.00">ping_only</text>
<polygon fill="#a6cee3" stroke="transparent" points="504.5,-394 504.5,-409 536.5,-409 536.5,-394 504.5,-394"/>
<text text-anchor="start" x="512.5" y="-400" font-family="Ubuntu" font-style="italic" font-size="10.00">bool</text>
<text text-anchor="start" x="357.5" y="-384" font-family="Ubuntu" font-size="10.00">11</text>
<text text-anchor="start" x="374.5" y="-384" font-family="Ubuntu" font-size="10.00">retention_time</text>
<polygon fill="#a6cee3" stroke="transparent" points="504.5,-379 504.5,-394 536.5,-394 536.5,-379 504.5,-379"/>
<text text-anchor="start" x="509.5" y="-385" font-family="Ubuntu" font-style="italic" font-size="10.00">int32</text>
<text text-anchor="start" x="357.5" y="-369" font-family="Ubuntu" font-size="10.00">12</text>
<text text-anchor="start" x="374.5" y="-369" font-family="Ubuntu" font-size="10.00">fast_mode</text>
<polygon fill="#a6cee3" stroke="transparent" points="504.5,-364 504.5,-379 536.5,-379 536.5,-364 504.5,-364"/>
<text text-anchor="start" x="512.5" y="-370" font-family="Ubuntu" font-style="italic" font-size="10.00">bool</text>
<text text-anchor="start" x="357.5" y="-354" font-family="Ubuntu" font-size="10.00">13</text>
<text text-anchor="start" x="374.5" y="-354" font-family="Ubuntu" font-size="10.00">key</text>
<polygon fill="#a6cee3" stroke="transparent" points="504.5,-349 504.5,-364 536.5,-364 536.5,-349 504.5,-349"/>
<text text-anchor="start" x="506.5" y="-355" font-family="Ubuntu" font-style="italic" font-size="10.00">string</text>
<text text-anchor="start" x="357.5" y="-339" font-family="Ubuntu" font-size="10.00">14</text>
<text text-anchor="start" x="374.5" y="-339" font-family="Ubuntu" font-size="10.00">defer_duration</text>
<polygon fill="#a6cee3" stroke="transparent" points="504.5,-334 504.5,-349 536.5,-349 536.5,-334 504.5,-334"/>
<text text-anchor="start" x="509.5" y="-340" font-family="Ubuntu" font-style="italic" font-size="10.00">int64</text>
<text text-anchor="start" x="357.5" y="-324" font-family="Ubuntu" font-size="10.00">15</text>
<text text-anchor="start" x="374.5" y="-324" font-family="Ubuntu" font-size="10.00">crontab</text>
<polygon fill="#a6cee3" stroke="transparent" points="504.5,-319 504.5,-334 536.5,-334 536.5,-319 504.5,-319"/>
<text text-anchor="start" x="506.5" y="-325" font-family="Ubuntu" font-style="italic" font-size="10.00">string</text>
<polygon fill="none" stroke="black" points="350,-318 350,-560 537,-560 537,-318 350,-318"/>
</a>
</g>
</g>
<!-- Node_Ja_111 -->
<g id="node8" class="node">
<title>Node_Ja_111</title>
<g id="a_node8"><a xlink:title="ScannerService">
<polygon fill="#ffd700" stroke="transparent" points="8,-119.5 8,-316.5 298,-316.5 298,-119.5 8,-119.5"/>
<polygon fill="#ff7f50" stroke="transparent" points="9,-300 9,-315 297,-315 297,-300 9,-300"/>
<text text-anchor="start" x="206" y="-306" font-family="Ubuntu" font-weight="bold" font-size="10.00">ScannerService</text>
<text text-anchor="start" x="11" y="-291" font-family="Ubuntu" font-weight="bold" font-size="10.00">StartAsyncScan</text>
<text text-anchor="start" x="180" y="-290" font-family="Ubuntu" font-size="10.00">ParamsScannerRequest</text>
<polygon fill="#ff7f50" stroke="transparent" points="139,-270 139,-285 178,-285 178,-270 139,-270"/>
<polygon fill="#ff7f50" stroke="transparent" points="178,-270 178,-285 297,-285 297,-270 178,-270"/>
<text text-anchor="start" x="216" y="-275" font-family="Ubuntu" font-size="10.00">ServerResponse</text>
<text text-anchor="start" x="11" y="-261" font-family="Ubuntu" font-weight="bold" font-size="10.00">StartScan</text>
<text text-anchor="start" x="180" y="-260" font-family="Ubuntu" font-size="10.00">ParamsScannerRequest</text>
<polygon fill="#ff7f50" stroke="transparent" points="139,-240 139,-255 178,-255 178,-240 139,-240"/>
<polygon fill="#ff7f50" stroke="transparent" points="178,-240 178,-255 297,-255 297,-240 178,-240"/>
<text text-anchor="start" x="216" y="-245" font-family="Ubuntu" font-size="10.00">ServerResponse</text>
<text text-anchor="start" x="11" y="-231" font-family="Ubuntu" font-weight="bold" font-size="10.00">GetScan</text>
<text text-anchor="start" x="198" y="-230" font-family="Ubuntu" font-size="10.00">GetScannerRequest</text>
<polygon fill="#ff7f50" stroke="transparent" points="139,-210 139,-225 178,-225 178,-210 139,-210"/>
<polygon fill="#ff7f50" stroke="transparent" points="178,-210 178,-225 297,-225 297,-210 178,-210"/>
<text text-anchor="start" x="216" y="-215" font-family="Ubuntu" font-size="10.00">ServerResponse</text>
<text text-anchor="start" x="11" y="-201" font-family="Ubuntu" font-weight="bold" font-size="10.00">DeleteScan</text>
<text text-anchor="start" x="198" y="-200" font-family="Ubuntu" font-size="10.00">GetScannerRequest</text>
<polygon fill="#ff7f50" stroke="transparent" points="139,-180 139,-195 178,-195 178,-180 139,-180"/>
<polygon fill="#ff7f50" stroke="transparent" points="178,-180 178,-195 297,-195 297,-180 178,-180"/>
<text text-anchor="start" x="216" y="-185" font-family="Ubuntu" font-size="10.00">ServerResponse</text>
<text text-anchor="start" x="11" y="-171" font-family="Ubuntu" font-weight="bold" font-size="10.00">ServiceControl</text>
<text text-anchor="start" x="184" y="-170" font-family="Ubuntu" font-size="10.00">ScannerServiceControl</text>
<polygon fill="#ff7f50" stroke="transparent" points="139,-150 139,-165 178,-165 178,-150 139,-150"/>
<polygon fill="#ff7f50" stroke="transparent" points="178,-150 178,-165 297,-165 297,-150 178,-150"/>
<text text-anchor="start" x="184" y="-155" font-family="Ubuntu" font-size="10.00">ScannerServiceControl</text>
<text text-anchor="start" x="11" y="-141" font-family="Ubuntu" font-weight="bold" font-size="10.00">StreamServiceControl</text>
<text text-anchor="start" x="184" y="-140" font-family="Ubuntu" font-size="10.00">ScannerServiceControl</text>
<polygon fill="#ff7f50" stroke="transparent" points="139,-120 139,-135 178,-135 178,-120 139,-120"/>
<text text-anchor="start" x="141" y="-125" font-family="Ubuntu" font-size="10.00">stream</text>
<polygon fill="#ff7f50" stroke="transparent" points="178,-120 178,-135 297,-135 297,-120 178,-120"/>
<text text-anchor="start" x="184" y="-125" font-family="Ubuntu" font-size="10.00">ScannerServiceControl</text>
<polygon fill="none" stroke="black" points="8,-119.5 8,-316.5 298,-316.5 298,-119.5 8,-119.5"/>
</a>
</g>
</g>
<!-- Node_Ja_111&#45;&gt;Node_Ja_109 -->
<g id="edge7" class="edge">
<title>Node_Ja_111:e&#45;&gt;Node_Ja_109:header</title>
<g id="a_edge7"><a xlink:title="Ja_111 &#45;&#45;&gt; Ja_109">
<path fill="none" stroke="#000000" d="M298,-233C321.92,-233 321.55,-214.42 342,-202 356.77,-193.03 361.55,-184.11 374.24,-181.08"/>
<polygon fill="#000000" stroke="#000000" points="374.92,-184.53 384.5,-180 374.19,-177.57 374.92,-184.53"/>
</a>
</g>
</g>
<!-- Node_Ja_111&#45;&gt;Node_Ja_109 -->
<g id="edge8" class="edge">
<title>Node_Ja_111:e&#45;&gt;Node_Ja_109:header</title>
<g id="a_edge8"><a xlink:title="Ja_111 &#45;&#45;&gt; Ja_109">
<path fill="none" stroke="#000000" d="M298,-202C333.95,-202 343.2,-183.93 374.15,-180.54"/>
<polygon fill="#000000" stroke="#000000" points="374.7,-184.02 384.5,-180 374.33,-177.03 374.7,-184.02"/>
</a>
</g>
</g>
<!-- Node_Ja_111&#45;&gt;Node_Ja_110 -->
<g id="edge4" class="edge">
<title>Node_Ja_111:e&#45;&gt;Node_Ja_110:header</title>
<g id="a_edge4"><a xlink:title="Ja_111 &#45;&#45;&gt; Ja_110">
<path fill="none" stroke="#000000" d="M298,-278C322.55,-278 330.98,-281.76 351.25,-282.76"/>
<polygon fill="#000000" stroke="#000000" points="351.42,-286.26 361.5,-283 351.59,-279.27 351.42,-286.26"/>
</a>
</g>
</g>
<!-- Node_Ja_111&#45;&gt;Node_Ja_110 -->
<g id="edge6" class="edge">
<title>Node_Ja_111:e&#45;&gt;Node_Ja_110:header</title>
<g id="a_edge6"><a xlink:title="Ja_111 &#45;&#45;&gt; Ja_110">
<path fill="none" stroke="#000000" d="M298,-248C326.45,-248 329.04,-275.28 351.43,-281.67"/>
<polygon fill="#000000" stroke="#000000" points="351.13,-285.16 361.5,-283 352.04,-278.22 351.13,-285.16"/>
</a>
</g>
</g>
<!-- Node_Ja_111&#45;&gt;Node_Ja_110 -->
<g id="edge13" class="edge">
<title>Node_Ja_111:e&#45;&gt;Node_Ja_110:header</title>
<g id="a_edge13"><a xlink:title="Ja_111 &#45;&#45;&gt; Ja_110">
<path fill="none" stroke="#000000" d="M298,-217C334.89,-217 323.64,-271.21 351.5,-281.37"/>
<polygon fill="#000000" stroke="#000000" points="351.07,-284.84 361.5,-283 352.19,-277.94 351.07,-284.84"/>
</a>
</g>
</g>
<!-- Node_Ja_111&#45;&gt;Node_Ja_110 -->
<g id="edge19" class="edge">
<title>Node_Ja_111:e&#45;&gt;Node_Ja_110:header</title>
<g id="a_edge19"><a xlink:title="Ja_111 &#45;&#45;&gt; Ja_110">
<path fill="none" stroke="#000000" d="M298,-187C345.36,-187 315.61,-269.28 351.52,-281.49"/>
<polygon fill="#000000" stroke="#000000" points="351.09,-284.97 361.5,-283 352.14,-278.04 351.09,-284.97"/>
</a>
</g>
</g>
<!-- Node_Ja_111&#45;&gt;Node_Ja_107 -->
<g id="edge9" class="edge">
<title>Node_Ja_111:e&#45;&gt;Node_Ja_107:header</title>
<g id="a_edge9"><a xlink:title="Ja_111 &#45;&#45;&gt; Ja_107">
<path fill="none" stroke="#000000" d="M298,-142C329.96,-142 338.34,-125.86 365.5,-122.58"/>
<polygon fill="#000000" stroke="#000000" points="365.72,-126.07 375.5,-122 365.31,-119.08 365.72,-126.07"/>
</a>
</g>
</g>
<!-- Node_Ja_111&#45;&gt;Node_Ja_107 -->
<g id="edge14" class="edge">
<title>Node_Ja_111:e&#45;&gt;Node_Ja_107:header</title>
<g id="a_edge14"><a xlink:title="Ja_111 &#45;&#45;&gt; Ja_107">
<path fill="none" stroke="#000000" d="M298,-172C335.31,-172 334.95,-130.58 365.49,-123.14"/>
<polygon fill="#000000" stroke="#000000" points="365.96,-126.61 375.5,-122 365.17,-119.65 365.96,-126.61"/>
</a>
</g>
</g>
<!-- Node_Ja_111&#45;&gt;Node_Ja_107 -->
<g id="edge15" class="edge">
<title>Node_Ja_111:e&#45;&gt;Node_Ja_107:header</title>
<g id="a_edge15"><a xlink:title="Ja_111 &#45;&#45;&gt; Ja_107">
<path fill="none" stroke="#000000" d="M298,-157C332.1,-157 336.99,-128.5 365.39,-122.94"/>
<polygon fill="#000000" stroke="#000000" points="365.87,-126.41 375.5,-122 365.22,-119.44 365.87,-126.41"/>
</a>
</g>
</g>
<!-- Node_Ja_111&#45;&gt;Node_Ja_107 -->
<g id="edge16" class="edge">
<title>Node_Ja_111:e&#45;&gt;Node_Ja_107:header</title>
<g id="a_edge16"><a xlink:title="Ja_111 &#45;&#45;&gt; Ja_107">
<path fill="none" stroke="#000000" d="M298,-127C328.88,-127 338.91,-123 365.39,-122.16"/>
<polygon fill="#000000" stroke="#000000" points="365.55,-125.65 375.5,-122 365.45,-118.65 365.55,-125.65"/>
</a>
</g>
</g>
<!-- Node_Ja_111&#45;&gt;Node_Ja_106 -->
<g id="edge5" class="edge">
<title>Node_Ja_111:e&#45;&gt;Node_Ja_106:header</title>
<g id="a_edge5"><a xlink:title="Ja_111 &#45;&#45;&gt; Ja_106">
<path fill="none" stroke="#000000" d="M298,-263C359.58,-263 293.61,-520.19 340.74,-549.32"/>
<polygon fill="#000000" stroke="#000000" points="339.93,-552.73 350.5,-552 341.78,-545.98 339.93,-552.73"/>
</a>
</g>
</g>
<!-- Node_Ja_111&#45;&gt;Node_Ja_106 -->
<g id="edge18" class="edge">
<title>Node_Ja_111:e&#45;&gt;Node_Ja_106:header</title>
<g id="a_edge18"><a xlink:title="Ja_111 &#45;&#45;&gt; Ja_106">
<path fill="none" stroke="#000000" d="M298,-293C411.78,-293 244.16,-536.07 340.35,-551.26"/>
<polygon fill="#000000" stroke="#000000" points="340.27,-554.76 350.5,-552 340.78,-547.78 340.27,-554.76"/>
</a>
</g>
</g>
<!-- Node_Ja_100 -->
<g id="node9" class="node">
<title>Node_Ja_100</title>
<g id="a_node9"><a xlink:title="proto.Host">
<polygon fill="#fffaf0" stroke="transparent" points="1011.5,-268.5 1011.5,-345.5 1117.5,-345.5 1117.5,-268.5 1011.5,-268.5"/>
<polygon fill="#e31a1c" stroke="transparent" points="1012.5,-329 1012.5,-344 1116.5,-344 1116.5,-329 1012.5,-329"/>
<text text-anchor="start" x="1088.5" y="-335" font-family="Ubuntu" font-weight="bold" font-size="10.00">Host</text>
<text text-anchor="start" x="1018.5" y="-319" font-family="Ubuntu" font-size="10.00">1</text>
<text text-anchor="start" x="1029.5" y="-319" font-family="Ubuntu" font-size="10.00">address</text>
<polygon fill="#a6cee3" stroke="transparent" points="1084.5,-314 1084.5,-329 1116.5,-329 1116.5,-314 1084.5,-314"/>
<text text-anchor="start" x="1086.5" y="-320" font-family="Ubuntu" font-style="italic" font-size="10.00">string</text>
<text text-anchor="start" x="1018.5" y="-304" font-family="Ubuntu" font-size="10.00">2</text>
<text text-anchor="start" x="1029.5" y="-304" font-family="Ubuntu" font-size="10.00">os_version</text>
<polygon fill="#a6cee3" stroke="transparent" points="1084.5,-299 1084.5,-314 1116.5,-314 1116.5,-299 1084.5,-299"/>
<text text-anchor="start" x="1086.5" y="-305" font-family="Ubuntu" font-style="italic" font-size="10.00">string</text>
<text text-anchor="start" x="1018.5" y="-289" font-family="Ubuntu" font-size="10.00">3</text>
<text text-anchor="start" x="1029.5" y="-289" font-family="Ubuntu" font-size="10.00">state</text>
<polygon fill="#a6cee3" stroke="transparent" points="1084.5,-284 1084.5,-299 1116.5,-299 1116.5,-284 1084.5,-284"/>
<text text-anchor="start" x="1086.5" y="-290" font-family="Ubuntu" font-style="italic" font-size="10.00">string</text>
<text text-anchor="start" x="1018.5" y="-274" font-family="Ubuntu" font-size="10.00">4</text>
<text text-anchor="start" x="1029.5" y="-274" font-family="Ubuntu" font-size="10.00">fqdn</text>
<polygon fill="#a6cee3" stroke="transparent" points="1084.5,-269 1084.5,-284 1116.5,-284 1116.5,-269 1084.5,-269"/>
<text text-anchor="start" x="1086.5" y="-275" font-family="Ubuntu" font-style="italic" font-size="10.00">string</text>
<polygon fill="none" stroke="black" points="1011.5,-268.5 1011.5,-345.5 1117.5,-345.5 1117.5,-268.5 1011.5,-268.5"/>
</a>
</g>
</g>
<!-- Node_Ja_103 -->
<g id="node10" class="node">
<title>Node_Ja_103</title>
<g id="a_node10"><a xlink:title="proto.HostResult">
<polygon fill="#fffaf0" stroke="transparent" points="830.5,-270.5 830.5,-317.5 923.5,-317.5 923.5,-270.5 830.5,-270.5"/>
<polygon fill="#e31a1c" stroke="transparent" points="832,-301 832,-316 923,-316 923,-301 832,-301"/>
<text text-anchor="start" x="860" y="-307" font-family="Ubuntu" font-weight="bold" font-size="10.00">HostResult</text>
<text text-anchor="start" x="855" y="-291" font-family="Ubuntu" font-size="10.00">1</text>
<text text-anchor="start" x="866" y="-291" font-family="Ubuntu" font-size="10.00">host</text>
<polygon fill="#fb9a99" stroke="transparent" points="893,-286 893,-301 923,-301 923,-286 893,-286"/>
<text text-anchor="start" x="895" y="-292" font-family="Ubuntu" font-weight="bold" font-size="10.00">Host</text>
<text text-anchor="start" x="834" y="-276" font-family="Ubuntu" font-size="10.00">[...]</text>
<text text-anchor="start" x="855" y="-276" font-family="Ubuntu" font-size="10.00">2</text>
<text text-anchor="start" x="866" y="-276" font-family="Ubuntu" font-size="10.00">ports</text>
<polygon fill="#fb9a99" stroke="transparent" points="893,-271 893,-286 923,-286 923,-271 893,-271"/>
<text text-anchor="start" x="896" y="-277" font-family="Ubuntu" font-weight="bold" font-size="10.00">Port</text>
<polygon fill="none" stroke="black" points="830.5,-270.5 830.5,-317.5 923.5,-317.5 923.5,-270.5 830.5,-270.5"/>
</a>
</g>
</g>
<!-- Node_Ja_103&#45;&gt;Node_Ja_100 -->
<g id="edge17" class="edge">
<title>Node_Ja_103:e&#45;&gt;Node_Ja_100:header</title>
<g id="a_edge17"><a xlink:title="Ja_103 &#45;&#45;&gt; Ja_100">
<path fill="none" stroke="#000000" d="M924,-293C963.79,-293 967.58,-329.76 1001.18,-336.08"/>
<polygon fill="#000000" stroke="#000000" points="1001.23,-339.6 1011.5,-337 1001.85,-332.63 1001.23,-339.6"/>
</a>
</g>
</g>
<!-- Node_Ja_102 -->
<g id="node12" class="node">
<title>Node_Ja_102</title>
<g id="a_node12"><a xlink:title="proto.Port">
<polygon fill="#fffaf0" stroke="transparent" points="984,-150 984,-242 1145,-242 1145,-150 984,-150"/>
<polygon fill="#e31a1c" stroke="transparent" points="985.5,-226 985.5,-241 1144.5,-241 1144.5,-226 985.5,-226"/>
<text text-anchor="start" x="1117.5" y="-232" font-family="Ubuntu" font-weight="bold" font-size="10.00">Port</text>
<text text-anchor="start" x="991.5" y="-216" font-family="Ubuntu" font-size="10.00">1</text>
<text text-anchor="start" x="1002.5" y="-216" font-family="Ubuntu" font-size="10.00">port_id</text>
<polygon fill="#a6cee3" stroke="transparent" points="1073.5,-211 1073.5,-226 1144.5,-226 1144.5,-211 1073.5,-211"/>
<text text-anchor="start" x="1114.5" y="-217" font-family="Ubuntu" font-style="italic" font-size="10.00">string</text>
<text text-anchor="start" x="991.5" y="-201" font-family="Ubuntu" font-size="10.00">2</text>
<text text-anchor="start" x="1002.5" y="-201" font-family="Ubuntu" font-size="10.00">protocol</text>
<polygon fill="#a6cee3" stroke="transparent" points="1073.5,-196 1073.5,-211 1144.5,-211 1144.5,-196 1073.5,-196"/>
<text text-anchor="start" x="1114.5" y="-202" font-family="Ubuntu" font-style="italic" font-size="10.00">string</text>
<text text-anchor="start" x="991.5" y="-186" font-family="Ubuntu" font-size="10.00">3</text>
<text text-anchor="start" x="1002.5" y="-186" font-family="Ubuntu" font-size="10.00">state</text>
<polygon fill="#a6cee3" stroke="transparent" points="1073.5,-181 1073.5,-196 1144.5,-196 1144.5,-181 1073.5,-181"/>
<text text-anchor="start" x="1114.5" y="-187" font-family="Ubuntu" font-style="italic" font-size="10.00">string</text>
<text text-anchor="start" x="991.5" y="-171" font-family="Ubuntu" font-size="10.00">4</text>
<text text-anchor="start" x="1002.5" y="-171" font-family="Ubuntu" font-size="10.00">service_name</text>
<polygon fill="#a6cee3" stroke="transparent" points="1073.5,-166 1073.5,-181 1144.5,-181 1144.5,-166 1073.5,-166"/>
<text text-anchor="start" x="1114.5" y="-172" font-family="Ubuntu" font-style="italic" font-size="10.00">string</text>
<text text-anchor="start" x="991.5" y="-156" font-family="Ubuntu" font-size="10.00">5</text>
<text text-anchor="start" x="1002.5" y="-156" font-family="Ubuntu" font-size="10.00">version</text>
<polygon fill="#fb9a99" stroke="transparent" points="1073.5,-151 1073.5,-166 1144.5,-166 1144.5,-151 1073.5,-151"/>
<text text-anchor="start" x="1075.5" y="-157" font-family="Ubuntu" font-weight="bold" font-size="10.00">PortVersion</text>
<polygon fill="none" stroke="black" points="984,-150 984,-242 1145,-242 1145,-150 984,-150"/>
</a>
</g>
</g>
<!-- Node_Ja_103&#45;&gt;Node_Ja_102 -->
<g id="edge1" class="edge">
<title>Node_Ja_103:e&#45;&gt;Node_Ja_102:header</title>
<g id="a_edge1"><a xlink:title="Ja_103 &#45;&#45;&gt; Ja_102">
<path fill="none" stroke="#000000" d="M924,-278C953.48,-278 952.11,-243.4 974.6,-235.57"/>
<polygon fill="#000000" stroke="#000000" points="975.17,-239.02 984.5,-234 974.08,-232.11 975.17,-239.02"/>
</a>
</g>
</g>
<!-- Node_Ja_104&#45;&gt;Node_Ja_105 -->
<g id="edge2" class="edge">
<title>Node_Ja_104:e&#45;&gt;Node_Ja_105</title>
<g id="a_edge2"><a xlink:title="Ja_104 &#45;&#45;&gt; Ja_105">
<path fill="none" stroke="#008000" d="M770.5,-177C787.18,-177 805.35,-177 821.84,-177"/>
<polygon fill="#008000" stroke="#008000" points="821.86,-180.5 831.86,-177 821.86,-173.5 821.86,-180.5"/>
</a>
</g>
</g>
<!-- Node_Ja_104&#45;&gt;Node_Ja_103 -->
<g id="edge11" class="edge">
<title>Node_Ja_104:e&#45;&gt;Node_Ja_103:header</title>
<g id="a_edge11"><a xlink:title="Ja_104 &#45;&#45;&gt; Ja_103">
<path fill="none" stroke="#000000" d="M770.5,-253C803.28,-253 796.51,-297.81 820.94,-307.26"/>
<polygon fill="#000000" stroke="#000000" points="820.55,-310.75 831,-309 821.74,-303.85 820.55,-310.75"/>
</a>
</g>
</g>
<!-- Node_Ja_102&#45;&gt;Node_Ja_101 -->
<g id="edge10" class="edge">
<title>Node_Ja_102:e&#45;&gt;Node_Ja_101:header</title>
<g id="a_edge10"><a xlink:title="Ja_102 &#45;&#45;&gt; Ja_101">
<path fill="none" stroke="#000000" d="M1145.5,-158C1164.63,-158 1171.77,-158 1186.97,-158"/>
<polygon fill="#000000" stroke="#000000" points="1187,-161.5 1197,-158 1187,-154.5 1187,-161.5"/>
</a>
</g>
</g>
</g>
</svg>
